<svg width="352" height="479" viewBox="0 0 352 479" fill="none" xmlns="http://www.w3.org/2000/svg">
<g opacity="0.6">
<path d="M58 313.455H15V378.455H58V313.455Z" fill="#00F4DC"/>
</g>
<path d="M58 378.455H15V450.455H58V378.455Z" fill="#00F4DC"/>
<g opacity="0.6">
<path d="M178 197.454H135V335.454H178V197.454Z" fill="#00F4DC"/>
</g>
<path d="M178 335.455H135V449.455H178V335.455Z" fill="#00F4DC"/>
<g opacity="0.6">
<path d="M306 59.4545H263V285.454H306V59.4545Z" fill="#00F4DC"/>
</g>
<path d="M306 285.455H263V450.455H306V285.455Z" fill="#00F4DC"/>
<path d="M8.81 477.455V476.807C10.298 475.535 11.492 474.377 12.392 473.333C13.304 472.277 13.97 471.305 14.39 470.417C14.81 469.517 15.02 468.671 15.02 467.879C15.02 467.339 14.924 466.853 14.732 466.421C14.552 465.977 14.264 465.629 13.868 465.377C13.472 465.125 12.962 464.999 12.338 464.999C11.774 464.999 11.24 465.149 10.736 465.449C10.244 465.749 9.806 466.139 9.422 466.619L8.756 465.989C9.248 465.437 9.788 464.987 10.376 464.639C10.964 464.279 11.654 464.099 12.446 464.099C13.214 464.099 13.868 464.255 14.408 464.567C14.948 464.879 15.362 465.317 15.65 465.881C15.938 466.433 16.082 467.093 16.082 467.861C16.082 468.773 15.854 469.697 15.398 470.633C14.954 471.569 14.312 472.529 13.472 473.513C12.632 474.497 11.63 475.535 10.466 476.627C10.826 476.603 11.186 476.579 11.546 476.555C11.918 476.531 12.278 476.519 12.626 476.519H16.73V477.455H8.81ZM22.4568 477.689C21.6648 477.689 20.9748 477.443 20.3868 476.951C19.8108 476.447 19.3668 475.691 19.0548 474.683C18.7428 473.663 18.5868 472.385 18.5868 470.849C18.5868 469.325 18.7428 468.065 19.0548 467.069C19.3668 466.073 19.8108 465.329 20.3868 464.837C20.9748 464.345 21.6648 464.099 22.4568 464.099C23.2488 464.099 23.9328 464.345 24.5088 464.837C25.0848 465.329 25.5288 466.073 25.8408 467.069C26.1528 468.065 26.3088 469.325 26.3088 470.849C26.3088 472.385 26.1528 473.663 25.8408 474.683C25.5288 475.691 25.0848 476.447 24.5088 476.951C23.9328 477.443 23.2488 477.689 22.4568 477.689ZM22.4568 476.789C23.0208 476.789 23.5128 476.573 23.9328 476.141C24.3648 475.697 24.6948 475.037 24.9228 474.161C25.1508 473.273 25.2648 472.169 25.2648 470.849C25.2648 469.553 25.1508 468.467 24.9228 467.591C24.6948 466.715 24.3648 466.061 23.9328 465.629C23.5128 465.197 23.0208 464.981 22.4568 464.981C21.8928 464.981 21.3948 465.197 20.9628 465.629C20.5428 466.061 20.2128 466.715 19.9728 467.591C19.7448 468.467 19.6308 469.553 19.6308 470.849C19.6308 472.169 19.7448 473.273 19.9728 474.161C20.2128 475.037 20.5428 475.697 20.9628 476.141C21.3948 476.573 21.8928 476.789 22.4568 476.789ZM28.0756 477.455V476.807C29.5636 475.535 30.7576 474.377 31.6576 473.333C32.5696 472.277 33.2356 471.305 33.6556 470.417C34.0756 469.517 34.2856 468.671 34.2856 467.879C34.2856 467.339 34.1896 466.853 33.9976 466.421C33.8176 465.977 33.5296 465.629 33.1336 465.377C32.7376 465.125 32.2276 464.999 31.6036 464.999C31.0396 464.999 30.5056 465.149 30.0016 465.449C29.5096 465.749 29.0716 466.139 28.6876 466.619L28.0216 465.989C28.5136 465.437 29.0536 464.987 29.6416 464.639C30.2296 464.279 30.9196 464.099 31.7116 464.099C32.4796 464.099 33.1336 464.255 33.6736 464.567C34.2136 464.879 34.6276 465.317 34.9156 465.881C35.2036 466.433 35.3476 467.093 35.3476 467.861C35.3476 468.773 35.1196 469.697 34.6636 470.633C34.2196 471.569 33.5776 472.529 32.7376 473.513C31.8976 474.497 30.8956 475.535 29.7316 476.627C30.0916 476.603 30.4516 476.579 30.8116 476.555C31.1836 476.531 31.5436 476.519 31.8916 476.519H35.9956V477.455H28.0756ZM41.5244 477.689C40.8524 477.689 40.2644 477.605 39.7604 477.437C39.2564 477.257 38.8124 477.029 38.4284 476.753C38.0564 476.477 37.7384 476.189 37.4744 475.889L38.0504 475.187C38.4344 475.583 38.8964 475.949 39.4364 476.285C39.9764 476.609 40.6664 476.771 41.5064 476.771C42.0824 476.771 42.5864 476.657 43.0184 476.429C43.4504 476.201 43.7924 475.877 44.0444 475.457C44.2964 475.037 44.4224 474.545 44.4224 473.981C44.4224 473.393 44.2724 472.877 43.9724 472.433C43.6844 471.989 43.2224 471.647 42.5864 471.407C41.9504 471.167 41.1104 471.047 40.0664 471.047V470.147C41.0384 470.147 41.8004 470.021 42.3524 469.769C42.9164 469.517 43.3184 469.181 43.5584 468.761C43.8104 468.329 43.9364 467.849 43.9364 467.321C43.9364 466.625 43.7144 466.067 43.2704 465.647C42.8264 465.215 42.2264 464.999 41.4704 464.999C40.8944 464.999 40.3604 465.131 39.8684 465.395C39.3764 465.647 38.9564 465.965 38.6084 466.349L37.9964 465.629C38.4524 465.209 38.9624 464.849 39.5264 464.549C40.0904 464.249 40.7444 464.099 41.4884 464.099C42.1604 464.099 42.7664 464.225 43.3064 464.477C43.8464 464.729 44.2724 465.089 44.5844 465.557C44.8964 466.025 45.0524 466.595 45.0524 467.267C45.0524 468.119 44.8244 468.815 44.3684 469.355C43.9124 469.895 43.3364 470.279 42.6404 470.507V470.597C43.1564 470.705 43.6304 470.909 44.0624 471.209C44.5064 471.509 44.8544 471.893 45.1064 472.361C45.3704 472.829 45.5024 473.369 45.5024 473.981C45.5024 474.737 45.3224 475.397 44.9624 475.961C44.6144 476.513 44.1404 476.939 43.5404 477.239C42.9404 477.539 42.2684 477.689 41.5244 477.689ZM51.8232 462.371L52.6873 462.605C52.3513 463.481 51.9553 464.333 51.4993 465.161C51.0433 465.977 50.5453 466.739 50.0053 467.447C49.4773 468.143 48.9193 468.761 48.3313 469.301C48.2833 469.265 48.2113 469.211 48.1153 469.139C48.0313 469.067 47.9413 468.995 47.8453 468.923C47.7493 468.851 47.6593 468.797 47.5753 468.761C48.1753 468.245 48.7393 467.651 49.2673 466.979C49.7953 466.307 50.2753 465.581 50.7073 464.801C51.1393 464.009 51.5113 463.199 51.8232 462.371ZM51.1572 464.729H62.8753V465.557H50.7253L51.1572 464.729ZM50.5093 468.707H62.4613V469.535H51.3733V474.071H50.5093V468.707ZM47.4673 473.621H63.6313V474.467H47.4673V473.621ZM55.9633 465.179H56.8453V478.805H55.9633V465.179Z" fill="white"/>
<path d="M71.626 448.689C70.954 448.689 70.366 448.605 69.862 448.437C69.358 448.257 68.914 448.029 68.53 447.753C68.158 447.477 67.84 447.189 67.576 446.889L68.152 446.187C68.536 446.583 68.998 446.949 69.538 447.285C70.078 447.609 70.768 447.771 71.608 447.771C72.184 447.771 72.688 447.657 73.12 447.429C73.552 447.201 73.894 446.877 74.146 446.457C74.398 446.037 74.524 445.545 74.524 444.981C74.524 444.393 74.374 443.877 74.074 443.433C73.786 442.989 73.324 442.647 72.688 442.407C72.052 442.167 71.212 442.047 70.168 442.047V441.147C71.14 441.147 71.902 441.021 72.454 440.769C73.018 440.517 73.42 440.181 73.66 439.761C73.912 439.329 74.038 438.849 74.038 438.321C74.038 437.625 73.816 437.067 73.372 436.647C72.928 436.215 72.328 435.999 71.572 435.999C70.996 435.999 70.462 436.131 69.97 436.395C69.478 436.647 69.058 436.965 68.71 437.349L68.098 436.629C68.554 436.209 69.064 435.849 69.628 435.549C70.192 435.249 70.846 435.099 71.59 435.099C72.262 435.099 72.868 435.225 73.408 435.477C73.948 435.729 74.374 436.089 74.686 436.557C74.998 437.025 75.154 437.595 75.154 438.267C75.154 439.119 74.926 439.815 74.47 440.355C74.014 440.895 73.438 441.279 72.742 441.507V441.597C73.258 441.705 73.732 441.909 74.164 442.209C74.608 442.509 74.956 442.893 75.208 443.361C75.472 443.829 75.604 444.369 75.604 444.981C75.604 445.737 75.424 446.397 75.064 446.961C74.716 447.513 74.242 447.939 73.642 448.239C73.042 448.539 72.37 448.689 71.626 448.689ZM81.2588 448.689C80.5868 448.689 79.9988 448.605 79.4948 448.437C78.9908 448.257 78.5468 448.029 78.1628 447.753C77.7908 447.477 77.4728 447.189 77.2088 446.889L77.7848 446.187C78.1688 446.583 78.6308 446.949 79.1708 447.285C79.7108 447.609 80.4008 447.771 81.2408 447.771C81.8168 447.771 82.3208 447.657 82.7528 447.429C83.1848 447.201 83.5268 446.877 83.7788 446.457C84.0308 446.037 84.1568 445.545 84.1568 444.981C84.1568 444.393 84.0068 443.877 83.7068 443.433C83.4188 442.989 82.9568 442.647 82.3208 442.407C81.6848 442.167 80.8448 442.047 79.8008 442.047V441.147C80.7728 441.147 81.5348 441.021 82.0868 440.769C82.6508 440.517 83.0528 440.181 83.2928 439.761C83.5448 439.329 83.6708 438.849 83.6708 438.321C83.6708 437.625 83.4488 437.067 83.0048 436.647C82.5608 436.215 81.9608 435.999 81.2048 435.999C80.6288 435.999 80.0948 436.131 79.6028 436.395C79.1108 436.647 78.6908 436.965 78.3428 437.349L77.7308 436.629C78.1868 436.209 78.6968 435.849 79.2608 435.549C79.8248 435.249 80.4788 435.099 81.2228 435.099C81.8948 435.099 82.5008 435.225 83.0408 435.477C83.5808 435.729 84.0068 436.089 84.3188 436.557C84.6308 437.025 84.7868 437.595 84.7868 438.267C84.7868 439.119 84.5588 439.815 84.1028 440.355C83.6468 440.895 83.0708 441.279 82.3748 441.507V441.597C82.8908 441.705 83.3648 441.909 83.7968 442.209C84.2408 442.509 84.5888 442.893 84.8408 443.361C85.1048 443.829 85.2368 444.369 85.2368 444.981C85.2368 445.737 85.0568 446.397 84.6968 446.961C84.3488 447.513 83.8748 447.939 83.2748 448.239C82.6748 448.539 82.0028 448.689 81.2588 448.689ZM91.0896 448.689C90.2976 448.689 89.6076 448.443 89.0196 447.951C88.4436 447.447 87.9996 446.691 87.6876 445.683C87.3756 444.663 87.2196 443.385 87.2196 441.849C87.2196 440.325 87.3756 439.065 87.6876 438.069C87.9996 437.073 88.4436 436.329 89.0196 435.837C89.6076 435.345 90.2976 435.099 91.0896 435.099C91.8816 435.099 92.5656 435.345 93.1416 435.837C93.7176 436.329 94.1616 437.073 94.4736 438.069C94.7856 439.065 94.9416 440.325 94.9416 441.849C94.9416 443.385 94.7856 444.663 94.4736 445.683C94.1616 446.691 93.7176 447.447 93.1416 447.951C92.5656 448.443 91.8816 448.689 91.0896 448.689ZM91.0896 447.789C91.6536 447.789 92.1456 447.573 92.5656 447.141C92.9976 446.697 93.3276 446.037 93.5556 445.161C93.7836 444.273 93.8976 443.169 93.8976 441.849C93.8976 440.553 93.7836 439.467 93.5556 438.591C93.3276 437.715 92.9976 437.061 92.5656 436.629C92.1456 436.197 91.6536 435.981 91.0896 435.981C90.5256 435.981 90.0276 436.197 89.5956 436.629C89.1756 437.061 88.8456 437.715 88.6056 438.591C88.3776 439.467 88.2636 440.553 88.2636 441.849C88.2636 443.169 88.3776 444.273 88.6056 445.161C88.8456 446.037 89.1756 446.697 89.5956 447.141C90.0276 447.573 90.5256 447.789 91.0896 447.789Z" fill="white"/>
<path d="M71.626 378.689C70.954 378.689 70.366 378.605 69.862 378.437C69.358 378.257 68.914 378.029 68.53 377.753C68.158 377.477 67.84 377.189 67.576 376.889L68.152 376.187C68.536 376.583 68.998 376.949 69.538 377.285C70.078 377.609 70.768 377.771 71.608 377.771C72.184 377.771 72.688 377.657 73.12 377.429C73.552 377.201 73.894 376.877 74.146 376.457C74.398 376.037 74.524 375.545 74.524 374.981C74.524 374.393 74.374 373.877 74.074 373.433C73.786 372.989 73.324 372.647 72.688 372.407C72.052 372.167 71.212 372.047 70.168 372.047V371.147C71.14 371.147 71.902 371.021 72.454 370.769C73.018 370.517 73.42 370.181 73.66 369.761C73.912 369.329 74.038 368.849 74.038 368.321C74.038 367.625 73.816 367.067 73.372 366.647C72.928 366.215 72.328 365.999 71.572 365.999C70.996 365.999 70.462 366.131 69.97 366.395C69.478 366.647 69.058 366.965 68.71 367.349L68.098 366.629C68.554 366.209 69.064 365.849 69.628 365.549C70.192 365.249 70.846 365.099 71.59 365.099C72.262 365.099 72.868 365.225 73.408 365.477C73.948 365.729 74.374 366.089 74.686 366.557C74.998 367.025 75.154 367.595 75.154 368.267C75.154 369.119 74.926 369.815 74.47 370.355C74.014 370.895 73.438 371.279 72.742 371.507V371.597C73.258 371.705 73.732 371.909 74.164 372.209C74.608 372.509 74.956 372.893 75.208 373.361C75.472 373.829 75.604 374.369 75.604 374.981C75.604 375.737 75.424 376.397 75.064 376.961C74.716 377.513 74.242 377.939 73.642 378.239C73.042 378.539 72.37 378.689 71.626 378.689ZM81.4568 378.689C80.6648 378.689 79.9748 378.443 79.3868 377.951C78.8108 377.447 78.3668 376.691 78.0548 375.683C77.7428 374.663 77.5868 373.385 77.5868 371.849C77.5868 370.325 77.7428 369.065 78.0548 368.069C78.3668 367.073 78.8108 366.329 79.3868 365.837C79.9748 365.345 80.6648 365.099 81.4568 365.099C82.2488 365.099 82.9328 365.345 83.5088 365.837C84.0848 366.329 84.5288 367.073 84.8408 368.069C85.1528 369.065 85.3088 370.325 85.3088 371.849C85.3088 373.385 85.1528 374.663 84.8408 375.683C84.5288 376.691 84.0848 377.447 83.5088 377.951C82.9328 378.443 82.2488 378.689 81.4568 378.689ZM81.4568 377.789C82.0208 377.789 82.5128 377.573 82.9328 377.141C83.3648 376.697 83.6948 376.037 83.9228 375.161C84.1508 374.273 84.2648 373.169 84.2648 371.849C84.2648 370.553 84.1508 369.467 83.9228 368.591C83.6948 367.715 83.3648 367.061 82.9328 366.629C82.5128 366.197 82.0208 365.981 81.4568 365.981C80.8928 365.981 80.3948 366.197 79.9628 366.629C79.5428 367.061 79.2128 367.715 78.9728 368.591C78.7448 369.467 78.6308 370.553 78.6308 371.849C78.6308 373.169 78.7448 374.273 78.9728 375.161C79.2128 376.037 79.5428 376.697 79.9628 377.141C80.3948 377.573 80.8928 377.789 81.4568 377.789ZM91.0896 378.689C90.2976 378.689 89.6076 378.443 89.0196 377.951C88.4436 377.447 87.9996 376.691 87.6876 375.683C87.3756 374.663 87.2196 373.385 87.2196 371.849C87.2196 370.325 87.3756 369.065 87.6876 368.069C87.9996 367.073 88.4436 366.329 89.0196 365.837C89.6076 365.345 90.2976 365.099 91.0896 365.099C91.8816 365.099 92.5656 365.345 93.1416 365.837C93.7176 366.329 94.1616 367.073 94.4736 368.069C94.7856 369.065 94.9416 370.325 94.9416 371.849C94.9416 373.385 94.7856 374.663 94.4736 375.683C94.1616 376.691 93.7176 377.447 93.1416 377.951C92.5656 378.443 91.8816 378.689 91.0896 378.689ZM91.0896 377.789C91.6536 377.789 92.1456 377.573 92.5656 377.141C92.9976 376.697 93.3276 376.037 93.5556 375.161C93.7836 374.273 93.8976 373.169 93.8976 371.849C93.8976 370.553 93.7836 369.467 93.5556 368.591C93.3276 367.715 92.9976 367.061 92.5656 366.629C92.1456 366.197 91.6536 365.981 91.0896 365.981C90.5256 365.981 90.0276 366.197 89.5956 366.629C89.1756 367.061 88.8456 367.715 88.6056 368.591C88.3776 369.467 88.2636 370.553 88.2636 371.849C88.2636 373.169 88.3776 374.273 88.6056 375.161C88.8456 376.037 89.1756 376.697 89.5956 377.141C90.0276 377.573 90.5256 377.789 91.0896 377.789Z" fill="white"/>
<path d="M193.554 448.689C192.882 448.689 192.294 448.605 191.79 448.437C191.286 448.257 190.848 448.041 190.476 447.789C190.116 447.525 189.792 447.255 189.504 446.979L190.098 446.241C190.35 446.505 190.632 446.757 190.944 446.997C191.256 447.225 191.622 447.411 192.042 447.555C192.462 447.699 192.954 447.771 193.518 447.771C194.07 447.771 194.58 447.633 195.048 447.357C195.516 447.069 195.888 446.661 196.164 446.133C196.44 445.593 196.578 444.975 196.578 444.279C196.578 443.235 196.302 442.413 195.75 441.813C195.21 441.213 194.484 440.913 193.572 440.913C193.104 440.913 192.69 440.991 192.33 441.147C191.982 441.291 191.622 441.489 191.25 441.741L190.566 441.327L191.016 435.333H197.01V436.269H191.952L191.574 440.661C191.886 440.469 192.216 440.319 192.564 440.211C192.924 440.103 193.326 440.049 193.77 440.049C194.49 440.049 195.144 440.199 195.732 440.499C196.332 440.787 196.806 441.243 197.154 441.867C197.502 442.479 197.676 443.271 197.676 444.243C197.676 445.191 197.472 445.995 197.064 446.655C196.668 447.315 196.158 447.819 195.534 448.167C194.91 448.515 194.25 448.689 193.554 448.689ZM199.443 448.455V447.807C200.931 446.535 202.125 445.377 203.025 444.333C203.937 443.277 204.603 442.305 205.023 441.417C205.443 440.517 205.653 439.671 205.653 438.879C205.653 438.339 205.557 437.853 205.365 437.421C205.185 436.977 204.897 436.629 204.501 436.377C204.105 436.125 203.595 435.999 202.971 435.999C202.407 435.999 201.873 436.149 201.369 436.449C200.877 436.749 200.439 437.139 200.055 437.619L199.389 436.989C199.881 436.437 200.421 435.987 201.009 435.639C201.597 435.279 202.287 435.099 203.079 435.099C203.847 435.099 204.501 435.255 205.041 435.567C205.581 435.879 205.995 436.317 206.283 436.881C206.571 437.433 206.715 438.093 206.715 438.861C206.715 439.773 206.487 440.697 206.031 441.633C205.587 442.569 204.945 443.529 204.105 444.513C203.265 445.497 202.263 446.535 201.099 447.627C201.459 447.603 201.819 447.579 202.179 447.555C202.551 447.531 202.911 447.519 203.259 447.519H207.363V448.455H199.443ZM212.82 448.689C212.148 448.689 211.56 448.605 211.056 448.437C210.552 448.257 210.114 448.041 209.742 447.789C209.382 447.525 209.058 447.255 208.77 446.979L209.364 446.241C209.616 446.505 209.898 446.757 210.21 446.997C210.522 447.225 210.888 447.411 211.308 447.555C211.728 447.699 212.22 447.771 212.784 447.771C213.336 447.771 213.846 447.633 214.314 447.357C214.782 447.069 215.154 446.661 215.43 446.133C215.706 445.593 215.844 444.975 215.844 444.279C215.844 443.235 215.568 442.413 215.016 441.813C214.476 441.213 213.75 440.913 212.838 440.913C212.37 440.913 211.956 440.991 211.596 441.147C211.248 441.291 210.888 441.489 210.516 441.741L209.832 441.327L210.282 435.333H216.276V436.269H211.218L210.84 440.661C211.152 440.469 211.482 440.319 211.83 440.211C212.19 440.103 212.592 440.049 213.036 440.049C213.756 440.049 214.41 440.199 214.998 440.499C215.598 440.787 216.072 441.243 216.42 441.867C216.768 442.479 216.942 443.271 216.942 444.243C216.942 445.191 216.738 445.995 216.33 446.655C215.934 447.315 215.424 447.819 214.8 448.167C214.176 448.515 213.516 448.689 212.82 448.689Z" fill="white"/>
<path d="M194.274 335.689C193.638 335.689 193.062 335.551 192.546 335.275C192.03 334.999 191.586 334.591 191.214 334.051C190.854 333.499 190.572 332.827 190.368 332.035C190.164 331.243 190.062 330.325 190.062 329.281C190.062 327.949 190.188 326.827 190.44 325.915C190.704 324.991 191.052 324.253 191.484 323.701C191.928 323.137 192.432 322.729 192.996 322.477C193.572 322.225 194.166 322.099 194.778 322.099C195.39 322.099 195.924 322.219 196.38 322.459C196.836 322.687 197.232 322.987 197.568 323.359L196.938 324.025C196.662 323.701 196.338 323.449 195.966 323.269C195.594 323.089 195.204 322.999 194.796 322.999C194.136 322.999 193.524 323.197 192.96 323.593C192.396 323.989 191.94 324.649 191.592 325.573C191.256 326.485 191.088 327.721 191.088 329.281C191.088 330.385 191.202 331.357 191.43 332.197C191.67 333.025 192.024 333.667 192.492 334.123C192.972 334.579 193.572 334.807 194.292 334.807C194.772 334.807 195.198 334.663 195.57 334.375C195.942 334.087 196.236 333.691 196.452 333.187C196.668 332.683 196.776 332.119 196.776 331.495C196.776 330.859 196.68 330.295 196.488 329.803C196.308 329.299 196.02 328.909 195.624 328.633C195.24 328.357 194.736 328.219 194.112 328.219C193.656 328.219 193.152 328.369 192.6 328.669C192.06 328.969 191.532 329.479 191.016 330.199L190.998 329.191C191.298 328.819 191.622 328.501 191.97 328.237C192.318 327.961 192.684 327.751 193.068 327.607C193.464 327.463 193.854 327.391 194.238 327.391C194.982 327.391 195.618 327.547 196.146 327.859C196.686 328.159 197.1 328.615 197.388 329.227C197.676 329.827 197.82 330.583 197.82 331.495C197.82 332.311 197.658 333.037 197.334 333.673C197.01 334.297 196.578 334.789 196.038 335.149C195.498 335.509 194.91 335.689 194.274 335.689ZM203.259 335.689C202.587 335.689 201.999 335.605 201.495 335.437C200.991 335.257 200.547 335.029 200.163 334.753C199.791 334.477 199.473 334.189 199.209 333.889L199.785 333.187C200.169 333.583 200.631 333.949 201.171 334.285C201.711 334.609 202.401 334.771 203.241 334.771C203.817 334.771 204.321 334.657 204.753 334.429C205.185 334.201 205.527 333.877 205.779 333.457C206.031 333.037 206.157 332.545 206.157 331.981C206.157 331.393 206.007 330.877 205.707 330.433C205.419 329.989 204.957 329.647 204.321 329.407C203.685 329.167 202.845 329.047 201.801 329.047V328.147C202.773 328.147 203.535 328.021 204.087 327.769C204.651 327.517 205.053 327.181 205.293 326.761C205.545 326.329 205.671 325.849 205.671 325.321C205.671 324.625 205.449 324.067 205.005 323.647C204.561 323.215 203.961 322.999 203.205 322.999C202.629 322.999 202.095 323.131 201.603 323.395C201.111 323.647 200.691 323.965 200.343 324.349L199.731 323.629C200.187 323.209 200.697 322.849 201.261 322.549C201.825 322.249 202.479 322.099 203.223 322.099C203.895 322.099 204.501 322.225 205.041 322.477C205.581 322.729 206.007 323.089 206.319 323.557C206.631 324.025 206.787 324.595 206.787 325.267C206.787 326.119 206.559 326.815 206.103 327.355C205.647 327.895 205.071 328.279 204.375 328.507V328.597C204.891 328.705 205.365 328.909 205.797 329.209C206.241 329.509 206.589 329.893 206.841 330.361C207.105 330.829 207.237 331.369 207.237 331.981C207.237 332.737 207.057 333.397 206.697 333.961C206.349 334.513 205.875 334.939 205.275 335.239C204.675 335.539 204.003 335.689 203.259 335.689ZM212.82 335.689C212.148 335.689 211.56 335.605 211.056 335.437C210.552 335.257 210.114 335.041 209.742 334.789C209.382 334.525 209.058 334.255 208.77 333.979L209.364 333.241C209.616 333.505 209.898 333.757 210.21 333.997C210.522 334.225 210.888 334.411 211.308 334.555C211.728 334.699 212.22 334.771 212.784 334.771C213.336 334.771 213.846 334.633 214.314 334.357C214.782 334.069 215.154 333.661 215.43 333.133C215.706 332.593 215.844 331.975 215.844 331.279C215.844 330.235 215.568 329.413 215.016 328.813C214.476 328.213 213.75 327.913 212.838 327.913C212.37 327.913 211.956 327.991 211.596 328.147C211.248 328.291 210.888 328.489 210.516 328.741L209.832 328.327L210.282 322.333H216.276V323.269H211.218L210.84 327.661C211.152 327.469 211.482 327.319 211.83 327.211C212.19 327.103 212.592 327.049 213.036 327.049C213.756 327.049 214.41 327.199 214.998 327.499C215.598 327.787 216.072 328.243 216.42 328.867C216.768 329.479 216.942 330.271 216.942 331.243C216.942 332.191 216.738 332.995 216.33 333.655C215.934 334.315 215.424 334.819 214.8 335.167C214.176 335.515 213.516 335.689 212.82 335.689Z" fill="white"/>
<path d="M317.69 448.455C317.75 447.147 317.858 445.947 318.014 444.855C318.17 443.751 318.398 442.719 318.698 441.759C318.998 440.799 319.376 439.869 319.832 438.969C320.3 438.069 320.858 437.169 321.506 436.269H314.864V435.333H322.784V435.963C322.016 436.983 321.38 437.967 320.876 438.915C320.384 439.863 319.994 440.829 319.706 441.813C319.43 442.797 319.226 443.829 319.094 444.909C318.962 445.989 318.872 447.171 318.824 448.455H317.69ZM328.187 448.689C327.515 448.689 326.927 448.605 326.423 448.437C325.919 448.257 325.481 448.041 325.109 447.789C324.749 447.525 324.425 447.255 324.137 446.979L324.731 446.241C324.983 446.505 325.265 446.757 325.577 446.997C325.889 447.225 326.255 447.411 326.675 447.555C327.095 447.699 327.587 447.771 328.151 447.771C328.703 447.771 329.213 447.633 329.681 447.357C330.149 447.069 330.521 446.661 330.797 446.133C331.073 445.593 331.211 444.975 331.211 444.279C331.211 443.235 330.935 442.413 330.383 441.813C329.843 441.213 329.117 440.913 328.205 440.913C327.737 440.913 327.323 440.991 326.963 441.147C326.615 441.291 326.255 441.489 325.883 441.741L325.199 441.327L325.649 435.333H331.643V436.269H326.585L326.207 440.661C326.519 440.469 326.849 440.319 327.197 440.211C327.557 440.103 327.959 440.049 328.403 440.049C329.123 440.049 329.777 440.199 330.365 440.499C330.965 440.787 331.439 441.243 331.787 441.867C332.135 442.479 332.309 443.271 332.309 444.243C332.309 445.191 332.105 445.995 331.697 446.655C331.301 447.315 330.791 447.819 330.167 448.167C329.543 448.515 328.883 448.689 328.187 448.689ZM337.82 448.689C337.148 448.689 336.56 448.605 336.056 448.437C335.552 448.257 335.114 448.041 334.742 447.789C334.382 447.525 334.058 447.255 333.77 446.979L334.364 446.241C334.616 446.505 334.898 446.757 335.21 446.997C335.522 447.225 335.888 447.411 336.308 447.555C336.728 447.699 337.22 447.771 337.784 447.771C338.336 447.771 338.846 447.633 339.314 447.357C339.782 447.069 340.154 446.661 340.43 446.133C340.706 445.593 340.844 444.975 340.844 444.279C340.844 443.235 340.568 442.413 340.016 441.813C339.476 441.213 338.75 440.913 337.838 440.913C337.37 440.913 336.956 440.991 336.596 441.147C336.248 441.291 335.888 441.489 335.516 441.741L334.832 441.327L335.282 435.333H341.276V436.269H336.218L335.84 440.661C336.152 440.469 336.482 440.319 336.83 440.211C337.19 440.103 337.592 440.049 338.036 440.049C338.756 440.049 339.41 440.199 339.998 440.499C340.598 440.787 341.072 441.243 341.42 441.867C341.768 442.479 341.942 443.271 341.942 444.243C341.942 445.191 341.738 445.995 341.33 446.655C340.934 447.315 340.424 447.819 339.8 448.167C339.176 448.515 338.516 448.689 337.82 448.689Z" fill="white"/>
<path d="M315.656 285.455V284.537H318.644V273.881H316.322V273.161C316.862 273.065 317.336 272.951 317.744 272.819C318.164 272.675 318.53 272.513 318.842 272.333H319.688V284.537H322.424V285.455H315.656ZM328.457 285.689C327.665 285.689 326.975 285.443 326.387 284.951C325.811 284.447 325.367 283.691 325.055 282.683C324.743 281.663 324.587 280.385 324.587 278.849C324.587 277.325 324.743 276.065 325.055 275.069C325.367 274.073 325.811 273.329 326.387 272.837C326.975 272.345 327.665 272.099 328.457 272.099C329.249 272.099 329.933 272.345 330.509 272.837C331.085 273.329 331.529 274.073 331.841 275.069C332.153 276.065 332.309 277.325 332.309 278.849C332.309 280.385 332.153 281.663 331.841 282.683C331.529 283.691 331.085 284.447 330.509 284.951C329.933 285.443 329.249 285.689 328.457 285.689ZM328.457 284.789C329.021 284.789 329.513 284.573 329.933 284.141C330.365 283.697 330.695 283.037 330.923 282.161C331.151 281.273 331.265 280.169 331.265 278.849C331.265 277.553 331.151 276.467 330.923 275.591C330.695 274.715 330.365 274.061 329.933 273.629C329.513 273.197 329.021 272.981 328.457 272.981C327.893 272.981 327.395 273.197 326.963 273.629C326.543 274.061 326.213 274.715 325.973 275.591C325.745 276.467 325.631 277.553 325.631 278.849C325.631 280.169 325.745 281.273 325.973 282.161C326.213 283.037 326.543 283.697 326.963 284.141C327.395 284.573 327.893 284.789 328.457 284.789ZM337.892 285.689C337.22 285.689 336.632 285.605 336.128 285.437C335.624 285.257 335.18 285.029 334.796 284.753C334.424 284.477 334.106 284.189 333.842 283.889L334.418 283.187C334.802 283.583 335.264 283.949 335.804 284.285C336.344 284.609 337.034 284.771 337.874 284.771C338.45 284.771 338.954 284.657 339.386 284.429C339.818 284.201 340.16 283.877 340.412 283.457C340.664 283.037 340.79 282.545 340.79 281.981C340.79 281.393 340.64 280.877 340.34 280.433C340.052 279.989 339.59 279.647 338.954 279.407C338.318 279.167 337.478 279.047 336.434 279.047V278.147C337.406 278.147 338.168 278.021 338.72 277.769C339.284 277.517 339.686 277.181 339.926 276.761C340.178 276.329 340.304 275.849 340.304 275.321C340.304 274.625 340.082 274.067 339.638 273.647C339.194 273.215 338.594 272.999 337.838 272.999C337.262 272.999 336.728 273.131 336.236 273.395C335.744 273.647 335.324 273.965 334.976 274.349L334.364 273.629C334.82 273.209 335.33 272.849 335.894 272.549C336.458 272.249 337.112 272.099 337.856 272.099C338.528 272.099 339.134 272.225 339.674 272.477C340.214 272.729 340.64 273.089 340.952 273.557C341.264 274.025 341.42 274.595 341.42 275.267C341.42 276.119 341.192 276.815 340.736 277.355C340.28 277.895 339.704 278.279 339.008 278.507V278.597C339.524 278.705 339.998 278.909 340.43 279.209C340.874 279.509 341.222 279.893 341.474 280.361C341.738 280.829 341.87 281.369 341.87 281.981C341.87 282.737 341.69 283.397 341.33 283.961C340.982 284.513 340.508 284.939 339.908 285.239C339.308 285.539 338.636 285.689 337.892 285.689ZM347.452 285.689C346.78 285.689 346.192 285.605 345.688 285.437C345.184 285.257 344.746 285.041 344.374 284.789C344.014 284.525 343.69 284.255 343.402 283.979L343.996 283.241C344.248 283.505 344.53 283.757 344.842 283.997C345.154 284.225 345.52 284.411 345.94 284.555C346.36 284.699 346.852 284.771 347.416 284.771C347.968 284.771 348.478 284.633 348.946 284.357C349.414 284.069 349.786 283.661 350.062 283.133C350.338 282.593 350.476 281.975 350.476 281.279C350.476 280.235 350.2 279.413 349.648 278.813C349.108 278.213 348.382 277.913 347.47 277.913C347.002 277.913 346.588 277.991 346.228 278.147C345.88 278.291 345.52 278.489 345.148 278.741L344.464 278.327L344.914 272.333H350.908V273.269H345.85L345.472 277.661C345.784 277.469 346.114 277.319 346.462 277.211C346.822 277.103 347.224 277.049 347.668 277.049C348.388 277.049 349.042 277.199 349.63 277.499C350.23 277.787 350.704 278.243 351.052 278.867C351.4 279.479 351.574 280.271 351.574 281.243C351.574 282.191 351.37 282.995 350.962 283.655C350.566 284.315 350.056 284.819 349.432 285.167C348.808 285.515 348.148 285.689 347.452 285.689Z" fill="white"/>
<path d="M128.81 477.455V476.807C130.298 475.535 131.492 474.377 132.392 473.333C133.304 472.277 133.97 471.305 134.39 470.417C134.81 469.517 135.02 468.671 135.02 467.879C135.02 467.339 134.924 466.853 134.732 466.421C134.552 465.977 134.264 465.629 133.868 465.377C133.472 465.125 132.962 464.999 132.338 464.999C131.774 464.999 131.24 465.149 130.736 465.449C130.244 465.749 129.806 466.139 129.422 466.619L128.756 465.989C129.248 465.437 129.788 464.987 130.376 464.639C130.964 464.279 131.654 464.099 132.446 464.099C133.214 464.099 133.868 464.255 134.408 464.567C134.948 464.879 135.362 465.317 135.65 465.881C135.938 466.433 136.082 467.093 136.082 467.861C136.082 468.773 135.854 469.697 135.398 470.633C134.954 471.569 134.312 472.529 133.472 473.513C132.632 474.497 131.63 475.535 130.466 476.627C130.826 476.603 131.186 476.579 131.546 476.555C131.918 476.531 132.278 476.519 132.626 476.519H136.73V477.455H128.81ZM142.457 477.689C141.665 477.689 140.975 477.443 140.387 476.951C139.811 476.447 139.367 475.691 139.055 474.683C138.743 473.663 138.587 472.385 138.587 470.849C138.587 469.325 138.743 468.065 139.055 467.069C139.367 466.073 139.811 465.329 140.387 464.837C140.975 464.345 141.665 464.099 142.457 464.099C143.249 464.099 143.933 464.345 144.509 464.837C145.085 465.329 145.529 466.073 145.841 467.069C146.153 468.065 146.309 469.325 146.309 470.849C146.309 472.385 146.153 473.663 145.841 474.683C145.529 475.691 145.085 476.447 144.509 476.951C143.933 477.443 143.249 477.689 142.457 477.689ZM142.457 476.789C143.021 476.789 143.513 476.573 143.933 476.141C144.365 475.697 144.695 475.037 144.923 474.161C145.151 473.273 145.265 472.169 145.265 470.849C145.265 469.553 145.151 468.467 144.923 467.591C144.695 466.715 144.365 466.061 143.933 465.629C143.513 465.197 143.021 464.981 142.457 464.981C141.893 464.981 141.395 465.197 140.963 465.629C140.543 466.061 140.213 466.715 139.973 467.591C139.745 468.467 139.631 469.553 139.631 470.849C139.631 472.169 139.745 473.273 139.973 474.161C140.213 475.037 140.543 475.697 140.963 476.141C141.395 476.573 141.893 476.789 142.457 476.789ZM151.892 477.689C151.22 477.689 150.632 477.605 150.128 477.437C149.624 477.257 149.18 477.029 148.796 476.753C148.424 476.477 148.106 476.189 147.842 475.889L148.418 475.187C148.802 475.583 149.264 475.949 149.804 476.285C150.344 476.609 151.034 476.771 151.874 476.771C152.45 476.771 152.954 476.657 153.386 476.429C153.818 476.201 154.16 475.877 154.412 475.457C154.664 475.037 154.79 474.545 154.79 473.981C154.79 473.393 154.64 472.877 154.34 472.433C154.052 471.989 153.59 471.647 152.954 471.407C152.318 471.167 151.478 471.047 150.434 471.047V470.147C151.406 470.147 152.168 470.021 152.72 469.769C153.284 469.517 153.686 469.181 153.926 468.761C154.178 468.329 154.304 467.849 154.304 467.321C154.304 466.625 154.082 466.067 153.638 465.647C153.194 465.215 152.594 464.999 151.838 464.999C151.262 464.999 150.728 465.131 150.236 465.395C149.744 465.647 149.324 465.965 148.976 466.349L148.364 465.629C148.82 465.209 149.33 464.849 149.894 464.549C150.458 464.249 151.112 464.099 151.856 464.099C152.528 464.099 153.134 464.225 153.674 464.477C154.214 464.729 154.64 465.089 154.952 465.557C155.264 466.025 155.42 466.595 155.42 467.267C155.42 468.119 155.192 468.815 154.736 469.355C154.28 469.895 153.704 470.279 153.008 470.507V470.597C153.524 470.705 153.998 470.909 154.43 471.209C154.874 471.509 155.222 471.893 155.474 472.361C155.738 472.829 155.87 473.369 155.87 473.981C155.87 474.737 155.69 475.397 155.33 475.961C154.982 476.513 154.508 476.939 153.908 477.239C153.308 477.539 152.636 477.689 151.892 477.689ZM161.722 477.689C160.93 477.689 160.24 477.443 159.652 476.951C159.076 476.447 158.632 475.691 158.32 474.683C158.008 473.663 157.852 472.385 157.852 470.849C157.852 469.325 158.008 468.065 158.32 467.069C158.632 466.073 159.076 465.329 159.652 464.837C160.24 464.345 160.93 464.099 161.722 464.099C162.514 464.099 163.198 464.345 163.774 464.837C164.35 465.329 164.794 466.073 165.106 467.069C165.418 468.065 165.574 469.325 165.574 470.849C165.574 472.385 165.418 473.663 165.106 474.683C164.794 475.691 164.35 476.447 163.774 476.951C163.198 477.443 162.514 477.689 161.722 477.689ZM161.722 476.789C162.286 476.789 162.778 476.573 163.198 476.141C163.63 475.697 163.96 475.037 164.188 474.161C164.416 473.273 164.53 472.169 164.53 470.849C164.53 469.553 164.416 468.467 164.188 467.591C163.96 466.715 163.63 466.061 163.198 465.629C162.778 465.197 162.286 464.981 161.722 464.981C161.158 464.981 160.66 465.197 160.228 465.629C159.808 466.061 159.478 466.715 159.238 467.591C159.01 468.467 158.896 469.553 158.896 470.849C158.896 472.169 159.01 473.273 159.238 474.161C159.478 475.037 159.808 475.697 160.228 476.141C160.66 476.573 161.158 476.789 161.722 476.789ZM171.823 462.371L172.687 462.605C172.351 463.481 171.955 464.333 171.499 465.161C171.043 465.977 170.545 466.739 170.005 467.447C169.477 468.143 168.919 468.761 168.331 469.301C168.283 469.265 168.211 469.211 168.115 469.139C168.031 469.067 167.941 468.995 167.845 468.923C167.749 468.851 167.659 468.797 167.575 468.761C168.175 468.245 168.739 467.651 169.267 466.979C169.795 466.307 170.275 465.581 170.707 464.801C171.139 464.009 171.511 463.199 171.823 462.371ZM171.157 464.729H182.875V465.557H170.725L171.157 464.729ZM170.509 468.707H182.461V469.535H171.373V474.071H170.509V468.707ZM167.467 473.621H183.631V474.467H167.467V473.621ZM175.963 465.179H176.845V478.805H175.963V465.179Z" fill="white"/>
<path d="M260.81 477.455V476.807C262.298 475.535 263.492 474.377 264.392 473.333C265.304 472.277 265.97 471.305 266.39 470.417C266.81 469.517 267.02 468.671 267.02 467.879C267.02 467.339 266.924 466.853 266.732 466.421C266.552 465.977 266.264 465.629 265.868 465.377C265.472 465.125 264.962 464.999 264.338 464.999C263.774 464.999 263.24 465.149 262.736 465.449C262.244 465.749 261.806 466.139 261.422 466.619L260.756 465.989C261.248 465.437 261.788 464.987 262.376 464.639C262.964 464.279 263.654 464.099 264.446 464.099C265.214 464.099 265.868 464.255 266.408 464.567C266.948 464.879 267.362 465.317 267.65 465.881C267.938 466.433 268.082 467.093 268.082 467.861C268.082 468.773 267.854 469.697 267.398 470.633C266.954 471.569 266.312 472.529 265.472 473.513C264.632 474.497 263.63 475.535 262.466 476.627C262.826 476.603 263.186 476.579 263.546 476.555C263.918 476.531 264.278 476.519 264.626 476.519H268.73V477.455H260.81ZM274.457 477.689C273.665 477.689 272.975 477.443 272.387 476.951C271.811 476.447 271.367 475.691 271.055 474.683C270.743 473.663 270.587 472.385 270.587 470.849C270.587 469.325 270.743 468.065 271.055 467.069C271.367 466.073 271.811 465.329 272.387 464.837C272.975 464.345 273.665 464.099 274.457 464.099C275.249 464.099 275.933 464.345 276.509 464.837C277.085 465.329 277.529 466.073 277.841 467.069C278.153 468.065 278.309 469.325 278.309 470.849C278.309 472.385 278.153 473.663 277.841 474.683C277.529 475.691 277.085 476.447 276.509 476.951C275.933 477.443 275.249 477.689 274.457 477.689ZM274.457 476.789C275.021 476.789 275.513 476.573 275.933 476.141C276.365 475.697 276.695 475.037 276.923 474.161C277.151 473.273 277.265 472.169 277.265 470.849C277.265 469.553 277.151 468.467 276.923 467.591C276.695 466.715 276.365 466.061 275.933 465.629C275.513 465.197 275.021 464.981 274.457 464.981C273.893 464.981 273.395 465.197 272.963 465.629C272.543 466.061 272.213 466.715 271.973 467.591C271.745 468.467 271.631 469.553 271.631 470.849C271.631 472.169 271.745 473.273 271.973 474.161C272.213 475.037 272.543 475.697 272.963 476.141C273.395 476.573 273.893 476.789 274.457 476.789ZM283.892 477.689C283.22 477.689 282.632 477.605 282.128 477.437C281.624 477.257 281.18 477.029 280.796 476.753C280.424 476.477 280.106 476.189 279.842 475.889L280.418 475.187C280.802 475.583 281.264 475.949 281.804 476.285C282.344 476.609 283.034 476.771 283.874 476.771C284.45 476.771 284.954 476.657 285.386 476.429C285.818 476.201 286.16 475.877 286.412 475.457C286.664 475.037 286.79 474.545 286.79 473.981C286.79 473.393 286.64 472.877 286.34 472.433C286.052 471.989 285.59 471.647 284.954 471.407C284.318 471.167 283.478 471.047 282.434 471.047V470.147C283.406 470.147 284.168 470.021 284.72 469.769C285.284 469.517 285.686 469.181 285.926 468.761C286.178 468.329 286.304 467.849 286.304 467.321C286.304 466.625 286.082 466.067 285.638 465.647C285.194 465.215 284.594 464.999 283.838 464.999C283.262 464.999 282.728 465.131 282.236 465.395C281.744 465.647 281.324 465.965 280.976 466.349L280.364 465.629C280.82 465.209 281.33 464.849 281.894 464.549C282.458 464.249 283.112 464.099 283.856 464.099C284.528 464.099 285.134 464.225 285.674 464.477C286.214 464.729 286.64 465.089 286.952 465.557C287.264 466.025 287.42 466.595 287.42 467.267C287.42 468.119 287.192 468.815 286.736 469.355C286.28 469.895 285.704 470.279 285.008 470.507V470.597C285.524 470.705 285.998 470.909 286.43 471.209C286.874 471.509 287.222 471.893 287.474 472.361C287.738 472.829 287.87 473.369 287.87 473.981C287.87 474.737 287.69 475.397 287.33 475.961C286.982 476.513 286.508 476.939 285.908 477.239C285.308 477.539 284.636 477.689 283.892 477.689ZM293.452 477.689C292.78 477.689 292.192 477.605 291.688 477.437C291.184 477.257 290.746 477.041 290.374 476.789C290.014 476.525 289.69 476.255 289.402 475.979L289.996 475.241C290.248 475.505 290.53 475.757 290.842 475.997C291.154 476.225 291.52 476.411 291.94 476.555C292.36 476.699 292.852 476.771 293.416 476.771C293.968 476.771 294.478 476.633 294.946 476.357C295.414 476.069 295.786 475.661 296.062 475.133C296.338 474.593 296.476 473.975 296.476 473.279C296.476 472.235 296.2 471.413 295.648 470.813C295.108 470.213 294.382 469.913 293.47 469.913C293.002 469.913 292.588 469.991 292.228 470.147C291.88 470.291 291.52 470.489 291.148 470.741L290.464 470.327L290.914 464.333H296.908V465.269H291.85L291.472 469.661C291.784 469.469 292.114 469.319 292.462 469.211C292.822 469.103 293.224 469.049 293.668 469.049C294.388 469.049 295.042 469.199 295.63 469.499C296.23 469.787 296.704 470.243 297.052 470.867C297.4 471.479 297.574 472.271 297.574 473.243C297.574 474.191 297.37 474.995 296.962 475.655C296.566 476.315 296.056 476.819 295.432 477.167C294.808 477.515 294.148 477.689 293.452 477.689ZM303.823 462.371L304.687 462.605C304.351 463.481 303.955 464.333 303.499 465.161C303.043 465.977 302.545 466.739 302.005 467.447C301.477 468.143 300.919 468.761 300.331 469.301C300.283 469.265 300.211 469.211 300.115 469.139C300.031 469.067 299.941 468.995 299.845 468.923C299.749 468.851 299.659 468.797 299.575 468.761C300.175 468.245 300.739 467.651 301.267 466.979C301.795 466.307 302.275 465.581 302.707 464.801C303.139 464.009 303.511 463.199 303.823 462.371ZM303.157 464.729H314.875V465.557H302.725L303.157 464.729ZM302.509 468.707H314.461V469.535H303.373V474.071H302.509V468.707ZM299.467 473.621H315.631V474.467H299.467V473.621ZM307.963 465.179H308.845V478.805H307.963V465.179Z" fill="white"/>
<path d="M20.422 32.316H35.578V35.772H34.282V33.504H21.664V35.772H20.422V32.316ZM22.942 27.654H33.04V32.892H31.69V28.734H24.238V32.874H22.942V27.654ZM31.942 34.62H33.238V41.946C33.238 42.306 33.19 42.576 33.094 42.756C32.998 42.948 32.818 43.092 32.554 43.188C32.278 43.284 31.906 43.338 31.438 43.35C30.982 43.374 30.406 43.38 29.71 43.368C29.686 43.212 29.632 43.026 29.548 42.81C29.464 42.606 29.38 42.426 29.296 42.27C29.644 42.27 29.974 42.27 30.286 42.27C30.598 42.282 30.868 42.288 31.096 42.288C31.324 42.288 31.486 42.288 31.582 42.288C31.714 42.276 31.804 42.246 31.852 42.198C31.912 42.15 31.942 42.066 31.942 41.946V34.62ZM23.392 34.62H32.662V35.718H23.392V34.62ZM22.762 34.62H24.058V37.446C24.058 38.046 24.016 38.7 23.932 39.408C23.86 40.116 23.71 40.824 23.482 41.532C23.266 42.24 22.936 42.882 22.492 43.458C22.408 43.374 22.294 43.284 22.15 43.188C22.018 43.092 21.88 42.99 21.736 42.882C21.604 42.786 21.484 42.714 21.376 42.666C21.796 42.15 22.102 41.586 22.294 40.974C22.498 40.362 22.624 39.75 22.672 39.138C22.732 38.526 22.762 37.956 22.762 37.428V34.62ZM24.22 40.092C24.928 39.972 25.744 39.84 26.668 39.696C27.604 39.54 28.588 39.366 29.62 39.174C30.652 38.982 31.678 38.796 32.698 38.616L32.77 39.714C31.822 39.894 30.868 40.08 29.908 40.272C28.948 40.464 28.018 40.644 27.118 40.812C26.23 40.98 25.414 41.136 24.67 41.28L24.22 40.092ZM24.706 37.554L25.066 36.636C25.774 36.66 26.518 36.726 27.298 36.834C28.09 36.942 28.846 37.074 29.566 37.23C30.286 37.374 30.892 37.53 31.384 37.698L31.024 38.742C30.544 38.574 29.944 38.412 29.224 38.256C28.504 38.088 27.748 37.944 26.956 37.824C26.176 37.692 25.426 37.602 24.706 37.554ZM26.812 29.85H32.086V30.786H28.018V32.982H26.812V29.85ZM41.158 26.898H42.454V32.082H41.158V26.898ZM41.158 36.834H42.454V43.422H41.158V36.834ZM39.772 35.034V36.474H43.804V35.034H39.772ZM39.772 32.622V34.008H43.804V32.622H39.772ZM38.566 31.524H45.064V37.554H38.566V31.524ZM37.936 28.914H45.604V30.12H37.936V28.914ZM49.15 33.666H50.482V43.44H49.15V33.666ZM46.522 33.306H52.984V34.566H46.522V33.306ZM45.766 37.518H53.794V38.76H45.766V37.518ZM37.738 38.958H45.766V40.182H37.738V38.958ZM49.618 26.574L50.77 26.952C50.41 27.852 49.966 28.728 49.438 29.58C48.922 30.42 48.352 31.182 47.728 31.866C47.104 32.55 46.45 33.126 45.766 33.594C45.694 33.474 45.604 33.354 45.496 33.234C45.4 33.102 45.298 32.976 45.19 32.856C45.082 32.736 44.974 32.634 44.866 32.55C45.526 32.166 46.156 31.662 46.756 31.038C47.356 30.402 47.902 29.7 48.394 28.932C48.898 28.164 49.306 27.378 49.618 26.574ZM50.158 27.924C50.482 28.5 50.884 29.094 51.364 29.706C51.856 30.306 52.378 30.858 52.93 31.362C53.482 31.866 54.016 32.28 54.532 32.604C54.388 32.712 54.232 32.862 54.064 33.054C53.896 33.234 53.758 33.396 53.65 33.54C53.134 33.168 52.6 32.694 52.048 32.118C51.496 31.542 50.968 30.924 50.464 30.264C49.972 29.592 49.546 28.938 49.186 28.302L50.158 27.924ZM56.098 31.668H71.992V33.036H56.098V31.668ZM61.3 39.66L62.398 38.886C62.818 39.222 63.256 39.6 63.712 40.02C64.168 40.428 64.594 40.836 64.99 41.244C65.386 41.64 65.704 42.006 65.944 42.342L64.774 43.242C64.546 42.906 64.24 42.528 63.856 42.108C63.472 41.688 63.058 41.268 62.614 40.848C62.17 40.416 61.732 40.02 61.3 39.66ZM65.044 32.298C65.44 33.81 65.974 35.22 66.646 36.528C67.318 37.824 68.134 38.964 69.094 39.948C70.066 40.92 71.188 41.682 72.46 42.234C72.352 42.33 72.232 42.45 72.1 42.594C71.968 42.738 71.842 42.888 71.722 43.044C71.614 43.2 71.524 43.344 71.452 43.476C70.132 42.84 68.974 41.994 67.978 40.938C66.994 39.87 66.154 38.634 65.458 37.23C64.762 35.826 64.192 34.284 63.748 32.604L65.044 32.298ZM63.262 26.898H64.72C64.708 27.714 64.684 28.608 64.648 29.58C64.612 30.54 64.522 31.542 64.378 32.586C64.234 33.618 63.994 34.65 63.658 35.682C63.334 36.714 62.878 37.71 62.29 38.67C61.714 39.63 60.964 40.518 60.04 41.334C59.128 42.15 58.012 42.852 56.692 43.44C56.584 43.26 56.434 43.062 56.242 42.846C56.05 42.642 55.864 42.468 55.684 42.324C56.968 41.784 58.048 41.136 58.924 40.38C59.812 39.612 60.526 38.778 61.066 37.878C61.618 36.978 62.044 36.048 62.344 35.088C62.644 34.116 62.86 33.144 62.992 32.172C63.124 31.2 63.202 30.264 63.226 29.364C63.25 28.464 63.262 27.642 63.262 26.898ZM81.352 37.266H82.756V42.378H81.352V37.266ZM74.368 28.95H89.578V32.586H88.192V30.21H75.7V33.018H74.368V28.95ZM75.952 36.6H88.048V37.86H75.952V36.6ZM74.332 41.748H89.758V43.044H74.332V41.748ZM80.542 27.168L81.946 26.772C82.186 27.168 82.426 27.612 82.666 28.104C82.918 28.584 83.104 28.992 83.224 29.328L81.748 29.796C81.64 29.448 81.466 29.028 81.226 28.536C80.998 28.032 80.77 27.576 80.542 27.168ZM79.642 29.886H81.046C80.974 30.738 80.848 31.482 80.668 32.118C80.488 32.754 80.194 33.306 79.786 33.774C79.378 34.23 78.808 34.608 78.076 34.908C77.344 35.208 76.396 35.454 75.232 35.646C75.208 35.538 75.16 35.418 75.088 35.286C75.028 35.154 74.95 35.022 74.854 34.89C74.758 34.758 74.674 34.65 74.602 34.566C75.646 34.41 76.486 34.212 77.122 33.972C77.77 33.732 78.268 33.432 78.616 33.072C78.964 32.7 79.21 32.256 79.354 31.74C79.51 31.212 79.606 30.594 79.642 29.886ZM83.314 29.886H84.646V33.108C84.646 33.36 84.682 33.54 84.754 33.648C84.838 33.744 85.006 33.792 85.258 33.792C85.366 33.792 85.564 33.792 85.852 33.792C86.14 33.792 86.452 33.792 86.788 33.792C87.136 33.792 87.454 33.792 87.742 33.792C88.03 33.792 88.234 33.792 88.354 33.792C88.57 33.792 88.828 33.786 89.128 33.774C89.428 33.75 89.662 33.72 89.83 33.684C89.842 33.876 89.86 34.086 89.884 34.314C89.908 34.542 89.932 34.734 89.956 34.89C89.812 34.938 89.59 34.968 89.29 34.98C89.002 34.992 88.708 34.998 88.408 34.998C88.288 34.998 88.072 34.998 87.76 34.998C87.46 34.998 87.13 34.998 86.77 34.998C86.422 34.998 86.104 34.998 85.816 34.998C85.528 34.998 85.336 34.998 85.24 34.998C84.736 34.998 84.34 34.938 84.052 34.818C83.776 34.698 83.584 34.5 83.476 34.224C83.368 33.936 83.314 33.558 83.314 33.09V29.886ZM100.018 33.054H107.056V33.846H100.018V33.054ZM100.018 34.836H107.11V35.628H100.018V34.836ZM99.622 36.672H107.848V37.59H99.622V36.672ZM97.408 29.562L98.542 29.886C98.086 30.822 97.528 31.728 96.868 32.604C96.208 33.48 95.542 34.224 94.87 34.836C94.81 34.764 94.726 34.674 94.618 34.566C94.51 34.458 94.396 34.35 94.276 34.242C94.168 34.122 94.072 34.032 93.988 33.972C94.66 33.42 95.296 32.754 95.896 31.974C96.508 31.194 97.012 30.39 97.408 29.562ZM100.288 29.526L101.422 29.85C101.038 30.714 100.57 31.56 100.018 32.388C99.466 33.204 98.908 33.9 98.344 34.476C98.272 34.404 98.176 34.32 98.056 34.224C97.948 34.116 97.834 34.02 97.714 33.936C97.594 33.84 97.486 33.762 97.39 33.702C97.966 33.186 98.512 32.556 99.028 31.812C99.544 31.068 99.964 30.306 100.288 29.526ZM103.258 31.578H104.428V37.032H103.258V31.578ZM98.398 39.192H99.64V41.712C99.64 41.916 99.694 42.042 99.802 42.09C99.91 42.15 100.15 42.18 100.522 42.18C100.618 42.18 100.786 42.18 101.026 42.18C101.266 42.18 101.53 42.18 101.818 42.18C102.118 42.18 102.394 42.18 102.646 42.18C102.898 42.18 103.084 42.18 103.204 42.18C103.396 42.18 103.546 42.144 103.654 42.072C103.762 42.012 103.84 41.874 103.888 41.658C103.936 41.43 103.966 41.088 103.978 40.632C104.11 40.728 104.284 40.818 104.5 40.902C104.728 40.986 104.926 41.046 105.094 41.082C105.058 41.67 104.98 42.126 104.86 42.45C104.74 42.786 104.56 43.014 104.32 43.134C104.08 43.254 103.75 43.314 103.33 43.314C103.258 43.314 103.126 43.314 102.934 43.314C102.742 43.314 102.514 43.314 102.25 43.314C101.998 43.314 101.74 43.314 101.476 43.314C101.224 43.314 101.002 43.314 100.81 43.314C100.618 43.314 100.486 43.314 100.414 43.314C99.874 43.314 99.46 43.266 99.172 43.17C98.884 43.086 98.68 42.924 98.56 42.684C98.452 42.456 98.398 42.138 98.398 41.73V39.192ZM99.964 38.652L100.756 37.896C101.116 38.052 101.482 38.232 101.854 38.436C102.238 38.64 102.598 38.85 102.934 39.066C103.27 39.282 103.546 39.486 103.762 39.678L102.934 40.542C102.73 40.338 102.46 40.122 102.124 39.894C101.8 39.666 101.446 39.444 101.062 39.228C100.69 39.012 100.324 38.82 99.964 38.652ZM104.518 39.444L105.526 38.94C105.874 39.276 106.216 39.654 106.552 40.074C106.9 40.482 107.212 40.89 107.488 41.298C107.776 41.694 107.998 42.06 108.154 42.396L107.056 42.954C106.924 42.63 106.72 42.264 106.444 41.856C106.168 41.436 105.862 41.022 105.526 40.614C105.202 40.194 104.866 39.804 104.518 39.444ZM96.22 39.138L97.336 39.534C97.108 40.158 96.826 40.788 96.49 41.424C96.154 42.06 95.716 42.588 95.176 43.008L94.15 42.342C94.642 41.97 95.062 41.49 95.41 40.902C95.77 40.302 96.04 39.714 96.22 39.138ZM100.378 31.182H107.542V32.082H99.73L100.378 31.182ZM99.316 32.244L100.468 31.254V38.13H99.316V32.244ZM93.682 28.284H108.136V29.418H93.682V28.284ZM92.962 28.284H94.204V33.702C94.204 34.41 94.18 35.184 94.132 36.024C94.096 36.852 94.024 37.71 93.916 38.598C93.808 39.474 93.646 40.332 93.43 41.172C93.214 42 92.926 42.762 92.566 43.458C92.506 43.374 92.41 43.278 92.278 43.17C92.146 43.074 92.014 42.972 91.882 42.864C91.75 42.768 91.63 42.702 91.522 42.666C91.858 42.006 92.122 41.298 92.314 40.542C92.506 39.774 92.644 38.994 92.728 38.202C92.824 37.398 92.884 36.612 92.908 35.844C92.944 35.076 92.962 34.362 92.962 33.702V28.284ZM96.238 32.514L97.39 31.362L97.408 31.38V38.148H96.238V32.514ZM99.352 26.934L100.522 26.52C100.774 26.856 101.02 27.228 101.26 27.636C101.512 28.032 101.692 28.38 101.8 28.68L100.594 29.148C100.474 28.836 100.3 28.476 100.072 28.068C99.844 27.648 99.604 27.27 99.352 26.934ZM102.538 29.868L103.492 29.436C103.708 29.676 103.924 29.94 104.14 30.228C104.356 30.504 104.518 30.75 104.626 30.966L103.618 31.47C103.522 31.242 103.372 30.978 103.168 30.678C102.964 30.366 102.754 30.096 102.538 29.868ZM112.528 28.14H124.174V29.436H112.528V28.14ZM112.528 32.334H124.138V33.612H112.528V32.334ZM112.42 36.636H124.174V37.914H112.42V36.636ZM111.754 28.14H113.086V34.674C113.086 35.358 113.056 36.09 112.996 36.87C112.936 37.65 112.822 38.442 112.654 39.246C112.498 40.038 112.252 40.8 111.916 41.532C111.592 42.264 111.16 42.93 110.62 43.53C110.56 43.434 110.464 43.326 110.332 43.206C110.2 43.098 110.068 42.99 109.936 42.882C109.804 42.774 109.684 42.696 109.576 42.648C110.08 42.084 110.476 41.472 110.764 40.812C111.052 40.152 111.268 39.474 111.412 38.778C111.556 38.07 111.646 37.368 111.682 36.672C111.73 35.976 111.754 35.31 111.754 34.674V28.14ZM123.634 28.14H124.966V41.604C124.966 42.036 124.9 42.366 124.768 42.594C124.648 42.822 124.438 42.996 124.138 43.116C123.838 43.224 123.418 43.29 122.878 43.314C122.338 43.338 121.642 43.344 120.79 43.332C120.754 43.164 120.688 42.948 120.592 42.684C120.508 42.432 120.418 42.216 120.322 42.036C120.742 42.048 121.144 42.054 121.528 42.054C121.924 42.066 122.266 42.066 122.554 42.054C122.842 42.054 123.04 42.054 123.148 42.054C123.328 42.042 123.454 42.006 123.526 41.946C123.598 41.886 123.634 41.772 123.634 41.604V28.14ZM117.406 28.626H118.774V43.278H117.406V28.626Z" fill="white"/>
<path d="M14 28H0V42H14V28Z" fill="#00F4DC"/>
<path d="M162.064 31.236H163.342V39.174H162.064V31.236ZM166.204 32.874H170.56V34.152H166.204V32.874ZM154.81 27.744H159.112V28.968H154.81V27.744ZM156.034 33.126H159.292V34.26H156.034V33.126ZM165.538 28.428H166.906V39.408H165.538V28.428ZM169.84 27.114L170.704 28.212C169.912 28.452 169 28.662 167.968 28.842C166.948 29.022 165.886 29.172 164.782 29.292C163.678 29.412 162.61 29.514 161.578 29.598C161.554 29.43 161.506 29.238 161.434 29.022C161.362 28.794 161.29 28.602 161.218 28.446C161.986 28.386 162.766 28.314 163.558 28.23C164.362 28.146 165.148 28.05 165.916 27.942C166.696 27.822 167.422 27.696 168.094 27.564C168.766 27.432 169.348 27.282 169.84 27.114ZM158.932 33.126H159.166L159.382 33.09L160.174 33.27C160.006 35.094 159.718 36.672 159.31 38.004C158.902 39.336 158.368 40.458 157.708 41.37C157.048 42.27 156.268 42.996 155.368 43.548C155.308 43.428 155.236 43.296 155.152 43.152C155.068 43.008 154.972 42.87 154.864 42.738C154.768 42.606 154.672 42.492 154.576 42.396C155.38 41.952 156.082 41.328 156.682 40.524C157.282 39.708 157.768 38.706 158.14 37.518C158.524 36.318 158.788 34.938 158.932 33.378V33.126ZM156.16 35.484C156.58 36.816 157.132 37.896 157.816 38.724C158.5 39.54 159.298 40.164 160.21 40.596C161.122 41.028 162.118 41.322 163.198 41.478C164.29 41.634 165.436 41.712 166.636 41.712C166.768 41.712 166.99 41.718 167.302 41.73C167.626 41.73 167.986 41.73 168.382 41.73C168.778 41.718 169.174 41.712 169.57 41.712C169.978 41.712 170.35 41.712 170.686 41.712C171.034 41.712 171.304 41.706 171.496 41.694C171.412 41.802 171.334 41.934 171.262 42.09C171.202 42.258 171.142 42.426 171.082 42.594C171.022 42.762 170.98 42.912 170.956 43.044H170.128H166.6C165.256 43.044 163.99 42.954 162.802 42.774C161.626 42.594 160.546 42.252 159.562 41.748C158.59 41.244 157.726 40.53 156.97 39.606C156.214 38.67 155.59 37.452 155.098 35.952L156.16 35.484ZM160.642 38.49H170.992V39.768H160.642V38.49ZM155.62 34.728C155.596 34.644 155.548 34.536 155.476 34.404C155.416 34.26 155.35 34.122 155.278 33.99C155.218 33.846 155.152 33.732 155.08 33.648C155.248 33.612 155.434 33.492 155.638 33.288C155.842 33.072 156.04 32.826 156.232 32.55C156.364 32.37 156.574 32.04 156.862 31.56C157.162 31.068 157.48 30.498 157.816 29.85C158.152 29.202 158.452 28.548 158.716 27.888V27.798L159.202 27.564L160.048 28.14C159.508 29.256 158.938 30.33 158.338 31.362C157.75 32.394 157.162 33.282 156.574 34.026V34.044C156.574 34.044 156.526 34.068 156.43 34.116C156.334 34.164 156.22 34.224 156.088 34.296C155.968 34.356 155.86 34.428 155.764 34.512C155.668 34.584 155.62 34.656 155.62 34.728ZM182.656 26.97H183.97V43.422H182.656V26.97ZM177.868 29.724H188.92V39.228H187.588V30.966H179.146V39.372H177.868V29.724ZM178.696 33.45H188.2V34.656H178.696V33.45ZM178.75 37.194H188.236V38.418H178.75V37.194ZM176.752 26.952L178.03 27.33C177.646 28.35 177.19 29.358 176.662 30.354C176.134 31.338 175.564 32.268 174.952 33.144C174.34 34.02 173.704 34.794 173.044 35.466C173.008 35.358 172.942 35.22 172.846 35.052C172.762 34.884 172.666 34.716 172.558 34.548C172.462 34.368 172.372 34.23 172.288 34.134C172.888 33.546 173.464 32.868 174.016 32.1C174.568 31.332 175.078 30.51 175.546 29.634C176.014 28.746 176.416 27.852 176.752 26.952ZM174.88 31.578L176.158 30.3L176.176 30.336V43.404H174.88V31.578ZM191.098 31.668H206.992V33.036H191.098V31.668ZM196.3 39.66L197.398 38.886C197.818 39.222 198.256 39.6 198.712 40.02C199.168 40.428 199.594 40.836 199.99 41.244C200.386 41.64 200.704 42.006 200.944 42.342L199.774 43.242C199.546 42.906 199.24 42.528 198.856 42.108C198.472 41.688 198.058 41.268 197.614 40.848C197.17 40.416 196.732 40.02 196.3 39.66ZM200.044 32.298C200.44 33.81 200.974 35.22 201.646 36.528C202.318 37.824 203.134 38.964 204.094 39.948C205.066 40.92 206.188 41.682 207.46 42.234C207.352 42.33 207.232 42.45 207.1 42.594C206.968 42.738 206.842 42.888 206.722 43.044C206.614 43.2 206.524 43.344 206.452 43.476C205.132 42.84 203.974 41.994 202.978 40.938C201.994 39.87 201.154 38.634 200.458 37.23C199.762 35.826 199.192 34.284 198.748 32.604L200.044 32.298ZM198.262 26.898H199.72C199.708 27.714 199.684 28.608 199.648 29.58C199.612 30.54 199.522 31.542 199.378 32.586C199.234 33.618 198.994 34.65 198.658 35.682C198.334 36.714 197.878 37.71 197.29 38.67C196.714 39.63 195.964 40.518 195.04 41.334C194.128 42.15 193.012 42.852 191.692 43.44C191.584 43.26 191.434 43.062 191.242 42.846C191.05 42.642 190.864 42.468 190.684 42.324C191.968 41.784 193.048 41.136 193.924 40.38C194.812 39.612 195.526 38.778 196.066 37.878C196.618 36.978 197.044 36.048 197.344 35.088C197.644 34.116 197.86 33.144 197.992 32.172C198.124 31.2 198.202 30.264 198.226 29.364C198.25 28.464 198.262 27.642 198.262 26.898ZM216.352 37.266H217.756V42.378H216.352V37.266ZM209.368 28.95H224.578V32.586H223.192V30.21H210.7V33.018H209.368V28.95ZM210.952 36.6H223.048V37.86H210.952V36.6ZM209.332 41.748H224.758V43.044H209.332V41.748ZM215.542 27.168L216.946 26.772C217.186 27.168 217.426 27.612 217.666 28.104C217.918 28.584 218.104 28.992 218.224 29.328L216.748 29.796C216.64 29.448 216.466 29.028 216.226 28.536C215.998 28.032 215.77 27.576 215.542 27.168ZM214.642 29.886H216.046C215.974 30.738 215.848 31.482 215.668 32.118C215.488 32.754 215.194 33.306 214.786 33.774C214.378 34.23 213.808 34.608 213.076 34.908C212.344 35.208 211.396 35.454 210.232 35.646C210.208 35.538 210.16 35.418 210.088 35.286C210.028 35.154 209.95 35.022 209.854 34.89C209.758 34.758 209.674 34.65 209.602 34.566C210.646 34.41 211.486 34.212 212.122 33.972C212.77 33.732 213.268 33.432 213.616 33.072C213.964 32.7 214.21 32.256 214.354 31.74C214.51 31.212 214.606 30.594 214.642 29.886ZM218.314 29.886H219.646V33.108C219.646 33.36 219.682 33.54 219.754 33.648C219.838 33.744 220.006 33.792 220.258 33.792C220.366 33.792 220.564 33.792 220.852 33.792C221.14 33.792 221.452 33.792 221.788 33.792C222.136 33.792 222.454 33.792 222.742 33.792C223.03 33.792 223.234 33.792 223.354 33.792C223.57 33.792 223.828 33.786 224.128 33.774C224.428 33.75 224.662 33.72 224.83 33.684C224.842 33.876 224.86 34.086 224.884 34.314C224.908 34.542 224.932 34.734 224.956 34.89C224.812 34.938 224.59 34.968 224.29 34.98C224.002 34.992 223.708 34.998 223.408 34.998C223.288 34.998 223.072 34.998 222.76 34.998C222.46 34.998 222.13 34.998 221.77 34.998C221.422 34.998 221.104 34.998 220.816 34.998C220.528 34.998 220.336 34.998 220.24 34.998C219.736 34.998 219.34 34.938 219.052 34.818C218.776 34.698 218.584 34.5 218.476 34.224C218.368 33.936 218.314 33.558 218.314 33.09V29.886ZM235.018 33.054H242.056V33.846H235.018V33.054ZM235.018 34.836H242.11V35.628H235.018V34.836ZM234.622 36.672H242.848V37.59H234.622V36.672ZM232.408 29.562L233.542 29.886C233.086 30.822 232.528 31.728 231.868 32.604C231.208 33.48 230.542 34.224 229.87 34.836C229.81 34.764 229.726 34.674 229.618 34.566C229.51 34.458 229.396 34.35 229.276 34.242C229.168 34.122 229.072 34.032 228.988 33.972C229.66 33.42 230.296 32.754 230.896 31.974C231.508 31.194 232.012 30.39 232.408 29.562ZM235.288 29.526L236.422 29.85C236.038 30.714 235.57 31.56 235.018 32.388C234.466 33.204 233.908 33.9 233.344 34.476C233.272 34.404 233.176 34.32 233.056 34.224C232.948 34.116 232.834 34.02 232.714 33.936C232.594 33.84 232.486 33.762 232.39 33.702C232.966 33.186 233.512 32.556 234.028 31.812C234.544 31.068 234.964 30.306 235.288 29.526ZM238.258 31.578H239.428V37.032H238.258V31.578ZM233.398 39.192H234.64V41.712C234.64 41.916 234.694 42.042 234.802 42.09C234.91 42.15 235.15 42.18 235.522 42.18C235.618 42.18 235.786 42.18 236.026 42.18C236.266 42.18 236.53 42.18 236.818 42.18C237.118 42.18 237.394 42.18 237.646 42.18C237.898 42.18 238.084 42.18 238.204 42.18C238.396 42.18 238.546 42.144 238.654 42.072C238.762 42.012 238.84 41.874 238.888 41.658C238.936 41.43 238.966 41.088 238.978 40.632C239.11 40.728 239.284 40.818 239.5 40.902C239.728 40.986 239.926 41.046 240.094 41.082C240.058 41.67 239.98 42.126 239.86 42.45C239.74 42.786 239.56 43.014 239.32 43.134C239.08 43.254 238.75 43.314 238.33 43.314C238.258 43.314 238.126 43.314 237.934 43.314C237.742 43.314 237.514 43.314 237.25 43.314C236.998 43.314 236.74 43.314 236.476 43.314C236.224 43.314 236.002 43.314 235.81 43.314C235.618 43.314 235.486 43.314 235.414 43.314C234.874 43.314 234.46 43.266 234.172 43.17C233.884 43.086 233.68 42.924 233.56 42.684C233.452 42.456 233.398 42.138 233.398 41.73V39.192ZM234.964 38.652L235.756 37.896C236.116 38.052 236.482 38.232 236.854 38.436C237.238 38.64 237.598 38.85 237.934 39.066C238.27 39.282 238.546 39.486 238.762 39.678L237.934 40.542C237.73 40.338 237.46 40.122 237.124 39.894C236.8 39.666 236.446 39.444 236.062 39.228C235.69 39.012 235.324 38.82 234.964 38.652ZM239.518 39.444L240.526 38.94C240.874 39.276 241.216 39.654 241.552 40.074C241.9 40.482 242.212 40.89 242.488 41.298C242.776 41.694 242.998 42.06 243.154 42.396L242.056 42.954C241.924 42.63 241.72 42.264 241.444 41.856C241.168 41.436 240.862 41.022 240.526 40.614C240.202 40.194 239.866 39.804 239.518 39.444ZM231.22 39.138L232.336 39.534C232.108 40.158 231.826 40.788 231.49 41.424C231.154 42.06 230.716 42.588 230.176 43.008L229.15 42.342C229.642 41.97 230.062 41.49 230.41 40.902C230.77 40.302 231.04 39.714 231.22 39.138ZM235.378 31.182H242.542V32.082H234.73L235.378 31.182ZM234.316 32.244L235.468 31.254V38.13H234.316V32.244ZM228.682 28.284H243.136V29.418H228.682V28.284ZM227.962 28.284H229.204V33.702C229.204 34.41 229.18 35.184 229.132 36.024C229.096 36.852 229.024 37.71 228.916 38.598C228.808 39.474 228.646 40.332 228.43 41.172C228.214 42 227.926 42.762 227.566 43.458C227.506 43.374 227.41 43.278 227.278 43.17C227.146 43.074 227.014 42.972 226.882 42.864C226.75 42.768 226.63 42.702 226.522 42.666C226.858 42.006 227.122 41.298 227.314 40.542C227.506 39.774 227.644 38.994 227.728 38.202C227.824 37.398 227.884 36.612 227.908 35.844C227.944 35.076 227.962 34.362 227.962 33.702V28.284ZM231.238 32.514L232.39 31.362L232.408 31.38V38.148H231.238V32.514ZM234.352 26.934L235.522 26.52C235.774 26.856 236.02 27.228 236.26 27.636C236.512 28.032 236.692 28.38 236.8 28.68L235.594 29.148C235.474 28.836 235.3 28.476 235.072 28.068C234.844 27.648 234.604 27.27 234.352 26.934ZM237.538 29.868L238.492 29.436C238.708 29.676 238.924 29.94 239.14 30.228C239.356 30.504 239.518 30.75 239.626 30.966L238.618 31.47C238.522 31.242 238.372 30.978 238.168 30.678C237.964 30.366 237.754 30.096 237.538 29.868ZM247.528 28.14H259.174V29.436H247.528V28.14ZM247.528 32.334H259.138V33.612H247.528V32.334ZM247.42 36.636H259.174V37.914H247.42V36.636ZM246.754 28.14H248.086V34.674C248.086 35.358 248.056 36.09 247.996 36.87C247.936 37.65 247.822 38.442 247.654 39.246C247.498 40.038 247.252 40.8 246.916 41.532C246.592 42.264 246.16 42.93 245.62 43.53C245.56 43.434 245.464 43.326 245.332 43.206C245.2 43.098 245.068 42.99 244.936 42.882C244.804 42.774 244.684 42.696 244.576 42.648C245.08 42.084 245.476 41.472 245.764 40.812C246.052 40.152 246.268 39.474 246.412 38.778C246.556 38.07 246.646 37.368 246.682 36.672C246.73 35.976 246.754 35.31 246.754 34.674V28.14ZM258.634 28.14H259.966V41.604C259.966 42.036 259.9 42.366 259.768 42.594C259.648 42.822 259.438 42.996 259.138 43.116C258.838 43.224 258.418 43.29 257.878 43.314C257.338 43.338 256.642 43.344 255.79 43.332C255.754 43.164 255.688 42.948 255.592 42.684C255.508 42.432 255.418 42.216 255.322 42.036C255.742 42.048 256.144 42.054 256.528 42.054C256.924 42.066 257.266 42.066 257.554 42.054C257.842 42.054 258.04 42.054 258.148 42.054C258.328 42.042 258.454 42.006 258.526 41.946C258.598 41.886 258.634 41.772 258.634 41.604V28.14ZM252.406 28.626H253.774V43.278H252.406V28.626Z" fill="white"/>
<path d="M8.244 6.64H9.648V17.44H8.244V6.64ZM4.176 9.664V11.23H13.968V9.664H4.176ZM4.176 7.09V8.638H13.968V7.09H4.176ZM2.844 6.01H15.336V12.328H2.844V6.01ZM1.044 13.696H17.01V14.902H1.044V13.696ZM3.6 2.5V4.192H7.038V2.5H3.6ZM2.358 1.582H8.316V5.092H2.358V1.582ZM10.98 2.5V4.192H14.49V2.5H10.98ZM9.774 1.582H15.768V5.092H9.774V1.582ZM24.642 4.156H34.452V5.47H24.642V4.156ZM25.83 6.838L27.054 6.55C27.21 7.186 27.354 7.852 27.486 8.548C27.63 9.244 27.762 9.934 27.882 10.618C28.002 11.302 28.104 11.95 28.188 12.562C28.272 13.174 28.338 13.708 28.386 14.164L27.054 14.56C27.018 14.08 26.958 13.528 26.874 12.904C26.802 12.28 26.706 11.62 26.586 10.924C26.478 10.228 26.358 9.532 26.226 8.836C26.094 8.128 25.962 7.462 25.83 6.838ZM31.932 6.424L33.354 6.658C33.222 7.402 33.078 8.188 32.922 9.016C32.766 9.844 32.598 10.672 32.418 11.5C32.238 12.328 32.052 13.12 31.86 13.876C31.68 14.62 31.5 15.292 31.32 15.892L30.132 15.622C30.312 15.01 30.486 14.326 30.654 13.57C30.834 12.802 31.002 11.998 31.158 11.158C31.326 10.318 31.476 9.49 31.608 8.674C31.74 7.858 31.848 7.108 31.932 6.424ZM23.868 15.388H35.19V16.684H23.868V15.388ZM28.26 1.096L29.538 0.753999C29.706 1.198 29.874 1.684 30.042 2.212C30.222 2.728 30.36 3.178 30.456 3.562L29.106 3.958C29.034 3.574 28.914 3.112 28.746 2.572C28.59 2.032 28.428 1.54 28.26 1.096ZM23.148 0.952L24.426 1.33C24.03 2.35 23.568 3.358 23.04 4.354C22.524 5.338 21.96 6.268 21.348 7.144C20.736 8.02 20.106 8.794 19.458 9.466C19.41 9.358 19.338 9.22 19.242 9.052C19.158 8.884 19.062 8.716 18.954 8.548C18.858 8.368 18.768 8.23 18.684 8.134C19.272 7.546 19.842 6.868 20.394 6.1C20.946 5.332 21.456 4.51 21.924 3.634C22.404 2.746 22.812 1.852 23.148 0.952ZM21.24 5.578L22.572 4.246L22.59 4.264V17.404H21.24V5.578ZM45 6.208C44.64 6.208 44.322 6.088 44.046 5.848C43.77 5.596 43.632 5.266 43.632 4.858C43.632 4.45 43.77 4.126 44.046 3.886C44.322 3.634 44.64 3.508 45 3.508C45.36 3.508 45.678 3.634 45.954 3.886C46.23 4.126 46.368 4.45 46.368 4.858C46.368 5.266 46.23 5.596 45.954 5.848C45.678 6.088 45.36 6.208 45 6.208ZM45 15.028C44.64 15.028 44.322 14.908 44.046 14.668C43.77 14.416 43.632 14.086 43.632 13.678C43.632 13.258 43.77 12.928 44.046 12.688C44.322 12.436 44.64 12.31 45 12.31C45.36 12.31 45.678 12.436 45.954 12.688C46.23 12.928 46.368 13.258 46.368 13.678C46.368 14.086 46.23 14.416 45.954 14.668C45.678 14.908 45.36 15.028 45 15.028ZM54.99 7.612H71.136V8.998H54.99V7.612ZM62.298 0.897999H63.756V17.44H62.298V0.897999ZM78.102 2.662H88.722V3.688H78.102V2.662ZM77.274 5.452H89.334V6.55H77.274V5.452ZM79.848 3.994L80.982 3.724C81.138 3.952 81.282 4.21 81.414 4.498C81.558 4.774 81.66 5.02 81.72 5.236L80.514 5.542C80.478 5.326 80.394 5.074 80.262 4.786C80.13 4.498 79.992 4.234 79.848 3.994ZM85.41 3.652L86.76 4.012C86.556 4.408 86.34 4.804 86.112 5.2C85.884 5.584 85.674 5.92 85.482 6.208L84.42 5.884C84.6 5.572 84.786 5.206 84.978 4.786C85.17 4.354 85.314 3.976 85.41 3.652ZM80.082 10.402V11.572H86.544V10.402H80.082ZM80.082 8.422V9.556H86.544V8.422H80.082ZM78.804 7.504H87.876V12.49H78.804V7.504ZM78.516 13.444L79.56 13.93C79.38 14.374 79.164 14.89 78.912 15.478C78.66 16.054 78.396 16.552 78.12 16.972L77.022 16.378C77.214 16.126 77.4 15.832 77.58 15.496C77.772 15.148 77.946 14.794 78.102 14.434C78.27 14.074 78.408 13.744 78.516 13.444ZM80.172 13.426H81.414V15.82C81.414 16.012 81.468 16.132 81.576 16.18C81.684 16.24 81.93 16.27 82.314 16.27C82.398 16.27 82.56 16.27 82.8 16.27C83.052 16.27 83.322 16.27 83.61 16.27C83.91 16.27 84.186 16.27 84.438 16.27C84.702 16.27 84.894 16.27 85.014 16.27C85.206 16.27 85.35 16.24 85.446 16.18C85.554 16.12 85.626 16 85.662 15.82C85.71 15.628 85.746 15.334 85.77 14.938C85.902 15.022 86.076 15.106 86.292 15.19C86.52 15.262 86.712 15.322 86.868 15.37C86.832 15.91 86.754 16.324 86.634 16.612C86.514 16.9 86.34 17.098 86.112 17.206C85.884 17.314 85.566 17.368 85.158 17.368C85.086 17.368 84.948 17.368 84.744 17.368C84.552 17.368 84.324 17.368 84.06 17.368C83.808 17.368 83.55 17.368 83.286 17.368C83.022 17.368 82.788 17.368 82.584 17.368C82.392 17.368 82.26 17.368 82.188 17.368C81.648 17.368 81.234 17.326 80.946 17.242C80.658 17.158 80.454 17.002 80.334 16.774C80.226 16.546 80.172 16.228 80.172 15.82V13.426ZM81.576 12.994L82.404 12.328C82.716 12.496 83.034 12.7 83.358 12.94C83.682 13.168 83.988 13.396 84.276 13.624C84.576 13.852 84.816 14.068 84.996 14.272L84.114 15.028C83.946 14.836 83.718 14.62 83.43 14.38C83.142 14.14 82.836 13.9 82.512 13.66C82.188 13.408 81.876 13.186 81.576 12.994ZM86.148 13.696L87.21 13.228C87.486 13.552 87.762 13.906 88.038 14.29C88.314 14.674 88.572 15.052 88.812 15.424C89.064 15.784 89.256 16.108 89.388 16.396L88.254 16.954C88.122 16.666 87.942 16.33 87.714 15.946C87.486 15.562 87.234 15.178 86.958 14.794C86.694 14.398 86.424 14.032 86.148 13.696ZM82.008 1.06L83.268 0.843999C83.424 1.144 83.58 1.48 83.736 1.852C83.904 2.224 84.024 2.542 84.096 2.806L82.782 3.094C82.71 2.83 82.596 2.506 82.44 2.122C82.296 1.738 82.152 1.384 82.008 1.06ZM76.788 0.952L78.084 1.33C77.712 2.35 77.274 3.358 76.77 4.354C76.278 5.338 75.738 6.268 75.15 7.144C74.574 8.008 73.974 8.782 73.35 9.466C73.314 9.358 73.248 9.22 73.152 9.052C73.056 8.884 72.954 8.716 72.846 8.548C72.75 8.368 72.66 8.23 72.576 8.134C73.14 7.546 73.68 6.868 74.196 6.1C74.724 5.32 75.21 4.492 75.654 3.616C76.098 2.74 76.476 1.852 76.788 0.952ZM74.88 5.578L76.158 4.3L76.176 4.318V17.404H74.88V5.578ZM91.656 3.4H106.326V4.606H91.656V3.4ZM92.646 6.082H105.444V7.252H92.646V6.082ZM91.404 11.374H106.794V12.544H91.404V11.374ZM91.008 8.782H107.1V9.988H91.008V8.782ZM98.28 4.084H99.648V9.646H98.28V4.084ZM94.068 1.312L95.256 0.807999C95.58 1.156 95.886 1.546 96.174 1.978C96.474 2.398 96.696 2.77 96.84 3.094L95.58 3.67C95.46 3.334 95.256 2.944 94.968 2.5C94.68 2.056 94.38 1.66 94.068 1.312ZM102.51 0.807999L103.914 1.24C103.614 1.732 103.29 2.23 102.942 2.734C102.594 3.226 102.27 3.646 101.97 3.994L100.818 3.58C101.01 3.34 101.208 3.058 101.412 2.734C101.628 2.398 101.832 2.062 102.024 1.726C102.216 1.39 102.378 1.084 102.51 0.807999ZM98.172 9.592H99.594C99.498 10.444 99.36 11.23 99.18 11.95C99 12.658 98.73 13.3 98.37 13.876C98.022 14.452 97.548 14.968 96.948 15.424C96.36 15.868 95.61 16.252 94.698 16.576C93.798 16.9 92.706 17.17 91.422 17.386C91.398 17.266 91.344 17.128 91.26 16.972C91.188 16.828 91.104 16.684 91.008 16.54C90.912 16.396 90.822 16.276 90.738 16.18C91.95 16 92.97 15.772 93.798 15.496C94.638 15.22 95.328 14.896 95.868 14.524C96.408 14.152 96.828 13.726 97.128 13.246C97.44 12.754 97.674 12.208 97.83 11.608C97.986 10.996 98.1 10.324 98.172 9.592ZM99.09 13.75L99.684 12.742C100.308 12.982 100.962 13.252 101.646 13.552C102.342 13.852 103.026 14.164 103.698 14.488C104.37 14.812 105 15.136 105.588 15.46C106.176 15.772 106.674 16.066 107.082 16.342L106.434 17.512C106.038 17.224 105.552 16.912 104.976 16.576C104.4 16.252 103.776 15.922 103.104 15.586C102.432 15.238 101.748 14.908 101.052 14.596C100.368 14.272 99.714 13.99 99.09 13.75ZM118.494 8.134H119.862V15.082C119.862 15.406 119.916 15.616 120.024 15.712C120.132 15.796 120.36 15.838 120.708 15.838C120.792 15.838 120.936 15.838 121.14 15.838C121.356 15.838 121.59 15.838 121.842 15.838C122.094 15.838 122.328 15.838 122.544 15.838C122.772 15.838 122.94 15.838 123.048 15.838C123.3 15.838 123.486 15.76 123.606 15.604C123.726 15.436 123.81 15.124 123.858 14.668C123.918 14.2 123.954 13.504 123.966 12.58C124.086 12.664 124.218 12.748 124.362 12.832C124.506 12.904 124.656 12.97 124.812 13.03C124.98 13.09 125.124 13.138 125.244 13.174C125.196 14.206 125.106 15.01 124.974 15.586C124.854 16.15 124.65 16.546 124.362 16.774C124.086 17.002 123.684 17.116 123.156 17.116C123.072 17.116 122.904 17.116 122.652 17.116C122.4 17.116 122.13 17.116 121.842 17.116C121.554 17.116 121.284 17.116 121.032 17.116C120.792 17.116 120.63 17.116 120.546 17.116C120.018 17.116 119.598 17.056 119.286 16.936C118.986 16.816 118.776 16.606 118.656 16.306C118.548 16.018 118.494 15.616 118.494 15.1V8.134ZM109.062 7.324H124.956V8.656H109.062V7.324ZM110.646 2.284H123.426V3.58H110.646V2.284ZM113.67 8.35H115.11C115.026 9.358 114.9 10.312 114.732 11.212C114.564 12.112 114.288 12.952 113.904 13.732C113.532 14.5 113.004 15.196 112.32 15.82C111.648 16.444 110.778 16.966 109.71 17.386C109.638 17.23 109.518 17.044 109.35 16.828C109.182 16.624 109.02 16.462 108.864 16.342C109.848 15.97 110.64 15.508 111.24 14.956C111.852 14.404 112.32 13.786 112.644 13.102C112.98 12.406 113.22 11.662 113.364 10.87C113.508 10.066 113.61 9.226 113.67 8.35Z" fill="white"/>
</svg>
