<svg width="1280" height="720" viewBox="0 0 1280 720" fill="none" xmlns="http://www.w3.org/2000/svg">
<g filter="url(#filter0_d_669_9452)">
<path d="M379 574.146C499.95 574.146 598 476.545 598 356.146C598 235.748 499.95 138.146 379 138.146C258.05 138.146 160 235.748 160 356.146C160 476.545 258.05 574.146 379 574.146Z" fill="black" shape-rendering="crispEdges"/>
<path d="M379 574.146C499.95 574.146 598 476.545 598 356.146C598 235.748 499.95 138.146 379 138.146C258.05 138.146 160 235.748 160 356.146C160 476.545 258.05 574.146 379 574.146Z" stroke="url(#paint0_linear_669_9452)" stroke-linecap="round" stroke-linejoin="round" shape-rendering="crispEdges"/>
</g>
<path d="M597 598.158C666.225 547.421 712 459.484 712 359.501C712 259.518 666.225 171.581 597 120.844" stroke="white" stroke-linecap="round" stroke-linejoin="round"/>
<path d="M713.5 410C686.759 410 665 388.241 665 361.5C665 334.759 686.759 313 713.5 313C740.241 313 762 334.759 762 361.5C762 388.241 740.241 410 713.5 410ZM713.5 314.701C687.698 314.701 666.701 335.698 666.701 361.5C666.701 387.303 687.698 408.299 713.5 408.299C739.302 408.299 760.299 387.303 760.299 361.5C760.299 335.698 739.302 314.701 713.5 314.701Z" fill="url(#paint1_linear_669_9452)"/>
<path d="M714 315C688.087 315 667 336.087 667 362C667 387.913 688.087 409 714 409C739.913 409 761 387.913 761 362C761 336.087 739.913 315 714 315Z" fill="#04060C"/>
<path d="M730.602 353.58L713.5 330.178L696.414 353.58C693.049 357.531 691 362.642 691 368.232C691 380.693 701.07 390.803 713.5 390.803C725.93 390.803 736 380.693 736 368.232C736 359.602 730.602 353.572 730.602 353.572V353.58Z" fill="#04060C" stroke="white" stroke-width="0.5" stroke-linecap="round" stroke-linejoin="round"/>
<path d="M697.082 366.284C695.464 371.008 694.138 380.011 704.998 384.516C706.049 384.954 707.676 384.735 706.7 383.972C701.286 379.686 697.716 374.02 698.383 365.123C698.467 364.051 697.716 364.433 697.082 366.292V366.284Z" fill="#04060C" stroke="white" stroke-width="0.5" stroke-linecap="round" stroke-linejoin="round"/>
<path d="M677 283C650.534 283 629 261.241 629 234.5C629 207.759 650.534 186 677 186C703.466 186 725 207.759 725 234.5C725 261.241 703.466 283 677 283ZM677 187.701C651.464 187.701 630.683 208.698 630.683 234.5C630.683 260.303 651.464 281.299 677 281.299C702.536 281.299 723.317 260.303 723.317 234.5C723.317 208.698 702.536 187.701 677 187.701Z" fill="url(#paint2_linear_669_9452)"/>
<path d="M677.5 188.021C651.862 188.021 631 209.101 631 235.006C631 260.911 651.862 281.99 677.5 281.99C703.138 281.99 724 260.911 724 235.006C724 209.101 703.138 188.021 677.5 188.021Z" fill="#04060C"/>
<path d="M677 265.824C694.121 265.824 708 251.8 708 234.501C708 217.201 694.121 203.178 677 203.178C659.879 203.178 646 217.201 646 234.501C646 251.8 659.879 265.824 677 265.824Z" stroke="white" stroke-width="0.5" stroke-linecap="round" stroke-linejoin="round"/>
<path d="M682.5 232.479C687.194 232.479 691 228.86 691 224.396C691 219.932 687.194 216.312 682.5 216.312C677.806 216.312 674 219.932 674 224.396C674 228.86 677.806 232.479 682.5 232.479Z" stroke="white" stroke-width="0.5" stroke-linecap="round" stroke-linejoin="round"/>
<path d="M684.727 222.605H682.773V220.63C682.773 219.925 682.198 219.344 681.5 219.344C680.802 219.344 680.227 219.925 680.227 220.63V222.605H678.273C677.575 222.605 677 223.186 677 223.891C677 224.596 677.575 225.176 678.273 225.176H680.227V227.152C680.227 227.857 680.802 228.438 681.5 228.438C682.198 228.438 682.773 227.857 682.773 227.152V225.176H684.727C685.425 225.176 686 224.596 686 223.891C686 223.186 685.425 222.605 684.727 222.605Z" stroke="white" stroke-width="0.5" stroke-linecap="round" stroke-linejoin="round"/>
<path d="M700 221.365C704.418 221.365 708 217.519 708 212.776C708 208.033 704.418 204.188 700 204.188C695.582 204.188 692 208.033 692 212.776C692 217.519 695.582 221.365 700 221.365Z" fill="#04060C" stroke="white" stroke-width="0.5" stroke-linecap="round" stroke-linejoin="round"/>
<path d="M702.729 214.291C703.426 214.291 704 213.606 704 212.775C704 211.945 703.426 211.26 702.729 211.26H696.272C695.574 211.26 695 211.945 695 212.775C695 213.606 695.574 214.291 696.272 214.291H702.729Z" stroke="white" stroke-width="0.5" stroke-linecap="round" stroke-linejoin="round"/>
<path d="M656.5 265.823C661.194 265.823 665 262.204 665 257.74C665 253.275 661.194 249.656 656.5 249.656C651.806 249.656 648 253.275 648 257.74C648 262.204 651.806 265.823 656.5 265.823Z" fill="#04060C" stroke="white" stroke-width="0.5" stroke-linecap="round" stroke-linejoin="round"/>
<path d="M659.729 258.75C660.426 258.75 661 258.065 661 257.234C661 256.403 660.426 255.719 659.729 255.719H653.271C652.574 255.719 652 256.403 652 257.234C652 258.065 652.574 258.75 653.271 258.75H659.729Z" stroke="white" stroke-width="0.5" stroke-linecap="round" stroke-linejoin="round"/>
<path d="M682.5 254.708C687.194 254.708 691 250.863 691 246.12C691 241.376 687.194 237.531 682.5 237.531C677.806 237.531 674 241.376 674 246.12C674 250.863 677.806 254.708 682.5 254.708Z" stroke="white" stroke-width="0.5" stroke-linecap="round" stroke-linejoin="round"/>
<path d="M665.5 243.594C670.194 243.594 674 239.975 674 235.511C674 231.047 670.194 227.428 665.5 227.428C660.806 227.428 657 231.047 657 235.511C657 239.975 660.806 243.594 665.5 243.594Z" stroke="white" stroke-width="0.5" stroke-linecap="round" stroke-linejoin="round"/>
<path d="M669.727 234.73H667.773V232.755C667.773 232.05 667.198 231.469 666.5 231.469C665.802 231.469 665.227 232.05 665.227 232.755V234.73H663.273C662.575 234.73 662 235.311 662 236.016C662 236.721 662.575 237.301 663.273 237.301H665.227V239.277C665.227 239.982 665.802 240.562 666.5 240.562C667.198 240.562 667.773 239.982 667.773 239.277V237.301H669.727C670.425 237.301 671 236.721 671 236.016C671 235.311 670.425 234.73 669.727 234.73Z" stroke="white" stroke-width="0.5" stroke-linecap="round" stroke-linejoin="round"/>
<path d="M674 538C647.535 538 626 516.241 626 489.5C626 462.759 647.535 441 674 441C700.466 441 722 462.759 722 489.5C722 516.241 700.466 538 674 538ZM674 442.701C648.464 442.701 627.683 463.698 627.683 489.5C627.683 515.302 648.464 536.299 674 536.299C699.536 536.299 720.317 515.302 720.317 489.5C720.317 463.698 699.536 442.701 674 442.701Z" fill="url(#paint3_linear_669_9452)"/>
<path d="M674.5 443.021C648.862 443.021 628 464.101 628 490.006C628 515.91 648.862 536.99 674.5 536.99C700.138 536.99 721 515.91 721 490.006C721 464.101 700.138 443.021 674.5 443.021Z" fill="#04060C"/>
<path d="M662 473.385C666.319 473.172 672.436 473.693 672.436 473.693C672.436 473.693 674.638 473.962 678.879 478.53C683.121 483.097 687.175 484.891 688.319 484.891C689.463 484.891 692.288 485.342 694.233 486.59C696.171 487.847 702 491.521 702 491.521" stroke="white" stroke-width="0.5" stroke-linecap="round" stroke-linejoin="round"/>
<path d="M687 508.699C687 508.699 686.379 507.928 684.232 505.958C682.094 503.987 678.791 504.584 676.299 505.354C673.806 506.124 674.781 506.464 669.434 504.41C664.756 502.613 662.53 504.553 659 504.546" stroke="white" stroke-width="0.5" stroke-linecap="round" stroke-linejoin="round"/>
<path d="M677 469.291L670 472.322" stroke="white" stroke-width="0.5" stroke-linecap="round" stroke-linejoin="round"/>
<path d="M665 473.334C665 473.334 667.677 474.518 669.197 479.205C670.717 483.891 670.622 490.054 675 491.521" stroke="white" stroke-width="0.5" stroke-linecap="round" stroke-linejoin="round"/>
<path d="M690.95 485.459C690.95 485.459 687.353 488.196 688.103 489.666C688.853 491.136 691.387 493.255 690.95 495.01C690.512 496.764 690.359 497.584 690.359 497.584" stroke="white" stroke-width="0.5" stroke-linecap="round" stroke-linejoin="round"/>
<path d="M689 491.521L681 496.574" stroke="white" stroke-width="0.5" stroke-linecap="round" stroke-linejoin="round"/>
<path d="M661.5 485.458C662.881 485.458 664 484.327 664 482.932C664 481.537 662.881 480.406 661.5 480.406C660.119 480.406 659 481.537 659 482.932C659 484.327 660.119 485.458 661.5 485.458Z" fill="#04060C" stroke="white" stroke-width="0.5" stroke-linecap="round" stroke-linejoin="round"/>
<path d="M655 497.583C656.657 497.583 658 496.452 658 495.057C658 493.662 656.657 492.531 655 492.531C653.343 492.531 652 493.662 652 495.057C652 496.452 653.343 497.583 655 497.583Z" fill="#04060C" stroke="white" stroke-width="0.5" stroke-linecap="round" stroke-linejoin="round"/>
<path d="M673.5 502.635C674.881 502.635 676 501.278 676 499.604C676 497.929 674.881 496.572 673.5 496.572C672.119 496.572 671 497.929 671 499.604C671 501.278 672.119 502.635 673.5 502.635Z" fill="#04060C" stroke="white" stroke-width="0.5" stroke-linecap="round" stroke-linejoin="round"/>
<path d="M679.5 488.49C680.881 488.49 682 487.133 682 485.459C682 483.785 680.881 482.428 679.5 482.428C678.119 482.428 677 483.785 677 485.459C677 487.133 678.119 488.49 679.5 488.49Z" fill="#04060C" stroke="white" stroke-width="0.5" stroke-linecap="round" stroke-linejoin="round"/>
<path d="M688.5 481.416C689.328 481.416 690 480.737 690 479.9C690 479.063 689.328 478.385 688.5 478.385C687.672 478.385 687 479.063 687 479.9C687 480.737 687.672 481.416 688.5 481.416Z" fill="#04060C" stroke="white" stroke-width="0.5" stroke-linecap="round" stroke-linejoin="round"/>
<path d="M695.5 493.541C696.328 493.541 697 492.862 697 492.025C697 491.188 696.328 490.51 695.5 490.51C694.672 490.51 694 491.188 694 492.025C694 492.862 694.672 493.541 695.5 493.541Z" fill="#04060C" stroke="white" stroke-width="0.5" stroke-linecap="round" stroke-linejoin="round"/>
<path d="M666.5 489.5C667.328 489.5 668 488.821 668 487.984C668 487.147 667.328 486.469 666.5 486.469C665.672 486.469 665 487.147 665 487.984C665 488.821 665.672 489.5 666.5 489.5Z" fill="#04060C" stroke="white" stroke-width="0.5" stroke-linecap="round" stroke-linejoin="round"/>
<path d="M660.5 499.604C661.328 499.604 662 498.925 662 498.088C662 497.251 661.328 496.572 660.5 496.572C659.672 496.572 659 497.251 659 498.088C659 498.925 659.672 499.604 660.5 499.604Z" fill="#04060C" stroke="white" stroke-width="0.5" stroke-linecap="round" stroke-linejoin="round"/>
<path d="M678.5 495.562C679.328 495.562 680 494.884 680 494.047C680 493.21 679.328 492.531 678.5 492.531C677.672 492.531 677 493.21 677 494.047C677 494.884 677.672 495.562 678.5 495.562Z" fill="#04060C" stroke="white" stroke-width="0.5" stroke-linecap="round" stroke-linejoin="round"/>
<path d="M687.5 503.646C688.328 503.646 689 502.968 689 502.131C689 501.294 688.328 500.615 687.5 500.615C686.672 500.615 686 501.294 686 502.131C686 502.968 686.672 503.646 687.5 503.646Z" fill="#04060C" stroke="white" stroke-width="0.5" stroke-linecap="round" stroke-linejoin="round"/>
<path d="M661.78 473.125L666.117 468.43L672.623 464.24L676.689 469.337L679.854 470.516L683.832 474.337L690.067 475.34L701.547 480.621C701.188 485.26 703.803 488.815 703.987 489.81C704.17 490.814 702.448 493.631 699.466 494.722C696.485 495.814 693.232 501.095 692.594 502.732C691.964 504.369 690.609 507.828 688.345 508.19C686.088 508.551 686.718 509.915 685.179 511.464C683.641 513.013 680.3 511.552 677.135 511.649C673.97 511.737 670.717 512.74 670.717 512.74L658.511 504.819L656.885 504.088C652.277 503.27 649 497.764 649 497.764L650.563 479.971C650.563 479.971 655.266 474.24 659.061 473.422L661.772 473.117L661.78 473.125Z" stroke="white" stroke-width="0.5" stroke-linecap="round" stroke-linejoin="round"/>
<path d="M596.5 163C569.759 163 548 141.241 548 114.5C548 87.7588 569.759 66 596.5 66C623.241 66 645 87.7588 645 114.5C645 141.241 623.241 163 596.5 163ZM596.5 67.7009C570.698 67.7009 549.701 88.6975 549.701 114.5C549.701 140.302 570.698 161.299 596.5 161.299C622.302 161.299 643.299 140.302 643.299 114.5C643.299 88.6975 622.302 67.7009 596.5 67.7009Z" fill="url(#paint4_linear_669_9452)"/>
<path d="M596.498 67.7012C570.696 67.7012 549.699 88.6978 549.699 114.5C549.699 140.303 570.696 161.299 596.498 161.299C622.301 161.299 643.297 140.303 643.297 114.5C643.297 88.6978 622.301 67.7012 596.498 67.7012Z" fill="#04060C"/>
<path d="M610.732 114.499C610.732 122.361 604.362 128.74 596.491 128.74C588.62 128.74 582.258 122.369 582.258 114.499C582.258 106.628 588.628 100.266 596.491 100.266C604.354 100.266 610.732 106.636 610.732 114.499Z" stroke="white" stroke-width="0.5" stroke-linecap="round" stroke-linejoin="round"/>
<path d="M594.07 87.431V95.5184C594.07 96.8582 595.153 97.9494 596.501 97.9494C597.849 97.9494 598.932 96.8582 598.932 95.5184V87.431C598.932 86.0911 597.849 85 596.501 85C595.153 85 594.07 86.0911 594.07 87.431Z" stroke="white" stroke-width="0.5" stroke-linecap="round" stroke-linejoin="round"/>
<path d="M578.015 96.0225C577.068 96.9693 577.068 98.5097 578.015 99.4565L581.36 102.802C582.307 103.749 583.848 103.749 584.794 102.802C585.741 101.855 585.741 100.315 584.794 99.3682L581.449 96.0225C580.502 95.0758 578.961 95.0758 578.015 96.0225Z" stroke="white" stroke-width="0.5" stroke-linecap="round" stroke-linejoin="round"/>
<path d="M569.431 112.07C568.091 112.07 567 113.161 567 114.501C567 115.841 568.083 116.932 569.431 116.932H577.518C578.858 116.932 579.949 115.841 579.949 114.501C579.949 113.161 578.866 112.07 577.518 112.07H569.431Z" stroke="white" stroke-width="0.5" stroke-linecap="round" stroke-linejoin="round"/>
<path d="M581.36 126.214L578.015 129.56C577.068 130.506 577.068 132.047 578.015 132.994C578.961 133.94 580.502 133.94 581.449 132.994L584.794 129.648C585.741 128.701 585.741 127.161 584.794 126.214C583.848 125.267 582.307 125.267 581.36 126.214Z" stroke="white" stroke-width="0.5" stroke-linecap="round" stroke-linejoin="round"/>
<path d="M594.07 133.486V141.581C594.07 142.921 595.153 144.012 596.501 144.012C597.849 144.012 598.932 142.921 598.932 141.581V133.486C598.932 132.146 597.849 131.055 596.501 131.055C595.153 131.055 594.07 132.146 594.07 133.486Z" stroke="white" stroke-width="0.5" stroke-linecap="round" stroke-linejoin="round"/>
<path d="M608.206 126.214C607.259 127.161 607.259 128.701 608.206 129.648L611.552 132.994C612.499 133.94 614.039 133.94 614.986 132.994C615.932 132.047 615.932 130.506 614.986 129.56L611.64 126.214C610.693 125.267 609.153 125.267 608.206 126.214Z" stroke="white" stroke-width="0.5" stroke-linecap="round" stroke-linejoin="round"/>
<path d="M615.482 112.07C614.142 112.07 613.051 113.161 613.051 114.501C613.051 115.841 614.134 116.932 615.482 116.932H623.569C624.909 116.932 626 115.841 626 114.501C626 113.161 624.917 112.07 623.569 112.07H615.482Z" stroke="white" stroke-width="0.5" stroke-linecap="round" stroke-linejoin="round"/>
<path d="M611.552 96.0225L608.206 99.3682C607.259 100.315 607.259 101.855 608.206 102.802C609.153 103.749 610.693 103.749 611.64 102.802L614.986 99.4565C615.932 98.5097 615.932 96.9693 614.986 96.0225C614.039 95.0758 612.499 95.0758 611.552 96.0225Z" stroke="white" stroke-width="0.5" stroke-linecap="round" stroke-linejoin="round"/>
<path d="M594.5 658C567.759 658 546 636.466 546 610C546 583.534 567.759 562 594.5 562C621.241 562 643 583.534 643 610C643 636.466 621.241 658 594.5 658ZM594.5 563.691C568.698 563.691 547.701 584.471 547.701 610.008C547.701 635.544 568.698 656.325 594.5 656.325C620.302 656.325 641.299 635.544 641.299 610.008C641.299 584.471 620.302 563.691 594.5 563.691Z" fill="url(#paint5_linear_669_9452)"/>
<path d="M595 564C569.087 564 548 584.862 548 610.5C548 636.138 569.087 657 595 657C620.913 657 642 636.138 642 610.5C642 584.862 620.913 564 595 564Z" fill="#04060C"/>
<path d="M630.715 628.751C632.033 626.324 633.11 623.753 633.909 621.063C635.689 615.818 636 612.46 636 612.46C624.178 603.316 613.489 603.873 606.105 606.571C597.835 609.587 593.508 605.934 585.071 603.117C568.571 597.617 555 614.219 555 614.219C555.016 616.479 555.487 618.357 555.487 618.357C559.518 636.439 575.723 650 595.049 650C610.416 650 623.803 641.429 630.668 628.838C630.668 628.83 630.684 628.822 630.684 628.807C630.692 628.791 630.7 628.775 630.707 628.759L630.715 628.751Z" stroke="white" stroke-width="0.5" stroke-linecap="round" stroke-linejoin="round"/>
<path d="M597 626C599.209 626 601 624.209 601 622C601 619.791 599.209 618 597 618C594.791 618 593 619.791 593 622C593 624.209 594.791 626 597 626Z" fill="#04060C" stroke="white" stroke-width="0.5" stroke-linecap="round" stroke-linejoin="round"/>
<path d="M626 615C628.209 615 630 613.209 630 611C630 608.791 628.209 607 626 607C623.791 607 622 608.791 622 611C622 613.209 623.791 615 626 615Z" fill="#04060C" stroke="white" stroke-width="0.5" stroke-linecap="round" stroke-linejoin="round"/>
<path d="M580.5 611C582.433 611 584 609.433 584 607.5C584 605.567 582.433 604 580.5 604C578.567 604 577 605.567 577 607.5C577 609.433 578.567 611 580.5 611Z" fill="#04060C" stroke="white" stroke-width="0.5" stroke-linecap="round" stroke-linejoin="round"/>
<path d="M611 637C612.657 637 614 635.657 614 634C614 632.343 612.657 631 611 631C609.343 631 608 632.343 608 634C608 635.657 609.343 637 611 637Z" fill="#04060C" stroke="white" stroke-width="0.5" stroke-linecap="round" stroke-linejoin="round"/>
<path d="M584.5 632C585.328 632 586 631.328 586 630.5C586 629.672 585.328 629 584.5 629C583.672 629 583 629.672 583 630.5C583 631.328 583.672 632 584.5 632Z" fill="#04060C" stroke="white" stroke-width="0.5" stroke-linecap="round" stroke-linejoin="round"/>
<path d="M587.5 647C588.328 647 589 646.105 589 645C589 643.895 588.328 643 587.5 643C586.672 643 586 643.895 586 645C586 646.105 586.672 647 587.5 647Z" fill="#04060C" stroke="white" stroke-width="0.5" stroke-linecap="round" stroke-linejoin="round"/>
<path d="M606 641C607.105 641 608 640.105 608 639C608 637.895 607.105 637 606 637C604.895 637 604 637.895 604 639C604 640.105 604.895 641 606 641Z" fill="#04060C" stroke="white" stroke-width="0.5" stroke-linecap="round" stroke-linejoin="round"/>
<path d="M587 625C588.105 625 589 624.105 589 623C589 621.895 588.105 621 587 621C585.895 621 585 621.895 585 623C585 624.105 585.895 625 587 625Z" fill="#04060C" stroke="white" stroke-width="0.5" stroke-linecap="round" stroke-linejoin="round"/>
<path d="M592 611C593.105 611 594 610.105 594 609C594 607.895 593.105 607 592 607C590.895 607 590 607.895 590 609C590 610.105 590.895 611 592 611Z" fill="#04060C" stroke="white" stroke-width="0.5" stroke-linecap="round" stroke-linejoin="round"/>
<path d="M565 622C566.105 622 567 621.328 567 620.5C567 619.672 566.105 619 565 619C563.895 619 563 619.672 563 620.5C563 621.328 563.895 622 565 622Z" fill="#04060C" stroke="white" stroke-width="0.5" stroke-linecap="round" stroke-linejoin="round"/>
<path d="M581 619C582.105 619 583 618.328 583 617.5C583 616.672 582.105 616 581 616C579.895 616 579 616.672 579 617.5C579 618.328 579.895 619 581 619Z" fill="#04060C" stroke="white" stroke-width="0.5" stroke-linecap="round" stroke-linejoin="round"/>
<path d="M567 611C568.105 611 569 610.105 569 609C569 607.895 568.105 607 567 607C565.895 607 565 607.895 565 609C565 610.105 565.895 611 567 611Z" fill="#04060C" stroke="white" stroke-width="0.5" stroke-linecap="round" stroke-linejoin="round"/>
<path d="M574 631C575.657 631 577 629.657 577 628C577 626.343 575.657 625 574 625C572.343 625 571 626.343 571 628C571 629.657 572.343 631 574 631Z" fill="#04060C" stroke="white" stroke-width="0.5" stroke-linecap="round" stroke-linejoin="round"/>
<path d="M597 643C598.105 643 599 642.105 599 641C599 639.895 598.105 639 597 639C595.895 639 595 639.895 595 641C595 642.105 595.895 643 597 643Z" fill="#04060C" stroke="white" stroke-width="0.5" stroke-linecap="round" stroke-linejoin="round"/>
<path d="M613.5 617C614.328 617 615 616.105 615 615C615 613.895 614.328 613 613.5 613C612.672 613 612 613.895 612 615C612 616.105 612.672 617 613.5 617Z" fill="#04060C" stroke="white" stroke-width="0.5" stroke-linecap="round" stroke-linejoin="round"/>
<path d="M600.5 609C601.328 609 602 608.328 602 607.5C602 606.672 601.328 606 600.5 606C599.672 606 599 606.672 599 607.5C599 608.328 599.672 609 600.5 609Z" fill="#04060C" stroke="white" stroke-width="0.5" stroke-linecap="round" stroke-linejoin="round"/>
<path d="M616 628C617.657 628 619 626.657 619 625C619 623.343 617.657 622 616 622C614.343 622 613 623.343 613 625C613 626.657 614.343 628 616 628Z" fill="#04060C" stroke="white" stroke-width="0.5" stroke-linecap="round" stroke-linejoin="round"/>
<path d="M623 631C624.105 631 625 630.105 625 629C625 627.895 624.105 627 623 627C621.895 627 621 627.895 621 629C621 630.105 621.895 631 623 631Z" fill="#04060C" stroke="white" stroke-width="0.5" stroke-linecap="round" stroke-linejoin="round"/>
<defs>
<filter id="filter0_d_669_9452" x="139.5" y="107.646" width="499" height="497" filterUnits="userSpaceOnUse" color-interpolation-filters="sRGB">
<feFlood flood-opacity="0" result="BackgroundImageFix"/>
<feColorMatrix in="SourceAlpha" type="matrix" values="0 0 0 0 0 0 0 0 0 0 0 0 0 0 0 0 0 0 127 0" result="hardAlpha"/>
<feOffset dx="10"/>
<feGaussianBlur stdDeviation="15"/>
<feComposite in2="hardAlpha" operator="out"/>
<feColorMatrix type="matrix" values="0 0 0 0 0 0 0 0 0 0.957261 0 0 0 0 0.862823 0 0 0 0.8 0"/>
<feBlend mode="normal" in2="BackgroundImageFix" result="effect1_dropShadow_669_9452"/>
<feBlend mode="normal" in="SourceGraphic" in2="effect1_dropShadow_669_9452" result="shape"/>
</filter>
<linearGradient id="paint0_linear_669_9452" x1="598" y1="356.146" x2="160" y2="356.147" gradientUnits="userSpaceOnUse">
<stop stop-color="white"/>
<stop offset="1" stop-color="white" stop-opacity="0"/>
</linearGradient>
<linearGradient id="paint1_linear_669_9452" x1="747.711" y1="319.635" x2="673.593" y2="410.337" gradientUnits="userSpaceOnUse">
<stop offset="0.06" stop-color="#04060C"/>
<stop offset="0.32" stop-color="#00F4DC"/>
<stop offset="0.55" stop-color="#DFDAE4"/>
<stop offset="0.77" stop-color="#8D41D9"/>
<stop offset="0.96" stop-color="#04060C"/>
</linearGradient>
<linearGradient id="paint2_linear_669_9452" x1="710.858" y1="192.635" x2="636.591" y2="282.583" gradientUnits="userSpaceOnUse">
<stop offset="0.06" stop-color="#04060C"/>
<stop offset="0.32" stop-color="#00F4DC"/>
<stop offset="0.55" stop-color="#DFDAE4"/>
<stop offset="0.77" stop-color="#8D41D9"/>
<stop offset="0.96" stop-color="#04060C"/>
</linearGradient>
<linearGradient id="paint3_linear_669_9452" x1="707.858" y1="447.635" x2="633.583" y2="537.583" gradientUnits="userSpaceOnUse">
<stop offset="0.06" stop-color="#04060C"/>
<stop offset="0.32" stop-color="#00F4DC"/>
<stop offset="0.55" stop-color="#DFDAE4"/>
<stop offset="0.77" stop-color="#8D41D9"/>
<stop offset="0.96" stop-color="#04060C"/>
</linearGradient>
<linearGradient id="paint4_linear_669_9452" x1="630.703" y1="72.6432" x2="556.585" y2="163.345" gradientUnits="userSpaceOnUse">
<stop offset="0.06" stop-color="#04060C"/>
<stop offset="0.32" stop-color="#00F4DC"/>
<stop offset="0.55" stop-color="#DFDAE4"/>
<stop offset="0.77" stop-color="#8D41D9"/>
<stop offset="0.96" stop-color="#04060C"/>
</linearGradient>
<linearGradient id="paint5_linear_669_9452" x1="628.711" y1="568.575" x2="555.512" y2="659.085" gradientUnits="userSpaceOnUse">
<stop offset="0.06" stop-color="#04060C"/>
<stop offset="0.32" stop-color="#00F4DC"/>
<stop offset="0.55" stop-color="#DFDAE4"/>
<stop offset="0.77" stop-color="#8D41D9"/>
<stop offset="0.96" stop-color="#04060C"/>
</linearGradient>
</defs>
</svg>
