<svg width="315" height="479" viewBox="0 0 315 479" fill="none" xmlns="http://www.w3.org/2000/svg">
<path d="M57 313.455H14V450.455H57V313.455Z" fill="#00F4DC"/>
<path d="M177 197.455H134V449.455H177V197.455Z" fill="#00F4DC"/>
<path d="M305 59.4546H262V450.455H305V59.4546Z" fill="#00F4DC"/>
<path d="M7.81 477.455V476.807C9.298 475.535 10.492 474.377 11.392 473.333C12.304 472.277 12.97 471.305 13.39 470.417C13.81 469.517 14.02 468.671 14.02 467.879C14.02 467.339 13.924 466.853 13.732 466.421C13.552 465.977 13.264 465.629 12.868 465.377C12.472 465.125 11.962 464.999 11.338 464.999C10.774 464.999 10.24 465.149 9.736 465.449C9.244 465.749 8.806 466.139 8.422 466.619L7.756 465.989C8.248 465.437 8.788 464.987 9.376 464.639C9.964 464.279 10.654 464.099 11.446 464.099C12.214 464.099 12.868 464.255 13.408 464.567C13.948 464.879 14.362 465.317 14.65 465.881C14.938 466.433 15.082 467.093 15.082 467.861C15.082 468.773 14.854 469.697 14.398 470.633C13.954 471.569 13.312 472.529 12.472 473.513C11.632 474.497 10.63 475.535 9.466 476.627C9.826 476.603 10.186 476.579 10.546 476.555C10.918 476.531 11.278 476.519 11.626 476.519H15.73V477.455H7.81ZM21.4568 477.689C20.6648 477.689 19.9748 477.443 19.3868 476.951C18.8108 476.447 18.3668 475.691 18.0548 474.683C17.7428 473.663 17.5868 472.385 17.5868 470.849C17.5868 469.325 17.7428 468.065 18.0548 467.069C18.3668 466.073 18.8108 465.329 19.3868 464.837C19.9748 464.345 20.6648 464.099 21.4568 464.099C22.2488 464.099 22.9328 464.345 23.5088 464.837C24.0848 465.329 24.5288 466.073 24.8408 467.069C25.1528 468.065 25.3088 469.325 25.3088 470.849C25.3088 472.385 25.1528 473.663 24.8408 474.683C24.5288 475.691 24.0848 476.447 23.5088 476.951C22.9328 477.443 22.2488 477.689 21.4568 477.689ZM21.4568 476.789C22.0208 476.789 22.5128 476.573 22.9328 476.141C23.3648 475.697 23.6948 475.037 23.9228 474.161C24.1508 473.273 24.2648 472.169 24.2648 470.849C24.2648 469.553 24.1508 468.467 23.9228 467.591C23.6948 466.715 23.3648 466.061 22.9328 465.629C22.5128 465.197 22.0208 464.981 21.4568 464.981C20.8928 464.981 20.3948 465.197 19.9628 465.629C19.5428 466.061 19.2128 466.715 18.9728 467.591C18.7448 468.467 18.6308 469.553 18.6308 470.849C18.6308 472.169 18.7448 473.273 18.9728 474.161C19.2128 475.037 19.5428 475.697 19.9628 476.141C20.3948 476.573 20.8928 476.789 21.4568 476.789ZM27.0756 477.455V476.807C28.5636 475.535 29.7576 474.377 30.6576 473.333C31.5696 472.277 32.2356 471.305 32.6556 470.417C33.0756 469.517 33.2856 468.671 33.2856 467.879C33.2856 467.339 33.1896 466.853 32.9976 466.421C32.8176 465.977 32.5296 465.629 32.1336 465.377C31.7376 465.125 31.2276 464.999 30.6036 464.999C30.0396 464.999 29.5056 465.149 29.0016 465.449C28.5096 465.749 28.0716 466.139 27.6876 466.619L27.0216 465.989C27.5136 465.437 28.0536 464.987 28.6416 464.639C29.2296 464.279 29.9196 464.099 30.7116 464.099C31.4796 464.099 32.1336 464.255 32.6736 464.567C33.2136 464.879 33.6276 465.317 33.9156 465.881C34.2036 466.433 34.3476 467.093 34.3476 467.861C34.3476 468.773 34.1196 469.697 33.6636 470.633C33.2196 471.569 32.5776 472.529 31.7376 473.513C30.8976 474.497 29.8956 475.535 28.7316 476.627C29.0916 476.603 29.4516 476.579 29.8116 476.555C30.1836 476.531 30.5436 476.519 30.8916 476.519H34.9956V477.455H27.0756ZM40.5244 477.689C39.8524 477.689 39.2644 477.605 38.7604 477.437C38.2564 477.257 37.8124 477.029 37.4284 476.753C37.0564 476.477 36.7384 476.189 36.4744 475.889L37.0504 475.187C37.4344 475.583 37.8964 475.949 38.4364 476.285C38.9764 476.609 39.6664 476.771 40.5064 476.771C41.0824 476.771 41.5864 476.657 42.0184 476.429C42.4504 476.201 42.7924 475.877 43.0444 475.457C43.2964 475.037 43.4224 474.545 43.4224 473.981C43.4224 473.393 43.2724 472.877 42.9724 472.433C42.6844 471.989 42.2224 471.647 41.5864 471.407C40.9504 471.167 40.1104 471.047 39.0664 471.047V470.147C40.0384 470.147 40.8004 470.021 41.3524 469.769C41.9164 469.517 42.3184 469.181 42.5584 468.761C42.8104 468.329 42.9364 467.849 42.9364 467.321C42.9364 466.625 42.7144 466.067 42.2704 465.647C41.8264 465.215 41.2264 464.999 40.4704 464.999C39.8944 464.999 39.3604 465.131 38.8684 465.395C38.3764 465.647 37.9564 465.965 37.6084 466.349L36.9964 465.629C37.4524 465.209 37.9624 464.849 38.5264 464.549C39.0904 464.249 39.7444 464.099 40.4884 464.099C41.1604 464.099 41.7664 464.225 42.3064 464.477C42.8464 464.729 43.2724 465.089 43.5844 465.557C43.8964 466.025 44.0524 466.595 44.0524 467.267C44.0524 468.119 43.8244 468.815 43.3684 469.355C42.9124 469.895 42.3364 470.279 41.6404 470.507V470.597C42.1564 470.705 42.6304 470.909 43.0624 471.209C43.5064 471.509 43.8544 471.893 44.1064 472.361C44.3704 472.829 44.5024 473.369 44.5024 473.981C44.5024 474.737 44.3224 475.397 43.9624 475.961C43.6144 476.513 43.1404 476.939 42.5404 477.239C41.9404 477.539 41.2684 477.689 40.5244 477.689ZM50.8232 462.371L51.6873 462.605C51.3513 463.481 50.9553 464.333 50.4993 465.161C50.0433 465.977 49.5453 466.739 49.0053 467.447C48.4773 468.143 47.9193 468.761 47.3313 469.301C47.2833 469.265 47.2113 469.211 47.1153 469.139C47.0313 469.067 46.9413 468.995 46.8453 468.923C46.7493 468.851 46.6593 468.797 46.5753 468.761C47.1753 468.245 47.7393 467.651 48.2673 466.979C48.7953 466.307 49.2753 465.581 49.7073 464.801C50.1393 464.009 50.5113 463.199 50.8232 462.371ZM50.1572 464.729H61.8753V465.557H49.7253L50.1572 464.729ZM49.5093 468.707H61.4613V469.535H50.3733V474.071H49.5093V468.707ZM46.4673 473.621H62.6313V474.467H46.4673V473.621ZM54.9633 465.179H55.8453V478.805H54.9633V465.179Z" fill="white"/>
<path d="M127.81 477.455V476.807C129.298 475.535 130.492 474.377 131.392 473.333C132.304 472.277 132.97 471.305 133.39 470.417C133.81 469.517 134.02 468.671 134.02 467.879C134.02 467.339 133.924 466.853 133.732 466.421C133.552 465.977 133.264 465.629 132.868 465.377C132.472 465.125 131.962 464.999 131.338 464.999C130.774 464.999 130.24 465.149 129.736 465.449C129.244 465.749 128.806 466.139 128.422 466.619L127.756 465.989C128.248 465.437 128.788 464.987 129.376 464.639C129.964 464.279 130.654 464.099 131.446 464.099C132.214 464.099 132.868 464.255 133.408 464.567C133.948 464.879 134.362 465.317 134.65 465.881C134.938 466.433 135.082 467.093 135.082 467.861C135.082 468.773 134.854 469.697 134.398 470.633C133.954 471.569 133.312 472.529 132.472 473.513C131.632 474.497 130.63 475.535 129.466 476.627C129.826 476.603 130.186 476.579 130.546 476.555C130.918 476.531 131.278 476.519 131.626 476.519H135.73V477.455H127.81ZM141.457 477.689C140.665 477.689 139.975 477.443 139.387 476.951C138.811 476.447 138.367 475.691 138.055 474.683C137.743 473.663 137.587 472.385 137.587 470.849C137.587 469.325 137.743 468.065 138.055 467.069C138.367 466.073 138.811 465.329 139.387 464.837C139.975 464.345 140.665 464.099 141.457 464.099C142.249 464.099 142.933 464.345 143.509 464.837C144.085 465.329 144.529 466.073 144.841 467.069C145.153 468.065 145.309 469.325 145.309 470.849C145.309 472.385 145.153 473.663 144.841 474.683C144.529 475.691 144.085 476.447 143.509 476.951C142.933 477.443 142.249 477.689 141.457 477.689ZM141.457 476.789C142.021 476.789 142.513 476.573 142.933 476.141C143.365 475.697 143.695 475.037 143.923 474.161C144.151 473.273 144.265 472.169 144.265 470.849C144.265 469.553 144.151 468.467 143.923 467.591C143.695 466.715 143.365 466.061 142.933 465.629C142.513 465.197 142.021 464.981 141.457 464.981C140.893 464.981 140.395 465.197 139.963 465.629C139.543 466.061 139.213 466.715 138.973 467.591C138.745 468.467 138.631 469.553 138.631 470.849C138.631 472.169 138.745 473.273 138.973 474.161C139.213 475.037 139.543 475.697 139.963 476.141C140.395 476.573 140.893 476.789 141.457 476.789ZM150.892 477.689C150.22 477.689 149.632 477.605 149.128 477.437C148.624 477.257 148.18 477.029 147.796 476.753C147.424 476.477 147.106 476.189 146.842 475.889L147.418 475.187C147.802 475.583 148.264 475.949 148.804 476.285C149.344 476.609 150.034 476.771 150.874 476.771C151.45 476.771 151.954 476.657 152.386 476.429C152.818 476.201 153.16 475.877 153.412 475.457C153.664 475.037 153.79 474.545 153.79 473.981C153.79 473.393 153.64 472.877 153.34 472.433C153.052 471.989 152.59 471.647 151.954 471.407C151.318 471.167 150.478 471.047 149.434 471.047V470.147C150.406 470.147 151.168 470.021 151.72 469.769C152.284 469.517 152.686 469.181 152.926 468.761C153.178 468.329 153.304 467.849 153.304 467.321C153.304 466.625 153.082 466.067 152.638 465.647C152.194 465.215 151.594 464.999 150.838 464.999C150.262 464.999 149.728 465.131 149.236 465.395C148.744 465.647 148.324 465.965 147.976 466.349L147.364 465.629C147.82 465.209 148.33 464.849 148.894 464.549C149.458 464.249 150.112 464.099 150.856 464.099C151.528 464.099 152.134 464.225 152.674 464.477C153.214 464.729 153.64 465.089 153.952 465.557C154.264 466.025 154.42 466.595 154.42 467.267C154.42 468.119 154.192 468.815 153.736 469.355C153.28 469.895 152.704 470.279 152.008 470.507V470.597C152.524 470.705 152.998 470.909 153.43 471.209C153.874 471.509 154.222 471.893 154.474 472.361C154.738 472.829 154.87 473.369 154.87 473.981C154.87 474.737 154.69 475.397 154.33 475.961C153.982 476.513 153.508 476.939 152.908 477.239C152.308 477.539 151.636 477.689 150.892 477.689ZM160.722 477.689C159.93 477.689 159.24 477.443 158.652 476.951C158.076 476.447 157.632 475.691 157.32 474.683C157.008 473.663 156.852 472.385 156.852 470.849C156.852 469.325 157.008 468.065 157.32 467.069C157.632 466.073 158.076 465.329 158.652 464.837C159.24 464.345 159.93 464.099 160.722 464.099C161.514 464.099 162.198 464.345 162.774 464.837C163.35 465.329 163.794 466.073 164.106 467.069C164.418 468.065 164.574 469.325 164.574 470.849C164.574 472.385 164.418 473.663 164.106 474.683C163.794 475.691 163.35 476.447 162.774 476.951C162.198 477.443 161.514 477.689 160.722 477.689ZM160.722 476.789C161.286 476.789 161.778 476.573 162.198 476.141C162.63 475.697 162.96 475.037 163.188 474.161C163.416 473.273 163.53 472.169 163.53 470.849C163.53 469.553 163.416 468.467 163.188 467.591C162.96 466.715 162.63 466.061 162.198 465.629C161.778 465.197 161.286 464.981 160.722 464.981C160.158 464.981 159.66 465.197 159.228 465.629C158.808 466.061 158.478 466.715 158.238 467.591C158.01 468.467 157.896 469.553 157.896 470.849C157.896 472.169 158.01 473.273 158.238 474.161C158.478 475.037 158.808 475.697 159.228 476.141C159.66 476.573 160.158 476.789 160.722 476.789ZM170.823 462.371L171.687 462.605C171.351 463.481 170.955 464.333 170.499 465.161C170.043 465.977 169.545 466.739 169.005 467.447C168.477 468.143 167.919 468.761 167.331 469.301C167.283 469.265 167.211 469.211 167.115 469.139C167.031 469.067 166.941 468.995 166.845 468.923C166.749 468.851 166.659 468.797 166.575 468.761C167.175 468.245 167.739 467.651 168.267 466.979C168.795 466.307 169.275 465.581 169.707 464.801C170.139 464.009 170.511 463.199 170.823 462.371ZM170.157 464.729H181.875V465.557H169.725L170.157 464.729ZM169.509 468.707H181.461V469.535H170.373V474.071H169.509V468.707ZM166.467 473.621H182.631V474.467H166.467V473.621ZM174.963 465.179H175.845V478.805H174.963V465.179Z" fill="white"/>
<path d="M259.81 477.455V476.807C261.298 475.535 262.492 474.377 263.392 473.333C264.304 472.277 264.97 471.305 265.39 470.417C265.81 469.517 266.02 468.671 266.02 467.879C266.02 467.339 265.924 466.853 265.732 466.421C265.552 465.977 265.264 465.629 264.868 465.377C264.472 465.125 263.962 464.999 263.338 464.999C262.774 464.999 262.24 465.149 261.736 465.449C261.244 465.749 260.806 466.139 260.422 466.619L259.756 465.989C260.248 465.437 260.788 464.987 261.376 464.639C261.964 464.279 262.654 464.099 263.446 464.099C264.214 464.099 264.868 464.255 265.408 464.567C265.948 464.879 266.362 465.317 266.65 465.881C266.938 466.433 267.082 467.093 267.082 467.861C267.082 468.773 266.854 469.697 266.398 470.633C265.954 471.569 265.312 472.529 264.472 473.513C263.632 474.497 262.63 475.535 261.466 476.627C261.826 476.603 262.186 476.579 262.546 476.555C262.918 476.531 263.278 476.519 263.626 476.519H267.73V477.455H259.81ZM273.457 477.689C272.665 477.689 271.975 477.443 271.387 476.951C270.811 476.447 270.367 475.691 270.055 474.683C269.743 473.663 269.587 472.385 269.587 470.849C269.587 469.325 269.743 468.065 270.055 467.069C270.367 466.073 270.811 465.329 271.387 464.837C271.975 464.345 272.665 464.099 273.457 464.099C274.249 464.099 274.933 464.345 275.509 464.837C276.085 465.329 276.529 466.073 276.841 467.069C277.153 468.065 277.309 469.325 277.309 470.849C277.309 472.385 277.153 473.663 276.841 474.683C276.529 475.691 276.085 476.447 275.509 476.951C274.933 477.443 274.249 477.689 273.457 477.689ZM273.457 476.789C274.021 476.789 274.513 476.573 274.933 476.141C275.365 475.697 275.695 475.037 275.923 474.161C276.151 473.273 276.265 472.169 276.265 470.849C276.265 469.553 276.151 468.467 275.923 467.591C275.695 466.715 275.365 466.061 274.933 465.629C274.513 465.197 274.021 464.981 273.457 464.981C272.893 464.981 272.395 465.197 271.963 465.629C271.543 466.061 271.213 466.715 270.973 467.591C270.745 468.467 270.631 469.553 270.631 470.849C270.631 472.169 270.745 473.273 270.973 474.161C271.213 475.037 271.543 475.697 271.963 476.141C272.395 476.573 272.893 476.789 273.457 476.789ZM282.892 477.689C282.22 477.689 281.632 477.605 281.128 477.437C280.624 477.257 280.18 477.029 279.796 476.753C279.424 476.477 279.106 476.189 278.842 475.889L279.418 475.187C279.802 475.583 280.264 475.949 280.804 476.285C281.344 476.609 282.034 476.771 282.874 476.771C283.45 476.771 283.954 476.657 284.386 476.429C284.818 476.201 285.16 475.877 285.412 475.457C285.664 475.037 285.79 474.545 285.79 473.981C285.79 473.393 285.64 472.877 285.34 472.433C285.052 471.989 284.59 471.647 283.954 471.407C283.318 471.167 282.478 471.047 281.434 471.047V470.147C282.406 470.147 283.168 470.021 283.72 469.769C284.284 469.517 284.686 469.181 284.926 468.761C285.178 468.329 285.304 467.849 285.304 467.321C285.304 466.625 285.082 466.067 284.638 465.647C284.194 465.215 283.594 464.999 282.838 464.999C282.262 464.999 281.728 465.131 281.236 465.395C280.744 465.647 280.324 465.965 279.976 466.349L279.364 465.629C279.82 465.209 280.33 464.849 280.894 464.549C281.458 464.249 282.112 464.099 282.856 464.099C283.528 464.099 284.134 464.225 284.674 464.477C285.214 464.729 285.64 465.089 285.952 465.557C286.264 466.025 286.42 466.595 286.42 467.267C286.42 468.119 286.192 468.815 285.736 469.355C285.28 469.895 284.704 470.279 284.008 470.507V470.597C284.524 470.705 284.998 470.909 285.43 471.209C285.874 471.509 286.222 471.893 286.474 472.361C286.738 472.829 286.87 473.369 286.87 473.981C286.87 474.737 286.69 475.397 286.33 475.961C285.982 476.513 285.508 476.939 284.908 477.239C284.308 477.539 283.636 477.689 282.892 477.689ZM292.452 477.689C291.78 477.689 291.192 477.605 290.688 477.437C290.184 477.257 289.746 477.041 289.374 476.789C289.014 476.525 288.69 476.255 288.402 475.979L288.996 475.241C289.248 475.505 289.53 475.757 289.842 475.997C290.154 476.225 290.52 476.411 290.94 476.555C291.36 476.699 291.852 476.771 292.416 476.771C292.968 476.771 293.478 476.633 293.946 476.357C294.414 476.069 294.786 475.661 295.062 475.133C295.338 474.593 295.476 473.975 295.476 473.279C295.476 472.235 295.2 471.413 294.648 470.813C294.108 470.213 293.382 469.913 292.47 469.913C292.002 469.913 291.588 469.991 291.228 470.147C290.88 470.291 290.52 470.489 290.148 470.741L289.464 470.327L289.914 464.333H295.908V465.269H290.85L290.472 469.661C290.784 469.469 291.114 469.319 291.462 469.211C291.822 469.103 292.224 469.049 292.668 469.049C293.388 469.049 294.042 469.199 294.63 469.499C295.23 469.787 295.704 470.243 296.052 470.867C296.4 471.479 296.574 472.271 296.574 473.243C296.574 474.191 296.37 474.995 295.962 475.655C295.566 476.315 295.056 476.819 294.432 477.167C293.808 477.515 293.148 477.689 292.452 477.689ZM302.823 462.371L303.687 462.605C303.351 463.481 302.955 464.333 302.499 465.161C302.043 465.977 301.545 466.739 301.005 467.447C300.477 468.143 299.919 468.761 299.331 469.301C299.283 469.265 299.211 469.211 299.115 469.139C299.031 469.067 298.941 468.995 298.845 468.923C298.749 468.851 298.659 468.797 298.575 468.761C299.175 468.245 299.739 467.651 300.267 466.979C300.795 466.307 301.275 465.581 301.707 464.801C302.139 464.009 302.511 463.199 302.823 462.371ZM302.157 464.729H313.875V465.557H301.725L302.157 464.729ZM301.509 468.707H313.461V469.535H302.373V474.071H301.509V468.707ZM298.467 473.621H314.631V474.467H298.467V473.621ZM306.963 465.179H307.845V478.805H306.963V465.179Z" fill="white"/>
<path d="M7.244 6.64H8.648V17.44H7.244V6.64ZM3.176 9.664V11.23H12.968V9.664H3.176ZM3.176 7.09V8.638H12.968V7.09H3.176ZM1.844 6.01H14.336V12.328H1.844V6.01ZM0.044 13.696H16.01V14.902H0.044V13.696ZM2.6 2.5V4.192H6.038V2.5H2.6ZM1.358 1.582H7.316V5.092H1.358V1.582ZM9.98 2.5V4.192H13.49V2.5H9.98ZM8.774 1.582H14.768V5.092H8.774V1.582ZM23.642 4.156H33.452V5.47H23.642V4.156ZM24.83 6.838L26.054 6.55C26.21 7.186 26.354 7.852 26.486 8.548C26.63 9.244 26.762 9.934 26.882 10.618C27.002 11.302 27.104 11.95 27.188 12.562C27.272 13.174 27.338 13.708 27.386 14.164L26.054 14.56C26.018 14.08 25.958 13.528 25.874 12.904C25.802 12.28 25.706 11.62 25.586 10.924C25.478 10.228 25.358 9.532 25.226 8.836C25.094 8.128 24.962 7.462 24.83 6.838ZM30.932 6.424L32.354 6.658C32.222 7.402 32.078 8.188 31.922 9.016C31.766 9.844 31.598 10.672 31.418 11.5C31.238 12.328 31.052 13.12 30.86 13.876C30.68 14.62 30.5 15.292 30.32 15.892L29.132 15.622C29.312 15.01 29.486 14.326 29.654 13.57C29.834 12.802 30.002 11.998 30.158 11.158C30.326 10.318 30.476 9.49 30.608 8.674C30.74 7.858 30.848 7.108 30.932 6.424ZM22.868 15.388H34.19V16.684H22.868V15.388ZM27.26 1.096L28.538 0.753999C28.706 1.198 28.874 1.684 29.042 2.212C29.222 2.728 29.36 3.178 29.456 3.562L28.106 3.958C28.034 3.574 27.914 3.112 27.746 2.572C27.59 2.032 27.428 1.54 27.26 1.096ZM22.148 0.952L23.426 1.33C23.03 2.35 22.568 3.358 22.04 4.354C21.524 5.338 20.96 6.268 20.348 7.144C19.736 8.02 19.106 8.794 18.458 9.466C18.41 9.358 18.338 9.22 18.242 9.052C18.158 8.884 18.062 8.716 17.954 8.548C17.858 8.368 17.768 8.23 17.684 8.134C18.272 7.546 18.842 6.868 19.394 6.1C19.946 5.332 20.456 4.51 20.924 3.634C21.404 2.746 21.812 1.852 22.148 0.952ZM20.24 5.578L21.572 4.246L21.59 4.264V17.404H20.24V5.578ZM44 6.208C43.64 6.208 43.322 6.088 43.046 5.848C42.77 5.596 42.632 5.266 42.632 4.858C42.632 4.45 42.77 4.126 43.046 3.886C43.322 3.634 43.64 3.508 44 3.508C44.36 3.508 44.678 3.634 44.954 3.886C45.23 4.126 45.368 4.45 45.368 4.858C45.368 5.266 45.23 5.596 44.954 5.848C44.678 6.088 44.36 6.208 44 6.208ZM44 15.028C43.64 15.028 43.322 14.908 43.046 14.668C42.77 14.416 42.632 14.086 42.632 13.678C42.632 13.258 42.77 12.928 43.046 12.688C43.322 12.436 43.64 12.31 44 12.31C44.36 12.31 44.678 12.436 44.954 12.688C45.23 12.928 45.368 13.258 45.368 13.678C45.368 14.086 45.23 14.416 44.954 14.668C44.678 14.908 44.36 15.028 44 15.028ZM53.99 7.612H70.136V8.998H53.99V7.612ZM61.298 0.897999H62.756V17.44H61.298V0.897999ZM77.102 2.662H87.722V3.688H77.102V2.662ZM76.274 5.452H88.334V6.55H76.274V5.452ZM78.848 3.994L79.982 3.724C80.138 3.952 80.282 4.21 80.414 4.498C80.558 4.774 80.66 5.02 80.72 5.236L79.514 5.542C79.478 5.326 79.394 5.074 79.262 4.786C79.13 4.498 78.992 4.234 78.848 3.994ZM84.41 3.652L85.76 4.012C85.556 4.408 85.34 4.804 85.112 5.2C84.884 5.584 84.674 5.92 84.482 6.208L83.42 5.884C83.6 5.572 83.786 5.206 83.978 4.786C84.17 4.354 84.314 3.976 84.41 3.652ZM79.082 10.402V11.572H85.544V10.402H79.082ZM79.082 8.422V9.556H85.544V8.422H79.082ZM77.804 7.504H86.876V12.49H77.804V7.504ZM77.516 13.444L78.56 13.93C78.38 14.374 78.164 14.89 77.912 15.478C77.66 16.054 77.396 16.552 77.12 16.972L76.022 16.378C76.214 16.126 76.4 15.832 76.58 15.496C76.772 15.148 76.946 14.794 77.102 14.434C77.27 14.074 77.408 13.744 77.516 13.444ZM79.172 13.426H80.414V15.82C80.414 16.012 80.468 16.132 80.576 16.18C80.684 16.24 80.93 16.27 81.314 16.27C81.398 16.27 81.56 16.27 81.8 16.27C82.052 16.27 82.322 16.27 82.61 16.27C82.91 16.27 83.186 16.27 83.438 16.27C83.702 16.27 83.894 16.27 84.014 16.27C84.206 16.27 84.35 16.24 84.446 16.18C84.554 16.12 84.626 16 84.662 15.82C84.71 15.628 84.746 15.334 84.77 14.938C84.902 15.022 85.076 15.106 85.292 15.19C85.52 15.262 85.712 15.322 85.868 15.37C85.832 15.91 85.754 16.324 85.634 16.612C85.514 16.9 85.34 17.098 85.112 17.206C84.884 17.314 84.566 17.368 84.158 17.368C84.086 17.368 83.948 17.368 83.744 17.368C83.552 17.368 83.324 17.368 83.06 17.368C82.808 17.368 82.55 17.368 82.286 17.368C82.022 17.368 81.788 17.368 81.584 17.368C81.392 17.368 81.26 17.368 81.188 17.368C80.648 17.368 80.234 17.326 79.946 17.242C79.658 17.158 79.454 17.002 79.334 16.774C79.226 16.546 79.172 16.228 79.172 15.82V13.426ZM80.576 12.994L81.404 12.328C81.716 12.496 82.034 12.7 82.358 12.94C82.682 13.168 82.988 13.396 83.276 13.624C83.576 13.852 83.816 14.068 83.996 14.272L83.114 15.028C82.946 14.836 82.718 14.62 82.43 14.38C82.142 14.14 81.836 13.9 81.512 13.66C81.188 13.408 80.876 13.186 80.576 12.994ZM85.148 13.696L86.21 13.228C86.486 13.552 86.762 13.906 87.038 14.29C87.314 14.674 87.572 15.052 87.812 15.424C88.064 15.784 88.256 16.108 88.388 16.396L87.254 16.954C87.122 16.666 86.942 16.33 86.714 15.946C86.486 15.562 86.234 15.178 85.958 14.794C85.694 14.398 85.424 14.032 85.148 13.696ZM81.008 1.06L82.268 0.843999C82.424 1.144 82.58 1.48 82.736 1.852C82.904 2.224 83.024 2.542 83.096 2.806L81.782 3.094C81.71 2.83 81.596 2.506 81.44 2.122C81.296 1.738 81.152 1.384 81.008 1.06ZM75.788 0.952L77.084 1.33C76.712 2.35 76.274 3.358 75.77 4.354C75.278 5.338 74.738 6.268 74.15 7.144C73.574 8.008 72.974 8.782 72.35 9.466C72.314 9.358 72.248 9.22 72.152 9.052C72.056 8.884 71.954 8.716 71.846 8.548C71.75 8.368 71.66 8.23 71.576 8.134C72.14 7.546 72.68 6.868 73.196 6.1C73.724 5.32 74.21 4.492 74.654 3.616C75.098 2.74 75.476 1.852 75.788 0.952ZM73.88 5.578L75.158 4.3L75.176 4.318V17.404H73.88V5.578ZM90.656 3.4H105.326V4.606H90.656V3.4ZM91.646 6.082H104.444V7.252H91.646V6.082ZM90.404 11.374H105.794V12.544H90.404V11.374ZM90.008 8.782H106.1V9.988H90.008V8.782ZM97.28 4.084H98.648V9.646H97.28V4.084ZM93.068 1.312L94.256 0.807999C94.58 1.156 94.886 1.546 95.174 1.978C95.474 2.398 95.696 2.77 95.84 3.094L94.58 3.67C94.46 3.334 94.256 2.944 93.968 2.5C93.68 2.056 93.38 1.66 93.068 1.312ZM101.51 0.807999L102.914 1.24C102.614 1.732 102.29 2.23 101.942 2.734C101.594 3.226 101.27 3.646 100.97 3.994L99.818 3.58C100.01 3.34 100.208 3.058 100.412 2.734C100.628 2.398 100.832 2.062 101.024 1.726C101.216 1.39 101.378 1.084 101.51 0.807999ZM97.172 9.592H98.594C98.498 10.444 98.36 11.23 98.18 11.95C98 12.658 97.73 13.3 97.37 13.876C97.022 14.452 96.548 14.968 95.948 15.424C95.36 15.868 94.61 16.252 93.698 16.576C92.798 16.9 91.706 17.17 90.422 17.386C90.398 17.266 90.344 17.128 90.26 16.972C90.188 16.828 90.104 16.684 90.008 16.54C89.912 16.396 89.822 16.276 89.738 16.18C90.95 16 91.97 15.772 92.798 15.496C93.638 15.22 94.328 14.896 94.868 14.524C95.408 14.152 95.828 13.726 96.128 13.246C96.44 12.754 96.674 12.208 96.83 11.608C96.986 10.996 97.1 10.324 97.172 9.592ZM98.09 13.75L98.684 12.742C99.308 12.982 99.962 13.252 100.646 13.552C101.342 13.852 102.026 14.164 102.698 14.488C103.37 14.812 104 15.136 104.588 15.46C105.176 15.772 105.674 16.066 106.082 16.342L105.434 17.512C105.038 17.224 104.552 16.912 103.976 16.576C103.4 16.252 102.776 15.922 102.104 15.586C101.432 15.238 100.748 14.908 100.052 14.596C99.368 14.272 98.714 13.99 98.09 13.75ZM117.494 8.134H118.862V15.082C118.862 15.406 118.916 15.616 119.024 15.712C119.132 15.796 119.36 15.838 119.708 15.838C119.792 15.838 119.936 15.838 120.14 15.838C120.356 15.838 120.59 15.838 120.842 15.838C121.094 15.838 121.328 15.838 121.544 15.838C121.772 15.838 121.94 15.838 122.048 15.838C122.3 15.838 122.486 15.76 122.606 15.604C122.726 15.436 122.81 15.124 122.858 14.668C122.918 14.2 122.954 13.504 122.966 12.58C123.086 12.664 123.218 12.748 123.362 12.832C123.506 12.904 123.656 12.97 123.812 13.03C123.98 13.09 124.124 13.138 124.244 13.174C124.196 14.206 124.106 15.01 123.974 15.586C123.854 16.15 123.65 16.546 123.362 16.774C123.086 17.002 122.684 17.116 122.156 17.116C122.072 17.116 121.904 17.116 121.652 17.116C121.4 17.116 121.13 17.116 120.842 17.116C120.554 17.116 120.284 17.116 120.032 17.116C119.792 17.116 119.63 17.116 119.546 17.116C119.018 17.116 118.598 17.056 118.286 16.936C117.986 16.816 117.776 16.606 117.656 16.306C117.548 16.018 117.494 15.616 117.494 15.1V8.134ZM108.062 7.324H123.956V8.656H108.062V7.324ZM109.646 2.284H122.426V3.58H109.646V2.284ZM112.67 8.35H114.11C114.026 9.358 113.9 10.312 113.732 11.212C113.564 12.112 113.288 12.952 112.904 13.732C112.532 14.5 112.004 15.196 111.32 15.82C110.648 16.444 109.778 16.966 108.71 17.386C108.638 17.23 108.518 17.044 108.35 16.828C108.182 16.624 108.02 16.462 107.864 16.342C108.848 15.97 109.64 15.508 110.24 14.956C110.852 14.404 111.32 13.786 111.644 13.102C111.98 12.406 112.22 11.662 112.364 10.87C112.508 10.066 112.61 9.226 112.67 8.35Z" fill="white"/>
</svg>
