<svg width="415" height="972" viewBox="0 0 415 972" fill="none" xmlns="http://www.w3.org/2000/svg">
<mask id="mask0_669_10907" style="mask-type:alpha" maskUnits="userSpaceOnUse" x="1" y="0" width="168" height="972">
<rect x="1" y="0.289062" width="168" height="971" fill="#D9D9D9"/>
</mask>
<g mask="url(#mask0_669_10907)">
<g filter="url(#filter0_d_669_10907)">
<path d="M-830.444 1367.09C-353.38 1367.09 33.3574 982.276 33.3574 507.583C33.3574 32.8893 -353.38 -351.926 -830.444 -351.926C-1307.51 -351.926 -1694.25 32.8893 -1694.25 507.583C-1694.25 982.276 -1307.51 1367.09 -830.444 1367.09Z" fill="black" shape-rendering="crispEdges"/>
<path d="M-830.444 1367.09C-353.38 1367.09 33.3574 982.276 33.3574 507.583C33.3574 32.8893 -353.38 -351.926 -830.444 -351.926C-1307.51 -351.926 -1694.25 32.8893 -1694.25 507.583C-1694.25 982.276 -1307.51 1367.09 -830.444 1367.09Z" stroke="url(#paint0_linear_669_10907)" stroke-linecap="round" stroke-linejoin="round" shape-rendering="crispEdges"/>
</g>
</g>
<path d="M3.09367 92.2891C70.3611 213.595 109 355.346 109 506.789C109 659.797 69.5587 802.91 1 925.042" stroke="white" stroke-linecap="round" stroke-linejoin="round"/>
<path d="M64 242.289C40.8427 242.289 22 223.446 22 200.289C22 177.132 40.8427 158.289 64 158.289C87.1573 158.289 106 177.132 106 200.289C106 223.446 87.1573 242.289 64 242.289ZM64 159.762C41.6556 159.762 23.4729 177.945 23.4729 200.289C23.4729 222.633 41.6556 240.816 64 240.816C86.3444 240.816 104.527 222.633 104.527 200.289C104.527 177.945 86.3444 159.762 64 159.762Z" fill="url(#paint1_linear_669_10907)"/>
<path d="M63.9997 159.762C41.6553 159.762 23.4727 177.944 23.4727 200.289C23.4727 222.633 41.6553 240.816 63.9997 240.816C86.3441 240.816 104.527 222.633 104.527 200.289C104.527 177.944 86.3441 159.762 63.9997 159.762Z" fill="#04060C"/>
<path d="M76.3221 200.288C76.3221 207.097 70.8055 212.621 63.9896 212.621C57.1738 212.621 51.6641 207.104 51.6641 200.288C51.6641 193.473 57.1807 187.963 63.9896 187.963C70.7986 187.963 76.3221 193.48 76.3221 200.288Z" fill="white" stroke="white" stroke-width="0.5" stroke-linecap="round" stroke-linejoin="round"/>
<path d="M61.8945 176.847V183.851C61.8945 185.011 62.8325 185.956 63.9997 185.956C65.167 185.956 66.105 185.011 66.105 183.851V176.847C66.105 175.687 65.167 174.742 63.9997 174.742C62.8325 174.742 61.8945 175.687 61.8945 176.847Z" fill="white" stroke="white" stroke-width="0.5" stroke-linecap="round" stroke-linejoin="round"/>
<path d="M47.9938 184.287C47.1739 185.107 47.1739 186.441 47.9938 187.26L50.8911 190.158C51.7109 190.978 53.0449 190.978 53.8648 190.158C54.6846 189.338 54.6846 188.004 53.8648 187.184L50.9675 184.287C50.1476 183.467 48.8136 183.467 47.9938 184.287Z" fill="white" stroke="white" stroke-width="0.5" stroke-linecap="round" stroke-linejoin="round"/>
<path d="M40.5583 198.184C39.398 198.184 38.4531 199.129 38.4531 200.289C38.4531 201.449 39.3911 202.394 40.5583 202.394H47.5618C48.7221 202.394 49.667 201.449 49.667 200.289C49.667 199.129 48.729 198.184 47.5618 198.184H40.5583Z" fill="white" stroke="white" stroke-width="0.5" stroke-linecap="round" stroke-linejoin="round"/>
<path d="M50.8911 210.433L47.9938 213.331C47.1739 214.15 47.1739 215.484 47.9938 216.304C48.8136 217.124 50.1476 217.124 50.9675 216.304L53.8648 213.407C54.6846 212.587 54.6846 211.253 53.8648 210.433C53.0449 209.613 51.7109 209.613 50.8911 210.433Z" fill="white" stroke="white" stroke-width="0.5" stroke-linecap="round" stroke-linejoin="round"/>
<path d="M61.8945 216.73V223.741C61.8945 224.901 62.8325 225.846 63.9997 225.846C65.167 225.846 66.105 224.901 66.105 223.741V216.73C66.105 215.57 65.167 214.625 63.9997 214.625C62.8325 214.625 61.8945 215.57 61.8945 216.73Z" fill="white" stroke="white" stroke-width="0.5" stroke-linecap="round" stroke-linejoin="round"/>
<path d="M74.1344 210.433C73.3146 211.253 73.3146 212.587 74.1344 213.407L77.0317 216.304C77.8516 217.124 79.1855 217.124 80.0054 216.304C80.8252 215.484 80.8252 214.15 80.0054 213.331L77.1081 210.433C76.2883 209.613 74.9543 209.613 74.1344 210.433Z" fill="white" stroke="white" stroke-width="0.5" stroke-linecap="round" stroke-linejoin="round"/>
<path d="M80.4372 198.184C79.2769 198.184 78.332 199.129 78.332 200.289C78.332 201.449 79.27 202.394 80.4372 202.394H87.4407C88.601 202.394 89.5459 201.449 89.5459 200.289C89.5459 199.129 88.608 198.184 87.4407 198.184H80.4372Z" fill="white" stroke="white" stroke-width="0.5" stroke-linecap="round" stroke-linejoin="round"/>
<path d="M77.0317 184.287L74.1344 187.184C73.3146 188.004 73.3146 189.338 74.1344 190.158C74.9543 190.978 76.2883 190.978 77.1081 190.158L80.0054 187.26C80.8252 186.441 80.8252 185.107 80.0054 184.287C79.1855 183.467 77.8516 183.467 77.0317 184.287Z" fill="white" stroke="white" stroke-width="0.5" stroke-linecap="round" stroke-linejoin="round"/>
<path d="M102 549.254C78.8427 549.254 60 530.411 60 507.254C60 484.097 78.8427 465.254 102 465.254C125.157 465.254 144 484.097 144 507.254C144 530.411 125.157 549.254 102 549.254ZM102 466.727C79.6556 466.727 61.4729 484.909 61.4729 507.254C61.4729 529.598 79.6556 547.781 102 547.781C124.344 547.781 142.527 529.598 142.527 507.254C142.527 484.909 124.344 466.727 102 466.727Z" fill="url(#paint2_linear_669_10907)"/>
<path d="M102 466.727C79.6553 466.727 61.4727 484.909 61.4727 507.254C61.4727 529.598 79.6553 547.781 102 547.781C124.344 547.781 142.527 529.598 142.527 507.254C142.527 484.909 124.344 466.727 102 466.727Z" fill="#04060C"/>
<path d="M116.905 500.292L102.001 479.963L87.1121 500.292C84.1801 503.725 82.3945 508.164 82.3945 513.021C82.3945 523.846 91.1697 532.628 102.001 532.628C112.833 532.628 121.608 523.846 121.608 513.021C121.608 505.524 116.905 500.285 116.905 500.285V500.292Z" fill="white" stroke="white" stroke-width="0.5" stroke-linecap="round" stroke-linejoin="round"/>
<path d="M87.7725 510.644C86.4246 514.688 85.3199 522.393 94.366 526.249C95.2415 526.624 96.5963 526.437 95.7834 525.784C91.2742 522.115 88.3005 517.266 88.8564 509.651C88.9258 508.734 88.3005 509.06 87.7725 510.651V510.644Z" fill="#04060C" stroke="white" stroke-width="0.5" stroke-linecap="round" stroke-linejoin="round"/>
<path d="M92 389.254C68.8427 389.254 50 370.411 50 347.254C50 324.097 68.8427 305.254 92 305.254C115.157 305.254 134 324.097 134 347.254C134 370.411 115.157 389.254 92 389.254ZM92 306.727C69.6556 306.727 51.4729 324.909 51.4729 347.254C51.4729 369.598 69.6556 387.781 92 387.781C114.344 387.781 132.527 369.598 132.527 347.254C132.527 324.909 114.344 306.727 92 306.727Z" fill="url(#paint3_linear_669_10907)"/>
<path d="M91.9997 306.727C69.6553 306.727 51.4727 324.909 51.4727 347.254C51.4727 369.598 69.6553 387.781 91.9997 387.781C114.344 387.781 132.527 369.598 132.527 347.254C132.527 324.909 114.344 306.727 91.9997 306.727Z" fill="#04060C"/>
<path d="M91.9987 374.263C106.914 374.263 119.005 362.172 119.005 347.256C119.005 332.341 106.914 320.25 91.9987 320.25C77.0834 320.25 64.9922 332.341 64.9922 347.256C64.9922 362.172 77.0834 374.263 91.9987 374.263Z" stroke="white" stroke-width="0.5" stroke-linecap="round" stroke-linejoin="round"/>
<path d="M96.2158 345.77C100.233 345.77 103.49 342.513 103.49 338.495C103.49 334.478 100.233 331.221 96.2158 331.221C92.1983 331.221 88.9414 334.478 88.9414 338.495C88.9414 342.513 92.1983 345.77 96.2158 345.77Z" fill="white" stroke="white" stroke-width="0.5" stroke-linecap="round" stroke-linejoin="round"/>
<path d="M99.1441 337.339H97.3724V335.567C97.3724 334.935 96.8513 334.414 96.219 334.414C95.5868 334.414 95.0657 334.935 95.0657 335.567V337.339H93.294C92.6617 337.339 92.1406 337.86 92.1406 338.492C92.1406 339.125 92.6617 339.646 93.294 339.646H95.0657V341.418C95.0657 342.05 95.5868 342.571 96.219 342.571C96.8513 342.571 97.3724 342.05 97.3724 341.418V339.646H99.1441C99.7764 339.646 100.297 339.125 100.297 338.492C100.297 337.86 99.7764 337.339 99.1441 337.339Z" fill="#04060C" stroke="white" stroke-linecap="round" stroke-linejoin="round"/>
<path d="M111.731 335.756C115.749 335.756 119.006 332.499 119.006 328.481C119.006 324.464 115.749 321.207 111.731 321.207C107.714 321.207 104.457 324.464 104.457 328.481C104.457 332.499 107.714 335.756 111.731 335.756Z" fill="white" stroke="white" stroke-width="0.5" stroke-linecap="round" stroke-linejoin="round"/>
<path d="M114.659 329.635C115.291 329.635 115.812 329.114 115.812 328.481C115.812 327.849 115.291 327.328 114.659 327.328H108.802C108.17 327.328 107.648 327.849 107.648 328.481C107.648 329.114 108.17 329.635 108.802 329.635H114.659Z" fill="#04060C"/>
<path d="M73.9268 374.262C77.9444 374.262 81.2012 371.005 81.2012 366.987C81.2012 362.97 77.9444 359.713 73.9268 359.713C69.9092 359.713 66.6523 362.97 66.6523 366.987C66.6523 371.005 69.9092 374.262 73.9268 374.262Z" fill="white" stroke="white" stroke-width="0.5" stroke-linecap="round" stroke-linejoin="round"/>
<path d="M76.8542 368.141C77.4864 368.141 78.0075 367.62 78.0075 366.987C78.0075 366.355 77.4864 365.834 76.8542 365.834H70.9971C70.3648 365.834 69.8438 366.355 69.8438 366.987C69.8438 367.62 70.3648 368.141 70.9971 368.141H76.8542Z" fill="#04060C"/>
<path d="M96.2158 364.389C100.233 364.389 103.49 361.132 103.49 357.114C103.49 353.097 100.233 349.84 96.2158 349.84C92.1983 349.84 88.9414 353.097 88.9414 357.114C88.9414 361.132 92.1983 364.389 96.2158 364.389Z" fill="white" stroke="white" stroke-width="0.5" stroke-linecap="round" stroke-linejoin="round"/>
<path d="M82.126 355.57C86.1436 355.57 89.4004 352.313 89.4004 348.296C89.4004 344.278 86.1436 341.021 82.126 341.021C78.1084 341.021 74.8516 344.278 74.8516 348.296C74.8516 352.313 78.1084 355.57 82.126 355.57Z" fill="white" stroke="white" stroke-width="0.5" stroke-linecap="round" stroke-linejoin="round"/>
<path d="M85.0504 347.144H83.2786V345.372C83.2786 344.74 82.7575 344.219 82.1253 344.219C81.493 344.219 80.9719 344.74 80.9719 345.372V347.144H79.2002C78.568 347.144 78.0469 347.665 78.0469 348.297C78.0469 348.929 78.568 349.451 79.2002 349.451H80.9719V351.222C80.9719 351.854 81.493 352.376 82.1253 352.376C82.7575 352.376 83.2786 351.854 83.2786 351.222V349.451H85.0504C85.6826 349.451 86.2037 348.929 86.2037 348.297C86.2037 347.665 85.6826 347.144 85.0504 347.144Z" fill="#04060C" stroke="white" stroke-linecap="round" stroke-linejoin="round"/>
<path d="M64 855.254C40.8427 855.254 22 836.411 22 813.254C22 790.097 40.8427 771.254 64 771.254C87.1573 771.254 106 790.097 106 813.254C106 836.411 87.1573 855.254 64 855.254ZM64 772.727C41.6556 772.727 23.473 790.909 23.473 813.254C23.473 835.598 41.6556 853.781 64 853.781C86.3444 853.781 104.527 835.598 104.527 813.254C104.527 790.909 86.3514 772.727 64 772.727Z" fill="url(#paint4_linear_669_10907)"/>
<path d="M63.9997 772.727C41.6553 772.727 23.4727 790.909 23.4727 813.254C23.4727 835.598 41.6553 853.781 63.9997 853.781C86.3441 853.781 104.527 835.598 104.527 813.254C104.527 790.909 86.3511 772.727 63.9997 772.727Z" fill="#04060C"/>
<path d="M95.0453 829.993C96.1917 827.874 97.1296 825.629 97.8244 823.281C99.3738 818.702 99.6448 815.77 99.6448 815.77C89.355 807.787 80.0517 808.274 73.6249 810.629C66.4269 813.262 62.6612 810.073 55.3172 807.613C40.9559 802.812 29.1445 817.306 29.1445 817.306C29.1584 819.279 29.5684 820.919 29.5684 820.919C33.077 836.704 47.1813 848.544 64.0021 848.544C77.3768 848.544 89.0284 841.061 95.0036 830.069C95.0036 830.062 95.0175 830.055 95.0175 830.041C95.0244 830.027 95.0314 830.013 95.0383 830L95.0453 829.993Z" fill="white" stroke="white" stroke-width="0.5" stroke-linecap="round" stroke-linejoin="round"/>
<path d="M66.4235 831.702C68.1848 831.702 69.6126 830.275 69.6126 828.513C69.6126 826.752 68.1848 825.324 66.4235 825.324C64.6622 825.324 63.2344 826.752 63.2344 828.513C63.2344 830.275 64.6622 831.702 66.4235 831.702Z" fill="#04060C" stroke="white" stroke-width="0.5" stroke-linecap="round" stroke-linejoin="round"/>
<path d="M91.1188 822.82C92.88 822.82 94.3078 821.392 94.3078 819.63C94.3078 817.869 92.88 816.441 91.1188 816.441C89.3575 816.441 87.9297 817.869 87.9297 819.63C87.9297 821.392 89.3575 822.82 91.1188 822.82Z" fill="#04060C" stroke="white" stroke-width="0.5" stroke-linecap="round" stroke-linejoin="round"/>
<path d="M51.5719 819.222C53.3332 819.222 54.761 817.794 54.761 816.033C54.761 814.272 53.3332 812.844 51.5719 812.844C49.8106 812.844 48.3828 814.272 48.3828 816.033C48.3828 817.794 49.8106 819.222 51.5719 819.222Z" fill="#04060C" stroke="white" stroke-width="0.5" stroke-linecap="round" stroke-linejoin="round"/>
<path d="M78.2695 836.447C79.7085 836.447 80.875 835.281 80.875 833.842C80.875 832.403 79.7085 831.236 78.2695 831.236C76.8306 831.236 75.6641 832.403 75.6641 833.842C75.6641 835.281 76.8306 836.447 78.2695 836.447Z" fill="#04060C" stroke="white" stroke-width="0.5" stroke-linecap="round" stroke-linejoin="round"/>
<path d="M55.3163 838.08C56.2181 838.08 56.9491 837.349 56.9491 836.447C56.9491 835.545 56.2181 834.814 55.3163 834.814C54.4146 834.814 53.6836 835.545 53.6836 836.447C53.6836 837.349 54.4146 838.08 55.3163 838.08Z" fill="#04060C" stroke="white" stroke-width="0.5" stroke-linecap="round" stroke-linejoin="round"/>
<path d="M58.5859 844.973C59.4876 844.973 60.2186 844.242 60.2186 843.34C60.2186 842.438 59.4876 841.707 58.5859 841.707C57.6841 841.707 56.9531 842.438 56.9531 843.34C56.9531 844.242 57.6841 844.973 58.5859 844.973Z" fill="#04060C" stroke="white" stroke-width="0.5" stroke-linecap="round" stroke-linejoin="round"/>
<path d="M73.621 840.49C74.5228 840.49 75.2538 839.759 75.2538 838.857C75.2538 837.956 74.5228 837.225 73.621 837.225C72.7193 837.225 71.9883 837.956 71.9883 838.857C71.9883 839.759 72.7193 840.49 73.621 840.49Z" fill="#04060C" stroke="white" stroke-width="0.5" stroke-linecap="round" stroke-linejoin="round"/>
<path d="M57.9296 831.664C58.8314 831.664 59.5624 830.933 59.5624 830.031C59.5624 829.129 58.8314 828.398 57.9296 828.398C57.0279 828.398 56.2969 829.129 56.2969 830.031C56.2969 830.933 57.0279 831.664 57.9296 831.664Z" fill="#04060C" stroke="white" stroke-width="0.5" stroke-linecap="round" stroke-linejoin="round"/>
<path d="M61.8593 819.707C62.7611 819.707 63.4921 818.976 63.4921 818.074C63.4921 817.172 62.7611 816.441 61.8593 816.441C60.9576 816.441 60.2266 817.172 60.2266 818.074C60.2266 818.976 60.9576 819.707 61.8593 819.707Z" fill="#04060C" stroke="white" stroke-width="0.5" stroke-linecap="round" stroke-linejoin="round"/>
<path d="M38.5507 829.06C39.4525 829.06 40.1835 828.329 40.1835 827.428C40.1835 826.526 39.4525 825.795 38.5507 825.795C37.649 825.795 36.918 826.526 36.918 827.428C36.918 828.329 37.649 829.06 38.5507 829.06Z" fill="#04060C" stroke="white" stroke-width="0.5" stroke-linecap="round" stroke-linejoin="round"/>
<path d="M52.7109 826.976C53.6126 826.976 54.3436 826.245 54.3436 825.344C54.3436 824.442 53.6126 823.711 52.7109 823.711C51.8091 823.711 51.0781 824.442 51.0781 825.344C51.0781 826.245 51.8091 826.976 52.7109 826.976Z" fill="#04060C" stroke="white" stroke-width="0.5" stroke-linecap="round" stroke-linejoin="round"/>
<path d="M40.1835 819.707C41.0853 819.707 41.8163 818.976 41.8163 818.074C41.8163 817.172 41.0853 816.441 40.1835 816.441C39.2818 816.441 38.5508 817.172 38.5508 818.074C38.5508 818.976 39.2818 819.707 40.1835 819.707Z" fill="#04060C" stroke="white" stroke-width="0.5" stroke-linecap="round" stroke-linejoin="round"/>
<path d="M45.8398 837.215C47.2788 837.215 48.4453 836.048 48.4453 834.609C48.4453 833.17 47.2788 832.004 45.8398 832.004C44.4009 832.004 43.2344 833.17 43.2344 834.609C43.2344 836.048 44.4009 837.215 45.8398 837.215Z" fill="#04060C" stroke="white" stroke-width="0.5" stroke-linecap="round" stroke-linejoin="round"/>
<path d="M66.4242 842.692C67.5062 842.692 68.3834 841.815 68.3834 840.733C68.3834 839.651 67.5062 838.773 66.4242 838.773C65.3421 838.773 64.4648 839.651 64.4648 840.733C64.4648 841.815 65.3421 842.692 66.4242 842.692Z" fill="#04060C" stroke="white" stroke-width="0.5" stroke-linecap="round" stroke-linejoin="round"/>
<path d="M80.871 819.707C81.7728 819.707 82.5038 818.976 82.5038 818.074C82.5038 817.172 81.7728 816.441 80.871 816.441C79.9693 816.441 79.2383 817.172 79.2383 818.074C79.2383 818.976 79.9693 819.707 80.871 819.707Z" fill="#04060C" stroke="white" stroke-width="0.5" stroke-linecap="round" stroke-linejoin="round"/>
<path d="M69.6132 817.992C70.515 817.992 71.246 817.261 71.246 816.359C71.246 815.458 70.515 814.727 69.6132 814.727C68.7115 814.727 67.9805 815.458 67.9805 816.359C67.9805 817.261 68.7115 817.992 69.6132 817.992Z" fill="#04060C" stroke="white" stroke-width="0.5" stroke-linecap="round" stroke-linejoin="round"/>
<path d="M82.4062 828.512C83.8452 828.512 85.0117 827.345 85.0117 825.906C85.0117 824.467 83.8452 823.301 82.4062 823.301C80.9673 823.301 79.8008 824.467 79.8008 825.906C79.8008 827.345 80.9673 828.512 82.4062 828.512Z" fill="#04060C" stroke="white" stroke-width="0.5" stroke-linecap="round" stroke-linejoin="round"/>
<path d="M88.6992 831.664C89.6009 831.664 90.3319 830.933 90.3319 830.031C90.3319 829.129 89.6009 828.398 88.6992 828.398C87.7974 828.398 87.0664 829.129 87.0664 830.031C87.0664 830.933 87.7974 831.664 88.6992 831.664Z" fill="#04060C" stroke="white" stroke-width="0.5" stroke-linecap="round" stroke-linejoin="round"/>
<path d="M89 711.254C65.8427 711.254 47 692.411 47 669.254C47 646.097 65.8427 627.254 89 627.254C112.157 627.254 131 646.097 131 669.254C131 692.411 112.157 711.254 89 711.254ZM89 628.727C66.6556 628.727 48.473 646.909 48.473 669.254C48.473 691.598 66.6556 709.781 89 709.781C111.344 709.781 129.527 691.598 129.527 669.254C129.527 646.909 111.344 628.727 89 628.727Z" fill="url(#paint5_linear_669_10907)"/>
<path d="M88.9997 628.727C66.6553 628.727 48.4727 646.909 48.4727 669.254C48.4727 691.598 66.6553 709.781 88.9997 709.781C111.344 709.781 129.527 691.598 129.527 669.254C129.527 646.909 111.344 628.727 88.9997 628.727Z" fill="#04060C"/>
<path d="M78.0008 655.219L81.7804 651.154L87.4499 647.527L90.9933 651.939L93.7516 652.961L97.2186 656.268L102.652 657.136L112.657 661.708C112.344 665.724 114.623 668.802 114.783 669.663C114.943 670.532 113.442 672.971 110.843 673.915C108.245 674.86 105.41 679.432 104.854 680.849C104.305 682.267 103.124 685.261 101.151 685.574C99.1779 685.887 99.7338 687.068 98.3928 688.409C97.0519 689.75 94.1407 688.485 91.3824 688.569C88.6241 688.645 85.7893 689.513 85.7893 689.513L75.1521 682.656L73.7347 682.024C69.7189 681.315 66.8633 676.549 66.8633 676.549L68.2251 661.145C68.2251 661.145 72.3243 656.184 75.6315 655.476L77.9938 655.212L78.0008 655.219Z" fill="white" stroke="white" stroke-width="0.5" stroke-linecap="round" stroke-linejoin="round"/>
<path d="M78.0234 655.324C81.8795 655.137 87.3406 655.595 87.3406 655.595C87.3406 655.595 89.3068 655.832 93.0934 659.847C96.88 663.863 100.5 665.441 101.521 665.441C102.543 665.441 105.065 665.837 106.802 666.934C108.532 668.039 113.736 671.27 113.736 671.27" stroke="#04060C" stroke-width="0.5" stroke-linecap="round" stroke-linejoin="round"/>
<path d="M99.8586 686.082C99.8586 686.082 99.3097 685.374 97.413 683.56C95.5231 681.747 92.605 682.296 90.4025 683.005C88.2001 683.713 89.0616 684.026 84.337 682.136C80.203 680.482 78.2368 682.268 75.1172 682.261" stroke="#04060C" stroke-width="0.5" stroke-linecap="round" stroke-linejoin="round"/>
<path d="M90.9608 652.051L85.2148 655.448" stroke="#04060C" stroke-width="0.5" stroke-linecap="round" stroke-linejoin="round"/>
<path d="M80.4805 655.447C80.4805 655.447 82.8428 656.462 84.1837 660.478C85.5246 664.493 85.4413 669.774 89.3043 671.031" stroke="#04060C" stroke-width="0.5" stroke-linecap="round" stroke-linejoin="round"/>
<path d="M103.549 665.695C103.549 665.695 99.7835 668.037 100.569 669.294C101.354 670.552 104.008 672.365 103.549 673.866C103.091 675.367 102.931 676.069 102.931 676.069" stroke="#04060C" stroke-width="0.5" stroke-linecap="round" stroke-linejoin="round"/>
<path d="M101.764 670.68L94.9414 675.21" stroke="#04060C" stroke-width="0.5" stroke-linecap="round" stroke-linejoin="round"/>
<path d="M77.4586 666.068C78.7518 666.068 79.8001 665.019 79.8001 663.726C79.8001 662.433 78.7518 661.385 77.4586 661.385C76.1655 661.385 75.1172 662.433 75.1172 663.726C75.1172 665.019 76.1655 666.068 77.4586 666.068Z" fill="#04060C" stroke="white" stroke-width="0.5" stroke-linecap="round" stroke-linejoin="round"/>
<path d="M71.9 676.077C73.1932 676.077 74.2415 675.029 74.2415 673.736C74.2415 672.443 73.1932 671.395 71.9 671.395C70.6069 671.395 69.5586 672.443 69.5586 673.736C69.5586 675.029 70.6069 676.077 71.9 676.077Z" fill="#04060C" stroke="white" stroke-width="0.5" stroke-linecap="round" stroke-linejoin="round"/>
<path d="M88.0836 680.357C89.3768 680.357 90.4251 679.308 90.4251 678.015C90.4251 676.722 89.3768 675.674 88.0836 675.674C86.7905 675.674 85.7422 676.722 85.7422 678.015C85.7422 679.308 86.7905 680.357 88.0836 680.357Z" fill="#04060C" stroke="white" stroke-width="0.5" stroke-linecap="round" stroke-linejoin="round"/>
<path d="M93.3024 668.407C94.5955 668.407 95.6438 667.359 95.6438 666.066C95.6438 664.773 94.5955 663.725 93.3024 663.725C92.0092 663.725 90.9609 664.773 90.9609 666.066C90.9609 667.359 92.0092 668.407 93.3024 668.407Z" fill="#04060C" stroke="white" stroke-width="0.5" stroke-linecap="round" stroke-linejoin="round"/>
<path d="M101.765 662.842C102.567 662.842 103.217 662.192 103.217 661.39C103.217 660.588 102.567 659.938 101.765 659.938C100.963 659.938 100.312 660.588 100.312 661.39C100.312 662.192 100.963 662.842 101.765 662.842Z" fill="#04060C" stroke="white" stroke-width="0.5" stroke-linecap="round" stroke-linejoin="round"/>
<path d="M107.378 672.846C108.18 672.846 108.83 672.196 108.83 671.394C108.83 670.592 108.18 669.941 107.378 669.941C106.576 669.941 105.926 670.592 105.926 671.394C105.926 672.196 106.576 672.846 107.378 672.846Z" fill="#04060C" stroke="white" stroke-width="0.5" stroke-linecap="round" stroke-linejoin="round"/>
<path d="M81.9326 670.506C82.7346 670.506 83.3847 669.856 83.3847 669.054C83.3847 668.252 82.7346 667.602 81.9326 667.602C81.1306 667.602 80.4805 668.252 80.4805 669.054C80.4805 669.856 81.1306 670.506 81.9326 670.506Z" fill="#04060C" stroke="white" stroke-width="0.5" stroke-linecap="round" stroke-linejoin="round"/>
<path d="M77.4599 678.051C78.2619 678.051 78.912 677.401 78.912 676.599C78.912 675.797 78.2619 675.146 77.4599 675.146C76.6579 675.146 76.0078 675.797 76.0078 676.599C76.0078 677.401 76.6579 678.051 77.4599 678.051Z" fill="#04060C" stroke="white" stroke-width="0.5" stroke-linecap="round" stroke-linejoin="round"/>
<path d="M92.288 675.189C93.09 675.189 93.7402 674.539 93.7402 673.737C93.7402 672.935 93.09 672.285 92.288 672.285C91.4861 672.285 90.8359 672.935 90.8359 673.737C90.8359 674.539 91.4861 675.189 92.288 675.189Z" fill="#04060C" stroke="white" stroke-width="0.5" stroke-linecap="round" stroke-linejoin="round"/>
<path d="M100.311 681.809C101.113 681.809 101.764 681.158 101.764 680.356C101.764 679.554 101.113 678.904 100.311 678.904C99.5095 678.904 98.8594 679.554 98.8594 680.356C98.8594 681.158 99.5095 681.809 100.311 681.809Z" fill="#04060C" stroke="white" stroke-width="0.5" stroke-linecap="round" stroke-linejoin="round"/>
<defs>
<filter id="filter0_d_669_10907" x="-1714.75" y="-382.426" width="1788.61" height="1780.02" filterUnits="userSpaceOnUse" color-interpolation-filters="sRGB">
<feFlood flood-opacity="0" result="BackgroundImageFix"/>
<feColorMatrix in="SourceAlpha" type="matrix" values="0 0 0 0 0 0 0 0 0 0 0 0 0 0 0 0 0 0 127 0" result="hardAlpha"/>
<feOffset dx="10"/>
<feGaussianBlur stdDeviation="15"/>
<feComposite in2="hardAlpha" operator="out"/>
<feColorMatrix type="matrix" values="0 0 0 0 0 0 0 0 0 0.957261 0 0 0 0 0.862823 0 0 0 0.8 0"/>
<feBlend mode="normal" in2="BackgroundImageFix" result="effect1_dropShadow_669_10907"/>
<feBlend mode="normal" in="SourceGraphic" in2="effect1_dropShadow_669_10907" result="shape"/>
</filter>
<linearGradient id="paint0_linear_669_10907" x1="33.3573" y1="507.583" x2="-1694.25" y2="507.583" gradientUnits="userSpaceOnUse">
<stop stop-color="white"/>
<stop offset="1" stop-color="white" stop-opacity="0"/>
</linearGradient>
<linearGradient id="paint1_linear_669_10907" x1="93.6189" y1="164.042" x2="29.4342" y2="242.588" gradientUnits="userSpaceOnUse">
<stop offset="0.06" stop-color="#04060C"/>
<stop offset="0.32" stop-color="#00F4DC"/>
<stop offset="0.55" stop-color="#DFDAE4"/>
<stop offset="0.77" stop-color="#8D41D9"/>
<stop offset="0.96" stop-color="#04060C"/>
</linearGradient>
<linearGradient id="paint2_linear_669_10907" x1="131.626" y1="471.007" x2="67.4412" y2="549.553" gradientUnits="userSpaceOnUse">
<stop offset="0.06" stop-color="#04060C"/>
<stop offset="0.32" stop-color="#00F4DC"/>
<stop offset="0.55" stop-color="#DFDAE4"/>
<stop offset="0.77" stop-color="#8D41D9"/>
<stop offset="0.96" stop-color="#04060C"/>
</linearGradient>
<linearGradient id="paint3_linear_669_10907" x1="121.626" y1="311.007" x2="57.4412" y2="389.553" gradientUnits="userSpaceOnUse">
<stop offset="0.06" stop-color="#04060C"/>
<stop offset="0.32" stop-color="#00F4DC"/>
<stop offset="0.55" stop-color="#DFDAE4"/>
<stop offset="0.77" stop-color="#8D41D9"/>
<stop offset="0.96" stop-color="#04060C"/>
</linearGradient>
<linearGradient id="paint4_linear_669_10907" x1="93.6258" y1="777" x2="29.4412" y2="855.546" gradientUnits="userSpaceOnUse">
<stop offset="0.06" stop-color="#04060C"/>
<stop offset="0.32" stop-color="#00F4DC"/>
<stop offset="0.55" stop-color="#DFDAE4"/>
<stop offset="0.77" stop-color="#8D41D9"/>
<stop offset="0.96" stop-color="#04060C"/>
</linearGradient>
<linearGradient id="paint5_linear_669_10907" x1="118.626" y1="633.007" x2="54.4343" y2="711.553" gradientUnits="userSpaceOnUse">
<stop offset="0.06" stop-color="#04060C"/>
<stop offset="0.32" stop-color="#00F4DC"/>
<stop offset="0.55" stop-color="#DFDAE4"/>
<stop offset="0.77" stop-color="#8D41D9"/>
<stop offset="0.96" stop-color="#04060C"/>
</linearGradient>
</defs>
</svg>
