<svg width="415" height="971" viewBox="0 0 415 971" fill="none" xmlns="http://www.w3.org/2000/svg">
<mask id="mask0_669_10906" style="mask-type:alpha" maskUnits="userSpaceOnUse" x="1" y="0" width="168" height="971">
<rect x="1" width="168" height="971" fill="#D9D9D9"/>
</mask>
<g mask="url(#mask0_669_10906)">
<g filter="url(#filter0_d_669_10906)">
<path d="M-830.444 1366.8C-353.38 1366.8 33.3574 981.987 33.3574 507.294C33.3574 32.6002 -353.38 -352.215 -830.444 -352.215C-1307.51 -352.215 -1694.25 32.6002 -1694.25 507.294C-1694.25 981.987 -1307.51 1366.8 -830.444 1366.8Z" fill="black" shape-rendering="crispEdges"/>
<path d="M-830.444 1366.8C-353.38 1366.8 33.3574 981.987 33.3574 507.294C33.3574 32.6002 -353.38 -352.215 -830.444 -352.215C-1307.51 -352.215 -1694.25 32.6002 -1694.25 507.294C-1694.25 981.987 -1307.51 1366.8 -830.444 1366.8Z" stroke="url(#paint0_linear_669_10906)" stroke-linecap="round" stroke-linejoin="round" shape-rendering="crispEdges"/>
</g>
</g>
<path d="M3.09367 92C70.3611 213.306 109 355.057 109 506.5C109 659.507 69.5587 802.621 1 924.753" stroke="white" stroke-linecap="round" stroke-linejoin="round"/>
<path d="M101.469 549C78.3114 549 59.4688 530.157 59.4688 507C59.4688 483.843 78.3114 465 101.469 465C124.626 465 143.469 483.843 143.469 507C143.469 530.157 124.626 549 101.469 549ZM101.469 466.473C79.1243 466.473 60.9417 484.656 60.9417 507C60.9417 529.344 79.1243 547.527 101.469 547.527C123.813 547.527 141.996 529.344 141.996 507C141.996 484.656 123.813 466.473 101.469 466.473Z" fill="url(#paint1_linear_669_10906)"/>
<path d="M101.9 466.732C79.4599 466.732 61.1992 484.993 61.1992 507.433C61.1992 529.874 79.4599 548.134 101.9 548.134C124.341 548.134 142.601 529.874 142.601 507.433C142.601 484.993 124.341 466.732 101.9 466.732Z" fill="#04060C"/>
<path d="M116.279 500.141L101.469 479.875L86.6725 500.141C83.7588 503.562 81.9844 507.988 81.9844 512.829C81.9844 523.62 90.7048 532.375 101.469 532.375C112.233 532.375 120.953 523.62 120.953 512.829C120.953 505.356 116.279 500.134 116.279 500.134V500.141Z" fill="#04060C" stroke="white" stroke-width="0.5" stroke-linecap="round" stroke-linejoin="round"/>
<path d="M87.2496 511.142C85.8483 515.234 84.6997 523.03 94.1047 526.931C95.0149 527.311 96.4235 527.121 95.5783 526.46C90.8903 522.749 87.7986 517.842 88.3765 510.137C88.4487 509.209 87.7986 509.54 87.2496 511.149V511.142Z" fill="#04060C" stroke="white" stroke-width="0.5" stroke-linecap="round" stroke-linejoin="round"/>
<path d="M92 389C68.8427 389 50 370.157 50 347C50 323.843 68.8427 305 92 305C115.157 305 134 323.843 134 347C134 370.157 115.157 389 92 389ZM92 306.473C69.6556 306.473 51.4729 324.656 51.4729 347C51.4729 369.344 69.6556 387.527 92 387.527C114.344 387.527 132.527 369.344 132.527 347C132.527 324.656 114.344 306.473 92 306.473Z" fill="url(#paint2_linear_669_10906)"/>
<path d="M92.5 306.977C70.1705 306.977 52 325.155 52 347.494C52 369.833 70.1705 388.012 92.5 388.012C114.829 388.012 133 369.833 133 347.494C133 325.155 114.829 306.977 92.5 306.977Z" fill="#04060C"/>
<path d="M92 374.177C106.912 374.177 119 362.01 119 347.001C119 331.992 106.912 319.824 92 319.824C77.0883 319.824 65 331.992 65 347.001C65 362.01 77.0883 374.177 92 374.177Z" stroke="white" stroke-width="0.5" stroke-linecap="round" stroke-linejoin="round"/>
<path d="M96.5 345.517C100.642 345.517 104 342.42 104 338.599C104 334.779 100.642 331.682 96.5 331.682C92.3579 331.682 89 334.779 89 338.599C89 342.42 92.3579 345.517 96.5 345.517Z" stroke="white" stroke-width="0.5" stroke-linecap="round" stroke-linejoin="round"/>
<path d="M98.8688 336.493H97.1312V334.776C97.1312 334.163 96.6201 333.658 96 333.658C95.3799 333.658 94.8688 334.163 94.8688 334.776V336.493H93.1312C92.5111 336.493 92 336.998 92 337.611C92 338.224 92.5111 338.729 93.1312 338.729H94.8688V340.446C94.8688 341.059 95.3799 341.564 96 341.564C96.6201 341.564 97.1312 341.059 97.1312 340.446V338.729H98.8688C99.4889 338.729 100 338.224 100 337.611C100 336.998 99.4889 336.493 98.8688 336.493Z" stroke="white" stroke-width="0.5" stroke-linecap="round" stroke-linejoin="round"/>
<path d="M112 335.636C115.866 335.636 119 332.318 119 328.224C119 324.131 115.866 320.812 112 320.812C108.134 320.812 105 324.131 105 328.224C105 332.318 108.134 335.636 112 335.636Z" fill="#04060C" stroke="white" stroke-width="0.5" stroke-linecap="round" stroke-linejoin="round"/>
<path d="M114.87 329.705C115.489 329.705 116 329.035 116 328.223C116 327.41 115.489 326.74 114.87 326.74H109.13C108.511 326.74 108 327.41 108 328.223C108 329.035 108.511 329.705 109.13 329.705H114.87Z" stroke="white" stroke-width="0.5" stroke-linecap="round" stroke-linejoin="round"/>
<path d="M74.5 374.177C78.6422 374.177 82 371.08 82 367.259C82 363.439 78.6422 360.342 74.5 360.342C70.3579 360.342 67 363.439 67 367.259C67 371.08 70.3579 374.177 74.5 374.177Z" fill="#04060C" stroke="white" stroke-width="0.5" stroke-linecap="round" stroke-linejoin="round"/>
<path d="M76.8698 368.248C77.4894 368.248 78 367.578 78 366.766C78 365.953 77.4894 365.283 76.8698 365.283H71.1302C70.5106 365.283 70 365.953 70 366.766C70 367.578 70.5106 368.248 71.1302 368.248H76.8698Z" stroke="white" stroke-width="0.5" stroke-linecap="round" stroke-linejoin="round"/>
<path d="M96.5 364.294C100.642 364.294 104 360.976 104 356.882C104 352.789 100.642 349.471 96.5 349.471C92.3579 349.471 89 352.789 89 356.882C89 360.976 92.3579 364.294 96.5 364.294Z" stroke="white" stroke-width="0.5" stroke-linecap="round" stroke-linejoin="round"/>
<path d="M81.5 354.411C85.6421 354.411 89 351.314 89 347.494C89 343.673 85.6421 340.576 81.5 340.576C77.3578 340.576 74 343.673 74 347.494C74 351.314 77.3578 354.411 81.5 354.411Z" stroke="white" stroke-width="0.5" stroke-linecap="round" stroke-linejoin="round"/>
<path d="M85.8688 347.364H84.1312V345.647C84.1312 345.034 83.6201 344.529 83 344.529C82.3799 344.529 81.8688 345.034 81.8688 345.647V347.364H80.1312C79.5111 347.364 79 347.869 79 348.482C79 349.095 79.5111 349.6 80.1312 349.6H81.8688V351.317C81.8688 351.93 82.3799 352.435 83 352.435C83.6201 352.435 84.1312 351.93 84.1312 351.317V349.6H85.8688C86.4889 349.6 87 349.095 87 348.482C87 347.869 86.4889 347.364 85.8688 347.364Z" stroke="white" stroke-width="0.5" stroke-linecap="round" stroke-linejoin="round"/>
<path d="M64 242C40.8427 242 22 223.157 22 200C22 176.843 40.8427 158 64 158C87.1573 158 106 176.843 106 200C106 223.157 87.1573 242 64 242ZM64 159.473C41.6556 159.473 23.4729 177.656 23.4729 200C23.4729 222.344 41.6556 240.527 64 240.527C86.3444 240.527 104.527 222.344 104.527 200C104.527 177.656 86.3444 159.473 64 159.473Z" fill="url(#paint3_linear_669_10906)"/>
<path d="M63.9997 159.473C41.6553 159.473 23.4727 177.655 23.4727 200C23.4727 222.344 41.6553 240.527 63.9997 240.527C86.3441 240.527 104.527 222.344 104.527 200C104.527 177.655 86.3441 159.473 63.9997 159.473Z" fill="#04060C"/>
<path d="M76.3221 199.999C76.3221 206.808 70.8055 212.332 63.9896 212.332C57.1738 212.332 51.6641 206.815 51.6641 199.999C51.6641 193.184 57.1807 187.674 63.9896 187.674C70.7986 187.674 76.3221 193.19 76.3221 199.999Z" stroke="white" stroke-width="0.5" stroke-linecap="round" stroke-linejoin="round"/>
<path d="M61.8945 176.558V183.562C61.8945 184.722 62.8325 185.667 63.9997 185.667C65.167 185.667 66.105 184.722 66.105 183.562V176.558C66.105 175.398 65.167 174.453 63.9997 174.453C62.8325 174.453 61.8945 175.398 61.8945 176.558Z" stroke="white" stroke-width="0.5" stroke-linecap="round" stroke-linejoin="round"/>
<path d="M47.9938 183.998C47.1739 184.818 47.1739 186.152 47.9938 186.971L50.8911 189.869C51.7109 190.689 53.0449 190.689 53.8648 189.869C54.6846 189.049 54.6846 187.715 53.8648 186.895L50.9675 183.998C50.1476 183.178 48.8136 183.178 47.9938 183.998Z" stroke="white" stroke-width="0.5" stroke-linecap="round" stroke-linejoin="round"/>
<path d="M40.5583 197.895C39.398 197.895 38.4531 198.839 38.4531 200C38.4531 201.16 39.3911 202.105 40.5583 202.105H47.5618C48.7221 202.105 49.667 201.16 49.667 200C49.667 198.839 48.729 197.895 47.5618 197.895H40.5583Z" stroke="white" stroke-width="0.5" stroke-linecap="round" stroke-linejoin="round"/>
<path d="M50.8911 210.144L47.9938 213.041C47.1739 213.861 47.1739 215.195 47.9938 216.015C48.8136 216.835 50.1476 216.835 50.9675 216.015L53.8648 213.118C54.6846 212.298 54.6846 210.964 53.8648 210.144C53.0449 209.324 51.7109 209.324 50.8911 210.144Z" stroke="white" stroke-width="0.5" stroke-linecap="round" stroke-linejoin="round"/>
<path d="M61.8945 216.441V223.452C61.8945 224.612 62.8325 225.557 63.9997 225.557C65.167 225.557 66.105 224.612 66.105 223.452V216.441C66.105 215.281 65.167 214.336 63.9997 214.336C62.8325 214.336 61.8945 215.281 61.8945 216.441Z" stroke="white" stroke-width="0.5" stroke-linecap="round" stroke-linejoin="round"/>
<path d="M74.1344 210.144C73.3146 210.964 73.3146 212.298 74.1344 213.118L77.0317 216.015C77.8516 216.835 79.1855 216.835 80.0054 216.015C80.8252 215.195 80.8252 213.861 80.0054 213.041L77.1081 210.144C76.2883 209.324 74.9543 209.324 74.1344 210.144Z" stroke="white" stroke-width="0.5" stroke-linecap="round" stroke-linejoin="round"/>
<path d="M80.4372 197.895C79.2769 197.895 78.332 198.839 78.332 200C78.332 201.16 79.27 202.105 80.4372 202.105H87.4407C88.601 202.105 89.5459 201.16 89.5459 200C89.5459 198.839 88.608 197.895 87.4407 197.895H80.4372Z" stroke="white" stroke-width="0.5" stroke-linecap="round" stroke-linejoin="round"/>
<path d="M77.0317 183.998L74.1344 186.895C73.3146 187.715 73.3146 189.049 74.1344 189.869C74.9543 190.689 76.2883 190.689 77.1081 189.869L80.0054 186.971C80.8252 186.152 80.8252 184.818 80.0054 183.998C79.1855 183.178 77.8516 183.178 77.0317 183.998Z" stroke="white" stroke-width="0.5" stroke-linecap="round" stroke-linejoin="round"/>
<path d="M64 855C40.8427 855 22 836.157 22 813C22 789.843 40.8427 771 64 771C87.1573 771 106 789.843 106 813C106 836.157 87.1573 855 64 855ZM64 772.48C41.6556 772.48 23.4729 790.663 23.4729 813.007C23.4729 835.351 41.6556 853.534 64 853.534C86.3444 853.534 104.527 835.351 104.527 813.007C104.527 790.663 86.3444 772.48 64 772.48Z" fill="url(#paint4_linear_669_10906)"/>
<path d="M64.4354 772.75C41.9951 772.75 23.7344 791.005 23.7344 813.437C23.7344 835.87 41.9951 854.125 64.4354 854.125C86.8757 854.125 105.136 835.87 105.136 813.437C105.136 791.005 86.8757 772.75 64.4354 772.75Z" fill="#04060C"/>
<path d="M95.361 829.407C96.5016 827.283 97.4349 825.034 98.1261 822.68C99.6677 818.091 99.9373 815.152 99.9373 815.152C89.6994 807.151 80.4432 807.639 74.0488 809.999C66.8872 812.638 63.1404 809.442 55.8335 806.977C41.5447 802.165 29.793 816.691 29.793 816.691C29.8068 818.669 30.2146 820.312 30.2146 820.312C33.7056 836.134 47.7386 848 64.4746 848C77.7817 848 89.3745 840.5 95.3195 829.484C95.3195 829.477 95.3334 829.47 95.3334 829.456C95.3403 829.442 95.3472 829.428 95.3541 829.414L95.361 829.407Z" stroke="white" stroke-width="0.5" stroke-linecap="round" stroke-linejoin="round"/>
<path d="M66.167 827C68.0801 827 69.631 825.433 69.631 823.5C69.631 821.567 68.0801 820 66.167 820C64.2539 820 62.7031 821.567 62.7031 823.5C62.7031 825.433 64.2539 827 66.167 827Z" fill="#04060C" stroke="white" stroke-width="0.5" stroke-linecap="round" stroke-linejoin="round"/>
<path d="M91.2764 817.373C93.1895 817.373 94.7403 815.806 94.7403 813.873C94.7403 811.94 93.1895 810.373 91.2764 810.373C89.3634 810.373 87.8125 811.94 87.8125 813.873C87.8125 815.806 89.3634 817.373 91.2764 817.373Z" fill="#04060C" stroke="white" stroke-width="0.5" stroke-linecap="round" stroke-linejoin="round"/>
<path d="M51.8747 813.875C53.5486 813.875 54.9056 812.504 54.9056 810.812C54.9056 809.121 53.5486 807.75 51.8747 807.75C50.2007 807.75 48.8438 809.121 48.8438 810.812C48.8438 812.504 50.2007 813.875 51.8747 813.875Z" fill="#04060C" stroke="white" stroke-width="0.5" stroke-linecap="round" stroke-linejoin="round"/>
<path d="M78.2893 836.625C79.7241 836.625 80.8873 835.45 80.8873 834C80.8873 832.55 79.7241 831.375 78.2893 831.375C76.8545 831.375 75.6914 832.55 75.6914 834C75.6914 835.45 76.8545 836.625 78.2893 836.625Z" fill="#04060C" stroke="white" stroke-width="0.5" stroke-linecap="round" stroke-linejoin="round"/>
<path d="M55.338 832.248C56.0554 832.248 56.637 831.66 56.637 830.936C56.637 830.211 56.0554 829.623 55.338 829.623C54.6206 829.623 54.0391 830.211 54.0391 830.936C54.0391 831.66 54.6206 832.248 55.338 832.248Z" fill="#04060C" stroke="white" stroke-width="0.5" stroke-linecap="round" stroke-linejoin="round"/>
<path d="M57.9396 845.373C58.657 845.373 59.2386 844.59 59.2386 843.623C59.2386 842.657 58.657 841.873 57.9396 841.873C57.2222 841.873 56.6406 842.657 56.6406 843.623C56.6406 844.59 57.2222 845.373 57.9396 845.373Z" fill="#04060C" stroke="white" stroke-width="0.5" stroke-linecap="round" stroke-linejoin="round"/>
<path d="M73.9585 840.123C74.9151 840.123 75.6905 839.34 75.6905 838.373C75.6905 837.407 74.9151 836.623 73.9585 836.623C73.002 836.623 72.2266 837.407 72.2266 838.373C72.2266 839.34 73.002 840.123 73.9585 840.123Z" fill="#04060C" stroke="white" stroke-width="0.5" stroke-linecap="round" stroke-linejoin="round"/>
<path d="M57.5054 826.123C58.4619 826.123 59.2374 825.34 59.2374 824.373C59.2374 823.407 58.4619 822.623 57.5054 822.623C56.5489 822.623 55.7734 823.407 55.7734 824.373C55.7734 825.34 56.5489 826.123 57.5054 826.123Z" fill="#04060C" stroke="white" stroke-width="0.5" stroke-linecap="round" stroke-linejoin="round"/>
<path d="M61.8335 813.873C62.79 813.873 63.5655 813.09 63.5655 812.123C63.5655 811.157 62.79 810.373 61.8335 810.373C60.877 810.373 60.1016 811.157 60.1016 812.123C60.1016 813.09 60.877 813.873 61.8335 813.873Z" fill="#04060C" stroke="white" stroke-width="0.5" stroke-linecap="round" stroke-linejoin="round"/>
<path d="M38.4507 823.498C39.4072 823.498 40.1827 822.91 40.1827 822.186C40.1827 821.461 39.4072 820.873 38.4507 820.873C37.4942 820.873 36.7188 821.461 36.7188 822.186C36.7188 822.91 37.4942 823.498 38.4507 823.498Z" fill="#04060C" stroke="white" stroke-width="0.5" stroke-linecap="round" stroke-linejoin="round"/>
<path d="M52.3101 820.875C53.2666 820.875 54.042 820.287 54.042 819.563C54.042 818.838 53.2666 818.25 52.3101 818.25C51.3535 818.25 50.5781 818.838 50.5781 819.563C50.5781 820.287 51.3535 820.875 52.3101 820.875Z" fill="#04060C" stroke="white" stroke-width="0.5" stroke-linecap="round" stroke-linejoin="round"/>
<path d="M40.1851 813.873C41.1416 813.873 41.917 813.09 41.917 812.123C41.917 811.157 41.1416 810.373 40.1851 810.373C39.2286 810.373 38.4531 811.157 38.4531 812.123C38.4531 813.09 39.2286 813.873 40.1851 813.873Z" fill="#04060C" stroke="white" stroke-width="0.5" stroke-linecap="round" stroke-linejoin="round"/>
<path d="M46.2464 831.375C47.6812 831.375 48.8443 830.2 48.8443 828.75C48.8443 827.3 47.6812 826.125 46.2464 826.125C44.8116 826.125 43.6484 827.3 43.6484 828.75C43.6484 830.2 44.8116 831.375 46.2464 831.375Z" fill="#04060C" stroke="white" stroke-width="0.5" stroke-linecap="round" stroke-linejoin="round"/>
<path d="M66.1616 841.875C67.1182 841.875 67.8936 841.091 67.8936 840.125C67.8936 839.158 67.1182 838.375 66.1616 838.375C65.2051 838.375 64.4297 839.158 64.4297 840.125C64.4297 841.091 65.2051 841.875 66.1616 841.875Z" fill="#04060C" stroke="white" stroke-width="0.5" stroke-linecap="round" stroke-linejoin="round"/>
<path d="M80.4552 819.125C81.1726 819.125 81.7542 818.341 81.7542 817.375C81.7542 816.408 81.1726 815.625 80.4552 815.625C79.7378 815.625 79.1562 816.408 79.1562 817.375C79.1562 818.341 79.7378 819.125 80.4552 819.125Z" fill="#04060C" stroke="white" stroke-width="0.5" stroke-linecap="round" stroke-linejoin="round"/>
<path d="M69.1974 812.123C69.9148 812.123 70.4964 811.535 70.4964 810.811C70.4964 810.086 69.9148 809.498 69.1974 809.498C68.48 809.498 67.8984 810.086 67.8984 810.811C67.8984 811.535 68.48 812.123 69.1974 812.123Z" fill="#04060C" stroke="white" stroke-width="0.5" stroke-linecap="round" stroke-linejoin="round"/>
<path d="M82.6214 828.748C84.0562 828.748 85.2193 827.573 85.2193 826.123C85.2193 824.673 84.0562 823.498 82.6214 823.498C81.1866 823.498 80.0234 824.673 80.0234 826.123C80.0234 827.573 81.1866 828.748 82.6214 828.748Z" fill="#04060C" stroke="white" stroke-width="0.5" stroke-linecap="round" stroke-linejoin="round"/>
<path d="M88.6812 831.373C89.6377 831.373 90.4131 830.59 90.4131 829.623C90.4131 828.657 89.6377 827.873 88.6812 827.873C87.7246 827.873 86.9492 828.657 86.9492 829.623C86.9492 830.59 87.7246 831.373 88.6812 831.373Z" fill="#04060C" stroke="white" stroke-width="0.5" stroke-linecap="round" stroke-linejoin="round"/>
<path d="M89 710.965C65.8427 710.965 47 692.122 47 668.965C47 645.808 65.8427 626.965 89 626.965C112.157 626.965 131 645.808 131 668.965C131 692.122 112.157 710.965 89 710.965ZM89 628.438C66.6556 628.438 48.473 646.62 48.473 668.965C48.473 691.309 66.6556 709.492 89 709.492C111.344 709.492 129.527 691.309 129.527 668.965C129.527 646.62 111.344 628.438 89 628.438Z" fill="url(#paint5_linear_669_10906)"/>
<path d="M88.9997 628.438C66.6553 628.438 48.4727 646.62 48.4727 668.965C48.4727 691.309 66.6553 709.492 88.9997 709.492C111.344 709.492 129.527 691.309 129.527 668.965C129.527 646.62 111.344 628.438 88.9997 628.438Z" fill="#04060C"/>
<path d="M78.0008 654.93L81.7804 650.865L87.4499 647.238L90.9933 651.65L93.7516 652.672L97.2186 655.979L102.652 656.847L112.657 661.419C112.344 665.435 114.623 668.513 114.783 669.374C114.943 670.243 113.442 672.681 110.843 673.626C108.245 674.571 105.41 679.143 104.854 680.56C104.305 681.978 103.124 684.972 101.151 685.285C99.1779 685.598 99.7338 686.779 98.3928 688.12C97.0519 689.461 94.1407 688.196 91.3824 688.279C88.6241 688.356 85.7893 689.224 85.7893 689.224L75.1521 682.367L73.7347 681.735C69.7189 681.026 66.8633 676.26 66.8633 676.26L68.2251 660.856C68.2251 660.856 72.3243 655.895 75.6315 655.187L77.9938 654.923L78.0008 654.93Z" stroke="white" stroke-width="0.5" stroke-linecap="round" stroke-linejoin="round"/>
<path d="M78.0234 655.035C81.8795 654.848 87.3406 655.306 87.3406 655.306C87.3406 655.306 89.3068 655.543 93.0934 659.558C96.88 663.574 100.5 665.151 101.521 665.151C102.543 665.151 105.065 665.547 106.802 666.645C108.532 667.75 113.736 670.981 113.736 670.981" stroke="white" stroke-width="0.5" stroke-linecap="round" stroke-linejoin="round"/>
<path d="M99.8586 685.793C99.8586 685.793 99.3097 685.085 97.413 683.271C95.5231 681.458 92.605 682.007 90.4025 682.715C88.2001 683.424 89.0616 683.737 84.337 681.847C80.203 680.193 78.2368 681.979 75.1172 681.972" stroke="white" stroke-width="0.5" stroke-linecap="round" stroke-linejoin="round"/>
<path d="M90.9608 651.762L85.2148 655.159" stroke="white" stroke-width="0.5" stroke-linecap="round" stroke-linejoin="round"/>
<path d="M80.4805 655.158C80.4805 655.158 82.8428 656.173 84.1837 660.188C85.5246 664.204 85.4413 669.485 89.3043 670.742" stroke="white" stroke-width="0.5" stroke-linecap="round" stroke-linejoin="round"/>
<path d="M103.549 665.406C103.549 665.406 99.7835 667.748 100.569 669.005C101.354 670.263 104.008 672.076 103.549 673.577C103.091 675.078 102.931 675.779 102.931 675.779" stroke="white" stroke-width="0.5" stroke-linecap="round" stroke-linejoin="round"/>
<path d="M101.764 670.391L94.9414 674.921" stroke="white" stroke-width="0.5" stroke-linecap="round" stroke-linejoin="round"/>
<path d="M77.4586 665.779C78.7518 665.779 79.8001 664.73 79.8001 663.437C79.8001 662.144 78.7518 661.096 77.4586 661.096C76.1655 661.096 75.1172 662.144 75.1172 663.437C75.1172 664.73 76.1655 665.779 77.4586 665.779Z" fill="#04060C" stroke="white" stroke-width="0.5" stroke-linecap="round" stroke-linejoin="round"/>
<path d="M71.9 675.788C73.1932 675.788 74.2415 674.74 74.2415 673.447C74.2415 672.154 73.1932 671.105 71.9 671.105C70.6069 671.105 69.5586 672.154 69.5586 673.447C69.5586 674.74 70.6069 675.788 71.9 675.788Z" fill="#04060C" stroke="white" stroke-width="0.5" stroke-linecap="round" stroke-linejoin="round"/>
<path d="M88.0836 680.068C89.3768 680.068 90.4251 679.019 90.4251 677.726C90.4251 676.433 89.3768 675.385 88.0836 675.385C86.7905 675.385 85.7422 676.433 85.7422 677.726C85.7422 679.019 86.7905 680.068 88.0836 680.068Z" fill="#04060C" stroke="white" stroke-width="0.5" stroke-linecap="round" stroke-linejoin="round"/>
<path d="M93.3024 668.118C94.5955 668.118 95.6438 667.07 95.6438 665.777C95.6438 664.484 94.5955 663.436 93.3024 663.436C92.0092 663.436 90.9609 664.484 90.9609 665.777C90.9609 667.07 92.0092 668.118 93.3024 668.118Z" fill="#04060C" stroke="white" stroke-width="0.5" stroke-linecap="round" stroke-linejoin="round"/>
<path d="M101.765 662.553C102.567 662.553 103.217 661.903 103.217 661.101C103.217 660.299 102.567 659.648 101.765 659.648C100.963 659.648 100.312 660.299 100.312 661.101C100.312 661.903 100.963 662.553 101.765 662.553Z" fill="#04060C" stroke="white" stroke-width="0.5" stroke-linecap="round" stroke-linejoin="round"/>
<path d="M107.378 672.557C108.18 672.557 108.83 671.906 108.83 671.104C108.83 670.302 108.18 669.652 107.378 669.652C106.576 669.652 105.926 670.302 105.926 671.104C105.926 671.906 106.576 672.557 107.378 672.557Z" fill="#04060C" stroke="white" stroke-width="0.5" stroke-linecap="round" stroke-linejoin="round"/>
<path d="M81.9326 670.217C82.7346 670.217 83.3847 669.567 83.3847 668.765C83.3847 667.963 82.7346 667.312 81.9326 667.312C81.1306 667.312 80.4805 667.963 80.4805 668.765C80.4805 669.567 81.1306 670.217 81.9326 670.217Z" fill="#04060C" stroke="white" stroke-width="0.5" stroke-linecap="round" stroke-linejoin="round"/>
<path d="M77.4599 677.762C78.2619 677.762 78.912 677.112 78.912 676.31C78.912 675.508 78.2619 674.857 77.4599 674.857C76.6579 674.857 76.0078 675.508 76.0078 676.31C76.0078 677.112 76.6579 677.762 77.4599 677.762Z" fill="#04060C" stroke="white" stroke-width="0.5" stroke-linecap="round" stroke-linejoin="round"/>
<path d="M92.288 674.9C93.09 674.9 93.7402 674.25 93.7402 673.448C93.7402 672.646 93.09 671.996 92.288 671.996C91.4861 671.996 90.8359 672.646 90.8359 673.448C90.8359 674.25 91.4861 674.9 92.288 674.9Z" fill="#04060C" stroke="white" stroke-width="0.5" stroke-linecap="round" stroke-linejoin="round"/>
<path d="M100.311 681.519C101.113 681.519 101.764 680.869 101.764 680.067C101.764 679.265 101.113 678.615 100.311 678.615C99.5095 678.615 98.8594 679.265 98.8594 680.067C98.8594 680.869 99.5095 681.519 100.311 681.519Z" fill="#04060C" stroke="white" stroke-width="0.5" stroke-linecap="round" stroke-linejoin="round"/>
<defs>
<filter id="filter0_d_669_10906" x="-1714.75" y="-382.715" width="1788.61" height="1780.02" filterUnits="userSpaceOnUse" color-interpolation-filters="sRGB">
<feFlood flood-opacity="0" result="BackgroundImageFix"/>
<feColorMatrix in="SourceAlpha" type="matrix" values="0 0 0 0 0 0 0 0 0 0 0 0 0 0 0 0 0 0 127 0" result="hardAlpha"/>
<feOffset dx="10"/>
<feGaussianBlur stdDeviation="15"/>
<feComposite in2="hardAlpha" operator="out"/>
<feColorMatrix type="matrix" values="0 0 0 0 0 0 0 0 0 0.957261 0 0 0 0 0.862823 0 0 0 0.8 0"/>
<feBlend mode="normal" in2="BackgroundImageFix" result="effect1_dropShadow_669_10906"/>
<feBlend mode="normal" in="SourceGraphic" in2="effect1_dropShadow_669_10906" result="shape"/>
</filter>
<linearGradient id="paint0_linear_669_10906" x1="33.3573" y1="507.294" x2="-1694.25" y2="507.294" gradientUnits="userSpaceOnUse">
<stop stop-color="white"/>
<stop offset="1" stop-color="white" stop-opacity="0"/>
</linearGradient>
<linearGradient id="paint1_linear_669_10906" x1="131.095" y1="470.746" x2="66.9099" y2="549.292" gradientUnits="userSpaceOnUse">
<stop offset="0.06" stop-color="#04060C"/>
<stop offset="0.32" stop-color="#00F4DC"/>
<stop offset="0.55" stop-color="#DFDAE4"/>
<stop offset="0.77" stop-color="#8D41D9"/>
<stop offset="0.96" stop-color="#04060C"/>
</linearGradient>
<linearGradient id="paint2_linear_669_10906" x1="121.626" y1="310.746" x2="57.4412" y2="389.292" gradientUnits="userSpaceOnUse">
<stop offset="0.06" stop-color="#04060C"/>
<stop offset="0.32" stop-color="#00F4DC"/>
<stop offset="0.55" stop-color="#DFDAE4"/>
<stop offset="0.77" stop-color="#8D41D9"/>
<stop offset="0.96" stop-color="#04060C"/>
</linearGradient>
<linearGradient id="paint3_linear_669_10906" x1="93.6189" y1="163.753" x2="29.4342" y2="242.299" gradientUnits="userSpaceOnUse">
<stop offset="0.06" stop-color="#04060C"/>
<stop offset="0.32" stop-color="#00F4DC"/>
<stop offset="0.55" stop-color="#DFDAE4"/>
<stop offset="0.77" stop-color="#8D41D9"/>
<stop offset="0.96" stop-color="#04060C"/>
</linearGradient>
<linearGradient id="paint4_linear_669_10906" x1="93.6258" y1="776.753" x2="29.4412" y2="855.299" gradientUnits="userSpaceOnUse">
<stop offset="0.06" stop-color="#04060C"/>
<stop offset="0.32" stop-color="#00F4DC"/>
<stop offset="0.55" stop-color="#DFDAE4"/>
<stop offset="0.77" stop-color="#8D41D9"/>
<stop offset="0.96" stop-color="#04060C"/>
</linearGradient>
<linearGradient id="paint5_linear_669_10906" x1="118.626" y1="632.718" x2="54.4343" y2="711.264" gradientUnits="userSpaceOnUse">
<stop offset="0.06" stop-color="#04060C"/>
<stop offset="0.32" stop-color="#00F4DC"/>
<stop offset="0.55" stop-color="#DFDAE4"/>
<stop offset="0.77" stop-color="#8D41D9"/>
<stop offset="0.96" stop-color="#04060C"/>
</linearGradient>
</defs>
</svg>
