<svg width="490" height="301" viewBox="0 0 490 301" fill="none" xmlns="http://www.w3.org/2000/svg">
<path d="M196 51H64V94H196V51Z" fill="#00F4DC"/>
<path d="M309 154H64V197H309V154Z" fill="#00F4DC"/>
<path d="M441 258H64V301H441V258Z" fill="#00F4DC"/>
<path d="M0.792 79V78.028C2.172 76.816 3.306 75.712 4.194 74.716C5.094 73.72 5.76 72.796 6.192 71.944C6.624 71.08 6.84 70.27 6.84 69.514C6.84 69.01 6.75 68.56 6.57 68.164C6.402 67.768 6.138 67.462 5.778 67.246C5.418 67.018 4.962 66.904 4.41 66.904C3.87 66.904 3.366 67.048 2.898 67.336C2.442 67.624 2.034 67.99 1.674 68.434L0.72 67.498C1.248 66.91 1.818 66.442 2.43 66.094C3.042 65.746 3.768 65.572 4.608 65.572C5.4 65.572 6.078 65.734 6.642 66.058C7.218 66.37 7.662 66.82 7.974 67.408C8.298 67.984 8.46 68.662 8.46 69.442C8.46 70.318 8.238 71.206 7.794 72.106C7.362 73.006 6.756 73.924 5.976 74.86C5.208 75.784 4.308 76.732 3.276 77.704C3.624 77.68 3.984 77.656 4.356 77.632C4.74 77.596 5.1 77.578 5.436 77.578H9.09V79H0.792ZM14.9884 79.234C14.1604 79.234 13.4344 78.982 12.8104 78.478C12.1984 77.974 11.7244 77.212 11.3884 76.192C11.0524 75.172 10.8844 73.894 10.8844 72.358C10.8844 70.822 11.0524 69.556 11.3884 68.56C11.7244 67.552 12.1984 66.802 12.8104 66.31C13.4344 65.818 14.1604 65.572 14.9884 65.572C15.8284 65.572 16.5544 65.824 17.1664 66.328C17.7784 66.82 18.2524 67.564 18.5884 68.56C18.9244 69.556 19.0924 70.822 19.0924 72.358C19.0924 73.894 18.9244 75.172 18.5884 76.192C18.2524 77.212 17.7784 77.974 17.1664 78.478C16.5544 78.982 15.8284 79.234 14.9884 79.234ZM14.9884 77.902C15.4924 77.902 15.9304 77.71 16.3024 77.326C16.6864 76.942 16.9804 76.342 17.1844 75.526C17.4004 74.698 17.5084 73.642 17.5084 72.358C17.5084 71.074 17.4004 70.03 17.1844 69.226C16.9804 68.41 16.6864 67.816 16.3024 67.444C15.9304 67.06 15.4924 66.868 14.9884 66.868C14.4964 66.868 14.0584 67.06 13.6744 67.444C13.2904 67.816 12.9904 68.41 12.7744 69.226C12.5704 70.03 12.4684 71.074 12.4684 72.358C12.4684 73.642 12.5704 74.698 12.7744 75.526C12.9904 76.342 13.2904 76.942 13.6744 77.326C14.0584 77.71 14.4964 77.902 14.9884 77.902ZM20.7608 79V78.028C22.1408 76.816 23.2748 75.712 24.1628 74.716C25.0628 73.72 25.7288 72.796 26.1608 71.944C26.5928 71.08 26.8088 70.27 26.8088 69.514C26.8088 69.01 26.7188 68.56 26.5388 68.164C26.3708 67.768 26.1068 67.462 25.7468 67.246C25.3868 67.018 24.9308 66.904 24.3788 66.904C23.8388 66.904 23.3348 67.048 22.8668 67.336C22.4108 67.624 22.0028 67.99 21.6428 68.434L20.6888 67.498C21.2168 66.91 21.7868 66.442 22.3988 66.094C23.0108 65.746 23.7368 65.572 24.5768 65.572C25.3688 65.572 26.0468 65.734 26.6108 66.058C27.1868 66.37 27.6308 66.82 27.9428 67.408C28.2668 67.984 28.4288 68.662 28.4288 69.442C28.4288 70.318 28.2068 71.206 27.7628 72.106C27.3308 73.006 26.7248 73.924 25.9448 74.86C25.1768 75.784 24.2768 76.732 23.2448 77.704C23.5928 77.68 23.9528 77.656 24.3248 77.632C24.7088 77.596 25.0688 77.578 25.4048 77.578H29.0587V79H20.7608ZM34.6871 79.234C34.0031 79.234 33.3971 79.15 32.8691 78.982C32.3531 78.814 31.8971 78.592 31.5011 78.316C31.1051 78.04 30.7631 77.74 30.4751 77.416L31.3211 76.354C31.7051 76.75 32.1551 77.104 32.6711 77.416C33.1991 77.716 33.8351 77.866 34.5791 77.866C35.1071 77.866 35.5691 77.77 35.9651 77.578C36.3731 77.374 36.6911 77.092 36.9191 76.732C37.1471 76.36 37.2611 75.922 37.2611 75.418C37.2611 74.89 37.1291 74.428 36.8651 74.032C36.6131 73.636 36.1871 73.33 35.5871 73.114C34.9871 72.886 34.1771 72.772 33.1571 72.772V71.512C34.0691 71.512 34.7891 71.404 35.3171 71.188C35.8451 70.96 36.2231 70.654 36.4511 70.27C36.6911 69.886 36.8111 69.46 36.8111 68.992C36.8111 68.356 36.6131 67.852 36.2171 67.48C35.8211 67.096 35.2751 66.904 34.5791 66.904C34.0511 66.904 33.5531 67.024 33.0851 67.264C32.6291 67.504 32.2151 67.81 31.8431 68.182L30.9611 67.138C31.4651 66.682 32.0111 66.31 32.5991 66.022C33.1991 65.722 33.8771 65.572 34.6331 65.572C35.3771 65.572 36.0371 65.704 36.6131 65.968C37.2011 66.22 37.6571 66.592 37.9811 67.084C38.3171 67.576 38.4851 68.17 38.4851 68.866C38.4851 69.67 38.2691 70.336 37.8371 70.864C37.4051 71.392 36.8411 71.782 36.1451 72.034V72.124C36.6611 72.244 37.1291 72.454 37.5491 72.754C37.9691 73.054 38.3051 73.432 38.5571 73.888C38.8091 74.344 38.9351 74.872 38.9351 75.472C38.9351 76.252 38.7431 76.924 38.3591 77.488C37.9751 78.052 37.4651 78.484 36.8291 78.784C36.1931 79.084 35.4791 79.234 34.6871 79.234ZM44.9235 63.808L46.2915 64.168C45.9555 65.044 45.5595 65.902 45.1035 66.742C44.6595 67.57 44.1735 68.344 43.6455 69.064C43.1175 69.772 42.5715 70.396 42.0075 70.936C41.9235 70.864 41.8095 70.774 41.6655 70.666C41.5335 70.546 41.3895 70.432 41.2335 70.324C41.0895 70.216 40.9575 70.132 40.8375 70.072C41.4135 69.568 41.9535 68.992 42.4575 68.344C42.9735 67.684 43.4415 66.97 43.8615 66.202C44.2815 65.422 44.6355 64.624 44.9235 63.808ZM44.6535 66.058H56.2635V67.354H43.9875L44.6535 66.058ZM43.7715 70.126H55.8495V71.404H45.1215V75.652H43.7715V70.126ZM40.8015 74.986H57.1095V76.282H40.8015V74.986ZM49.1535 66.742H50.5395V80.44H49.1535V66.742Z" fill="white"/>
<path d="M0.792 182V181.028C2.172 179.816 3.306 178.712 4.194 177.716C5.094 176.72 5.76 175.796 6.192 174.944C6.624 174.08 6.84 173.27 6.84 172.514C6.84 172.01 6.75 171.56 6.57 171.164C6.402 170.768 6.138 170.462 5.778 170.246C5.418 170.018 4.962 169.904 4.41 169.904C3.87 169.904 3.366 170.048 2.898 170.336C2.442 170.624 2.034 170.99 1.674 171.434L0.72 170.498C1.248 169.91 1.818 169.442 2.43 169.094C3.042 168.746 3.768 168.572 4.608 168.572C5.4 168.572 6.078 168.734 6.642 169.058C7.218 169.37 7.662 169.82 7.974 170.408C8.298 170.984 8.46 171.662 8.46 172.442C8.46 173.318 8.238 174.206 7.794 175.106C7.362 176.006 6.756 176.924 5.976 177.86C5.208 178.784 4.308 179.732 3.276 180.704C3.624 180.68 3.984 180.656 4.356 180.632C4.74 180.596 5.1 180.578 5.436 180.578H9.09V182H0.792ZM14.9884 182.234C14.1604 182.234 13.4344 181.982 12.8104 181.478C12.1984 180.974 11.7244 180.212 11.3884 179.192C11.0524 178.172 10.8844 176.894 10.8844 175.358C10.8844 173.822 11.0524 172.556 11.3884 171.56C11.7244 170.552 12.1984 169.802 12.8104 169.31C13.4344 168.818 14.1604 168.572 14.9884 168.572C15.8284 168.572 16.5544 168.824 17.1664 169.328C17.7784 169.82 18.2524 170.564 18.5884 171.56C18.9244 172.556 19.0924 173.822 19.0924 175.358C19.0924 176.894 18.9244 178.172 18.5884 179.192C18.2524 180.212 17.7784 180.974 17.1664 181.478C16.5544 181.982 15.8284 182.234 14.9884 182.234ZM14.9884 180.902C15.4924 180.902 15.9304 180.71 16.3024 180.326C16.6864 179.942 16.9804 179.342 17.1844 178.526C17.4004 177.698 17.5084 176.642 17.5084 175.358C17.5084 174.074 17.4004 173.03 17.1844 172.226C16.9804 171.41 16.6864 170.816 16.3024 170.444C15.9304 170.06 15.4924 169.868 14.9884 169.868C14.4964 169.868 14.0584 170.06 13.6744 170.444C13.2904 170.816 12.9904 171.41 12.7744 172.226C12.5704 173.03 12.4684 174.074 12.4684 175.358C12.4684 176.642 12.5704 177.698 12.7744 178.526C12.9904 179.342 13.2904 179.942 13.6744 180.326C14.0584 180.71 14.4964 180.902 14.9884 180.902ZM24.7028 182.234C24.0188 182.234 23.4128 182.15 22.8848 181.982C22.3688 181.814 21.9128 181.592 21.5168 181.316C21.1208 181.04 20.7788 180.74 20.4908 180.416L21.3368 179.354C21.7208 179.75 22.1708 180.104 22.6868 180.416C23.2148 180.716 23.8508 180.866 24.5947 180.866C25.1228 180.866 25.5848 180.77 25.9808 180.578C26.3888 180.374 26.7068 180.092 26.9348 179.732C27.1628 179.36 27.2768 178.922 27.2768 178.418C27.2768 177.89 27.1448 177.428 26.8808 177.032C26.6288 176.636 26.2028 176.33 25.6028 176.114C25.0028 175.886 24.1928 175.772 23.1728 175.772V174.512C24.0848 174.512 24.8048 174.404 25.3328 174.188C25.8608 173.96 26.2388 173.654 26.4668 173.27C26.7068 172.886 26.8268 172.46 26.8268 171.992C26.8268 171.356 26.6288 170.852 26.2328 170.48C25.8368 170.096 25.2908 169.904 24.5947 169.904C24.0668 169.904 23.5688 170.024 23.1008 170.264C22.6448 170.504 22.2308 170.81 21.8588 171.182L20.9768 170.138C21.4808 169.682 22.0268 169.31 22.6147 169.022C23.2148 168.722 23.8928 168.572 24.6488 168.572C25.3928 168.572 26.0528 168.704 26.6288 168.968C27.2168 169.22 27.6728 169.592 27.9968 170.084C28.3328 170.576 28.5008 171.17 28.5008 171.866C28.5008 172.67 28.2848 173.336 27.8528 173.864C27.4208 174.392 26.8568 174.782 26.1608 175.034V175.124C26.6768 175.244 27.1448 175.454 27.5648 175.754C27.9848 176.054 28.3208 176.432 28.5728 176.888C28.8248 177.344 28.9508 177.872 28.9508 178.472C28.9508 179.252 28.7588 179.924 28.3748 180.488C27.9908 181.052 27.4808 181.484 26.8448 181.784C26.2088 182.084 25.4948 182.234 24.7028 182.234ZM34.9571 182.234C34.1291 182.234 33.4031 181.982 32.7791 181.478C32.1671 180.974 31.6931 180.212 31.3571 179.192C31.0211 178.172 30.8531 176.894 30.8531 175.358C30.8531 173.822 31.0211 172.556 31.3571 171.56C31.6931 170.552 32.1671 169.802 32.7791 169.31C33.4031 168.818 34.1291 168.572 34.9571 168.572C35.7971 168.572 36.5231 168.824 37.1351 169.328C37.7471 169.82 38.2211 170.564 38.5571 171.56C38.8931 172.556 39.0611 173.822 39.0611 175.358C39.0611 176.894 38.8931 178.172 38.5571 179.192C38.2211 180.212 37.7471 180.974 37.1351 181.478C36.5231 181.982 35.7971 182.234 34.9571 182.234ZM34.9571 180.902C35.4611 180.902 35.8991 180.71 36.2711 180.326C36.6551 179.942 36.9491 179.342 37.1531 178.526C37.3691 177.698 37.4771 176.642 37.4771 175.358C37.4771 174.074 37.3691 173.03 37.1531 172.226C36.9491 171.41 36.6551 170.816 36.2711 170.444C35.8991 170.06 35.4611 169.868 34.9571 169.868C34.4651 169.868 34.0271 170.06 33.6431 170.444C33.2591 170.816 32.9591 171.41 32.7431 172.226C32.5391 173.03 32.4371 174.074 32.4371 175.358C32.4371 176.642 32.5391 177.698 32.7431 178.526C32.9591 179.342 33.2591 179.942 33.6431 180.326C34.0271 180.71 34.4651 180.902 34.9571 180.902ZM44.9235 166.808L46.2915 167.168C45.9555 168.044 45.5595 168.902 45.1035 169.742C44.6595 170.57 44.1735 171.344 43.6455 172.064C43.1175 172.772 42.5715 173.396 42.0075 173.936C41.9235 173.864 41.8095 173.774 41.6655 173.666C41.5335 173.546 41.3895 173.432 41.2335 173.324C41.0895 173.216 40.9575 173.132 40.8375 173.072C41.4135 172.568 41.9535 171.992 42.4575 171.344C42.9735 170.684 43.4415 169.97 43.8615 169.202C44.2815 168.422 44.6355 167.624 44.9235 166.808ZM44.6535 169.058H56.2635V170.354H43.9875L44.6535 169.058ZM43.7715 173.126H55.8495V174.404H45.1215V178.652H43.7715V173.126ZM40.8015 177.986H57.1095V179.282H40.8015V177.986ZM49.1535 169.742H50.5395V183.44H49.1535V169.742Z" fill="white"/>
<path d="M0.792 285V284.028C2.172 282.816 3.306 281.712 4.194 280.716C5.094 279.72 5.76 278.796 6.192 277.944C6.624 277.08 6.84 276.27 6.84 275.514C6.84 275.01 6.75 274.56 6.57 274.164C6.402 273.768 6.138 273.462 5.778 273.246C5.418 273.018 4.962 272.904 4.41 272.904C3.87 272.904 3.366 273.048 2.898 273.336C2.442 273.624 2.034 273.99 1.674 274.434L0.72 273.498C1.248 272.91 1.818 272.442 2.43 272.094C3.042 271.746 3.768 271.572 4.608 271.572C5.4 271.572 6.078 271.734 6.642 272.058C7.218 272.37 7.662 272.82 7.974 273.408C8.298 273.984 8.46 274.662 8.46 275.442C8.46 276.318 8.238 277.206 7.794 278.106C7.362 279.006 6.756 279.924 5.976 280.86C5.208 281.784 4.308 282.732 3.276 283.704C3.624 283.68 3.984 283.656 4.356 283.632C4.74 283.596 5.1 283.578 5.436 283.578H9.09V285H0.792ZM14.9884 285.234C14.1604 285.234 13.4344 284.982 12.8104 284.478C12.1984 283.974 11.7244 283.212 11.3884 282.192C11.0524 281.172 10.8844 279.894 10.8844 278.358C10.8844 276.822 11.0524 275.556 11.3884 274.56C11.7244 273.552 12.1984 272.802 12.8104 272.31C13.4344 271.818 14.1604 271.572 14.9884 271.572C15.8284 271.572 16.5544 271.824 17.1664 272.328C17.7784 272.82 18.2524 273.564 18.5884 274.56C18.9244 275.556 19.0924 276.822 19.0924 278.358C19.0924 279.894 18.9244 281.172 18.5884 282.192C18.2524 283.212 17.7784 283.974 17.1664 284.478C16.5544 284.982 15.8284 285.234 14.9884 285.234ZM14.9884 283.902C15.4924 283.902 15.9304 283.71 16.3024 283.326C16.6864 282.942 16.9804 282.342 17.1844 281.526C17.4004 280.698 17.5084 279.642 17.5084 278.358C17.5084 277.074 17.4004 276.03 17.1844 275.226C16.9804 274.41 16.6864 273.816 16.3024 273.444C15.9304 273.06 15.4924 272.868 14.9884 272.868C14.4964 272.868 14.0584 273.06 13.6744 273.444C13.2904 273.816 12.9904 274.41 12.7744 275.226C12.5704 276.03 12.4684 277.074 12.4684 278.358C12.4684 279.642 12.5704 280.698 12.7744 281.526C12.9904 282.342 13.2904 282.942 13.6744 283.326C14.0584 283.71 14.4964 283.902 14.9884 283.902ZM24.7028 285.234C24.0188 285.234 23.4128 285.15 22.8848 284.982C22.3688 284.814 21.9128 284.592 21.5168 284.316C21.1208 284.04 20.7788 283.74 20.4908 283.416L21.3368 282.354C21.7208 282.75 22.1708 283.104 22.6868 283.416C23.2148 283.716 23.8508 283.866 24.5947 283.866C25.1228 283.866 25.5848 283.77 25.9808 283.578C26.3888 283.374 26.7068 283.092 26.9348 282.732C27.1628 282.36 27.2768 281.922 27.2768 281.418C27.2768 280.89 27.1448 280.428 26.8808 280.032C26.6288 279.636 26.2028 279.33 25.6028 279.114C25.0028 278.886 24.1928 278.772 23.1728 278.772V277.512C24.0848 277.512 24.8048 277.404 25.3328 277.188C25.8608 276.96 26.2388 276.654 26.4668 276.27C26.7068 275.886 26.8268 275.46 26.8268 274.992C26.8268 274.356 26.6288 273.852 26.2328 273.48C25.8368 273.096 25.2908 272.904 24.5947 272.904C24.0668 272.904 23.5688 273.024 23.1008 273.264C22.6448 273.504 22.2308 273.81 21.8588 274.182L20.9768 273.138C21.4808 272.682 22.0268 272.31 22.6147 272.022C23.2148 271.722 23.8928 271.572 24.6488 271.572C25.3928 271.572 26.0528 271.704 26.6288 271.968C27.2168 272.22 27.6728 272.592 27.9968 273.084C28.3328 273.576 28.5008 274.17 28.5008 274.866C28.5008 275.67 28.2848 276.336 27.8528 276.864C27.4208 277.392 26.8568 277.782 26.1608 278.034V278.124C26.6768 278.244 27.1448 278.454 27.5648 278.754C27.9848 279.054 28.3208 279.432 28.5728 279.888C28.8248 280.344 28.9508 280.872 28.9508 281.472C28.9508 282.252 28.7588 282.924 28.3748 283.488C27.9908 284.052 27.4808 284.484 26.8448 284.784C26.2088 285.084 25.4948 285.234 24.7028 285.234ZM34.6691 285.234C33.9851 285.234 33.3791 285.15 32.8511 284.982C32.3351 284.814 31.8791 284.598 31.4831 284.334C31.0991 284.07 30.7511 283.788 30.4391 283.488L31.2671 282.408C31.5191 282.66 31.7951 282.9 32.0951 283.128C32.4071 283.344 32.7611 283.524 33.1571 283.668C33.5531 283.8 34.0031 283.866 34.5071 283.866C35.0231 283.866 35.4911 283.74 35.9111 283.488C36.3431 283.236 36.6851 282.876 36.9371 282.408C37.1891 281.94 37.3151 281.388 37.3151 280.752C37.3151 279.816 37.0631 279.084 36.5591 278.556C36.0671 278.016 35.4071 277.746 34.5791 277.746C34.1471 277.746 33.7691 277.812 33.4451 277.944C33.1211 278.076 32.7671 278.268 32.3831 278.52L31.5011 277.962L31.9331 271.806H38.3411V273.21H33.3731L33.0311 277.026C33.3191 276.858 33.6191 276.732 33.9311 276.648C34.2551 276.552 34.6151 276.504 35.0111 276.504C35.7431 276.504 36.4091 276.654 37.0091 276.954C37.6091 277.242 38.0891 277.698 38.4491 278.322C38.8091 278.946 38.9891 279.744 38.9891 280.716C38.9891 281.676 38.7791 282.492 38.3591 283.164C37.9511 283.836 37.4171 284.352 36.7571 284.712C36.0971 285.06 35.4011 285.234 34.6691 285.234ZM44.9235 269.808L46.2915 270.168C45.9555 271.044 45.5595 271.902 45.1035 272.742C44.6595 273.57 44.1735 274.344 43.6455 275.064C43.1175 275.772 42.5715 276.396 42.0075 276.936C41.9235 276.864 41.8095 276.774 41.6655 276.666C41.5335 276.546 41.3895 276.432 41.2335 276.324C41.0895 276.216 40.9575 276.132 40.8375 276.072C41.4135 275.568 41.9535 274.992 42.4575 274.344C42.9735 273.684 43.4415 272.97 43.8615 272.202C44.2815 271.422 44.6355 270.624 44.9235 269.808ZM44.6535 272.058H56.2635V273.354H43.9875L44.6535 272.058ZM43.7715 276.126H55.8495V277.404H45.1215V281.652H43.7715V276.126ZM40.8015 280.986H57.1095V282.282H40.8015V280.986ZM49.1535 272.742H50.5395V286.44H49.1535V272.742Z" fill="white"/>
<path d="M8.244 6.64H9.648V17.44H8.244V6.64ZM4.176 9.664V11.23H13.968V9.664H4.176ZM4.176 7.09V8.638H13.968V7.09H4.176ZM2.844 6.01H15.336V12.328H2.844V6.01ZM1.044 13.696H17.01V14.902H1.044V13.696ZM3.6 2.5V4.192H7.038V2.5H3.6ZM2.358 1.582H8.316V5.092H2.358V1.582ZM10.98 2.5V4.192H14.49V2.5H10.98ZM9.774 1.582H15.768V5.092H9.774V1.582ZM24.642 4.156H34.452V5.47H24.642V4.156ZM25.83 6.838L27.054 6.55C27.21 7.186 27.354 7.852 27.486 8.548C27.63 9.244 27.762 9.934 27.882 10.618C28.002 11.302 28.104 11.95 28.188 12.562C28.272 13.174 28.338 13.708 28.386 14.164L27.054 14.56C27.018 14.08 26.958 13.528 26.874 12.904C26.802 12.28 26.706 11.62 26.586 10.924C26.478 10.228 26.358 9.532 26.226 8.836C26.094 8.128 25.962 7.462 25.83 6.838ZM31.932 6.424L33.354 6.658C33.222 7.402 33.078 8.188 32.922 9.016C32.766 9.844 32.598 10.672 32.418 11.5C32.238 12.328 32.052 13.12 31.86 13.876C31.68 14.62 31.5 15.292 31.32 15.892L30.132 15.622C30.312 15.01 30.486 14.326 30.654 13.57C30.834 12.802 31.002 11.998 31.158 11.158C31.326 10.318 31.476 9.49 31.608 8.674C31.74 7.858 31.848 7.108 31.932 6.424ZM23.868 15.388H35.19V16.684H23.868V15.388ZM28.26 1.096L29.538 0.753999C29.706 1.198 29.874 1.684 30.042 2.212C30.222 2.728 30.36 3.178 30.456 3.562L29.106 3.958C29.034 3.574 28.914 3.112 28.746 2.572C28.59 2.032 28.428 1.54 28.26 1.096ZM23.148 0.952L24.426 1.33C24.03 2.35 23.568 3.358 23.04 4.354C22.524 5.338 21.96 6.268 21.348 7.144C20.736 8.02 20.106 8.794 19.458 9.466C19.41 9.358 19.338 9.22 19.242 9.052C19.158 8.884 19.062 8.716 18.954 8.548C18.858 8.368 18.768 8.23 18.684 8.134C19.272 7.546 19.842 6.868 20.394 6.1C20.946 5.332 21.456 4.51 21.924 3.634C22.404 2.746 22.812 1.852 23.148 0.952ZM21.24 5.578L22.572 4.246L22.59 4.264V17.404H21.24V5.578ZM45 6.208C44.64 6.208 44.322 6.088 44.046 5.848C43.77 5.596 43.632 5.266 43.632 4.858C43.632 4.45 43.77 4.126 44.046 3.886C44.322 3.634 44.64 3.508 45 3.508C45.36 3.508 45.678 3.634 45.954 3.886C46.23 4.126 46.368 4.45 46.368 4.858C46.368 5.266 46.23 5.596 45.954 5.848C45.678 6.088 45.36 6.208 45 6.208ZM45 15.028C44.64 15.028 44.322 14.908 44.046 14.668C43.77 14.416 43.632 14.086 43.632 13.678C43.632 13.258 43.77 12.928 44.046 12.688C44.322 12.436 44.64 12.31 45 12.31C45.36 12.31 45.678 12.436 45.954 12.688C46.23 12.928 46.368 13.258 46.368 13.678C46.368 14.086 46.23 14.416 45.954 14.668C45.678 14.908 45.36 15.028 45 15.028ZM54.99 7.612H71.136V8.998H54.99V7.612ZM62.298 0.897999H63.756V17.44H62.298V0.897999ZM78.102 2.662H88.722V3.688H78.102V2.662ZM77.274 5.452H89.334V6.55H77.274V5.452ZM79.848 3.994L80.982 3.724C81.138 3.952 81.282 4.21 81.414 4.498C81.558 4.774 81.66 5.02 81.72 5.236L80.514 5.542C80.478 5.326 80.394 5.074 80.262 4.786C80.13 4.498 79.992 4.234 79.848 3.994ZM85.41 3.652L86.76 4.012C86.556 4.408 86.34 4.804 86.112 5.2C85.884 5.584 85.674 5.92 85.482 6.208L84.42 5.884C84.6 5.572 84.786 5.206 84.978 4.786C85.17 4.354 85.314 3.976 85.41 3.652ZM80.082 10.402V11.572H86.544V10.402H80.082ZM80.082 8.422V9.556H86.544V8.422H80.082ZM78.804 7.504H87.876V12.49H78.804V7.504ZM78.516 13.444L79.56 13.93C79.38 14.374 79.164 14.89 78.912 15.478C78.66 16.054 78.396 16.552 78.12 16.972L77.022 16.378C77.214 16.126 77.4 15.832 77.58 15.496C77.772 15.148 77.946 14.794 78.102 14.434C78.27 14.074 78.408 13.744 78.516 13.444ZM80.172 13.426H81.414V15.82C81.414 16.012 81.468 16.132 81.576 16.18C81.684 16.24 81.93 16.27 82.314 16.27C82.398 16.27 82.56 16.27 82.8 16.27C83.052 16.27 83.322 16.27 83.61 16.27C83.91 16.27 84.186 16.27 84.438 16.27C84.702 16.27 84.894 16.27 85.014 16.27C85.206 16.27 85.35 16.24 85.446 16.18C85.554 16.12 85.626 16 85.662 15.82C85.71 15.628 85.746 15.334 85.77 14.938C85.902 15.022 86.076 15.106 86.292 15.19C86.52 15.262 86.712 15.322 86.868 15.37C86.832 15.91 86.754 16.324 86.634 16.612C86.514 16.9 86.34 17.098 86.112 17.206C85.884 17.314 85.566 17.368 85.158 17.368C85.086 17.368 84.948 17.368 84.744 17.368C84.552 17.368 84.324 17.368 84.06 17.368C83.808 17.368 83.55 17.368 83.286 17.368C83.022 17.368 82.788 17.368 82.584 17.368C82.392 17.368 82.26 17.368 82.188 17.368C81.648 17.368 81.234 17.326 80.946 17.242C80.658 17.158 80.454 17.002 80.334 16.774C80.226 16.546 80.172 16.228 80.172 15.82V13.426ZM81.576 12.994L82.404 12.328C82.716 12.496 83.034 12.7 83.358 12.94C83.682 13.168 83.988 13.396 84.276 13.624C84.576 13.852 84.816 14.068 84.996 14.272L84.114 15.028C83.946 14.836 83.718 14.62 83.43 14.38C83.142 14.14 82.836 13.9 82.512 13.66C82.188 13.408 81.876 13.186 81.576 12.994ZM86.148 13.696L87.21 13.228C87.486 13.552 87.762 13.906 88.038 14.29C88.314 14.674 88.572 15.052 88.812 15.424C89.064 15.784 89.256 16.108 89.388 16.396L88.254 16.954C88.122 16.666 87.942 16.33 87.714 15.946C87.486 15.562 87.234 15.178 86.958 14.794C86.694 14.398 86.424 14.032 86.148 13.696ZM82.008 1.06L83.268 0.843999C83.424 1.144 83.58 1.48 83.736 1.852C83.904 2.224 84.024 2.542 84.096 2.806L82.782 3.094C82.71 2.83 82.596 2.506 82.44 2.122C82.296 1.738 82.152 1.384 82.008 1.06ZM76.788 0.952L78.084 1.33C77.712 2.35 77.274 3.358 76.77 4.354C76.278 5.338 75.738 6.268 75.15 7.144C74.574 8.008 73.974 8.782 73.35 9.466C73.314 9.358 73.248 9.22 73.152 9.052C73.056 8.884 72.954 8.716 72.846 8.548C72.75 8.368 72.66 8.23 72.576 8.134C73.14 7.546 73.68 6.868 74.196 6.1C74.724 5.32 75.21 4.492 75.654 3.616C76.098 2.74 76.476 1.852 76.788 0.952ZM74.88 5.578L76.158 4.3L76.176 4.318V17.404H74.88V5.578ZM91.656 3.4H106.326V4.606H91.656V3.4ZM92.646 6.082H105.444V7.252H92.646V6.082ZM91.404 11.374H106.794V12.544H91.404V11.374ZM91.008 8.782H107.1V9.988H91.008V8.782ZM98.28 4.084H99.648V9.646H98.28V4.084ZM94.068 1.312L95.256 0.807999C95.58 1.156 95.886 1.546 96.174 1.978C96.474 2.398 96.696 2.77 96.84 3.094L95.58 3.67C95.46 3.334 95.256 2.944 94.968 2.5C94.68 2.056 94.38 1.66 94.068 1.312ZM102.51 0.807999L103.914 1.24C103.614 1.732 103.29 2.23 102.942 2.734C102.594 3.226 102.27 3.646 101.97 3.994L100.818 3.58C101.01 3.34 101.208 3.058 101.412 2.734C101.628 2.398 101.832 2.062 102.024 1.726C102.216 1.39 102.378 1.084 102.51 0.807999ZM98.172 9.592H99.594C99.498 10.444 99.36 11.23 99.18 11.95C99 12.658 98.73 13.3 98.37 13.876C98.022 14.452 97.548 14.968 96.948 15.424C96.36 15.868 95.61 16.252 94.698 16.576C93.798 16.9 92.706 17.17 91.422 17.386C91.398 17.266 91.344 17.128 91.26 16.972C91.188 16.828 91.104 16.684 91.008 16.54C90.912 16.396 90.822 16.276 90.738 16.18C91.95 16 92.97 15.772 93.798 15.496C94.638 15.22 95.328 14.896 95.868 14.524C96.408 14.152 96.828 13.726 97.128 13.246C97.44 12.754 97.674 12.208 97.83 11.608C97.986 10.996 98.1 10.324 98.172 9.592ZM99.09 13.75L99.684 12.742C100.308 12.982 100.962 13.252 101.646 13.552C102.342 13.852 103.026 14.164 103.698 14.488C104.37 14.812 105 15.136 105.588 15.46C106.176 15.772 106.674 16.066 107.082 16.342L106.434 17.512C106.038 17.224 105.552 16.912 104.976 16.576C104.4 16.252 103.776 15.922 103.104 15.586C102.432 15.238 101.748 14.908 101.052 14.596C100.368 14.272 99.714 13.99 99.09 13.75ZM118.494 8.134H119.862V15.082C119.862 15.406 119.916 15.616 120.024 15.712C120.132 15.796 120.36 15.838 120.708 15.838C120.792 15.838 120.936 15.838 121.14 15.838C121.356 15.838 121.59 15.838 121.842 15.838C122.094 15.838 122.328 15.838 122.544 15.838C122.772 15.838 122.94 15.838 123.048 15.838C123.3 15.838 123.486 15.76 123.606 15.604C123.726 15.436 123.81 15.124 123.858 14.668C123.918 14.2 123.954 13.504 123.966 12.58C124.086 12.664 124.218 12.748 124.362 12.832C124.506 12.904 124.656 12.97 124.812 13.03C124.98 13.09 125.124 13.138 125.244 13.174C125.196 14.206 125.106 15.01 124.974 15.586C124.854 16.15 124.65 16.546 124.362 16.774C124.086 17.002 123.684 17.116 123.156 17.116C123.072 17.116 122.904 17.116 122.652 17.116C122.4 17.116 122.13 17.116 121.842 17.116C121.554 17.116 121.284 17.116 121.032 17.116C120.792 17.116 120.63 17.116 120.546 17.116C120.018 17.116 119.598 17.056 119.286 16.936C118.986 16.816 118.776 16.606 118.656 16.306C118.548 16.018 118.494 15.616 118.494 15.1V8.134ZM109.062 7.324H124.956V8.656H109.062V7.324ZM110.646 2.284H123.426V3.58H110.646V2.284ZM113.67 8.35H115.11C115.026 9.358 114.9 10.312 114.732 11.212C114.564 12.112 114.288 12.952 113.904 13.732C113.532 14.5 113.004 15.196 112.32 15.82C111.648 16.444 110.778 16.966 109.71 17.386C109.638 17.23 109.518 17.044 109.35 16.828C109.182 16.624 109.02 16.462 108.864 16.342C109.848 15.97 110.64 15.508 111.24 14.956C111.852 14.404 112.32 13.786 112.644 13.102C112.98 12.406 113.22 11.662 113.364 10.87C113.508 10.066 113.61 9.226 113.67 8.35Z" fill="white"/>
<path d="M211.688 79.252C211.064 79.252 210.458 79.12 209.87 78.856C209.294 78.592 208.784 78.19 208.34 77.65C207.896 77.098 207.542 76.402 207.278 75.562C207.026 74.71 206.9 73.696 206.9 72.52C206.9 71.284 207.038 70.216 207.314 69.316C207.602 68.416 207.986 67.684 208.466 67.12C208.946 66.544 209.492 66.118 210.104 65.842C210.728 65.566 211.382 65.428 212.066 65.428C212.882 65.428 213.584 65.578 214.172 65.878C214.772 66.166 215.27 66.52 215.666 66.94L214.262 68.524C214.034 68.26 213.734 68.032 213.362 67.84C212.99 67.648 212.612 67.552 212.228 67.552C211.688 67.552 211.196 67.708 210.752 68.02C210.32 68.332 209.972 68.848 209.708 69.568C209.444 70.288 209.312 71.272 209.312 72.52C209.312 73.672 209.414 74.596 209.618 75.292C209.834 75.976 210.116 76.474 210.464 76.786C210.812 77.098 211.202 77.254 211.634 77.254C211.97 77.254 212.27 77.164 212.534 76.984C212.81 76.792 213.032 76.516 213.2 76.156C213.368 75.784 213.452 75.328 213.452 74.788C213.452 74.26 213.368 73.828 213.2 73.492C213.044 73.156 212.822 72.904 212.534 72.736C212.258 72.568 211.928 72.484 211.544 72.484C211.184 72.484 210.806 72.598 210.41 72.826C210.014 73.042 209.648 73.426 209.312 73.978L209.186 72.196C209.426 71.86 209.708 71.572 210.032 71.332C210.368 71.092 210.71 70.912 211.058 70.792C211.418 70.672 211.742 70.612 212.03 70.612C212.774 70.612 213.434 70.762 214.01 71.062C214.598 71.362 215.054 71.818 215.378 72.43C215.702 73.042 215.864 73.828 215.864 74.788C215.864 75.7 215.672 76.492 215.288 77.164C214.916 77.824 214.412 78.34 213.776 78.712C213.14 79.072 212.444 79.252 211.688 79.252ZM221.531 79.252C220.835 79.252 220.211 79.168 219.659 79C219.107 78.844 218.615 78.628 218.183 78.352C217.763 78.064 217.397 77.746 217.085 77.398L218.327 75.724C218.735 76.096 219.179 76.42 219.659 76.696C220.151 76.96 220.697 77.092 221.297 77.092C221.753 77.092 222.149 77.02 222.485 76.876C222.833 76.732 223.097 76.522 223.277 76.246C223.469 75.97 223.565 75.634 223.565 75.238C223.565 74.794 223.457 74.416 223.241 74.104C223.037 73.78 222.671 73.534 222.143 73.366C221.615 73.198 220.871 73.114 219.911 73.114V71.206C220.727 71.206 221.369 71.122 221.837 70.954C222.305 70.774 222.635 70.534 222.827 70.234C223.031 69.922 223.133 69.568 223.133 69.172C223.133 68.656 222.977 68.254 222.665 67.966C222.353 67.666 221.915 67.516 221.351 67.516C220.883 67.516 220.445 67.624 220.037 67.84C219.641 68.044 219.245 68.326 218.849 68.686L217.481 67.048C218.069 66.556 218.687 66.166 219.335 65.878C219.983 65.578 220.697 65.428 221.477 65.428C222.329 65.428 223.079 65.566 223.727 65.842C224.387 66.118 224.897 66.52 225.257 67.048C225.617 67.576 225.797 68.218 225.797 68.974C225.797 69.694 225.605 70.312 225.221 70.828C224.837 71.344 224.291 71.74 223.583 72.016V72.106C224.075 72.238 224.519 72.454 224.915 72.754C225.323 73.042 225.641 73.408 225.869 73.852C226.109 74.296 226.229 74.812 226.229 75.4C226.229 76.204 226.013 76.894 225.581 77.47C225.161 78.046 224.591 78.49 223.871 78.802C223.163 79.102 222.383 79.252 221.531 79.252ZM232.544 79.252C231.644 79.252 230.852 78.994 230.168 78.478C229.496 77.95 228.968 77.17 228.584 76.138C228.212 75.094 228.026 73.804 228.026 72.268C228.026 70.744 228.212 69.478 228.584 68.47C228.968 67.45 229.496 66.688 230.168 66.184C230.852 65.68 231.644 65.428 232.544 65.428C233.456 65.428 234.248 65.686 234.92 66.202C235.592 66.706 236.114 67.462 236.486 68.47C236.87 69.478 237.062 70.744 237.062 72.268C237.062 73.804 236.87 75.094 236.486 76.138C236.114 77.17 235.592 77.95 234.92 78.478C234.248 78.994 233.456 79.252 232.544 79.252ZM232.544 77.182C232.94 77.182 233.288 77.032 233.588 76.732C233.888 76.432 234.122 75.928 234.29 75.22C234.458 74.5 234.542 73.516 234.542 72.268C234.542 71.032 234.458 70.066 234.29 69.37C234.122 68.662 233.888 68.17 233.588 67.894C233.288 67.606 232.94 67.462 232.544 67.462C232.172 67.462 231.83 67.606 231.518 67.894C231.218 68.17 230.978 68.662 230.798 69.37C230.618 70.066 230.528 71.032 230.528 72.268C230.528 73.516 230.618 74.5 230.798 75.22C230.978 75.928 231.218 76.432 231.518 76.732C231.83 77.032 232.172 77.182 232.544 77.182Z" fill="white"/>
<path d="M318.476 182V179.84H321.356V171.434H318.926V169.778C319.598 169.658 320.174 169.514 320.654 169.346C321.146 169.166 321.602 168.938 322.022 168.662H323.984V179.84H326.486V182H318.476ZM329.093 182V179.84H331.973V171.434H329.543V169.778C330.215 169.658 330.791 169.514 331.271 169.346C331.763 169.166 332.219 168.938 332.639 168.662H334.601V179.84H337.103V182H329.093ZM343.922 182.252C343.298 182.252 342.692 182.12 342.104 181.856C341.528 181.592 341.018 181.19 340.574 180.65C340.13 180.098 339.776 179.402 339.512 178.562C339.26 177.71 339.134 176.696 339.134 175.52C339.134 174.284 339.272 173.216 339.548 172.316C339.836 171.416 340.22 170.684 340.7 170.12C341.18 169.544 341.726 169.118 342.338 168.842C342.962 168.566 343.616 168.428 344.3 168.428C345.116 168.428 345.818 168.578 346.406 168.878C347.006 169.166 347.504 169.52 347.9 169.94L346.496 171.524C346.268 171.26 345.968 171.032 345.596 170.84C345.224 170.648 344.846 170.552 344.462 170.552C343.922 170.552 343.43 170.708 342.986 171.02C342.554 171.332 342.206 171.848 341.942 172.568C341.678 173.288 341.546 174.272 341.546 175.52C341.546 176.672 341.648 177.596 341.852 178.292C342.068 178.976 342.35 179.474 342.698 179.786C343.046 180.098 343.436 180.254 343.868 180.254C344.204 180.254 344.504 180.164 344.768 179.984C345.044 179.792 345.266 179.516 345.434 179.156C345.602 178.784 345.686 178.328 345.686 177.788C345.686 177.26 345.602 176.828 345.434 176.492C345.278 176.156 345.056 175.904 344.768 175.736C344.492 175.568 344.162 175.484 343.778 175.484C343.418 175.484 343.04 175.598 342.644 175.826C342.248 176.042 341.882 176.426 341.546 176.978L341.42 175.196C341.66 174.86 341.942 174.572 342.266 174.332C342.602 174.092 342.944 173.912 343.292 173.792C343.652 173.672 343.976 173.612 344.264 173.612C345.008 173.612 345.668 173.762 346.244 174.062C346.832 174.362 347.288 174.818 347.612 175.43C347.936 176.042 348.098 176.828 348.098 177.788C348.098 178.7 347.906 179.492 347.522 180.164C347.15 180.824 346.646 181.34 346.01 181.712C345.374 182.072 344.678 182.252 343.922 182.252ZM354.162 182.252C353.262 182.252 352.47 181.994 351.786 181.478C351.114 180.95 350.586 180.17 350.202 179.138C349.83 178.094 349.644 176.804 349.644 175.268C349.644 173.744 349.83 172.478 350.202 171.47C350.586 170.45 351.114 169.688 351.786 169.184C352.47 168.68 353.262 168.428 354.162 168.428C355.074 168.428 355.866 168.686 356.538 169.202C357.21 169.706 357.732 170.462 358.104 171.47C358.488 172.478 358.68 173.744 358.68 175.268C358.68 176.804 358.488 178.094 358.104 179.138C357.732 180.17 357.21 180.95 356.538 181.478C355.866 181.994 355.074 182.252 354.162 182.252ZM354.162 180.182C354.558 180.182 354.906 180.032 355.206 179.732C355.506 179.432 355.74 178.928 355.908 178.22C356.076 177.5 356.16 176.516 356.16 175.268C356.16 174.032 356.076 173.066 355.908 172.37C355.74 171.662 355.506 171.17 355.206 170.894C354.906 170.606 354.558 170.462 354.162 170.462C353.79 170.462 353.448 170.606 353.136 170.894C352.836 171.17 352.596 171.662 352.416 172.37C352.236 173.066 352.146 174.032 352.146 175.268C352.146 176.516 352.236 177.5 352.416 178.22C352.596 178.928 352.836 179.432 353.136 179.732C353.448 180.032 353.79 180.182 354.162 180.182Z" fill="white"/>
<path d="M449.476 285V282.84H452.356V274.434H449.926V272.778C450.598 272.658 451.174 272.514 451.654 272.346C452.146 272.166 452.602 271.938 453.022 271.662H454.984V282.84H457.486V285H449.476ZM461.965 285C462.025 283.848 462.127 282.786 462.271 281.814C462.415 280.83 462.619 279.906 462.883 279.042C463.147 278.166 463.489 277.308 463.909 276.468C464.341 275.628 464.875 274.77 465.511 273.894H459.517V271.662H468.373V273.282C467.605 274.218 466.981 275.118 466.501 275.982C466.033 276.846 465.673 277.722 465.421 278.61C465.181 279.498 465.001 280.458 464.881 281.49C464.773 282.522 464.689 283.692 464.629 285H461.965ZM473.824 285.252C472.996 285.252 472.276 285.102 471.664 284.802C471.064 284.502 470.566 284.148 470.17 283.74L471.574 282.138C471.814 282.414 472.126 282.642 472.51 282.822C472.894 283.002 473.284 283.092 473.68 283.092C474.064 283.092 474.43 283.008 474.778 282.84C475.126 282.66 475.426 282.378 475.678 281.994C475.942 281.598 476.146 281.076 476.29 280.428C476.446 279.78 476.524 278.982 476.524 278.034C476.524 276.894 476.416 275.988 476.2 275.316C475.996 274.644 475.72 274.164 475.372 273.876C475.024 273.576 474.628 273.426 474.184 273.426C473.86 273.426 473.56 273.516 473.284 273.696C473.008 273.876 472.786 274.146 472.618 274.506C472.462 274.866 472.384 275.322 472.384 275.874C472.384 276.39 472.462 276.822 472.618 277.17C472.774 277.506 472.99 277.758 473.266 277.926C473.554 278.094 473.89 278.178 474.274 278.178C474.646 278.178 475.03 278.064 475.426 277.836C475.822 277.608 476.182 277.224 476.506 276.684L476.632 278.466C476.404 278.79 476.122 279.072 475.786 279.312C475.462 279.552 475.126 279.738 474.778 279.87C474.43 280.002 474.094 280.068 473.77 280.068C473.038 280.068 472.384 279.918 471.808 279.618C471.232 279.306 470.776 278.844 470.44 278.232C470.116 277.608 469.954 276.822 469.954 275.874C469.954 274.962 470.146 274.176 470.53 273.516C470.914 272.844 471.424 272.328 472.06 271.968C472.696 271.608 473.392 271.428 474.148 271.428C474.784 271.428 475.384 271.56 475.948 271.824C476.524 272.076 477.034 272.472 477.478 273.012C477.934 273.54 478.288 274.224 478.54 275.064C478.804 275.892 478.936 276.882 478.936 278.034C478.936 279.294 478.798 280.38 478.522 281.292C478.246 282.192 477.862 282.936 477.37 283.524C476.89 284.112 476.344 284.55 475.732 284.838C475.12 285.114 474.484 285.252 473.824 285.252ZM485.162 285.252C484.262 285.252 483.47 284.994 482.786 284.478C482.114 283.95 481.586 283.17 481.202 282.138C480.83 281.094 480.644 279.804 480.644 278.268C480.644 276.744 480.83 275.478 481.202 274.47C481.586 273.45 482.114 272.688 482.786 272.184C483.47 271.68 484.262 271.428 485.162 271.428C486.074 271.428 486.866 271.686 487.538 272.202C488.21 272.706 488.732 273.462 489.104 274.47C489.488 275.478 489.68 276.744 489.68 278.268C489.68 279.804 489.488 281.094 489.104 282.138C488.732 283.17 488.21 283.95 487.538 284.478C486.866 284.994 486.074 285.252 485.162 285.252ZM485.162 283.182C485.558 283.182 485.906 283.032 486.206 282.732C486.506 282.432 486.74 281.928 486.908 281.22C487.076 280.5 487.16 279.516 487.16 278.268C487.16 277.032 487.076 276.066 486.908 275.37C486.74 274.662 486.506 274.17 486.206 273.894C485.906 273.606 485.558 273.462 485.162 273.462C484.79 273.462 484.448 273.606 484.136 273.894C483.836 274.17 483.596 274.662 483.416 275.37C483.236 276.066 483.146 277.032 483.146 278.268C483.146 279.516 483.236 280.5 483.416 281.22C483.596 281.928 483.836 282.432 484.136 282.732C484.448 283.032 484.79 283.182 485.162 283.182Z" fill="white"/>
</svg>
