<svg width="1280" height="720" viewBox="0 0 1280 720" fill="none" xmlns="http://www.w3.org/2000/svg">
<g filter="url(#filter0_d_669_9453)">
<path d="M379 574.146C499.95 574.146 598 476.545 598 356.146C598 235.748 499.95 138.146 379 138.146C258.05 138.146 160 235.748 160 356.146C160 476.545 258.05 574.146 379 574.146Z" fill="black" shape-rendering="crispEdges"/>
<path d="M379 574.146C499.95 574.146 598 476.545 598 356.146C598 235.748 499.95 138.146 379 138.146C258.05 138.146 160 235.748 160 356.146C160 476.545 258.05 574.146 379 574.146Z" stroke="url(#paint0_linear_669_9453)" stroke-linecap="round" stroke-linejoin="round" shape-rendering="crispEdges"/>
</g>
<path d="M597 598.158C666.225 547.421 712 459.484 712 359.501C712 259.518 666.225 171.581 597 120.844" stroke="white" stroke-linecap="round" stroke-linejoin="round"/>
<path d="M597.5 163C570.759 163 549 141.241 549 114.5C549 87.7588 570.759 66 597.5 66C624.241 66 646 87.7588 646 114.5C646 141.241 624.241 163 597.5 163ZM597.5 67.7009C571.698 67.7009 550.701 88.6975 550.701 114.5C550.701 140.302 571.698 161.299 597.5 161.299C623.302 161.299 644.299 140.302 644.299 114.5C644.299 88.6975 623.302 67.7009 597.5 67.7009Z" fill="url(#paint1_linear_669_9453)"/>
<path d="M597.498 67.7012C571.696 67.7012 550.699 88.6978 550.699 114.5C550.699 140.303 571.696 161.299 597.498 161.299C623.301 161.299 644.297 140.303 644.297 114.5C644.297 88.6978 623.301 67.7012 597.498 67.7012Z" fill="#04060C"/>
<path d="M611.732 114.499C611.732 122.361 605.362 128.74 597.491 128.74C589.62 128.74 583.258 122.369 583.258 114.499C583.258 106.628 589.628 100.266 597.491 100.266C605.354 100.266 611.732 106.636 611.732 114.499Z" fill="white" stroke="white" stroke-width="0.5" stroke-linecap="round" stroke-linejoin="round"/>
<path d="M595.07 87.431V95.5184C595.07 96.8582 596.153 97.9494 597.501 97.9494C598.849 97.9494 599.932 96.8582 599.932 95.5184V87.431C599.932 86.0911 598.849 85 597.501 85C596.153 85 595.07 86.0911 595.07 87.431Z" fill="white" stroke="white" stroke-width="0.5" stroke-linecap="round" stroke-linejoin="round"/>
<path d="M579.015 96.0225C578.068 96.9693 578.068 98.5097 579.015 99.4565L582.36 102.802C583.307 103.749 584.848 103.749 585.794 102.802C586.741 101.855 586.741 100.315 585.794 99.3682L582.449 96.0225C581.502 95.0758 579.961 95.0758 579.015 96.0225Z" fill="white" stroke="white" stroke-width="0.5" stroke-linecap="round" stroke-linejoin="round"/>
<path d="M570.431 112.07C569.091 112.07 568 113.161 568 114.501C568 115.841 569.083 116.932 570.431 116.932H578.518C579.858 116.932 580.949 115.841 580.949 114.501C580.949 113.161 579.866 112.07 578.518 112.07H570.431Z" fill="white" stroke="white" stroke-width="0.5" stroke-linecap="round" stroke-linejoin="round"/>
<path d="M582.36 126.214L579.015 129.56C578.068 130.506 578.068 132.047 579.015 132.994C579.961 133.94 581.502 133.94 582.449 132.994L585.794 129.648C586.741 128.701 586.741 127.161 585.794 126.214C584.848 125.267 583.307 125.267 582.36 126.214Z" fill="white" stroke="white" stroke-width="0.5" stroke-linecap="round" stroke-linejoin="round"/>
<path d="M595.07 133.486V141.581C595.07 142.921 596.153 144.012 597.501 144.012C598.849 144.012 599.932 142.921 599.932 141.581V133.486C599.932 132.146 598.849 131.055 597.501 131.055C596.153 131.055 595.07 132.146 595.07 133.486Z" fill="white" stroke="white" stroke-width="0.5" stroke-linecap="round" stroke-linejoin="round"/>
<path d="M609.206 126.214C608.259 127.161 608.259 128.701 609.206 129.648L612.552 132.994C613.499 133.94 615.039 133.94 615.986 132.994C616.932 132.047 616.932 130.506 615.986 129.56L612.64 126.214C611.693 125.267 610.153 125.267 609.206 126.214Z" fill="white" stroke="white" stroke-width="0.5" stroke-linecap="round" stroke-linejoin="round"/>
<path d="M616.482 112.07C615.142 112.07 614.051 113.161 614.051 114.501C614.051 115.841 615.134 116.932 616.482 116.932H624.569C625.909 116.932 627 115.841 627 114.501C627 113.161 625.917 112.07 624.569 112.07H616.482Z" fill="white" stroke="white" stroke-width="0.5" stroke-linecap="round" stroke-linejoin="round"/>
<path d="M612.552 96.0225L609.206 99.3682C608.259 100.315 608.259 101.855 609.206 102.802C610.153 103.749 611.693 103.749 612.64 102.802L615.986 99.4565C616.932 98.5097 616.932 96.9693 615.986 96.0225C615.039 95.0758 613.499 95.0758 612.552 96.0225Z" fill="white" stroke="white" stroke-width="0.5" stroke-linecap="round" stroke-linejoin="round"/>
<path d="M714.5 410C687.759 410 666 388.241 666 361.5C666 334.759 687.759 313 714.5 313C741.241 313 763 334.759 763 361.5C763 388.241 741.241 410 714.5 410ZM714.5 314.701C688.698 314.701 667.701 335.698 667.701 361.5C667.701 387.302 688.698 408.299 714.5 408.299C740.302 408.299 761.299 387.302 761.299 361.5C761.299 335.698 740.302 314.701 714.5 314.701Z" fill="url(#paint2_linear_669_9453)"/>
<path d="M714.498 314.701C688.696 314.701 667.699 335.698 667.699 361.5C667.699 387.303 688.696 408.299 714.498 408.299C740.301 408.299 761.297 387.303 761.297 361.5C761.297 335.698 740.301 314.701 714.498 314.701Z" fill="#04060C"/>
<path d="M731.71 353.462L714.501 329.986L697.307 353.462C693.921 357.426 691.859 362.552 691.859 368.161C691.859 380.661 701.993 390.802 714.501 390.802C727.009 390.802 737.142 380.661 737.142 368.161C737.142 359.504 731.71 353.454 731.71 353.454V353.462Z" fill="white" stroke="white" stroke-width="0.5" stroke-linecap="round" stroke-linejoin="round"/>
<path d="M698.068 365.415C696.512 370.085 695.236 378.983 705.682 383.435C706.693 383.869 708.258 383.652 707.319 382.898C702.112 378.662 698.678 373.062 699.32 364.268C699.4 363.209 698.678 363.586 698.068 365.423V365.415Z" fill="#04060C" stroke="white" stroke-width="0.5" stroke-linecap="round" stroke-linejoin="round"/>
<path d="M677.5 283C650.759 283 629 261.241 629 234.5C629 207.759 650.759 186 677.5 186C704.241 186 726 207.759 726 234.5C726 261.241 704.241 283 677.5 283ZM677.5 187.701C651.698 187.701 630.701 208.698 630.701 234.5C630.701 260.302 651.698 281.299 677.5 281.299C703.302 281.299 724.299 260.302 724.299 234.5C724.299 208.698 703.302 187.701 677.5 187.701Z" fill="url(#paint3_linear_669_9453)"/>
<path d="M677.498 187.701C651.696 187.701 630.699 208.698 630.699 234.5C630.699 260.303 651.696 281.299 677.498 281.299C703.301 281.299 724.297 260.303 724.297 234.5C724.297 208.698 703.301 187.701 677.498 187.701Z" fill="#04060C"/>
<path d="M677.499 265.688C694.722 265.688 708.685 251.726 708.685 234.502C708.685 217.279 694.722 203.316 677.499 203.316C660.275 203.316 646.312 217.279 646.312 234.502C646.312 251.726 660.275 265.688 677.499 265.688Z" stroke="white" stroke-width="0.5" stroke-linecap="round" stroke-linejoin="round"/>
<path d="M682.369 232.785C687.008 232.785 690.769 229.024 690.769 224.385C690.769 219.745 687.008 215.984 682.369 215.984C677.73 215.984 673.969 219.745 673.969 224.385C673.969 229.024 677.73 232.785 682.369 232.785Z" fill="white" stroke="white" stroke-width="0.5" stroke-linecap="round" stroke-linejoin="round"/>
<path d="M685.748 223.052H683.702V221.006C683.702 220.276 683.1 219.674 682.37 219.674C681.64 219.674 681.038 220.276 681.038 221.006V223.052H678.992C678.262 223.052 677.66 223.653 677.66 224.383C677.66 225.114 678.262 225.715 678.992 225.715H681.038V227.761C681.038 228.491 681.64 229.093 682.37 229.093C683.1 229.093 683.702 228.491 683.702 227.761V225.715H685.748C686.478 225.715 687.079 225.114 687.079 224.383C687.079 223.653 686.478 223.052 685.748 223.052Z" fill="#04060C" stroke="white" stroke-linecap="round" stroke-linejoin="round"/>
<path d="M700.287 221.222C704.926 221.222 708.687 217.461 708.687 212.822C708.687 208.183 704.926 204.422 700.287 204.422C695.648 204.422 691.887 208.183 691.887 212.822C691.887 217.461 695.648 221.222 700.287 221.222Z" fill="white" stroke="white" stroke-width="0.5" stroke-linecap="round" stroke-linejoin="round"/>
<path d="M703.662 214.154C704.392 214.154 704.994 213.552 704.994 212.822C704.994 212.092 704.392 211.49 703.662 211.49H696.898C696.168 211.49 695.566 212.092 695.566 212.822C695.566 213.552 696.168 214.154 696.898 214.154H703.662Z" fill="#04060C"/>
<path d="M656.631 265.687C661.27 265.687 665.031 261.926 665.031 257.287C665.031 252.648 661.27 248.887 656.631 248.887C651.991 248.887 648.23 252.648 648.23 257.287C648.23 261.926 651.991 265.687 656.631 265.687Z" fill="white" stroke="white" stroke-width="0.5" stroke-linecap="round" stroke-linejoin="round"/>
<path d="M660.009 258.619C660.74 258.619 661.341 258.017 661.341 257.287C661.341 256.557 660.74 255.955 660.009 255.955H653.246C652.516 255.955 651.914 256.557 651.914 257.287C651.914 258.017 652.516 258.619 653.246 258.619H660.009Z" fill="#04060C"/>
<path d="M682.369 254.287C687.008 254.287 690.769 250.526 690.769 245.887C690.769 241.247 687.008 237.486 682.369 237.486C677.73 237.486 673.969 241.247 673.969 245.887C673.969 250.526 677.73 254.287 682.369 254.287Z" fill="white" stroke="white" stroke-width="0.5" stroke-linecap="round" stroke-linejoin="round"/>
<path d="M666.099 244.103C670.739 244.103 674.5 240.342 674.5 235.703C674.5 231.064 670.739 227.303 666.099 227.303C661.46 227.303 657.699 231.064 657.699 235.703C657.699 240.342 661.46 244.103 666.099 244.103Z" fill="white" stroke="white" stroke-width="0.5" stroke-linecap="round" stroke-linejoin="round"/>
<path d="M669.478 234.372H667.432V232.326C667.432 231.596 666.83 230.994 666.1 230.994C665.37 230.994 664.768 231.596 664.768 232.326V234.372H662.722C661.992 234.372 661.391 234.974 661.391 235.704C661.391 236.434 661.992 237.036 662.722 237.036H664.768V239.081C664.768 239.812 665.37 240.413 666.1 240.413C666.83 240.413 667.432 239.812 667.432 239.081V237.036H669.478C670.208 237.036 670.81 236.434 670.81 235.704C670.81 234.974 670.208 234.372 669.478 234.372Z" fill="#04060C" stroke="white" stroke-linecap="round" stroke-linejoin="round"/>
<path d="M595.5 659C568.759 659 547 637.241 547 610.5C547 583.759 568.759 562 595.5 562C622.241 562 644 583.759 644 610.5C644 637.241 622.241 659 595.5 659ZM595.5 563.701C569.698 563.701 548.701 584.698 548.701 610.5C548.701 636.302 569.698 657.299 595.5 657.299C621.302 657.299 642.299 636.302 642.299 610.5C642.299 584.698 621.31 563.701 595.5 563.701Z" fill="url(#paint4_linear_669_9453)"/>
<path d="M595.498 563.701C569.696 563.701 548.699 584.698 548.699 610.5C548.699 636.303 569.696 657.299 595.498 657.299C621.301 657.299 642.297 636.303 642.297 610.5C642.297 584.698 621.309 563.701 595.498 563.701Z" fill="#04060C"/>
<path d="M631.346 629.83C632.67 627.383 633.753 624.791 634.555 622.079C636.344 616.792 636.657 613.406 636.657 613.406C624.775 604.188 614.032 604.749 606.61 607.469C598.298 610.51 593.95 606.827 585.469 603.987C568.885 598.443 555.246 615.179 555.246 615.179C555.262 617.458 555.736 619.351 555.736 619.351C559.787 637.58 576.074 651.251 595.498 651.251C610.943 651.251 624.398 642.61 631.298 629.918C631.298 629.91 631.314 629.902 631.314 629.886C631.322 629.87 631.33 629.854 631.338 629.838L631.346 629.83Z" fill="white" stroke="white" stroke-width="0.5" stroke-linecap="round" stroke-linejoin="round"/>
<path d="M598.3 631.803C600.334 631.803 601.982 630.154 601.982 628.12C601.982 626.086 600.334 624.438 598.3 624.438C596.266 624.438 594.617 626.086 594.617 628.12C594.617 630.154 596.266 631.803 598.3 631.803Z" fill="#04060C" stroke="white" stroke-width="0.5" stroke-linecap="round" stroke-linejoin="round"/>
<path d="M626.815 621.547C628.849 621.547 630.498 619.898 630.498 617.864C630.498 615.83 628.849 614.182 626.815 614.182C624.782 614.182 623.133 615.83 623.133 617.864C623.133 619.898 624.782 621.547 626.815 621.547Z" fill="#04060C" stroke="white" stroke-width="0.5" stroke-linecap="round" stroke-linejoin="round"/>
<path d="M581.147 617.391C583.181 617.391 584.83 615.742 584.83 613.708C584.83 611.674 583.181 610.025 581.147 610.025C579.114 610.025 577.465 611.674 577.465 613.708C577.465 615.742 579.114 617.391 581.147 617.391Z" fill="#04060C" stroke="white" stroke-width="0.5" stroke-linecap="round" stroke-linejoin="round"/>
<path d="M611.977 637.283C613.639 637.283 614.986 635.936 614.986 634.274C614.986 632.613 613.639 631.266 611.977 631.266C610.316 631.266 608.969 632.613 608.969 634.274C608.969 635.936 610.316 637.283 611.977 637.283Z" fill="#04060C" stroke="white" stroke-width="0.5" stroke-linecap="round" stroke-linejoin="round"/>
<path d="M585.471 639.167C586.513 639.167 587.357 638.323 587.357 637.282C587.357 636.241 586.513 635.396 585.471 635.396C584.43 635.396 583.586 636.241 583.586 637.282C583.586 638.323 584.43 639.167 585.471 639.167Z" fill="#04060C" stroke="white" stroke-width="0.5" stroke-linecap="round" stroke-linejoin="round"/>
<path d="M589.249 647.126C590.29 647.126 591.134 646.282 591.134 645.241C591.134 644.2 590.29 643.355 589.249 643.355C588.207 643.355 587.363 644.2 587.363 645.241C587.363 646.282 588.207 647.126 589.249 647.126Z" fill="#04060C" stroke="white" stroke-width="0.5" stroke-linecap="round" stroke-linejoin="round"/>
<path d="M606.612 641.951C607.653 641.951 608.497 641.106 608.497 640.065C608.497 639.024 607.653 638.18 606.612 638.18C605.571 638.18 604.727 639.024 604.727 640.065C604.727 641.106 605.571 641.951 606.612 641.951Z" fill="#04060C" stroke="white" stroke-width="0.5" stroke-linecap="round" stroke-linejoin="round"/>
<path d="M588.487 631.759C589.528 631.759 590.372 630.915 590.372 629.874C590.372 628.832 589.528 627.988 588.487 627.988C587.446 627.988 586.602 628.832 586.602 629.874C586.602 630.915 587.446 631.759 588.487 631.759Z" fill="#04060C" stroke="white" stroke-width="0.5" stroke-linecap="round" stroke-linejoin="round"/>
<path d="M593.03 617.953C594.071 617.953 594.915 617.108 594.915 616.067C594.915 615.026 594.071 614.182 593.03 614.182C591.989 614.182 591.145 615.026 591.145 616.067C591.145 617.108 591.989 617.953 593.03 617.953Z" fill="#04060C" stroke="white" stroke-width="0.5" stroke-linecap="round" stroke-linejoin="round"/>
<path d="M566.112 628.753C567.153 628.753 567.997 627.909 567.997 626.868C567.997 625.827 567.153 624.982 566.112 624.982C565.071 624.982 564.227 625.827 564.227 626.868C564.227 627.909 565.071 628.753 566.112 628.753Z" fill="#04060C" stroke="white" stroke-width="0.5" stroke-linecap="round" stroke-linejoin="round"/>
<path d="M582.464 626.347C583.505 626.347 584.349 625.503 584.349 624.462C584.349 623.42 583.505 622.576 582.464 622.576C581.422 622.576 580.578 623.42 580.578 624.462C580.578 625.503 581.422 626.347 582.464 626.347Z" fill="#04060C" stroke="white" stroke-width="0.5" stroke-linecap="round" stroke-linejoin="round"/>
<path d="M567.995 617.953C569.036 617.953 569.88 617.108 569.88 616.067C569.88 615.026 569.036 614.182 567.995 614.182C566.954 614.182 566.109 615.026 566.109 616.067C566.109 617.108 566.954 617.953 567.995 617.953Z" fill="#04060C" stroke="white" stroke-width="0.5" stroke-linecap="round" stroke-linejoin="round"/>
<path d="M574.528 638.17C576.19 638.17 577.537 636.823 577.537 635.161C577.537 633.499 576.19 632.152 574.528 632.152C572.867 632.152 571.52 633.499 571.52 635.161C571.52 636.823 572.867 638.17 574.528 638.17Z" fill="#04060C" stroke="white" stroke-width="0.5" stroke-linecap="round" stroke-linejoin="round"/>
<path d="M598.302 644.494C599.551 644.494 600.564 643.481 600.564 642.231C600.564 640.982 599.551 639.969 598.302 639.969C597.052 639.969 596.039 640.982 596.039 642.231C596.039 643.481 597.052 644.494 598.302 644.494Z" fill="#04060C" stroke="white" stroke-width="0.5" stroke-linecap="round" stroke-linejoin="round"/>
<path d="M614.979 617.953C616.02 617.953 616.865 617.108 616.865 616.067C616.865 615.026 616.02 614.182 614.979 614.182C613.938 614.182 613.094 615.026 613.094 616.067C613.094 617.108 613.938 617.953 614.979 617.953Z" fill="#04060C" stroke="white" stroke-width="0.5" stroke-linecap="round" stroke-linejoin="round"/>
<path d="M601.983 615.972C603.024 615.972 603.869 615.128 603.869 614.087C603.869 613.045 603.024 612.201 601.983 612.201C600.942 612.201 600.098 613.045 600.098 614.087C600.098 615.128 600.942 615.972 601.983 615.972Z" fill="#04060C" stroke="white" stroke-width="0.5" stroke-linecap="round" stroke-linejoin="round"/>
<path d="M616.755 628.119C618.416 628.119 619.763 626.772 619.763 625.11C619.763 623.449 618.416 622.102 616.755 622.102C615.093 622.102 613.746 623.449 613.746 625.11C613.746 626.772 615.093 628.119 616.755 628.119Z" fill="#04060C" stroke="white" stroke-width="0.5" stroke-linecap="round" stroke-linejoin="round"/>
<path d="M624.022 631.759C625.063 631.759 625.908 630.915 625.908 629.874C625.908 628.832 625.063 627.988 624.022 627.988C622.981 627.988 622.137 628.832 622.137 629.874C622.137 630.915 622.981 631.759 624.022 631.759Z" fill="#04060C" stroke="white" stroke-width="0.5" stroke-linecap="round" stroke-linejoin="round"/>
<path d="M674.5 538C647.759 538 626 516.241 626 489.5C626 462.759 647.759 441 674.5 441C701.241 441 723 462.759 723 489.5C723 516.241 701.241 538 674.5 538ZM674.5 442.701C648.698 442.701 627.701 463.698 627.701 489.5C627.701 515.302 648.698 536.299 674.5 536.299C700.302 536.299 721.299 515.302 721.299 489.5C721.299 463.698 700.302 442.701 674.5 442.701Z" fill="url(#paint5_linear_669_9453)"/>
<path d="M674.498 442.701C648.696 442.701 627.699 463.698 627.699 489.5C627.699 515.303 648.696 536.299 674.498 536.299C700.301 536.299 721.297 515.303 721.297 489.5C721.297 463.698 700.301 442.701 674.498 442.701Z" fill="#04060C"/>
<path d="M661.799 473.292L666.163 468.598L672.71 464.41L676.802 469.505L679.987 470.684L683.991 474.503L690.265 475.506L701.818 480.785C701.457 485.423 704.089 488.977 704.273 489.972C704.458 490.975 702.725 493.791 699.724 494.882C696.723 495.973 693.45 501.253 692.808 502.889C692.174 504.526 690.81 507.984 688.532 508.345C686.253 508.706 686.895 510.07 685.347 511.618C683.798 513.167 680.436 511.707 677.251 511.803C674.066 511.891 670.793 512.894 670.793 512.894L658.509 504.975L656.872 504.245C652.235 503.427 648.938 497.923 648.938 497.923L650.51 480.136C650.51 480.136 655.244 474.407 659.063 473.589L661.791 473.284L661.799 473.292Z" fill="white" stroke="white" stroke-width="0.5" stroke-linecap="round" stroke-linejoin="round"/>
<path d="M661.824 473.415C666.277 473.199 672.583 473.728 672.583 473.728C672.583 473.728 674.854 474.001 679.226 478.638C683.599 483.276 687.779 485.097 688.959 485.097C690.138 485.097 693.05 485.554 695.056 486.822C697.054 488.098 703.063 491.828 703.063 491.828" stroke="#04060C" stroke-width="0.5" stroke-linecap="round" stroke-linejoin="round"/>
<path d="M687.039 508.933C687.039 508.933 686.405 508.114 684.215 506.02C682.033 503.926 678.663 504.56 676.12 505.378C673.576 506.197 674.571 506.558 669.115 504.376C664.342 502.466 662.071 504.528 658.469 504.52" stroke="#04060C" stroke-width="0.5" stroke-linecap="round" stroke-linejoin="round"/>
<path d="M676.764 469.635L670.129 473.558" stroke="#04060C" stroke-width="0.5" stroke-linecap="round" stroke-linejoin="round"/>
<path d="M664.664 473.557C664.664 473.557 667.392 474.728 668.94 479.365C670.489 484.003 670.393 490.1 674.853 491.553" stroke="#04060C" stroke-width="0.5" stroke-linecap="round" stroke-linejoin="round"/>
<path d="M691.301 485.391C691.301 485.391 686.952 488.094 687.859 489.547C688.765 490.999 691.83 493.093 691.301 494.826C690.771 496.559 690.587 497.369 690.587 497.369" stroke="#04060C" stroke-width="0.5" stroke-linecap="round" stroke-linejoin="round"/>
<path d="M689.238 491.146L681.359 496.378" stroke="#04060C" stroke-width="0.5" stroke-linecap="round" stroke-linejoin="round"/>
<path d="M661.173 485.82C662.666 485.82 663.876 484.609 663.876 483.116C663.876 481.623 662.666 480.412 661.173 480.412C659.679 480.412 658.469 481.623 658.469 483.116C658.469 484.609 659.679 485.82 661.173 485.82Z" fill="#04060C" stroke="white" stroke-width="0.5" stroke-linecap="round" stroke-linejoin="round"/>
<path d="M654.755 497.38C656.248 497.38 657.458 496.17 657.458 494.676C657.458 493.183 656.248 491.973 654.755 491.973C653.261 491.973 652.051 493.183 652.051 494.676C652.051 496.17 653.261 497.38 654.755 497.38Z" fill="#04060C" stroke="white" stroke-width="0.5" stroke-linecap="round" stroke-linejoin="round"/>
<path d="M673.442 502.322C674.935 502.322 676.146 501.111 676.146 499.618C676.146 498.125 674.935 496.914 673.442 496.914C671.949 496.914 670.738 498.125 670.738 499.618C670.738 501.111 671.949 502.322 673.442 502.322Z" fill="#04060C" stroke="white" stroke-width="0.5" stroke-linecap="round" stroke-linejoin="round"/>
<path d="M679.466 488.523C680.959 488.523 682.169 487.312 682.169 485.819C682.169 484.326 680.959 483.115 679.466 483.115C677.972 483.115 676.762 484.326 676.762 485.819C676.762 487.312 677.972 488.523 679.466 488.523Z" fill="#04060C" stroke="white" stroke-width="0.5" stroke-linecap="round" stroke-linejoin="round"/>
<path d="M689.239 482.096C690.165 482.096 690.916 481.345 690.916 480.419C690.916 479.493 690.165 478.742 689.239 478.742C688.313 478.742 687.562 479.493 687.562 480.419C687.562 481.345 688.313 482.096 689.239 482.096Z" fill="#04060C" stroke="white" stroke-width="0.5" stroke-linecap="round" stroke-linejoin="round"/>
<path d="M695.72 493.647C696.646 493.647 697.397 492.896 697.397 491.97C697.397 491.044 696.646 490.293 695.72 490.293C694.794 490.293 694.043 491.044 694.043 491.97C694.043 492.896 694.794 493.647 695.72 493.647Z" fill="#04060C" stroke="white" stroke-width="0.5" stroke-linecap="round" stroke-linejoin="round"/>
<path d="M666.341 490.945C667.267 490.945 668.018 490.195 668.018 489.269C668.018 488.343 667.267 487.592 666.341 487.592C665.415 487.592 664.664 488.343 664.664 489.269C664.664 490.195 665.415 490.945 666.341 490.945Z" fill="#04060C" stroke="white" stroke-width="0.5" stroke-linecap="round" stroke-linejoin="round"/>
<path d="M661.173 499.658C662.099 499.658 662.85 498.908 662.85 497.982C662.85 497.055 662.099 496.305 661.173 496.305C660.247 496.305 659.496 497.055 659.496 497.982C659.496 498.908 660.247 499.658 661.173 499.658Z" fill="#04060C" stroke="white" stroke-width="0.5" stroke-linecap="round" stroke-linejoin="round"/>
<path d="M678.294 496.354C679.22 496.354 679.971 495.603 679.971 494.677C679.971 493.751 679.22 493 678.294 493C677.368 493 676.617 493.751 676.617 494.677C676.617 495.603 677.368 496.354 678.294 496.354Z" fill="#04060C" stroke="white" stroke-width="0.5" stroke-linecap="round" stroke-linejoin="round"/>
<path d="M687.564 503.998C688.49 503.998 689.24 503.247 689.24 502.321C689.24 501.395 688.49 500.645 687.564 500.645C686.637 500.645 685.887 501.395 685.887 502.321C685.887 503.247 686.637 503.998 687.564 503.998Z" fill="#04060C" stroke="white" stroke-width="0.5" stroke-linecap="round" stroke-linejoin="round"/>
<defs>
<filter id="filter0_d_669_9453" x="139.5" y="107.646" width="499" height="497" filterUnits="userSpaceOnUse" color-interpolation-filters="sRGB">
<feFlood flood-opacity="0" result="BackgroundImageFix"/>
<feColorMatrix in="SourceAlpha" type="matrix" values="0 0 0 0 0 0 0 0 0 0 0 0 0 0 0 0 0 0 127 0" result="hardAlpha"/>
<feOffset dx="10"/>
<feGaussianBlur stdDeviation="15"/>
<feComposite in2="hardAlpha" operator="out"/>
<feColorMatrix type="matrix" values="0 0 0 0 0 0 0 0 0 0.957261 0 0 0 0 0.862823 0 0 0 0.8 0"/>
<feBlend mode="normal" in2="BackgroundImageFix" result="effect1_dropShadow_669_9453"/>
<feBlend mode="normal" in="SourceGraphic" in2="effect1_dropShadow_669_9453" result="shape"/>
</filter>
<linearGradient id="paint0_linear_669_9453" x1="598" y1="356.146" x2="160" y2="356.147" gradientUnits="userSpaceOnUse">
<stop stop-color="white"/>
<stop offset="1" stop-color="white" stop-opacity="0"/>
</linearGradient>
<linearGradient id="paint1_linear_669_9453" x1="631.703" y1="72.6432" x2="557.585" y2="163.345" gradientUnits="userSpaceOnUse">
<stop offset="0.06" stop-color="#04060C"/>
<stop offset="0.32" stop-color="#00F4DC"/>
<stop offset="0.55" stop-color="#DFDAE4"/>
<stop offset="0.77" stop-color="#8D41D9"/>
<stop offset="0.96" stop-color="#04060C"/>
</linearGradient>
<linearGradient id="paint2_linear_669_9453" x1="748.711" y1="319.643" x2="674.593" y2="410.345" gradientUnits="userSpaceOnUse">
<stop offset="0.06" stop-color="#04060C"/>
<stop offset="0.32" stop-color="#00F4DC"/>
<stop offset="0.55" stop-color="#DFDAE4"/>
<stop offset="0.77" stop-color="#8D41D9"/>
<stop offset="0.96" stop-color="#04060C"/>
</linearGradient>
<linearGradient id="paint3_linear_669_9453" x1="711.711" y1="192.643" x2="637.593" y2="283.345" gradientUnits="userSpaceOnUse">
<stop offset="0.06" stop-color="#04060C"/>
<stop offset="0.32" stop-color="#00F4DC"/>
<stop offset="0.55" stop-color="#DFDAE4"/>
<stop offset="0.77" stop-color="#8D41D9"/>
<stop offset="0.96" stop-color="#04060C"/>
</linearGradient>
<linearGradient id="paint4_linear_669_9453" x1="629.711" y1="568.635" x2="555.593" y2="659.337" gradientUnits="userSpaceOnUse">
<stop offset="0.06" stop-color="#04060C"/>
<stop offset="0.32" stop-color="#00F4DC"/>
<stop offset="0.55" stop-color="#DFDAE4"/>
<stop offset="0.77" stop-color="#8D41D9"/>
<stop offset="0.96" stop-color="#04060C"/>
</linearGradient>
<linearGradient id="paint5_linear_669_9453" x1="708.711" y1="447.643" x2="634.585" y2="538.345" gradientUnits="userSpaceOnUse">
<stop offset="0.06" stop-color="#04060C"/>
<stop offset="0.32" stop-color="#00F4DC"/>
<stop offset="0.55" stop-color="#DFDAE4"/>
<stop offset="0.77" stop-color="#8D41D9"/>
<stop offset="0.96" stop-color="#04060C"/>
</linearGradient>
</defs>
</svg>
