<svg width="555" height="321" viewBox="0 0 555 321" fill="none" xmlns="http://www.w3.org/2000/svg">
<g opacity="0.6">
<path d="M237 51H155V94H237V51Z" fill="#00F4DC"/>
</g>
<path d="M155 51H65V94H155V51Z" fill="#00F4DC"/>
<g opacity="0.6">
<path d="M383 154H209V197H383V154Z" fill="#00F4DC"/>
</g>
<path d="M209 154H65V197H209V154Z" fill="#00F4DC"/>
<g opacity="0.6">
<path d="M555 258H272V301H413.5H555V258Z" fill="#00F4DC"/>
</g>
<path d="M272 258H65V301H272V258Z" fill="#00F4DC"/>
<path d="M0.792 79V78.028C2.172 76.816 3.306 75.712 4.194 74.716C5.094 73.72 5.76 72.796 6.192 71.944C6.624 71.08 6.84 70.27 6.84 69.514C6.84 69.01 6.75 68.56 6.57 68.164C6.402 67.768 6.138 67.462 5.778 67.246C5.418 67.018 4.962 66.904 4.41 66.904C3.87 66.904 3.366 67.048 2.898 67.336C2.442 67.624 2.034 67.99 1.674 68.434L0.72 67.498C1.248 66.91 1.818 66.442 2.43 66.094C3.042 65.746 3.768 65.572 4.608 65.572C5.4 65.572 6.078 65.734 6.642 66.058C7.218 66.37 7.662 66.82 7.974 67.408C8.298 67.984 8.46 68.662 8.46 69.442C8.46 70.318 8.238 71.206 7.794 72.106C7.362 73.006 6.756 73.924 5.976 74.86C5.208 75.784 4.308 76.732 3.276 77.704C3.624 77.68 3.984 77.656 4.356 77.632C4.74 77.596 5.1 77.578 5.436 77.578H9.09V79H0.792ZM14.9884 79.234C14.1604 79.234 13.4344 78.982 12.8104 78.478C12.1984 77.974 11.7244 77.212 11.3884 76.192C11.0524 75.172 10.8844 73.894 10.8844 72.358C10.8844 70.822 11.0524 69.556 11.3884 68.56C11.7244 67.552 12.1984 66.802 12.8104 66.31C13.4344 65.818 14.1604 65.572 14.9884 65.572C15.8284 65.572 16.5544 65.824 17.1664 66.328C17.7784 66.82 18.2524 67.564 18.5884 68.56C18.9244 69.556 19.0924 70.822 19.0924 72.358C19.0924 73.894 18.9244 75.172 18.5884 76.192C18.2524 77.212 17.7784 77.974 17.1664 78.478C16.5544 78.982 15.8284 79.234 14.9884 79.234ZM14.9884 77.902C15.4924 77.902 15.9304 77.71 16.3024 77.326C16.6864 76.942 16.9804 76.342 17.1844 75.526C17.4004 74.698 17.5084 73.642 17.5084 72.358C17.5084 71.074 17.4004 70.03 17.1844 69.226C16.9804 68.41 16.6864 67.816 16.3024 67.444C15.9304 67.06 15.4924 66.868 14.9884 66.868C14.4964 66.868 14.0584 67.06 13.6744 67.444C13.2904 67.816 12.9904 68.41 12.7744 69.226C12.5704 70.03 12.4684 71.074 12.4684 72.358C12.4684 73.642 12.5704 74.698 12.7744 75.526C12.9904 76.342 13.2904 76.942 13.6744 77.326C14.0584 77.71 14.4964 77.902 14.9884 77.902ZM20.7608 79V78.028C22.1408 76.816 23.2748 75.712 24.1628 74.716C25.0628 73.72 25.7288 72.796 26.1608 71.944C26.5928 71.08 26.8088 70.27 26.8088 69.514C26.8088 69.01 26.7188 68.56 26.5388 68.164C26.3708 67.768 26.1068 67.462 25.7468 67.246C25.3868 67.018 24.9308 66.904 24.3788 66.904C23.8388 66.904 23.3348 67.048 22.8668 67.336C22.4108 67.624 22.0028 67.99 21.6428 68.434L20.6888 67.498C21.2168 66.91 21.7868 66.442 22.3988 66.094C23.0108 65.746 23.7368 65.572 24.5768 65.572C25.3688 65.572 26.0468 65.734 26.6108 66.058C27.1868 66.37 27.6308 66.82 27.9428 67.408C28.2668 67.984 28.4288 68.662 28.4288 69.442C28.4288 70.318 28.2068 71.206 27.7628 72.106C27.3308 73.006 26.7248 73.924 25.9448 74.86C25.1768 75.784 24.2768 76.732 23.2448 77.704C23.5928 77.68 23.9528 77.656 24.3248 77.632C24.7088 77.596 25.0688 77.578 25.4048 77.578H29.0587V79H20.7608ZM34.6871 79.234C34.0031 79.234 33.3971 79.15 32.8691 78.982C32.3531 78.814 31.8971 78.592 31.5011 78.316C31.1051 78.04 30.7631 77.74 30.4751 77.416L31.3211 76.354C31.7051 76.75 32.1551 77.104 32.6711 77.416C33.1991 77.716 33.8351 77.866 34.5791 77.866C35.1071 77.866 35.5691 77.77 35.9651 77.578C36.3731 77.374 36.6911 77.092 36.9191 76.732C37.1471 76.36 37.2611 75.922 37.2611 75.418C37.2611 74.89 37.1291 74.428 36.8651 74.032C36.6131 73.636 36.1871 73.33 35.5871 73.114C34.9871 72.886 34.1771 72.772 33.1571 72.772V71.512C34.0691 71.512 34.7891 71.404 35.3171 71.188C35.8451 70.96 36.2231 70.654 36.4511 70.27C36.6911 69.886 36.8111 69.46 36.8111 68.992C36.8111 68.356 36.6131 67.852 36.2171 67.48C35.8211 67.096 35.2751 66.904 34.5791 66.904C34.0511 66.904 33.5531 67.024 33.0851 67.264C32.6291 67.504 32.2151 67.81 31.8431 68.182L30.9611 67.138C31.4651 66.682 32.0111 66.31 32.5991 66.022C33.1991 65.722 33.8771 65.572 34.6331 65.572C35.3771 65.572 36.0371 65.704 36.6131 65.968C37.2011 66.22 37.6571 66.592 37.9811 67.084C38.3171 67.576 38.4851 68.17 38.4851 68.866C38.4851 69.67 38.2691 70.336 37.8371 70.864C37.4051 71.392 36.8411 71.782 36.1451 72.034V72.124C36.6611 72.244 37.1291 72.454 37.5491 72.754C37.9691 73.054 38.3051 73.432 38.5571 73.888C38.8091 74.344 38.9351 74.872 38.9351 75.472C38.9351 76.252 38.7431 76.924 38.3591 77.488C37.9751 78.052 37.4651 78.484 36.8291 78.784C36.1931 79.084 35.4791 79.234 34.6871 79.234ZM44.9235 63.808L46.2915 64.168C45.9555 65.044 45.5595 65.902 45.1035 66.742C44.6595 67.57 44.1735 68.344 43.6455 69.064C43.1175 69.772 42.5715 70.396 42.0075 70.936C41.9235 70.864 41.8095 70.774 41.6655 70.666C41.5335 70.546 41.3895 70.432 41.2335 70.324C41.0895 70.216 40.9575 70.132 40.8375 70.072C41.4135 69.568 41.9535 68.992 42.4575 68.344C42.9735 67.684 43.4415 66.97 43.8615 66.202C44.2815 65.422 44.6355 64.624 44.9235 63.808ZM44.6535 66.058H56.2635V67.354H43.9875L44.6535 66.058ZM43.7715 70.126H55.8495V71.404H45.1215V75.652H43.7715V70.126ZM40.8015 74.986H57.1095V76.282H40.8015V74.986ZM49.1535 66.742H50.5395V80.44H49.1535V66.742Z" fill="white"/>
<path d="M68.734 112.234C68.05 112.234 67.444 112.15 66.916 111.982C66.4 111.814 65.944 111.592 65.548 111.316C65.152 111.04 64.81 110.74 64.522 110.416L65.368 109.354C65.752 109.75 66.202 110.104 66.718 110.416C67.246 110.716 67.882 110.866 68.626 110.866C69.154 110.866 69.616 110.77 70.012 110.578C70.42 110.374 70.738 110.092 70.966 109.732C71.194 109.36 71.308 108.922 71.308 108.418C71.308 107.89 71.176 107.428 70.912 107.032C70.66 106.636 70.234 106.33 69.634 106.114C69.034 105.886 68.224 105.772 67.204 105.772V104.512C68.116 104.512 68.836 104.404 69.364 104.188C69.892 103.96 70.27 103.654 70.498 103.27C70.738 102.886 70.858 102.46 70.858 101.992C70.858 101.356 70.66 100.852 70.264 100.48C69.868 100.096 69.322 99.904 68.626 99.904C68.098 99.904 67.6 100.024 67.132 100.264C66.676 100.504 66.262 100.81 65.89 101.182L65.008 100.138C65.512 99.682 66.058 99.31 66.646 99.022C67.246 98.722 67.924 98.572 68.68 98.572C69.424 98.572 70.084 98.704 70.66 98.968C71.248 99.22 71.704 99.592 72.028 100.084C72.364 100.576 72.532 101.17 72.532 101.866C72.532 102.67 72.316 103.336 71.884 103.864C71.452 104.392 70.888 104.782 70.192 105.034V105.124C70.708 105.244 71.176 105.454 71.596 105.754C72.016 106.054 72.352 106.432 72.604 106.888C72.856 107.344 72.982 107.872 72.982 108.472C72.982 109.252 72.79 109.924 72.406 110.488C72.022 111.052 71.512 111.484 70.876 111.784C70.24 112.084 69.526 112.234 68.734 112.234ZM78.7184 112.234C78.0344 112.234 77.4284 112.15 76.9004 111.982C76.3844 111.814 75.9284 111.592 75.5324 111.316C75.1364 111.04 74.7944 110.74 74.5064 110.416L75.3524 109.354C75.7364 109.75 76.1864 110.104 76.7024 110.416C77.2304 110.716 77.8664 110.866 78.6104 110.866C79.1384 110.866 79.6004 110.77 79.9964 110.578C80.4044 110.374 80.7224 110.092 80.9504 109.732C81.1784 109.36 81.2924 108.922 81.2924 108.418C81.2924 107.89 81.1604 107.428 80.8964 107.032C80.6444 106.636 80.2184 106.33 79.6184 106.114C79.0184 105.886 78.2084 105.772 77.1884 105.772V104.512C78.1004 104.512 78.8204 104.404 79.3484 104.188C79.8764 103.96 80.2544 103.654 80.4824 103.27C80.7224 102.886 80.8424 102.46 80.8424 101.992C80.8424 101.356 80.6444 100.852 80.2484 100.48C79.8524 100.096 79.3064 99.904 78.6104 99.904C78.0824 99.904 77.5844 100.024 77.1164 100.264C76.6604 100.504 76.2464 100.81 75.8744 101.182L74.9924 100.138C75.4964 99.682 76.0424 99.31 76.6304 99.022C77.2304 98.722 77.9084 98.572 78.6644 98.572C79.4084 98.572 80.0684 98.704 80.6444 98.968C81.2324 99.22 81.6884 99.592 82.0124 100.084C82.3484 100.576 82.5164 101.17 82.5164 101.866C82.5164 102.67 82.3004 103.336 81.8684 103.864C81.4364 104.392 80.8724 104.782 80.1764 105.034V105.124C80.6924 105.244 81.1604 105.454 81.5804 105.754C82.0004 106.054 82.3364 106.432 82.5884 106.888C82.8404 107.344 82.9664 107.872 82.9664 108.472C82.9664 109.252 82.7744 109.924 82.3904 110.488C82.0064 111.052 81.4964 111.484 80.8604 111.784C80.2244 112.084 79.5104 112.234 78.7184 112.234ZM88.9728 112.234C88.1448 112.234 87.4188 111.982 86.7948 111.478C86.1828 110.974 85.7088 110.212 85.3728 109.192C85.0368 108.172 84.8688 106.894 84.8688 105.358C84.8688 103.822 85.0368 102.556 85.3728 101.56C85.7088 100.552 86.1828 99.802 86.7948 99.31C87.4188 98.818 88.1448 98.572 88.9728 98.572C89.8128 98.572 90.5388 98.824 91.1508 99.328C91.7628 99.82 92.2368 100.564 92.5728 101.56C92.9088 102.556 93.0768 103.822 93.0768 105.358C93.0768 106.894 92.9088 108.172 92.5728 109.192C92.2368 110.212 91.7628 110.974 91.1508 111.478C90.5388 111.982 89.8128 112.234 88.9728 112.234ZM88.9728 110.902C89.4768 110.902 89.9148 110.71 90.2868 110.326C90.6708 109.942 90.9648 109.342 91.1688 108.526C91.3848 107.698 91.4928 106.642 91.4928 105.358C91.4928 104.074 91.3848 103.03 91.1688 102.226C90.9648 101.41 90.6708 100.816 90.2868 100.444C89.9148 100.06 89.4768 99.868 88.9728 99.868C88.4808 99.868 88.0428 100.06 87.6588 100.444C87.2748 100.816 86.9748 101.41 86.7588 102.226C86.5548 103.03 86.4528 104.074 86.4528 105.358C86.4528 106.642 86.5548 107.698 86.7588 108.526C86.9748 109.342 87.2748 109.942 87.6588 110.326C88.0428 110.71 88.4808 110.902 88.9728 110.902Z" fill="white"/>
<path d="M160.734 112.234C160.05 112.234 159.444 112.15 158.916 111.982C158.4 111.814 157.944 111.592 157.548 111.316C157.152 111.04 156.81 110.74 156.522 110.416L157.368 109.354C157.752 109.75 158.202 110.104 158.718 110.416C159.246 110.716 159.882 110.866 160.626 110.866C161.154 110.866 161.616 110.77 162.012 110.578C162.42 110.374 162.738 110.092 162.966 109.732C163.194 109.36 163.308 108.922 163.308 108.418C163.308 107.89 163.176 107.428 162.912 107.032C162.66 106.636 162.234 106.33 161.634 106.114C161.034 105.886 160.224 105.772 159.204 105.772V104.512C160.116 104.512 160.836 104.404 161.364 104.188C161.892 103.96 162.27 103.654 162.498 103.27C162.738 102.886 162.858 102.46 162.858 101.992C162.858 101.356 162.66 100.852 162.264 100.48C161.868 100.096 161.322 99.904 160.626 99.904C160.098 99.904 159.6 100.024 159.132 100.264C158.676 100.504 158.262 100.81 157.89 101.182L157.008 100.138C157.512 99.682 158.058 99.31 158.646 99.022C159.246 98.722 159.924 98.572 160.68 98.572C161.424 98.572 162.084 98.704 162.66 98.968C163.248 99.22 163.704 99.592 164.028 100.084C164.364 100.576 164.532 101.17 164.532 101.866C164.532 102.67 164.316 103.336 163.884 103.864C163.452 104.392 162.888 104.782 162.192 105.034V105.124C162.708 105.244 163.176 105.454 163.596 105.754C164.016 106.054 164.352 106.432 164.604 106.888C164.856 107.344 164.982 107.872 164.982 108.472C164.982 109.252 164.79 109.924 164.406 110.488C164.022 111.052 163.512 111.484 162.876 111.784C162.24 112.084 161.526 112.234 160.734 112.234ZM170.988 112.234C170.16 112.234 169.434 111.982 168.81 111.478C168.198 110.974 167.724 110.212 167.388 109.192C167.052 108.172 166.884 106.894 166.884 105.358C166.884 103.822 167.052 102.556 167.388 101.56C167.724 100.552 168.198 99.802 168.81 99.31C169.434 98.818 170.16 98.572 170.988 98.572C171.828 98.572 172.554 98.824 173.166 99.328C173.778 99.82 174.252 100.564 174.588 101.56C174.924 102.556 175.092 103.822 175.092 105.358C175.092 106.894 174.924 108.172 174.588 109.192C174.252 110.212 173.778 110.974 173.166 111.478C172.554 111.982 171.828 112.234 170.988 112.234ZM170.988 110.902C171.492 110.902 171.93 110.71 172.302 110.326C172.686 109.942 172.98 109.342 173.184 108.526C173.4 107.698 173.508 106.642 173.508 105.358C173.508 104.074 173.4 103.03 173.184 102.226C172.98 101.41 172.686 100.816 172.302 100.444C171.93 100.06 171.492 99.868 170.988 99.868C170.496 99.868 170.058 100.06 169.674 100.444C169.29 100.816 168.99 101.41 168.774 102.226C168.57 103.03 168.468 104.074 168.468 105.358C168.468 106.642 168.57 107.698 168.774 108.526C168.99 109.342 169.29 109.942 169.674 110.326C170.058 110.71 170.496 110.902 170.988 110.902ZM180.973 112.234C180.145 112.234 179.419 111.982 178.795 111.478C178.183 110.974 177.709 110.212 177.373 109.192C177.037 108.172 176.869 106.894 176.869 105.358C176.869 103.822 177.037 102.556 177.373 101.56C177.709 100.552 178.183 99.802 178.795 99.31C179.419 98.818 180.145 98.572 180.973 98.572C181.813 98.572 182.539 98.824 183.151 99.328C183.763 99.82 184.237 100.564 184.573 101.56C184.909 102.556 185.077 103.822 185.077 105.358C185.077 106.894 184.909 108.172 184.573 109.192C184.237 110.212 183.763 110.974 183.151 111.478C182.539 111.982 181.813 112.234 180.973 112.234ZM180.973 110.902C181.477 110.902 181.915 110.71 182.287 110.326C182.671 109.942 182.965 109.342 183.169 108.526C183.385 107.698 183.493 106.642 183.493 105.358C183.493 104.074 183.385 103.03 183.169 102.226C182.965 101.41 182.671 100.816 182.287 100.444C181.915 100.06 181.477 99.868 180.973 99.868C180.481 99.868 180.043 100.06 179.659 100.444C179.275 100.816 178.975 101.41 178.759 102.226C178.555 103.03 178.453 104.074 178.453 105.358C178.453 106.642 178.555 107.698 178.759 108.526C178.975 109.342 179.275 109.942 179.659 110.326C180.043 110.71 180.481 110.902 180.973 110.902Z" fill="white"/>
<path d="M68.716 217.234C68.032 217.234 67.426 217.15 66.898 216.982C66.382 216.814 65.926 216.598 65.53 216.334C65.146 216.07 64.798 215.788 64.486 215.488L65.314 214.408C65.566 214.66 65.842 214.9 66.142 215.128C66.454 215.344 66.808 215.524 67.204 215.668C67.6 215.8 68.05 215.866 68.554 215.866C69.07 215.866 69.538 215.74 69.958 215.488C70.39 215.236 70.732 214.876 70.984 214.408C71.236 213.94 71.362 213.388 71.362 212.752C71.362 211.816 71.11 211.084 70.606 210.556C70.114 210.016 69.454 209.746 68.626 209.746C68.194 209.746 67.816 209.812 67.492 209.944C67.168 210.076 66.814 210.268 66.43 210.52L65.548 209.962L65.98 203.806H72.388V205.21H67.42L67.078 209.026C67.366 208.858 67.666 208.732 67.978 208.648C68.302 208.552 68.662 208.504 69.058 208.504C69.79 208.504 70.456 208.654 71.056 208.954C71.656 209.242 72.136 209.698 72.496 210.322C72.856 210.946 73.036 211.744 73.036 212.716C73.036 213.676 72.826 214.492 72.406 215.164C71.998 215.836 71.464 216.352 70.804 216.712C70.144 217.06 69.448 217.234 68.716 217.234ZM74.7764 217V216.028C76.1564 214.816 77.2904 213.712 78.1784 212.716C79.0784 211.72 79.7444 210.796 80.1764 209.944C80.6084 209.08 80.8244 208.27 80.8244 207.514C80.8244 207.01 80.7344 206.56 80.5544 206.164C80.3864 205.768 80.1224 205.462 79.7624 205.246C79.4024 205.018 78.9464 204.904 78.3944 204.904C77.8544 204.904 77.3504 205.048 76.8824 205.336C76.4264 205.624 76.0184 205.99 75.6584 206.434L74.7044 205.498C75.2324 204.91 75.8024 204.442 76.4144 204.094C77.0264 203.746 77.7524 203.572 78.5924 203.572C79.3844 203.572 80.0624 203.734 80.6264 204.058C81.2024 204.37 81.6464 204.82 81.9584 205.408C82.2824 205.984 82.4444 206.662 82.4444 207.442C82.4444 208.318 82.2224 209.206 81.7784 210.106C81.3464 211.006 80.7404 211.924 79.9604 212.86C79.1924 213.784 78.2924 214.732 77.2604 215.704C77.6084 215.68 77.9684 215.656 78.3404 215.632C78.7244 215.596 79.0844 215.578 79.4204 215.578H83.0744V217H74.7764ZM88.6848 217.234C88.0008 217.234 87.3948 217.15 86.8668 216.982C86.3508 216.814 85.8948 216.598 85.4988 216.334C85.1148 216.07 84.7668 215.788 84.4548 215.488L85.2828 214.408C85.5348 214.66 85.8108 214.9 86.1108 215.128C86.4228 215.344 86.7768 215.524 87.1728 215.668C87.5688 215.8 88.0188 215.866 88.5228 215.866C89.0388 215.866 89.5068 215.74 89.9268 215.488C90.3588 215.236 90.7008 214.876 90.9528 214.408C91.2048 213.94 91.3308 213.388 91.3308 212.752C91.3308 211.816 91.0788 211.084 90.5748 210.556C90.0828 210.016 89.4228 209.746 88.5947 209.746C88.1628 209.746 87.7848 209.812 87.4608 209.944C87.1368 210.076 86.7828 210.268 86.3988 210.52L85.5168 209.962L85.9488 203.806H92.3568V205.21H87.3888L87.0468 209.026C87.3348 208.858 87.6348 208.732 87.9468 208.648C88.2708 208.552 88.6308 208.504 89.0268 208.504C89.7588 208.504 90.4248 208.654 91.0248 208.954C91.6248 209.242 92.1048 209.698 92.4648 210.322C92.8248 210.946 93.0048 211.744 93.0048 212.716C93.0048 213.676 92.7948 214.492 92.3748 215.164C91.9668 215.836 91.4328 216.352 90.7728 216.712C90.1128 217.06 89.4168 217.234 88.6848 217.234Z" fill="white"/>
<path d="M214.418 217.234C213.794 217.234 213.212 217.102 212.672 216.838C212.132 216.562 211.664 216.154 211.268 215.614C210.872 215.062 210.56 214.378 210.332 213.562C210.116 212.746 210.008 211.792 210.008 210.7C210.008 209.416 210.14 208.318 210.404 207.406C210.668 206.494 211.028 205.756 211.484 205.192C211.94 204.628 212.462 204.22 213.05 203.968C213.638 203.704 214.25 203.572 214.886 203.572C215.57 203.572 216.164 203.698 216.668 203.95C217.172 204.202 217.61 204.526 217.982 204.922L217.046 205.93C216.794 205.618 216.482 205.372 216.11 205.192C215.738 205.012 215.354 204.922 214.958 204.922C214.334 204.922 213.764 205.108 213.248 205.48C212.732 205.84 212.318 206.44 212.006 207.28C211.706 208.12 211.556 209.26 211.556 210.7C211.556 211.828 211.664 212.782 211.88 213.562C212.108 214.342 212.432 214.936 212.852 215.344C213.284 215.74 213.806 215.938 214.418 215.938C214.85 215.938 215.228 215.812 215.552 215.56C215.888 215.308 216.152 214.96 216.344 214.516C216.548 214.06 216.65 213.538 216.65 212.95C216.65 212.35 216.56 211.834 216.38 211.402C216.212 210.958 215.954 210.622 215.606 210.394C215.258 210.154 214.814 210.034 214.274 210.034C213.854 210.034 213.398 210.172 212.906 210.448C212.414 210.712 211.946 211.174 211.502 211.834L211.448 210.538C211.724 210.178 212.03 209.872 212.366 209.62C212.702 209.356 213.056 209.158 213.428 209.026C213.812 208.882 214.184 208.81 214.544 208.81C215.288 208.81 215.93 208.966 216.47 209.278C217.022 209.578 217.448 210.034 217.748 210.646C218.06 211.258 218.216 212.026 218.216 212.95C218.216 213.802 218.042 214.552 217.694 215.2C217.346 215.836 216.884 216.334 216.308 216.694C215.744 217.054 215.114 217.234 214.418 217.234ZM223.718 217.234C223.034 217.234 222.428 217.15 221.9 216.982C221.384 216.814 220.928 216.592 220.532 216.316C220.136 216.04 219.794 215.74 219.506 215.416L220.352 214.354C220.736 214.75 221.186 215.104 221.702 215.416C222.23 215.716 222.866 215.866 223.61 215.866C224.138 215.866 224.6 215.77 224.996 215.578C225.404 215.374 225.722 215.092 225.95 214.732C226.178 214.36 226.292 213.922 226.292 213.418C226.292 212.89 226.16 212.428 225.896 212.032C225.644 211.636 225.218 211.33 224.618 211.114C224.018 210.886 223.208 210.772 222.188 210.772V209.512C223.1 209.512 223.82 209.404 224.348 209.188C224.876 208.96 225.254 208.654 225.482 208.27C225.722 207.886 225.842 207.46 225.842 206.992C225.842 206.356 225.644 205.852 225.248 205.48C224.852 205.096 224.306 204.904 223.61 204.904C223.082 204.904 222.584 205.024 222.116 205.264C221.66 205.504 221.246 205.81 220.874 206.182L219.992 205.138C220.496 204.682 221.042 204.31 221.63 204.022C222.23 203.722 222.908 203.572 223.664 203.572C224.408 203.572 225.068 203.704 225.644 203.968C226.232 204.22 226.688 204.592 227.012 205.084C227.348 205.576 227.516 206.17 227.516 206.866C227.516 207.67 227.3 208.336 226.868 208.864C226.436 209.392 225.872 209.782 225.176 210.034V210.124C225.692 210.244 226.16 210.454 226.58 210.754C227 211.054 227.336 211.432 227.588 211.888C227.84 212.344 227.966 212.872 227.966 213.472C227.966 214.252 227.774 214.924 227.39 215.488C227.006 216.052 226.496 216.484 225.86 216.784C225.224 217.084 224.51 217.234 223.718 217.234ZM233.685 217.234C233.001 217.234 232.395 217.15 231.867 216.982C231.351 216.814 230.895 216.598 230.499 216.334C230.115 216.07 229.767 215.788 229.455 215.488L230.283 214.408C230.535 214.66 230.811 214.9 231.111 215.128C231.423 215.344 231.777 215.524 232.173 215.668C232.569 215.8 233.019 215.866 233.523 215.866C234.039 215.866 234.507 215.74 234.927 215.488C235.359 215.236 235.701 214.876 235.953 214.408C236.205 213.94 236.331 213.388 236.331 212.752C236.331 211.816 236.079 211.084 235.575 210.556C235.083 210.016 234.423 209.746 233.595 209.746C233.163 209.746 232.785 209.812 232.461 209.944C232.137 210.076 231.783 210.268 231.399 210.52L230.517 209.962L230.949 203.806H237.357V205.21H232.389L232.047 209.026C232.335 208.858 232.635 208.732 232.947 208.648C233.271 208.552 233.631 208.504 234.027 208.504C234.759 208.504 235.425 208.654 236.025 208.954C236.625 209.242 237.105 209.698 237.465 210.322C237.825 210.946 238.005 211.744 238.005 212.716C238.005 213.676 237.795 214.492 237.375 215.164C236.967 215.836 236.433 216.352 235.773 216.712C235.113 217.06 234.417 217.234 233.685 217.234Z" fill="white"/>
<path d="M67.564 320C67.624 318.752 67.726 317.606 67.87 316.562C68.026 315.506 68.248 314.516 68.536 313.592C68.824 312.656 69.19 311.75 69.634 310.874C70.09 309.998 70.642 309.11 71.29 308.21H64.882V306.806H73.144V307.796C72.376 308.792 71.746 309.746 71.254 310.658C70.774 311.57 70.396 312.5 70.12 313.448C69.856 314.396 69.658 315.404 69.526 316.472C69.406 317.528 69.322 318.704 69.274 320H67.564ZM78.7004 320.234C78.0164 320.234 77.4104 320.15 76.8824 319.982C76.3664 319.814 75.9104 319.598 75.5144 319.334C75.1304 319.07 74.7824 318.788 74.4704 318.488L75.2984 317.408C75.5504 317.66 75.8264 317.9 76.1264 318.128C76.4384 318.344 76.7924 318.524 77.1884 318.668C77.5844 318.8 78.0344 318.866 78.5384 318.866C79.0544 318.866 79.5224 318.74 79.9424 318.488C80.3744 318.236 80.7164 317.876 80.9684 317.408C81.2204 316.94 81.3464 316.388 81.3464 315.752C81.3464 314.816 81.0944 314.084 80.5904 313.556C80.0984 313.016 79.4384 312.746 78.6104 312.746C78.1784 312.746 77.8004 312.812 77.4764 312.944C77.1524 313.076 76.7984 313.268 76.4144 313.52L75.5324 312.962L75.9644 306.806H82.3724V308.21H77.4044L77.0624 312.026C77.3504 311.858 77.6504 311.732 77.9624 311.648C78.2864 311.552 78.6464 311.504 79.0424 311.504C79.7744 311.504 80.4404 311.654 81.0404 311.954C81.6404 312.242 82.1204 312.698 82.4804 313.322C82.8404 313.946 83.0204 314.744 83.0204 315.716C83.0204 316.676 82.8104 317.492 82.3904 318.164C81.9824 318.836 81.4484 319.352 80.7884 319.712C80.1284 320.06 79.4324 320.234 78.7004 320.234ZM88.6848 320.234C88.0008 320.234 87.3948 320.15 86.8668 319.982C86.3508 319.814 85.8948 319.598 85.4988 319.334C85.1148 319.07 84.7668 318.788 84.4548 318.488L85.2828 317.408C85.5348 317.66 85.8108 317.9 86.1108 318.128C86.4228 318.344 86.7768 318.524 87.1728 318.668C87.5688 318.8 88.0188 318.866 88.5228 318.866C89.0388 318.866 89.5068 318.74 89.9268 318.488C90.3588 318.236 90.7008 317.876 90.9528 317.408C91.2048 316.94 91.3308 316.388 91.3308 315.752C91.3308 314.816 91.0788 314.084 90.5748 313.556C90.0828 313.016 89.4228 312.746 88.5947 312.746C88.1628 312.746 87.7848 312.812 87.4608 312.944C87.1368 313.076 86.7828 313.268 86.3988 313.52L85.5168 312.962L85.9488 306.806H92.3568V308.21H87.3888L87.0468 312.026C87.3348 311.858 87.6348 311.732 87.9468 311.648C88.2708 311.552 88.6308 311.504 89.0268 311.504C89.7588 311.504 90.4248 311.654 91.0248 311.954C91.6248 312.242 92.1048 312.698 92.4648 313.322C92.8248 313.946 93.0048 314.744 93.0048 315.716C93.0048 316.676 92.7948 317.492 92.3748 318.164C91.9668 318.836 91.4328 319.352 90.7728 319.712C90.1128 320.06 89.4168 320.234 88.6848 320.234Z" fill="white"/>
<path d="M273.584 320V318.632H276.536V308.786H274.178V307.742C274.766 307.634 275.276 307.502 275.708 307.346C276.152 307.19 276.554 307.01 276.914 306.806H278.174V318.632H280.82V320H273.584ZM286.988 320.234C286.16 320.234 285.434 319.982 284.81 319.478C284.198 318.974 283.724 318.212 283.388 317.192C283.052 316.172 282.884 314.894 282.884 313.358C282.884 311.822 283.052 310.556 283.388 309.56C283.724 308.552 284.198 307.802 284.81 307.31C285.434 306.818 286.16 306.572 286.988 306.572C287.828 306.572 288.554 306.824 289.166 307.328C289.778 307.82 290.252 308.564 290.588 309.56C290.924 310.556 291.092 311.822 291.092 313.358C291.092 314.894 290.924 316.172 290.588 317.192C290.252 318.212 289.778 318.974 289.166 319.478C288.554 319.982 287.828 320.234 286.988 320.234ZM286.988 318.902C287.492 318.902 287.93 318.71 288.302 318.326C288.686 317.942 288.98 317.342 289.184 316.526C289.4 315.698 289.508 314.642 289.508 313.358C289.508 312.074 289.4 311.03 289.184 310.226C288.98 309.41 288.686 308.816 288.302 308.444C287.93 308.06 287.492 307.868 286.988 307.868C286.496 307.868 286.058 308.06 285.674 308.444C285.29 308.816 284.99 309.41 284.774 310.226C284.57 311.03 284.468 312.074 284.468 313.358C284.468 314.642 284.57 315.698 284.774 316.526C284.99 317.342 285.29 317.942 285.674 318.326C286.058 318.71 286.496 318.902 286.988 318.902ZM296.703 320.234C296.019 320.234 295.413 320.15 294.885 319.982C294.369 319.814 293.913 319.592 293.517 319.316C293.121 319.04 292.779 318.74 292.491 318.416L293.337 317.354C293.721 317.75 294.171 318.104 294.687 318.416C295.215 318.716 295.851 318.866 296.595 318.866C297.123 318.866 297.585 318.77 297.981 318.578C298.389 318.374 298.707 318.092 298.935 317.732C299.163 317.36 299.277 316.922 299.277 316.418C299.277 315.89 299.145 315.428 298.881 315.032C298.629 314.636 298.203 314.33 297.603 314.114C297.003 313.886 296.193 313.772 295.173 313.772V312.512C296.085 312.512 296.805 312.404 297.333 312.188C297.861 311.96 298.239 311.654 298.467 311.27C298.707 310.886 298.827 310.46 298.827 309.992C298.827 309.356 298.629 308.852 298.233 308.48C297.837 308.096 297.291 307.904 296.595 307.904C296.067 307.904 295.569 308.024 295.101 308.264C294.645 308.504 294.231 308.81 293.859 309.182L292.977 308.138C293.481 307.682 294.027 307.31 294.615 307.022C295.215 306.722 295.893 306.572 296.649 306.572C297.393 306.572 298.053 306.704 298.629 306.968C299.217 307.22 299.673 307.592 299.997 308.084C300.333 308.576 300.501 309.17 300.501 309.866C300.501 310.67 300.285 311.336 299.853 311.864C299.421 312.392 298.857 312.782 298.161 313.034V313.124C298.677 313.244 299.145 313.454 299.565 313.754C299.985 314.054 300.321 314.432 300.573 314.888C300.825 315.344 300.951 315.872 300.951 316.472C300.951 317.252 300.759 317.924 300.375 318.488C299.991 319.052 299.481 319.484 298.845 319.784C298.209 320.084 297.495 320.234 296.703 320.234ZM306.669 320.234C305.985 320.234 305.379 320.15 304.851 319.982C304.335 319.814 303.879 319.598 303.483 319.334C303.099 319.07 302.751 318.788 302.439 318.488L303.267 317.408C303.519 317.66 303.795 317.9 304.095 318.128C304.407 318.344 304.761 318.524 305.157 318.668C305.553 318.8 306.003 318.866 306.507 318.866C307.023 318.866 307.491 318.74 307.911 318.488C308.343 318.236 308.685 317.876 308.937 317.408C309.189 316.94 309.315 316.388 309.315 315.752C309.315 314.816 309.063 314.084 308.559 313.556C308.067 313.016 307.407 312.746 306.579 312.746C306.147 312.746 305.769 312.812 305.445 312.944C305.121 313.076 304.767 313.268 304.383 313.52L303.501 312.962L303.933 306.806H310.341V308.21H305.373L305.031 312.026C305.319 311.858 305.619 311.732 305.931 311.648C306.255 311.552 306.615 311.504 307.011 311.504C307.743 311.504 308.409 311.654 309.009 311.954C309.609 312.242 310.089 312.698 310.449 313.322C310.809 313.946 310.989 314.744 310.989 315.716C310.989 316.676 310.779 317.492 310.359 318.164C309.951 318.836 309.417 319.352 308.757 319.712C308.097 320.06 307.401 320.234 306.669 320.234Z" fill="white"/>
<path d="M0.792 182V181.028C2.172 179.816 3.306 178.712 4.194 177.716C5.094 176.72 5.76 175.796 6.192 174.944C6.624 174.08 6.84 173.27 6.84 172.514C6.84 172.01 6.75 171.56 6.57 171.164C6.402 170.768 6.138 170.462 5.778 170.246C5.418 170.018 4.962 169.904 4.41 169.904C3.87 169.904 3.366 170.048 2.898 170.336C2.442 170.624 2.034 170.99 1.674 171.434L0.72 170.498C1.248 169.91 1.818 169.442 2.43 169.094C3.042 168.746 3.768 168.572 4.608 168.572C5.4 168.572 6.078 168.734 6.642 169.058C7.218 169.37 7.662 169.82 7.974 170.408C8.298 170.984 8.46 171.662 8.46 172.442C8.46 173.318 8.238 174.206 7.794 175.106C7.362 176.006 6.756 176.924 5.976 177.86C5.208 178.784 4.308 179.732 3.276 180.704C3.624 180.68 3.984 180.656 4.356 180.632C4.74 180.596 5.1 180.578 5.436 180.578H9.09V182H0.792ZM14.9884 182.234C14.1604 182.234 13.4344 181.982 12.8104 181.478C12.1984 180.974 11.7244 180.212 11.3884 179.192C11.0524 178.172 10.8844 176.894 10.8844 175.358C10.8844 173.822 11.0524 172.556 11.3884 171.56C11.7244 170.552 12.1984 169.802 12.8104 169.31C13.4344 168.818 14.1604 168.572 14.9884 168.572C15.8284 168.572 16.5544 168.824 17.1664 169.328C17.7784 169.82 18.2524 170.564 18.5884 171.56C18.9244 172.556 19.0924 173.822 19.0924 175.358C19.0924 176.894 18.9244 178.172 18.5884 179.192C18.2524 180.212 17.7784 180.974 17.1664 181.478C16.5544 181.982 15.8284 182.234 14.9884 182.234ZM14.9884 180.902C15.4924 180.902 15.9304 180.71 16.3024 180.326C16.6864 179.942 16.9804 179.342 17.1844 178.526C17.4004 177.698 17.5084 176.642 17.5084 175.358C17.5084 174.074 17.4004 173.03 17.1844 172.226C16.9804 171.41 16.6864 170.816 16.3024 170.444C15.9304 170.06 15.4924 169.868 14.9884 169.868C14.4964 169.868 14.0584 170.06 13.6744 170.444C13.2904 170.816 12.9904 171.41 12.7744 172.226C12.5704 173.03 12.4684 174.074 12.4684 175.358C12.4684 176.642 12.5704 177.698 12.7744 178.526C12.9904 179.342 13.2904 179.942 13.6744 180.326C14.0584 180.71 14.4964 180.902 14.9884 180.902ZM24.7028 182.234C24.0188 182.234 23.4128 182.15 22.8848 181.982C22.3688 181.814 21.9128 181.592 21.5168 181.316C21.1208 181.04 20.7788 180.74 20.4908 180.416L21.3368 179.354C21.7208 179.75 22.1708 180.104 22.6868 180.416C23.2148 180.716 23.8508 180.866 24.5947 180.866C25.1228 180.866 25.5848 180.77 25.9808 180.578C26.3888 180.374 26.7068 180.092 26.9348 179.732C27.1628 179.36 27.2768 178.922 27.2768 178.418C27.2768 177.89 27.1448 177.428 26.8808 177.032C26.6288 176.636 26.2028 176.33 25.6028 176.114C25.0028 175.886 24.1928 175.772 23.1728 175.772V174.512C24.0848 174.512 24.8048 174.404 25.3328 174.188C25.8608 173.96 26.2388 173.654 26.4668 173.27C26.7068 172.886 26.8268 172.46 26.8268 171.992C26.8268 171.356 26.6288 170.852 26.2328 170.48C25.8368 170.096 25.2908 169.904 24.5947 169.904C24.0668 169.904 23.5688 170.024 23.1008 170.264C22.6448 170.504 22.2308 170.81 21.8588 171.182L20.9768 170.138C21.4808 169.682 22.0268 169.31 22.6147 169.022C23.2148 168.722 23.8928 168.572 24.6488 168.572C25.3928 168.572 26.0528 168.704 26.6288 168.968C27.2168 169.22 27.6728 169.592 27.9968 170.084C28.3328 170.576 28.5008 171.17 28.5008 171.866C28.5008 172.67 28.2848 173.336 27.8528 173.864C27.4208 174.392 26.8568 174.782 26.1608 175.034V175.124C26.6768 175.244 27.1448 175.454 27.5648 175.754C27.9848 176.054 28.3208 176.432 28.5728 176.888C28.8248 177.344 28.9508 177.872 28.9508 178.472C28.9508 179.252 28.7588 179.924 28.3748 180.488C27.9908 181.052 27.4808 181.484 26.8448 181.784C26.2088 182.084 25.4948 182.234 24.7028 182.234ZM34.9571 182.234C34.1291 182.234 33.4031 181.982 32.7791 181.478C32.1671 180.974 31.6931 180.212 31.3571 179.192C31.0211 178.172 30.8531 176.894 30.8531 175.358C30.8531 173.822 31.0211 172.556 31.3571 171.56C31.6931 170.552 32.1671 169.802 32.7791 169.31C33.4031 168.818 34.1291 168.572 34.9571 168.572C35.7971 168.572 36.5231 168.824 37.1351 169.328C37.7471 169.82 38.2211 170.564 38.5571 171.56C38.8931 172.556 39.0611 173.822 39.0611 175.358C39.0611 176.894 38.8931 178.172 38.5571 179.192C38.2211 180.212 37.7471 180.974 37.1351 181.478C36.5231 181.982 35.7971 182.234 34.9571 182.234ZM34.9571 180.902C35.4611 180.902 35.8991 180.71 36.2711 180.326C36.6551 179.942 36.9491 179.342 37.1531 178.526C37.3691 177.698 37.4771 176.642 37.4771 175.358C37.4771 174.074 37.3691 173.03 37.1531 172.226C36.9491 171.41 36.6551 170.816 36.2711 170.444C35.8991 170.06 35.4611 169.868 34.9571 169.868C34.4651 169.868 34.0271 170.06 33.6431 170.444C33.2591 170.816 32.9591 171.41 32.7431 172.226C32.5391 173.03 32.4371 174.074 32.4371 175.358C32.4371 176.642 32.5391 177.698 32.7431 178.526C32.9591 179.342 33.2591 179.942 33.6431 180.326C34.0271 180.71 34.4651 180.902 34.9571 180.902ZM44.9235 166.808L46.2915 167.168C45.9555 168.044 45.5595 168.902 45.1035 169.742C44.6595 170.57 44.1735 171.344 43.6455 172.064C43.1175 172.772 42.5715 173.396 42.0075 173.936C41.9235 173.864 41.8095 173.774 41.6655 173.666C41.5335 173.546 41.3895 173.432 41.2335 173.324C41.0895 173.216 40.9575 173.132 40.8375 173.072C41.4135 172.568 41.9535 171.992 42.4575 171.344C42.9735 170.684 43.4415 169.97 43.8615 169.202C44.2815 168.422 44.6355 167.624 44.9235 166.808ZM44.6535 169.058H56.2635V170.354H43.9875L44.6535 169.058ZM43.7715 173.126H55.8495V174.404H45.1215V178.652H43.7715V173.126ZM40.8015 177.986H57.1095V179.282H40.8015V177.986ZM49.1535 169.742H50.5395V183.44H49.1535V169.742Z" fill="white"/>
<path d="M0.792 285V284.028C2.172 282.816 3.306 281.712 4.194 280.716C5.094 279.72 5.76 278.796 6.192 277.944C6.624 277.08 6.84 276.27 6.84 275.514C6.84 275.01 6.75 274.56 6.57 274.164C6.402 273.768 6.138 273.462 5.778 273.246C5.418 273.018 4.962 272.904 4.41 272.904C3.87 272.904 3.366 273.048 2.898 273.336C2.442 273.624 2.034 273.99 1.674 274.434L0.72 273.498C1.248 272.91 1.818 272.442 2.43 272.094C3.042 271.746 3.768 271.572 4.608 271.572C5.4 271.572 6.078 271.734 6.642 272.058C7.218 272.37 7.662 272.82 7.974 273.408C8.298 273.984 8.46 274.662 8.46 275.442C8.46 276.318 8.238 277.206 7.794 278.106C7.362 279.006 6.756 279.924 5.976 280.86C5.208 281.784 4.308 282.732 3.276 283.704C3.624 283.68 3.984 283.656 4.356 283.632C4.74 283.596 5.1 283.578 5.436 283.578H9.09V285H0.792ZM14.9884 285.234C14.1604 285.234 13.4344 284.982 12.8104 284.478C12.1984 283.974 11.7244 283.212 11.3884 282.192C11.0524 281.172 10.8844 279.894 10.8844 278.358C10.8844 276.822 11.0524 275.556 11.3884 274.56C11.7244 273.552 12.1984 272.802 12.8104 272.31C13.4344 271.818 14.1604 271.572 14.9884 271.572C15.8284 271.572 16.5544 271.824 17.1664 272.328C17.7784 272.82 18.2524 273.564 18.5884 274.56C18.9244 275.556 19.0924 276.822 19.0924 278.358C19.0924 279.894 18.9244 281.172 18.5884 282.192C18.2524 283.212 17.7784 283.974 17.1664 284.478C16.5544 284.982 15.8284 285.234 14.9884 285.234ZM14.9884 283.902C15.4924 283.902 15.9304 283.71 16.3024 283.326C16.6864 282.942 16.9804 282.342 17.1844 281.526C17.4004 280.698 17.5084 279.642 17.5084 278.358C17.5084 277.074 17.4004 276.03 17.1844 275.226C16.9804 274.41 16.6864 273.816 16.3024 273.444C15.9304 273.06 15.4924 272.868 14.9884 272.868C14.4964 272.868 14.0584 273.06 13.6744 273.444C13.2904 273.816 12.9904 274.41 12.7744 275.226C12.5704 276.03 12.4684 277.074 12.4684 278.358C12.4684 279.642 12.5704 280.698 12.7744 281.526C12.9904 282.342 13.2904 282.942 13.6744 283.326C14.0584 283.71 14.4964 283.902 14.9884 283.902ZM24.7028 285.234C24.0188 285.234 23.4128 285.15 22.8848 284.982C22.3688 284.814 21.9128 284.592 21.5168 284.316C21.1208 284.04 20.7788 283.74 20.4908 283.416L21.3368 282.354C21.7208 282.75 22.1708 283.104 22.6868 283.416C23.2148 283.716 23.8508 283.866 24.5947 283.866C25.1228 283.866 25.5848 283.77 25.9808 283.578C26.3888 283.374 26.7068 283.092 26.9348 282.732C27.1628 282.36 27.2768 281.922 27.2768 281.418C27.2768 280.89 27.1448 280.428 26.8808 280.032C26.6288 279.636 26.2028 279.33 25.6028 279.114C25.0028 278.886 24.1928 278.772 23.1728 278.772V277.512C24.0848 277.512 24.8048 277.404 25.3328 277.188C25.8608 276.96 26.2388 276.654 26.4668 276.27C26.7068 275.886 26.8268 275.46 26.8268 274.992C26.8268 274.356 26.6288 273.852 26.2328 273.48C25.8368 273.096 25.2908 272.904 24.5947 272.904C24.0668 272.904 23.5688 273.024 23.1008 273.264C22.6448 273.504 22.2308 273.81 21.8588 274.182L20.9768 273.138C21.4808 272.682 22.0268 272.31 22.6147 272.022C23.2148 271.722 23.8928 271.572 24.6488 271.572C25.3928 271.572 26.0528 271.704 26.6288 271.968C27.2168 272.22 27.6728 272.592 27.9968 273.084C28.3328 273.576 28.5008 274.17 28.5008 274.866C28.5008 275.67 28.2848 276.336 27.8528 276.864C27.4208 277.392 26.8568 277.782 26.1608 278.034V278.124C26.6768 278.244 27.1448 278.454 27.5648 278.754C27.9848 279.054 28.3208 279.432 28.5728 279.888C28.8248 280.344 28.9508 280.872 28.9508 281.472C28.9508 282.252 28.7588 282.924 28.3748 283.488C27.9908 284.052 27.4808 284.484 26.8448 284.784C26.2088 285.084 25.4948 285.234 24.7028 285.234ZM34.6691 285.234C33.9851 285.234 33.3791 285.15 32.8511 284.982C32.3351 284.814 31.8791 284.598 31.4831 284.334C31.0991 284.07 30.7511 283.788 30.4391 283.488L31.2671 282.408C31.5191 282.66 31.7951 282.9 32.0951 283.128C32.4071 283.344 32.7611 283.524 33.1571 283.668C33.5531 283.8 34.0031 283.866 34.5071 283.866C35.0231 283.866 35.4911 283.74 35.9111 283.488C36.3431 283.236 36.6851 282.876 36.9371 282.408C37.1891 281.94 37.3151 281.388 37.3151 280.752C37.3151 279.816 37.0631 279.084 36.5591 278.556C36.0671 278.016 35.4071 277.746 34.5791 277.746C34.1471 277.746 33.7691 277.812 33.4451 277.944C33.1211 278.076 32.7671 278.268 32.3831 278.52L31.5011 277.962L31.9331 271.806H38.3411V273.21H33.3731L33.0311 277.026C33.3191 276.858 33.6191 276.732 33.9311 276.648C34.2551 276.552 34.6151 276.504 35.0111 276.504C35.7431 276.504 36.4091 276.654 37.0091 276.954C37.6091 277.242 38.0891 277.698 38.4491 278.322C38.8091 278.946 38.9891 279.744 38.9891 280.716C38.9891 281.676 38.7791 282.492 38.3591 283.164C37.9511 283.836 37.4171 284.352 36.7571 284.712C36.0971 285.06 35.4011 285.234 34.6691 285.234ZM44.9235 269.808L46.2915 270.168C45.9555 271.044 45.5595 271.902 45.1035 272.742C44.6595 273.57 44.1735 274.344 43.6455 275.064C43.1175 275.772 42.5715 276.396 42.0075 276.936C41.9235 276.864 41.8095 276.774 41.6655 276.666C41.5335 276.546 41.3895 276.432 41.2335 276.324C41.0895 276.216 40.9575 276.132 40.8375 276.072C41.4135 275.568 41.9535 274.992 42.4575 274.344C42.9735 273.684 43.4415 272.97 43.8615 272.202C44.2815 271.422 44.6355 270.624 44.9235 269.808ZM44.6535 272.058H56.2635V273.354H43.9875L44.6535 272.058ZM43.7715 276.126H55.8495V277.404H45.1215V281.652H43.7715V276.126ZM40.8015 280.986H57.1095V282.282H40.8015V280.986ZM49.1535 272.742H50.5395V286.44H49.1535V272.742Z" fill="white"/>
<path d="M163.422 6.316H178.578V9.772H177.282V7.504H164.664V9.772H163.422V6.316ZM165.942 1.654H176.04V6.892H174.69V2.734H167.238V6.874H165.942V1.654ZM174.942 8.62H176.238V15.946C176.238 16.306 176.19 16.576 176.094 16.756C175.998 16.948 175.818 17.092 175.554 17.188C175.278 17.284 174.906 17.338 174.438 17.35C173.982 17.374 173.406 17.38 172.71 17.368C172.686 17.212 172.632 17.026 172.548 16.81C172.464 16.606 172.38 16.426 172.296 16.27C172.644 16.27 172.974 16.27 173.286 16.27C173.598 16.282 173.868 16.288 174.096 16.288C174.324 16.288 174.486 16.288 174.582 16.288C174.714 16.276 174.804 16.246 174.852 16.198C174.912 16.15 174.942 16.066 174.942 15.946V8.62ZM166.392 8.62H175.662V9.718H166.392V8.62ZM165.762 8.62H167.058V11.446C167.058 12.046 167.016 12.7 166.932 13.408C166.86 14.116 166.71 14.824 166.482 15.532C166.266 16.24 165.936 16.882 165.492 17.458C165.408 17.374 165.294 17.284 165.15 17.188C165.018 17.092 164.88 16.99 164.736 16.882C164.604 16.786 164.484 16.714 164.376 16.666C164.796 16.15 165.102 15.586 165.294 14.974C165.498 14.362 165.624 13.75 165.672 13.138C165.732 12.526 165.762 11.956 165.762 11.428V8.62ZM167.22 14.092C167.928 13.972 168.744 13.84 169.668 13.696C170.604 13.54 171.588 13.366 172.62 13.174C173.652 12.982 174.678 12.796 175.698 12.616L175.77 13.714C174.822 13.894 173.868 14.08 172.908 14.272C171.948 14.464 171.018 14.644 170.118 14.812C169.23 14.98 168.414 15.136 167.67 15.28L167.22 14.092ZM167.706 11.554L168.066 10.636C168.774 10.66 169.518 10.726 170.298 10.834C171.09 10.942 171.846 11.074 172.566 11.23C173.286 11.374 173.892 11.53 174.384 11.698L174.024 12.742C173.544 12.574 172.944 12.412 172.224 12.256C171.504 12.088 170.748 11.944 169.956 11.824C169.176 11.692 168.426 11.602 167.706 11.554ZM169.812 3.85H175.086V4.786H171.018V6.982H169.812V3.85ZM184.158 0.897999H185.454V6.082H184.158V0.897999ZM184.158 10.834H185.454V17.422H184.158V10.834ZM182.772 9.034V10.474H186.804V9.034H182.772ZM182.772 6.622V8.008H186.804V6.622H182.772ZM181.566 5.524H188.064V11.554H181.566V5.524ZM180.936 2.914H188.604V4.12H180.936V2.914ZM192.15 7.666H193.482V17.44H192.15V7.666ZM189.522 7.306H195.984V8.566H189.522V7.306ZM188.766 11.518H196.794V12.76H188.766V11.518ZM180.738 12.958H188.766V14.182H180.738V12.958ZM192.618 0.573999L193.77 0.952C193.41 1.852 192.966 2.728 192.438 3.58C191.922 4.42 191.352 5.182 190.728 5.866C190.104 6.55 189.45 7.126 188.766 7.594C188.694 7.474 188.604 7.354 188.496 7.234C188.4 7.102 188.298 6.976 188.19 6.856C188.082 6.736 187.974 6.634 187.866 6.55C188.526 6.166 189.156 5.662 189.756 5.038C190.356 4.402 190.902 3.7 191.394 2.932C191.898 2.164 192.306 1.378 192.618 0.573999ZM193.158 1.924C193.482 2.5 193.884 3.094 194.364 3.706C194.856 4.306 195.378 4.858 195.93 5.362C196.482 5.866 197.016 6.28 197.532 6.604C197.388 6.712 197.232 6.862 197.064 7.054C196.896 7.234 196.758 7.396 196.65 7.54C196.134 7.168 195.6 6.694 195.048 6.118C194.496 5.542 193.968 4.924 193.464 4.264C192.972 3.592 192.546 2.938 192.186 2.302L193.158 1.924ZM199.098 5.668H214.992V7.036H199.098V5.668ZM204.3 13.66L205.398 12.886C205.818 13.222 206.256 13.6 206.712 14.02C207.168 14.428 207.594 14.836 207.99 15.244C208.386 15.64 208.704 16.006 208.944 16.342L207.774 17.242C207.546 16.906 207.24 16.528 206.856 16.108C206.472 15.688 206.058 15.268 205.614 14.848C205.17 14.416 204.732 14.02 204.3 13.66ZM208.044 6.298C208.44 7.81 208.974 9.22 209.646 10.528C210.318 11.824 211.134 12.964 212.094 13.948C213.066 14.92 214.188 15.682 215.46 16.234C215.352 16.33 215.232 16.45 215.1 16.594C214.968 16.738 214.842 16.888 214.722 17.044C214.614 17.2 214.524 17.344 214.452 17.476C213.132 16.84 211.974 15.994 210.978 14.938C209.994 13.87 209.154 12.634 208.458 11.23C207.762 9.826 207.192 8.284 206.748 6.604L208.044 6.298ZM206.262 0.897999H207.72C207.708 1.714 207.684 2.608 207.648 3.58C207.612 4.54 207.522 5.542 207.378 6.586C207.234 7.618 206.994 8.65 206.658 9.682C206.334 10.714 205.878 11.71 205.29 12.67C204.714 13.63 203.964 14.518 203.04 15.334C202.128 16.15 201.012 16.852 199.692 17.44C199.584 17.26 199.434 17.062 199.242 16.846C199.05 16.642 198.864 16.468 198.684 16.324C199.968 15.784 201.048 15.136 201.924 14.38C202.812 13.612 203.526 12.778 204.066 11.878C204.618 10.978 205.044 10.048 205.344 9.088C205.644 8.116 205.86 7.144 205.992 6.172C206.124 5.2 206.202 4.264 206.226 3.364C206.25 2.464 206.262 1.642 206.262 0.897999ZM224.352 11.266H225.756V16.378H224.352V11.266ZM217.368 2.95H232.578V6.586H231.192V4.21H218.7V7.018H217.368V2.95ZM218.952 10.6H231.048V11.86H218.952V10.6ZM217.332 15.748H232.758V17.044H217.332V15.748ZM223.542 1.168L224.946 0.772C225.186 1.168 225.426 1.612 225.666 2.104C225.918 2.584 226.104 2.992 226.224 3.328L224.748 3.796C224.64 3.448 224.466 3.028 224.226 2.536C223.998 2.032 223.77 1.576 223.542 1.168ZM222.642 3.886H224.046C223.974 4.738 223.848 5.482 223.668 6.118C223.488 6.754 223.194 7.306 222.786 7.774C222.378 8.23 221.808 8.608 221.076 8.908C220.344 9.208 219.396 9.454 218.232 9.646C218.208 9.538 218.16 9.418 218.088 9.286C218.028 9.154 217.95 9.022 217.854 8.89C217.758 8.758 217.674 8.65 217.602 8.566C218.646 8.41 219.486 8.212 220.122 7.972C220.77 7.732 221.268 7.432 221.616 7.072C221.964 6.7 222.21 6.256 222.354 5.74C222.51 5.212 222.606 4.594 222.642 3.886ZM226.314 3.886H227.646V7.108C227.646 7.36 227.682 7.54 227.754 7.648C227.838 7.744 228.006 7.792 228.258 7.792C228.366 7.792 228.564 7.792 228.852 7.792C229.14 7.792 229.452 7.792 229.788 7.792C230.136 7.792 230.454 7.792 230.742 7.792C231.03 7.792 231.234 7.792 231.354 7.792C231.57 7.792 231.828 7.786 232.128 7.774C232.428 7.75 232.662 7.72 232.83 7.684C232.842 7.876 232.86 8.086 232.884 8.314C232.908 8.542 232.932 8.734 232.956 8.89C232.812 8.938 232.59 8.968 232.29 8.98C232.002 8.992 231.708 8.998 231.408 8.998C231.288 8.998 231.072 8.998 230.76 8.998C230.46 8.998 230.13 8.998 229.77 8.998C229.422 8.998 229.104 8.998 228.816 8.998C228.528 8.998 228.336 8.998 228.24 8.998C227.736 8.998 227.34 8.938 227.052 8.818C226.776 8.698 226.584 8.5 226.476 8.224C226.368 7.936 226.314 7.558 226.314 7.09V3.886ZM243.018 7.054H250.056V7.846H243.018V7.054ZM243.018 8.836H250.11V9.628H243.018V8.836ZM242.622 10.672H250.848V11.59H242.622V10.672ZM240.408 3.562L241.542 3.886C241.086 4.822 240.528 5.728 239.868 6.604C239.208 7.48 238.542 8.224 237.87 8.836C237.81 8.764 237.726 8.674 237.618 8.566C237.51 8.458 237.396 8.35 237.276 8.242C237.168 8.122 237.072 8.032 236.988 7.972C237.66 7.42 238.296 6.754 238.896 5.974C239.508 5.194 240.012 4.39 240.408 3.562ZM243.288 3.526L244.422 3.85C244.038 4.714 243.57 5.56 243.018 6.388C242.466 7.204 241.908 7.9 241.344 8.476C241.272 8.404 241.176 8.32 241.056 8.224C240.948 8.116 240.834 8.02 240.714 7.936C240.594 7.84 240.486 7.762 240.39 7.702C240.966 7.186 241.512 6.556 242.028 5.812C242.544 5.068 242.964 4.306 243.288 3.526ZM246.258 5.578H247.428V11.032H246.258V5.578ZM241.398 13.192H242.64V15.712C242.64 15.916 242.694 16.042 242.802 16.09C242.91 16.15 243.15 16.18 243.522 16.18C243.618 16.18 243.786 16.18 244.026 16.18C244.266 16.18 244.53 16.18 244.818 16.18C245.118 16.18 245.394 16.18 245.646 16.18C245.898 16.18 246.084 16.18 246.204 16.18C246.396 16.18 246.546 16.144 246.654 16.072C246.762 16.012 246.84 15.874 246.888 15.658C246.936 15.43 246.966 15.088 246.978 14.632C247.11 14.728 247.284 14.818 247.5 14.902C247.728 14.986 247.926 15.046 248.094 15.082C248.058 15.67 247.98 16.126 247.86 16.45C247.74 16.786 247.56 17.014 247.32 17.134C247.08 17.254 246.75 17.314 246.33 17.314C246.258 17.314 246.126 17.314 245.934 17.314C245.742 17.314 245.514 17.314 245.25 17.314C244.998 17.314 244.74 17.314 244.476 17.314C244.224 17.314 244.002 17.314 243.81 17.314C243.618 17.314 243.486 17.314 243.414 17.314C242.874 17.314 242.46 17.266 242.172 17.17C241.884 17.086 241.68 16.924 241.56 16.684C241.452 16.456 241.398 16.138 241.398 15.73V13.192ZM242.964 12.652L243.756 11.896C244.116 12.052 244.482 12.232 244.854 12.436C245.238 12.64 245.598 12.85 245.934 13.066C246.27 13.282 246.546 13.486 246.762 13.678L245.934 14.542C245.73 14.338 245.46 14.122 245.124 13.894C244.8 13.666 244.446 13.444 244.062 13.228C243.69 13.012 243.324 12.82 242.964 12.652ZM247.518 13.444L248.526 12.94C248.874 13.276 249.216 13.654 249.552 14.074C249.9 14.482 250.212 14.89 250.488 15.298C250.776 15.694 250.998 16.06 251.154 16.396L250.056 16.954C249.924 16.63 249.72 16.264 249.444 15.856C249.168 15.436 248.862 15.022 248.526 14.614C248.202 14.194 247.866 13.804 247.518 13.444ZM239.22 13.138L240.336 13.534C240.108 14.158 239.826 14.788 239.49 15.424C239.154 16.06 238.716 16.588 238.176 17.008L237.15 16.342C237.642 15.97 238.062 15.49 238.41 14.902C238.77 14.302 239.04 13.714 239.22 13.138ZM243.378 5.182H250.542V6.082H242.73L243.378 5.182ZM242.316 6.244L243.468 5.254V12.13H242.316V6.244ZM236.682 2.284H251.136V3.418H236.682V2.284ZM235.962 2.284H237.204V7.702C237.204 8.41 237.18 9.184 237.132 10.024C237.096 10.852 237.024 11.71 236.916 12.598C236.808 13.474 236.646 14.332 236.43 15.172C236.214 16 235.926 16.762 235.566 17.458C235.506 17.374 235.41 17.278 235.278 17.17C235.146 17.074 235.014 16.972 234.882 16.864C234.75 16.768 234.63 16.702 234.522 16.666C234.858 16.006 235.122 15.298 235.314 14.542C235.506 13.774 235.644 12.994 235.728 12.202C235.824 11.398 235.884 10.612 235.908 9.844C235.944 9.076 235.962 8.362 235.962 7.702V2.284ZM239.238 6.514L240.39 5.362L240.408 5.38V12.148H239.238V6.514ZM242.352 0.934L243.522 0.52C243.774 0.856 244.02 1.228 244.26 1.636C244.512 2.032 244.692 2.38 244.8 2.68L243.594 3.148C243.474 2.836 243.3 2.476 243.072 2.068C242.844 1.648 242.604 1.27 242.352 0.934ZM245.538 3.868L246.492 3.436C246.708 3.676 246.924 3.94 247.14 4.228C247.356 4.504 247.518 4.75 247.626 4.966L246.618 5.47C246.522 5.242 246.372 4.978 246.168 4.678C245.964 4.366 245.754 4.096 245.538 3.868ZM255.528 2.14H267.174V3.436H255.528V2.14ZM255.528 6.334H267.138V7.612H255.528V6.334ZM255.42 10.636H267.174V11.914H255.42V10.636ZM254.754 2.14H256.086V8.674C256.086 9.358 256.056 10.09 255.996 10.87C255.936 11.65 255.822 12.442 255.654 13.246C255.498 14.038 255.252 14.8 254.916 15.532C254.592 16.264 254.16 16.93 253.62 17.53C253.56 17.434 253.464 17.326 253.332 17.206C253.2 17.098 253.068 16.99 252.936 16.882C252.804 16.774 252.684 16.696 252.576 16.648C253.08 16.084 253.476 15.472 253.764 14.812C254.052 14.152 254.268 13.474 254.412 12.778C254.556 12.07 254.646 11.368 254.682 10.672C254.73 9.976 254.754 9.31 254.754 8.674V2.14ZM266.634 2.14H267.966V15.604C267.966 16.036 267.9 16.366 267.768 16.594C267.648 16.822 267.438 16.996 267.138 17.116C266.838 17.224 266.418 17.29 265.878 17.314C265.338 17.338 264.642 17.344 263.79 17.332C263.754 17.164 263.688 16.948 263.592 16.684C263.508 16.432 263.418 16.216 263.322 16.036C263.742 16.048 264.144 16.054 264.528 16.054C264.924 16.066 265.266 16.066 265.554 16.054C265.842 16.054 266.04 16.054 266.148 16.054C266.328 16.042 266.454 16.006 266.526 15.946C266.598 15.886 266.634 15.772 266.634 15.604V2.14ZM260.406 2.626H261.774V17.278H260.406V2.626Z" fill="white"/>
<path d="M8.244 6.64H9.648V17.44H8.244V6.64ZM4.176 9.664V11.23H13.968V9.664H4.176ZM4.176 7.09V8.638H13.968V7.09H4.176ZM2.844 6.01H15.336V12.328H2.844V6.01ZM1.044 13.696H17.01V14.902H1.044V13.696ZM3.6 2.5V4.192H7.038V2.5H3.6ZM2.358 1.582H8.316V5.092H2.358V1.582ZM10.98 2.5V4.192H14.49V2.5H10.98ZM9.774 1.582H15.768V5.092H9.774V1.582ZM24.642 4.156H34.452V5.47H24.642V4.156ZM25.83 6.838L27.054 6.55C27.21 7.186 27.354 7.852 27.486 8.548C27.63 9.244 27.762 9.934 27.882 10.618C28.002 11.302 28.104 11.95 28.188 12.562C28.272 13.174 28.338 13.708 28.386 14.164L27.054 14.56C27.018 14.08 26.958 13.528 26.874 12.904C26.802 12.28 26.706 11.62 26.586 10.924C26.478 10.228 26.358 9.532 26.226 8.836C26.094 8.128 25.962 7.462 25.83 6.838ZM31.932 6.424L33.354 6.658C33.222 7.402 33.078 8.188 32.922 9.016C32.766 9.844 32.598 10.672 32.418 11.5C32.238 12.328 32.052 13.12 31.86 13.876C31.68 14.62 31.5 15.292 31.32 15.892L30.132 15.622C30.312 15.01 30.486 14.326 30.654 13.57C30.834 12.802 31.002 11.998 31.158 11.158C31.326 10.318 31.476 9.49 31.608 8.674C31.74 7.858 31.848 7.108 31.932 6.424ZM23.868 15.388H35.19V16.684H23.868V15.388ZM28.26 1.096L29.538 0.753999C29.706 1.198 29.874 1.684 30.042 2.212C30.222 2.728 30.36 3.178 30.456 3.562L29.106 3.958C29.034 3.574 28.914 3.112 28.746 2.572C28.59 2.032 28.428 1.54 28.26 1.096ZM23.148 0.952L24.426 1.33C24.03 2.35 23.568 3.358 23.04 4.354C22.524 5.338 21.96 6.268 21.348 7.144C20.736 8.02 20.106 8.794 19.458 9.466C19.41 9.358 19.338 9.22 19.242 9.052C19.158 8.884 19.062 8.716 18.954 8.548C18.858 8.368 18.768 8.23 18.684 8.134C19.272 7.546 19.842 6.868 20.394 6.1C20.946 5.332 21.456 4.51 21.924 3.634C22.404 2.746 22.812 1.852 23.148 0.952ZM21.24 5.578L22.572 4.246L22.59 4.264V17.404H21.24V5.578ZM45 6.208C44.64 6.208 44.322 6.088 44.046 5.848C43.77 5.596 43.632 5.266 43.632 4.858C43.632 4.45 43.77 4.126 44.046 3.886C44.322 3.634 44.64 3.508 45 3.508C45.36 3.508 45.678 3.634 45.954 3.886C46.23 4.126 46.368 4.45 46.368 4.858C46.368 5.266 46.23 5.596 45.954 5.848C45.678 6.088 45.36 6.208 45 6.208ZM45 15.028C44.64 15.028 44.322 14.908 44.046 14.668C43.77 14.416 43.632 14.086 43.632 13.678C43.632 13.258 43.77 12.928 44.046 12.688C44.322 12.436 44.64 12.31 45 12.31C45.36 12.31 45.678 12.436 45.954 12.688C46.23 12.928 46.368 13.258 46.368 13.678C46.368 14.086 46.23 14.416 45.954 14.668C45.678 14.908 45.36 15.028 45 15.028ZM54.99 7.612H71.136V8.998H54.99V7.612ZM62.298 0.897999H63.756V17.44H62.298V0.897999ZM78.102 2.662H88.722V3.688H78.102V2.662ZM77.274 5.452H89.334V6.55H77.274V5.452ZM79.848 3.994L80.982 3.724C81.138 3.952 81.282 4.21 81.414 4.498C81.558 4.774 81.66 5.02 81.72 5.236L80.514 5.542C80.478 5.326 80.394 5.074 80.262 4.786C80.13 4.498 79.992 4.234 79.848 3.994ZM85.41 3.652L86.76 4.012C86.556 4.408 86.34 4.804 86.112 5.2C85.884 5.584 85.674 5.92 85.482 6.208L84.42 5.884C84.6 5.572 84.786 5.206 84.978 4.786C85.17 4.354 85.314 3.976 85.41 3.652ZM80.082 10.402V11.572H86.544V10.402H80.082ZM80.082 8.422V9.556H86.544V8.422H80.082ZM78.804 7.504H87.876V12.49H78.804V7.504ZM78.516 13.444L79.56 13.93C79.38 14.374 79.164 14.89 78.912 15.478C78.66 16.054 78.396 16.552 78.12 16.972L77.022 16.378C77.214 16.126 77.4 15.832 77.58 15.496C77.772 15.148 77.946 14.794 78.102 14.434C78.27 14.074 78.408 13.744 78.516 13.444ZM80.172 13.426H81.414V15.82C81.414 16.012 81.468 16.132 81.576 16.18C81.684 16.24 81.93 16.27 82.314 16.27C82.398 16.27 82.56 16.27 82.8 16.27C83.052 16.27 83.322 16.27 83.61 16.27C83.91 16.27 84.186 16.27 84.438 16.27C84.702 16.27 84.894 16.27 85.014 16.27C85.206 16.27 85.35 16.24 85.446 16.18C85.554 16.12 85.626 16 85.662 15.82C85.71 15.628 85.746 15.334 85.77 14.938C85.902 15.022 86.076 15.106 86.292 15.19C86.52 15.262 86.712 15.322 86.868 15.37C86.832 15.91 86.754 16.324 86.634 16.612C86.514 16.9 86.34 17.098 86.112 17.206C85.884 17.314 85.566 17.368 85.158 17.368C85.086 17.368 84.948 17.368 84.744 17.368C84.552 17.368 84.324 17.368 84.06 17.368C83.808 17.368 83.55 17.368 83.286 17.368C83.022 17.368 82.788 17.368 82.584 17.368C82.392 17.368 82.26 17.368 82.188 17.368C81.648 17.368 81.234 17.326 80.946 17.242C80.658 17.158 80.454 17.002 80.334 16.774C80.226 16.546 80.172 16.228 80.172 15.82V13.426ZM81.576 12.994L82.404 12.328C82.716 12.496 83.034 12.7 83.358 12.94C83.682 13.168 83.988 13.396 84.276 13.624C84.576 13.852 84.816 14.068 84.996 14.272L84.114 15.028C83.946 14.836 83.718 14.62 83.43 14.38C83.142 14.14 82.836 13.9 82.512 13.66C82.188 13.408 81.876 13.186 81.576 12.994ZM86.148 13.696L87.21 13.228C87.486 13.552 87.762 13.906 88.038 14.29C88.314 14.674 88.572 15.052 88.812 15.424C89.064 15.784 89.256 16.108 89.388 16.396L88.254 16.954C88.122 16.666 87.942 16.33 87.714 15.946C87.486 15.562 87.234 15.178 86.958 14.794C86.694 14.398 86.424 14.032 86.148 13.696ZM82.008 1.06L83.268 0.843999C83.424 1.144 83.58 1.48 83.736 1.852C83.904 2.224 84.024 2.542 84.096 2.806L82.782 3.094C82.71 2.83 82.596 2.506 82.44 2.122C82.296 1.738 82.152 1.384 82.008 1.06ZM76.788 0.952L78.084 1.33C77.712 2.35 77.274 3.358 76.77 4.354C76.278 5.338 75.738 6.268 75.15 7.144C74.574 8.008 73.974 8.782 73.35 9.466C73.314 9.358 73.248 9.22 73.152 9.052C73.056 8.884 72.954 8.716 72.846 8.548C72.75 8.368 72.66 8.23 72.576 8.134C73.14 7.546 73.68 6.868 74.196 6.1C74.724 5.32 75.21 4.492 75.654 3.616C76.098 2.74 76.476 1.852 76.788 0.952ZM74.88 5.578L76.158 4.3L76.176 4.318V17.404H74.88V5.578ZM91.656 3.4H106.326V4.606H91.656V3.4ZM92.646 6.082H105.444V7.252H92.646V6.082ZM91.404 11.374H106.794V12.544H91.404V11.374ZM91.008 8.782H107.1V9.988H91.008V8.782ZM98.28 4.084H99.648V9.646H98.28V4.084ZM94.068 1.312L95.256 0.807999C95.58 1.156 95.886 1.546 96.174 1.978C96.474 2.398 96.696 2.77 96.84 3.094L95.58 3.67C95.46 3.334 95.256 2.944 94.968 2.5C94.68 2.056 94.38 1.66 94.068 1.312ZM102.51 0.807999L103.914 1.24C103.614 1.732 103.29 2.23 102.942 2.734C102.594 3.226 102.27 3.646 101.97 3.994L100.818 3.58C101.01 3.34 101.208 3.058 101.412 2.734C101.628 2.398 101.832 2.062 102.024 1.726C102.216 1.39 102.378 1.084 102.51 0.807999ZM98.172 9.592H99.594C99.498 10.444 99.36 11.23 99.18 11.95C99 12.658 98.73 13.3 98.37 13.876C98.022 14.452 97.548 14.968 96.948 15.424C96.36 15.868 95.61 16.252 94.698 16.576C93.798 16.9 92.706 17.17 91.422 17.386C91.398 17.266 91.344 17.128 91.26 16.972C91.188 16.828 91.104 16.684 91.008 16.54C90.912 16.396 90.822 16.276 90.738 16.18C91.95 16 92.97 15.772 93.798 15.496C94.638 15.22 95.328 14.896 95.868 14.524C96.408 14.152 96.828 13.726 97.128 13.246C97.44 12.754 97.674 12.208 97.83 11.608C97.986 10.996 98.1 10.324 98.172 9.592ZM99.09 13.75L99.684 12.742C100.308 12.982 100.962 13.252 101.646 13.552C102.342 13.852 103.026 14.164 103.698 14.488C104.37 14.812 105 15.136 105.588 15.46C106.176 15.772 106.674 16.066 107.082 16.342L106.434 17.512C106.038 17.224 105.552 16.912 104.976 16.576C104.4 16.252 103.776 15.922 103.104 15.586C102.432 15.238 101.748 14.908 101.052 14.596C100.368 14.272 99.714 13.99 99.09 13.75ZM118.494 8.134H119.862V15.082C119.862 15.406 119.916 15.616 120.024 15.712C120.132 15.796 120.36 15.838 120.708 15.838C120.792 15.838 120.936 15.838 121.14 15.838C121.356 15.838 121.59 15.838 121.842 15.838C122.094 15.838 122.328 15.838 122.544 15.838C122.772 15.838 122.94 15.838 123.048 15.838C123.3 15.838 123.486 15.76 123.606 15.604C123.726 15.436 123.81 15.124 123.858 14.668C123.918 14.2 123.954 13.504 123.966 12.58C124.086 12.664 124.218 12.748 124.362 12.832C124.506 12.904 124.656 12.97 124.812 13.03C124.98 13.09 125.124 13.138 125.244 13.174C125.196 14.206 125.106 15.01 124.974 15.586C124.854 16.15 124.65 16.546 124.362 16.774C124.086 17.002 123.684 17.116 123.156 17.116C123.072 17.116 122.904 17.116 122.652 17.116C122.4 17.116 122.13 17.116 121.842 17.116C121.554 17.116 121.284 17.116 121.032 17.116C120.792 17.116 120.63 17.116 120.546 17.116C120.018 17.116 119.598 17.056 119.286 16.936C118.986 16.816 118.776 16.606 118.656 16.306C118.548 16.018 118.494 15.616 118.494 15.1V8.134ZM109.062 7.324H124.956V8.656H109.062V7.324ZM110.646 2.284H123.426V3.58H110.646V2.284ZM113.67 8.35H115.11C115.026 9.358 114.9 10.312 114.732 11.212C114.564 12.112 114.288 12.952 113.904 13.732C113.532 14.5 113.004 15.196 112.32 15.82C111.648 16.444 110.778 16.966 109.71 17.386C109.638 17.23 109.518 17.044 109.35 16.828C109.182 16.624 109.02 16.462 108.864 16.342C109.848 15.97 110.64 15.508 111.24 14.956C111.852 14.404 112.32 13.786 112.644 13.102C112.98 12.406 113.22 11.662 113.364 10.87C113.508 10.066 113.61 9.226 113.67 8.35Z" fill="white"/>
<path d="M157 2H143V16H157V2Z" fill="#00F4DC"/>
<path d="M311.064 5.236H312.342V13.174H311.064V5.236ZM315.204 6.874H319.56V8.152H315.204V6.874ZM303.81 1.744H308.112V2.968H303.81V1.744ZM305.034 7.126H308.292V8.26H305.034V7.126ZM314.538 2.428H315.906V13.408H314.538V2.428ZM318.84 1.114L319.704 2.212C318.912 2.452 318 2.662 316.968 2.842C315.948 3.022 314.886 3.172 313.782 3.292C312.678 3.412 311.61 3.514 310.578 3.598C310.554 3.43 310.506 3.238 310.434 3.022C310.362 2.794 310.29 2.602 310.218 2.446C310.986 2.386 311.766 2.314 312.558 2.23C313.362 2.146 314.148 2.05 314.916 1.942C315.696 1.822 316.422 1.696 317.094 1.564C317.766 1.432 318.348 1.282 318.84 1.114ZM307.932 7.126H308.166L308.382 7.09L309.174 7.27C309.006 9.094 308.718 10.672 308.31 12.004C307.902 13.336 307.368 14.458 306.708 15.37C306.048 16.27 305.268 16.996 304.368 17.548C304.308 17.428 304.236 17.296 304.152 17.152C304.068 17.008 303.972 16.87 303.864 16.738C303.768 16.606 303.672 16.492 303.576 16.396C304.38 15.952 305.082 15.328 305.682 14.524C306.282 13.708 306.768 12.706 307.14 11.518C307.524 10.318 307.788 8.938 307.932 7.378V7.126ZM305.16 9.484C305.58 10.816 306.132 11.896 306.816 12.724C307.5 13.54 308.298 14.164 309.21 14.596C310.122 15.028 311.118 15.322 312.198 15.478C313.29 15.634 314.436 15.712 315.636 15.712C315.768 15.712 315.99 15.718 316.302 15.73C316.626 15.73 316.986 15.73 317.382 15.73C317.778 15.718 318.174 15.712 318.57 15.712C318.978 15.712 319.35 15.712 319.686 15.712C320.034 15.712 320.304 15.706 320.496 15.694C320.412 15.802 320.334 15.934 320.262 16.09C320.202 16.258 320.142 16.426 320.082 16.594C320.022 16.762 319.98 16.912 319.956 17.044H319.128H315.6C314.256 17.044 312.99 16.954 311.802 16.774C310.626 16.594 309.546 16.252 308.562 15.748C307.59 15.244 306.726 14.53 305.97 13.606C305.214 12.67 304.59 11.452 304.098 9.952L305.16 9.484ZM309.642 12.49H319.992V13.768H309.642V12.49ZM304.62 8.728C304.596 8.644 304.548 8.536 304.476 8.404C304.416 8.26 304.35 8.122 304.278 7.99C304.218 7.846 304.152 7.732 304.08 7.648C304.248 7.612 304.434 7.492 304.638 7.288C304.842 7.072 305.04 6.826 305.232 6.55C305.364 6.37 305.574 6.04 305.862 5.56C306.162 5.068 306.48 4.498 306.816 3.85C307.152 3.202 307.452 2.548 307.716 1.888V1.798L308.202 1.564L309.048 2.14C308.508 3.256 307.938 4.33 307.338 5.362C306.75 6.394 306.162 7.282 305.574 8.026V8.044C305.574 8.044 305.526 8.068 305.43 8.116C305.334 8.164 305.22 8.224 305.088 8.296C304.968 8.356 304.86 8.428 304.764 8.512C304.668 8.584 304.62 8.656 304.62 8.728ZM331.656 0.969999H332.97V17.422H331.656V0.969999ZM326.868 3.724H337.92V13.228H336.588V4.966H328.146V13.372H326.868V3.724ZM327.696 7.45H337.2V8.656H327.696V7.45ZM327.75 11.194H337.236V12.418H327.75V11.194ZM325.752 0.952L327.03 1.33C326.646 2.35 326.19 3.358 325.662 4.354C325.134 5.338 324.564 6.268 323.952 7.144C323.34 8.02 322.704 8.794 322.044 9.466C322.008 9.358 321.942 9.22 321.846 9.052C321.762 8.884 321.666 8.716 321.558 8.548C321.462 8.368 321.372 8.23 321.288 8.134C321.888 7.546 322.464 6.868 323.016 6.1C323.568 5.332 324.078 4.51 324.546 3.634C325.014 2.746 325.416 1.852 325.752 0.952ZM323.88 5.578L325.158 4.3L325.176 4.336V17.404H323.88V5.578ZM340.098 5.668H355.992V7.036H340.098V5.668ZM345.3 13.66L346.398 12.886C346.818 13.222 347.256 13.6 347.712 14.02C348.168 14.428 348.594 14.836 348.99 15.244C349.386 15.64 349.704 16.006 349.944 16.342L348.774 17.242C348.546 16.906 348.24 16.528 347.856 16.108C347.472 15.688 347.058 15.268 346.614 14.848C346.17 14.416 345.732 14.02 345.3 13.66ZM349.044 6.298C349.44 7.81 349.974 9.22 350.646 10.528C351.318 11.824 352.134 12.964 353.094 13.948C354.066 14.92 355.188 15.682 356.46 16.234C356.352 16.33 356.232 16.45 356.1 16.594C355.968 16.738 355.842 16.888 355.722 17.044C355.614 17.2 355.524 17.344 355.452 17.476C354.132 16.84 352.974 15.994 351.978 14.938C350.994 13.87 350.154 12.634 349.458 11.23C348.762 9.826 348.192 8.284 347.748 6.604L349.044 6.298ZM347.262 0.897999H348.72C348.708 1.714 348.684 2.608 348.648 3.58C348.612 4.54 348.522 5.542 348.378 6.586C348.234 7.618 347.994 8.65 347.658 9.682C347.334 10.714 346.878 11.71 346.29 12.67C345.714 13.63 344.964 14.518 344.04 15.334C343.128 16.15 342.012 16.852 340.692 17.44C340.584 17.26 340.434 17.062 340.242 16.846C340.05 16.642 339.864 16.468 339.684 16.324C340.968 15.784 342.048 15.136 342.924 14.38C343.812 13.612 344.526 12.778 345.066 11.878C345.618 10.978 346.044 10.048 346.344 9.088C346.644 8.116 346.86 7.144 346.992 6.172C347.124 5.2 347.202 4.264 347.226 3.364C347.25 2.464 347.262 1.642 347.262 0.897999ZM365.352 11.266H366.756V16.378H365.352V11.266ZM358.368 2.95H373.578V6.586H372.192V4.21H359.7V7.018H358.368V2.95ZM359.952 10.6H372.048V11.86H359.952V10.6ZM358.332 15.748H373.758V17.044H358.332V15.748ZM364.542 1.168L365.946 0.772C366.186 1.168 366.426 1.612 366.666 2.104C366.918 2.584 367.104 2.992 367.224 3.328L365.748 3.796C365.64 3.448 365.466 3.028 365.226 2.536C364.998 2.032 364.77 1.576 364.542 1.168ZM363.642 3.886H365.046C364.974 4.738 364.848 5.482 364.668 6.118C364.488 6.754 364.194 7.306 363.786 7.774C363.378 8.23 362.808 8.608 362.076 8.908C361.344 9.208 360.396 9.454 359.232 9.646C359.208 9.538 359.16 9.418 359.088 9.286C359.028 9.154 358.95 9.022 358.854 8.89C358.758 8.758 358.674 8.65 358.602 8.566C359.646 8.41 360.486 8.212 361.122 7.972C361.77 7.732 362.268 7.432 362.616 7.072C362.964 6.7 363.21 6.256 363.354 5.74C363.51 5.212 363.606 4.594 363.642 3.886ZM367.314 3.886H368.646V7.108C368.646 7.36 368.682 7.54 368.754 7.648C368.838 7.744 369.006 7.792 369.258 7.792C369.366 7.792 369.564 7.792 369.852 7.792C370.14 7.792 370.452 7.792 370.788 7.792C371.136 7.792 371.454 7.792 371.742 7.792C372.03 7.792 372.234 7.792 372.354 7.792C372.57 7.792 372.828 7.786 373.128 7.774C373.428 7.75 373.662 7.72 373.83 7.684C373.842 7.876 373.86 8.086 373.884 8.314C373.908 8.542 373.932 8.734 373.956 8.89C373.812 8.938 373.59 8.968 373.29 8.98C373.002 8.992 372.708 8.998 372.408 8.998C372.288 8.998 372.072 8.998 371.76 8.998C371.46 8.998 371.13 8.998 370.77 8.998C370.422 8.998 370.104 8.998 369.816 8.998C369.528 8.998 369.336 8.998 369.24 8.998C368.736 8.998 368.34 8.938 368.052 8.818C367.776 8.698 367.584 8.5 367.476 8.224C367.368 7.936 367.314 7.558 367.314 7.09V3.886ZM384.018 7.054H391.056V7.846H384.018V7.054ZM384.018 8.836H391.11V9.628H384.018V8.836ZM383.622 10.672H391.848V11.59H383.622V10.672ZM381.408 3.562L382.542 3.886C382.086 4.822 381.528 5.728 380.868 6.604C380.208 7.48 379.542 8.224 378.87 8.836C378.81 8.764 378.726 8.674 378.618 8.566C378.51 8.458 378.396 8.35 378.276 8.242C378.168 8.122 378.072 8.032 377.988 7.972C378.66 7.42 379.296 6.754 379.896 5.974C380.508 5.194 381.012 4.39 381.408 3.562ZM384.288 3.526L385.422 3.85C385.038 4.714 384.57 5.56 384.018 6.388C383.466 7.204 382.908 7.9 382.344 8.476C382.272 8.404 382.176 8.32 382.056 8.224C381.948 8.116 381.834 8.02 381.714 7.936C381.594 7.84 381.486 7.762 381.39 7.702C381.966 7.186 382.512 6.556 383.028 5.812C383.544 5.068 383.964 4.306 384.288 3.526ZM387.258 5.578H388.428V11.032H387.258V5.578ZM382.398 13.192H383.64V15.712C383.64 15.916 383.694 16.042 383.802 16.09C383.91 16.15 384.15 16.18 384.522 16.18C384.618 16.18 384.786 16.18 385.026 16.18C385.266 16.18 385.53 16.18 385.818 16.18C386.118 16.18 386.394 16.18 386.646 16.18C386.898 16.18 387.084 16.18 387.204 16.18C387.396 16.18 387.546 16.144 387.654 16.072C387.762 16.012 387.84 15.874 387.888 15.658C387.936 15.43 387.966 15.088 387.978 14.632C388.11 14.728 388.284 14.818 388.5 14.902C388.728 14.986 388.926 15.046 389.094 15.082C389.058 15.67 388.98 16.126 388.86 16.45C388.74 16.786 388.56 17.014 388.32 17.134C388.08 17.254 387.75 17.314 387.33 17.314C387.258 17.314 387.126 17.314 386.934 17.314C386.742 17.314 386.514 17.314 386.25 17.314C385.998 17.314 385.74 17.314 385.476 17.314C385.224 17.314 385.002 17.314 384.81 17.314C384.618 17.314 384.486 17.314 384.414 17.314C383.874 17.314 383.46 17.266 383.172 17.17C382.884 17.086 382.68 16.924 382.56 16.684C382.452 16.456 382.398 16.138 382.398 15.73V13.192ZM383.964 12.652L384.756 11.896C385.116 12.052 385.482 12.232 385.854 12.436C386.238 12.64 386.598 12.85 386.934 13.066C387.27 13.282 387.546 13.486 387.762 13.678L386.934 14.542C386.73 14.338 386.46 14.122 386.124 13.894C385.8 13.666 385.446 13.444 385.062 13.228C384.69 13.012 384.324 12.82 383.964 12.652ZM388.518 13.444L389.526 12.94C389.874 13.276 390.216 13.654 390.552 14.074C390.9 14.482 391.212 14.89 391.488 15.298C391.776 15.694 391.998 16.06 392.154 16.396L391.056 16.954C390.924 16.63 390.72 16.264 390.444 15.856C390.168 15.436 389.862 15.022 389.526 14.614C389.202 14.194 388.866 13.804 388.518 13.444ZM380.22 13.138L381.336 13.534C381.108 14.158 380.826 14.788 380.49 15.424C380.154 16.06 379.716 16.588 379.176 17.008L378.15 16.342C378.642 15.97 379.062 15.49 379.41 14.902C379.77 14.302 380.04 13.714 380.22 13.138ZM384.378 5.182H391.542V6.082H383.73L384.378 5.182ZM383.316 6.244L384.468 5.254V12.13H383.316V6.244ZM377.682 2.284H392.136V3.418H377.682V2.284ZM376.962 2.284H378.204V7.702C378.204 8.41 378.18 9.184 378.132 10.024C378.096 10.852 378.024 11.71 377.916 12.598C377.808 13.474 377.646 14.332 377.43 15.172C377.214 16 376.926 16.762 376.566 17.458C376.506 17.374 376.41 17.278 376.278 17.17C376.146 17.074 376.014 16.972 375.882 16.864C375.75 16.768 375.63 16.702 375.522 16.666C375.858 16.006 376.122 15.298 376.314 14.542C376.506 13.774 376.644 12.994 376.728 12.202C376.824 11.398 376.884 10.612 376.908 9.844C376.944 9.076 376.962 8.362 376.962 7.702V2.284ZM380.238 6.514L381.39 5.362L381.408 5.38V12.148H380.238V6.514ZM383.352 0.934L384.522 0.52C384.774 0.856 385.02 1.228 385.26 1.636C385.512 2.032 385.692 2.38 385.8 2.68L384.594 3.148C384.474 2.836 384.3 2.476 384.072 2.068C383.844 1.648 383.604 1.27 383.352 0.934ZM386.538 3.868L387.492 3.436C387.708 3.676 387.924 3.94 388.14 4.228C388.356 4.504 388.518 4.75 388.626 4.966L387.618 5.47C387.522 5.242 387.372 4.978 387.168 4.678C386.964 4.366 386.754 4.096 386.538 3.868ZM396.528 2.14H408.174V3.436H396.528V2.14ZM396.528 6.334H408.138V7.612H396.528V6.334ZM396.42 10.636H408.174V11.914H396.42V10.636ZM395.754 2.14H397.086V8.674C397.086 9.358 397.056 10.09 396.996 10.87C396.936 11.65 396.822 12.442 396.654 13.246C396.498 14.038 396.252 14.8 395.916 15.532C395.592 16.264 395.16 16.93 394.62 17.53C394.56 17.434 394.464 17.326 394.332 17.206C394.2 17.098 394.068 16.99 393.936 16.882C393.804 16.774 393.684 16.696 393.576 16.648C394.08 16.084 394.476 15.472 394.764 14.812C395.052 14.152 395.268 13.474 395.412 12.778C395.556 12.07 395.646 11.368 395.682 10.672C395.73 9.976 395.754 9.31 395.754 8.674V2.14ZM407.634 2.14H408.966V15.604C408.966 16.036 408.9 16.366 408.768 16.594C408.648 16.822 408.438 16.996 408.138 17.116C407.838 17.224 407.418 17.29 406.878 17.314C406.338 17.338 405.642 17.344 404.79 17.332C404.754 17.164 404.688 16.948 404.592 16.684C404.508 16.432 404.418 16.216 404.322 16.036C404.742 16.048 405.144 16.054 405.528 16.054C405.924 16.066 406.266 16.066 406.554 16.054C406.842 16.054 407.04 16.054 407.148 16.054C407.328 16.042 407.454 16.006 407.526 15.946C407.598 15.886 407.634 15.772 407.634 15.604V2.14ZM401.406 2.626H402.774V17.278H401.406V2.626Z" fill="white"/>
<g opacity="0.6">
<path d="M298 2H284V16H298V2Z" fill="#00F4DC"/>
</g>
</svg>
