<svg width="769" height="1024" viewBox="0 0 769 1024" fill="none" xmlns="http://www.w3.org/2000/svg">
<mask id="mask0_669_10332" style="mask-type:alpha" maskUnits="userSpaceOnUse" x="1" y="34" width="198" height="967">
<rect x="1" y="34" width="198" height="967" fill="#D9D9D9"/>
</mask>
<g mask="url(#mask0_669_10332)">
<g filter="url(#filter0_d_669_10332)">
<path d="M-383 1011C-105.201 1011 120 786.919 120 510.5C120 234.081 -105.201 10 -383 10C-660.799 10 -886 234.081 -886 510.5C-886 786.919 -660.799 1011 -383 1011Z" fill="black" shape-rendering="crispEdges"/>
<path d="M-383 1011C-105.201 1011 120 786.919 120 510.5C120 234.081 -105.201 10 -383 10C-660.799 10 -886 234.081 -886 510.5C-886 786.919 -660.799 1011 -383 1011Z" stroke="url(#paint0_linear_669_10332)" stroke-linecap="round" stroke-linejoin="round" shape-rendering="crispEdges"/>
</g>
</g>
<path d="M1 1011C143.664 906.298 238 724.829 238 518.5C238 312.171 143.664 130.702 1 26" stroke="white" stroke-linecap="round" stroke-linejoin="round"/>
<path d="M239.5 567C212.759 567 191 545.241 191 518.5C191 491.759 212.759 470 239.5 470C266.241 470 288 491.759 288 518.5C288 545.241 266.241 567 239.5 567ZM239.5 471.701C213.698 471.701 192.701 492.698 192.701 518.5C192.701 544.302 213.698 565.299 239.5 565.299C265.302 565.299 286.299 544.302 286.299 518.5C286.299 492.698 265.302 471.701 239.5 471.701Z" fill="url(#paint1_linear_669_10332)"/>
<path d="M239.498 471.701C213.696 471.701 192.699 492.698 192.699 518.5C192.699 544.303 213.696 565.299 239.498 565.299C265.301 565.299 286.297 544.303 286.297 518.5C286.297 492.698 265.301 471.701 239.498 471.701Z" fill="#04060C"/>
<path d="M256.71 510.462L239.501 486.986L222.307 510.462C218.921 514.426 216.859 519.552 216.859 525.161C216.859 537.661 226.993 547.802 239.501 547.802C252.009 547.802 262.142 537.661 262.142 525.161C262.142 516.504 256.71 510.454 256.71 510.454V510.462Z" fill="white" stroke="white" stroke-width="0.5" stroke-linecap="round" stroke-linejoin="round"/>
<path d="M223.068 522.415C221.512 527.085 220.236 535.983 230.682 540.435C231.693 540.869 233.258 540.652 232.319 539.898C227.112 535.662 223.678 530.062 224.32 521.268C224.4 520.209 223.678 520.586 223.068 522.423V522.415Z" fill="#04060C" stroke="white" stroke-width="0.5" stroke-linecap="round" stroke-linejoin="round"/>
<path d="M216.5 417C189.759 417 168 395.241 168 368.5C168 341.759 189.759 320 216.5 320C243.241 320 265 341.759 265 368.5C265 395.241 243.241 417 216.5 417ZM216.5 321.701C190.698 321.701 169.701 342.698 169.701 368.5C169.701 394.302 190.698 415.299 216.5 415.299C242.302 415.299 263.299 394.302 263.299 368.5C263.299 342.698 242.302 321.701 216.5 321.701Z" fill="url(#paint2_linear_669_10332)"/>
<path d="M216.498 321.701C190.696 321.701 169.699 342.698 169.699 368.5C169.699 394.303 190.696 415.299 216.498 415.299C242.301 415.299 263.297 394.303 263.297 368.5C263.297 342.698 242.301 321.701 216.498 321.701Z" fill="#04060C"/>
<path d="M216.499 399.688C233.722 399.688 247.685 385.726 247.685 368.502C247.685 351.279 233.722 337.316 216.499 337.316C199.275 337.316 185.312 351.279 185.312 368.502C185.312 385.726 199.275 399.688 216.499 399.688Z" stroke="white" stroke-width="0.5" stroke-linecap="round" stroke-linejoin="round"/>
<path d="M221.369 366.785C226.008 366.785 229.769 363.024 229.769 358.385C229.769 353.745 226.008 349.984 221.369 349.984C216.73 349.984 212.969 353.745 212.969 358.385C212.969 363.024 216.73 366.785 221.369 366.785Z" fill="white" stroke="white" stroke-width="0.5" stroke-linecap="round" stroke-linejoin="round"/>
<path d="M224.748 357.052H222.702V355.006C222.702 354.276 222.1 353.674 221.37 353.674C220.64 353.674 220.038 354.276 220.038 355.006V357.052H217.992C217.262 357.052 216.66 357.653 216.66 358.383C216.66 359.114 217.262 359.715 217.992 359.715H220.038V361.761C220.038 362.491 220.64 363.093 221.37 363.093C222.1 363.093 222.702 362.491 222.702 361.761V359.715H224.748C225.478 359.715 226.079 359.114 226.079 358.383C226.079 357.653 225.478 357.052 224.748 357.052Z" fill="#04060C" stroke="white" stroke-linecap="round" stroke-linejoin="round"/>
<path d="M239.287 355.222C243.926 355.222 247.687 351.461 247.687 346.822C247.687 342.183 243.926 338.422 239.287 338.422C234.648 338.422 230.887 342.183 230.887 346.822C230.887 351.461 234.648 355.222 239.287 355.222Z" fill="white" stroke="white" stroke-width="0.5" stroke-linecap="round" stroke-linejoin="round"/>
<path d="M242.662 348.154C243.392 348.154 243.994 347.552 243.994 346.822C243.994 346.092 243.392 345.49 242.662 345.49H235.898C235.168 345.49 234.566 346.092 234.566 346.822C234.566 347.552 235.168 348.154 235.898 348.154H242.662Z" fill="#04060C"/>
<path d="M195.631 399.687C200.27 399.687 204.031 395.926 204.031 391.287C204.031 386.648 200.27 382.887 195.631 382.887C190.991 382.887 187.23 386.648 187.23 391.287C187.23 395.926 190.991 399.687 195.631 399.687Z" fill="white" stroke="white" stroke-width="0.5" stroke-linecap="round" stroke-linejoin="round"/>
<path d="M199.009 392.619C199.74 392.619 200.341 392.017 200.341 391.287C200.341 390.557 199.74 389.955 199.009 389.955H192.246C191.516 389.955 190.914 390.557 190.914 391.287C190.914 392.017 191.516 392.619 192.246 392.619H199.009Z" fill="#04060C"/>
<path d="M221.369 388.287C226.008 388.287 229.769 384.526 229.769 379.887C229.769 375.247 226.008 371.486 221.369 371.486C216.73 371.486 212.969 375.247 212.969 379.887C212.969 384.526 216.73 388.287 221.369 388.287Z" fill="white" stroke="white" stroke-width="0.5" stroke-linecap="round" stroke-linejoin="round"/>
<path d="M205.099 378.103C209.739 378.103 213.5 374.342 213.5 369.703C213.5 365.064 209.739 361.303 205.099 361.303C200.46 361.303 196.699 365.064 196.699 369.703C196.699 374.342 200.46 378.103 205.099 378.103Z" fill="white" stroke="white" stroke-width="0.5" stroke-linecap="round" stroke-linejoin="round"/>
<path d="M208.478 368.372H206.432V366.326C206.432 365.596 205.83 364.994 205.1 364.994C204.37 364.994 203.768 365.596 203.768 366.326V368.372H201.722C200.992 368.372 200.391 368.974 200.391 369.704C200.391 370.434 200.992 371.036 201.722 371.036H203.768V373.081C203.768 373.812 204.37 374.413 205.1 374.413C205.83 374.413 206.432 373.812 206.432 373.081V371.036H208.478C209.208 371.036 209.81 370.434 209.81 369.704C209.81 368.974 209.208 368.372 208.478 368.372Z" fill="#04060C" stroke="white" stroke-linecap="round" stroke-linejoin="round"/>
<path d="M168.5 860C141.759 860 120 838.241 120 811.5C120 784.759 141.759 763 168.5 763C195.241 763 217 784.759 217 811.5C217 838.241 195.241 860 168.5 860ZM168.5 764.701C142.698 764.701 121.701 785.698 121.701 811.5C121.701 837.302 142.698 858.299 168.5 858.299C194.302 858.299 215.299 837.302 215.299 811.5C215.299 785.698 194.31 764.701 168.5 764.701Z" fill="url(#paint3_linear_669_10332)"/>
<path d="M168.498 764.701C142.696 764.701 121.699 785.698 121.699 811.5C121.699 837.303 142.696 858.299 168.498 858.299C194.301 858.299 215.297 837.303 215.297 811.5C215.297 785.698 194.309 764.701 168.498 764.701Z" fill="#04060C"/>
<path d="M204.346 830.83C205.67 828.383 206.753 825.791 207.555 823.079C209.344 817.792 209.657 814.406 209.657 814.406C197.775 805.188 187.032 805.749 179.61 808.469C171.298 811.51 166.95 807.827 158.469 804.987C141.885 799.443 128.246 816.179 128.246 816.179C128.262 818.458 128.736 820.351 128.736 820.351C132.787 838.58 149.074 852.251 168.498 852.251C183.943 852.251 197.398 843.61 204.298 830.918C204.298 830.91 204.314 830.902 204.314 830.886C204.322 830.87 204.33 830.854 204.338 830.838L204.346 830.83Z" fill="white" stroke="white" stroke-width="0.5" stroke-linecap="round" stroke-linejoin="round"/>
<path d="M171.3 832.803C173.334 832.803 174.982 831.154 174.982 829.12C174.982 827.086 173.334 825.438 171.3 825.438C169.266 825.438 167.617 827.086 167.617 829.12C167.617 831.154 169.266 832.803 171.3 832.803Z" fill="#04060C" stroke="white" stroke-width="0.5" stroke-linecap="round" stroke-linejoin="round"/>
<path d="M199.815 822.547C201.849 822.547 203.498 820.898 203.498 818.864C203.498 816.83 201.849 815.182 199.815 815.182C197.782 815.182 196.133 816.83 196.133 818.864C196.133 820.898 197.782 822.547 199.815 822.547Z" fill="#04060C" stroke="white" stroke-width="0.5" stroke-linecap="round" stroke-linejoin="round"/>
<path d="M154.147 818.391C156.181 818.391 157.83 816.742 157.83 814.708C157.83 812.674 156.181 811.025 154.147 811.025C152.114 811.025 150.465 812.674 150.465 814.708C150.465 816.742 152.114 818.391 154.147 818.391Z" fill="#04060C" stroke="white" stroke-width="0.5" stroke-linecap="round" stroke-linejoin="round"/>
<path d="M184.977 838.283C186.639 838.283 187.986 836.936 187.986 835.274C187.986 833.613 186.639 832.266 184.977 832.266C183.316 832.266 181.969 833.613 181.969 835.274C181.969 836.936 183.316 838.283 184.977 838.283Z" fill="#04060C" stroke="white" stroke-width="0.5" stroke-linecap="round" stroke-linejoin="round"/>
<path d="M158.471 840.167C159.513 840.167 160.357 839.323 160.357 838.282C160.357 837.241 159.513 836.396 158.471 836.396C157.43 836.396 156.586 837.241 156.586 838.282C156.586 839.323 157.43 840.167 158.471 840.167Z" fill="#04060C" stroke="white" stroke-width="0.5" stroke-linecap="round" stroke-linejoin="round"/>
<path d="M162.249 848.126C163.29 848.126 164.134 847.282 164.134 846.241C164.134 845.2 163.29 844.355 162.249 844.355C161.207 844.355 160.363 845.2 160.363 846.241C160.363 847.282 161.207 848.126 162.249 848.126Z" fill="#04060C" stroke="white" stroke-width="0.5" stroke-linecap="round" stroke-linejoin="round"/>
<path d="M179.612 842.951C180.653 842.951 181.497 842.106 181.497 841.065C181.497 840.024 180.653 839.18 179.612 839.18C178.571 839.18 177.727 840.024 177.727 841.065C177.727 842.106 178.571 842.951 179.612 842.951Z" fill="#04060C" stroke="white" stroke-width="0.5" stroke-linecap="round" stroke-linejoin="round"/>
<path d="M161.487 832.759C162.528 832.759 163.372 831.915 163.372 830.874C163.372 829.832 162.528 828.988 161.487 828.988C160.446 828.988 159.602 829.832 159.602 830.874C159.602 831.915 160.446 832.759 161.487 832.759Z" fill="#04060C" stroke="white" stroke-width="0.5" stroke-linecap="round" stroke-linejoin="round"/>
<path d="M166.03 818.953C167.071 818.953 167.915 818.108 167.915 817.067C167.915 816.026 167.071 815.182 166.03 815.182C164.989 815.182 164.145 816.026 164.145 817.067C164.145 818.108 164.989 818.953 166.03 818.953Z" fill="#04060C" stroke="white" stroke-width="0.5" stroke-linecap="round" stroke-linejoin="round"/>
<path d="M139.112 829.753C140.153 829.753 140.997 828.909 140.997 827.868C140.997 826.827 140.153 825.982 139.112 825.982C138.071 825.982 137.227 826.827 137.227 827.868C137.227 828.909 138.071 829.753 139.112 829.753Z" fill="#04060C" stroke="white" stroke-width="0.5" stroke-linecap="round" stroke-linejoin="round"/>
<path d="M155.464 827.347C156.505 827.347 157.349 826.503 157.349 825.462C157.349 824.42 156.505 823.576 155.464 823.576C154.422 823.576 153.578 824.42 153.578 825.462C153.578 826.503 154.422 827.347 155.464 827.347Z" fill="#04060C" stroke="white" stroke-width="0.5" stroke-linecap="round" stroke-linejoin="round"/>
<path d="M140.995 818.953C142.036 818.953 142.88 818.108 142.88 817.067C142.88 816.026 142.036 815.182 140.995 815.182C139.954 815.182 139.109 816.026 139.109 817.067C139.109 818.108 139.954 818.953 140.995 818.953Z" fill="#04060C" stroke="white" stroke-width="0.5" stroke-linecap="round" stroke-linejoin="round"/>
<path d="M147.528 839.17C149.19 839.17 150.537 837.823 150.537 836.161C150.537 834.499 149.19 833.152 147.528 833.152C145.867 833.152 144.52 834.499 144.52 836.161C144.52 837.823 145.867 839.17 147.528 839.17Z" fill="#04060C" stroke="white" stroke-width="0.5" stroke-linecap="round" stroke-linejoin="round"/>
<path d="M171.302 845.494C172.551 845.494 173.564 844.481 173.564 843.231C173.564 841.982 172.551 840.969 171.302 840.969C170.052 840.969 169.039 841.982 169.039 843.231C169.039 844.481 170.052 845.494 171.302 845.494Z" fill="#04060C" stroke="white" stroke-width="0.5" stroke-linecap="round" stroke-linejoin="round"/>
<path d="M187.979 818.953C189.02 818.953 189.865 818.108 189.865 817.067C189.865 816.026 189.02 815.182 187.979 815.182C186.938 815.182 186.094 816.026 186.094 817.067C186.094 818.108 186.938 818.953 187.979 818.953Z" fill="#04060C" stroke="white" stroke-width="0.5" stroke-linecap="round" stroke-linejoin="round"/>
<path d="M174.983 816.972C176.024 816.972 176.869 816.128 176.869 815.087C176.869 814.045 176.024 813.201 174.983 813.201C173.942 813.201 173.098 814.045 173.098 815.087C173.098 816.128 173.942 816.972 174.983 816.972Z" fill="#04060C" stroke="white" stroke-width="0.5" stroke-linecap="round" stroke-linejoin="round"/>
<path d="M189.755 829.119C191.416 829.119 192.763 827.772 192.763 826.11C192.763 824.449 191.416 823.102 189.755 823.102C188.093 823.102 186.746 824.449 186.746 826.11C186.746 827.772 188.093 829.119 189.755 829.119Z" fill="#04060C" stroke="white" stroke-width="0.5" stroke-linecap="round" stroke-linejoin="round"/>
<path d="M197.022 832.759C198.063 832.759 198.908 831.915 198.908 830.874C198.908 829.832 198.063 828.988 197.022 828.988C195.981 828.988 195.137 829.832 195.137 830.874C195.137 831.915 195.981 832.759 197.022 832.759Z" fill="#04060C" stroke="white" stroke-width="0.5" stroke-linecap="round" stroke-linejoin="round"/>
<path d="M217.5 719C190.759 719 169 697.241 169 670.5C169 643.759 190.759 622 217.5 622C244.241 622 266 643.759 266 670.5C266 697.241 244.241 719 217.5 719ZM217.5 623.701C191.698 623.701 170.701 644.698 170.701 670.5C170.701 696.302 191.698 717.299 217.5 717.299C243.302 717.299 264.299 696.302 264.299 670.5C264.299 644.698 243.302 623.701 217.5 623.701Z" fill="url(#paint4_linear_669_10332)"/>
<path d="M217.498 623.701C191.696 623.701 170.699 644.698 170.699 670.5C170.699 696.303 191.696 717.299 217.498 717.299C243.301 717.299 264.297 696.303 264.297 670.5C264.297 644.698 243.301 623.701 217.498 623.701Z" fill="#04060C"/>
<path d="M204.799 654.292L209.163 649.598L215.71 645.41L219.802 650.505L222.987 651.684L226.991 655.503L233.265 656.506L244.818 661.785C244.457 666.423 247.089 669.977 247.273 670.972C247.458 671.975 245.725 674.791 242.724 675.882C239.723 676.973 236.45 682.253 235.808 683.889C235.174 685.526 233.81 688.984 231.532 689.345C229.253 689.706 229.895 691.07 228.347 692.618C226.798 694.167 223.436 692.707 220.251 692.803C217.066 692.891 213.793 693.894 213.793 693.894L201.509 685.975L199.872 685.245C195.235 684.427 191.938 678.923 191.938 678.923L193.51 661.136C193.51 661.136 198.244 655.407 202.063 654.589L204.791 654.284L204.799 654.292Z" fill="white" stroke="white" stroke-width="0.5" stroke-linecap="round" stroke-linejoin="round"/>
<path d="M204.824 654.415C209.277 654.199 215.583 654.728 215.583 654.728C215.583 654.728 217.854 655.001 222.226 659.638C226.599 664.276 230.779 666.097 231.959 666.097C233.138 666.097 236.05 666.554 238.056 667.822C240.054 669.098 246.063 672.828 246.063 672.828" stroke="#04060C" stroke-width="0.5" stroke-linecap="round" stroke-linejoin="round"/>
<path d="M230.039 689.933C230.039 689.933 229.405 689.114 227.215 687.02C225.033 684.926 221.663 685.56 219.12 686.378C216.576 687.197 217.571 687.558 212.115 685.376C207.342 683.466 205.071 685.528 201.469 685.52" stroke="#04060C" stroke-width="0.5" stroke-linecap="round" stroke-linejoin="round"/>
<path d="M219.764 650.635L213.129 654.558" stroke="#04060C" stroke-width="0.5" stroke-linecap="round" stroke-linejoin="round"/>
<path d="M207.664 654.557C207.664 654.557 210.392 655.728 211.94 660.365C213.489 665.003 213.393 671.1 217.853 672.553" stroke="#04060C" stroke-width="0.5" stroke-linecap="round" stroke-linejoin="round"/>
<path d="M234.301 666.391C234.301 666.391 229.952 669.094 230.859 670.547C231.765 671.999 234.83 674.093 234.301 675.826C233.771 677.559 233.587 678.369 233.587 678.369" stroke="#04060C" stroke-width="0.5" stroke-linecap="round" stroke-linejoin="round"/>
<path d="M232.238 672.146L224.359 677.378" stroke="#04060C" stroke-width="0.5" stroke-linecap="round" stroke-linejoin="round"/>
<path d="M204.173 666.82C205.666 666.82 206.876 665.609 206.876 664.116C206.876 662.623 205.666 661.412 204.173 661.412C202.679 661.412 201.469 662.623 201.469 664.116C201.469 665.609 202.679 666.82 204.173 666.82Z" fill="#04060C" stroke="white" stroke-width="0.5" stroke-linecap="round" stroke-linejoin="round"/>
<path d="M197.755 678.38C199.248 678.38 200.458 677.17 200.458 675.676C200.458 674.183 199.248 672.973 197.755 672.973C196.261 672.973 195.051 674.183 195.051 675.676C195.051 677.17 196.261 678.38 197.755 678.38Z" fill="#04060C" stroke="white" stroke-width="0.5" stroke-linecap="round" stroke-linejoin="round"/>
<path d="M216.442 683.322C217.935 683.322 219.146 682.111 219.146 680.618C219.146 679.125 217.935 677.914 216.442 677.914C214.949 677.914 213.738 679.125 213.738 680.618C213.738 682.111 214.949 683.322 216.442 683.322Z" fill="#04060C" stroke="white" stroke-width="0.5" stroke-linecap="round" stroke-linejoin="round"/>
<path d="M222.466 669.523C223.959 669.523 225.169 668.312 225.169 666.819C225.169 665.326 223.959 664.115 222.466 664.115C220.972 664.115 219.762 665.326 219.762 666.819C219.762 668.312 220.972 669.523 222.466 669.523Z" fill="#04060C" stroke="white" stroke-width="0.5" stroke-linecap="round" stroke-linejoin="round"/>
<path d="M232.239 663.096C233.165 663.096 233.916 662.345 233.916 661.419C233.916 660.493 233.165 659.742 232.239 659.742C231.313 659.742 230.562 660.493 230.562 661.419C230.562 662.345 231.313 663.096 232.239 663.096Z" fill="#04060C" stroke="white" stroke-width="0.5" stroke-linecap="round" stroke-linejoin="round"/>
<path d="M238.72 674.647C239.646 674.647 240.397 673.896 240.397 672.97C240.397 672.044 239.646 671.293 238.72 671.293C237.794 671.293 237.043 672.044 237.043 672.97C237.043 673.896 237.794 674.647 238.72 674.647Z" fill="#04060C" stroke="white" stroke-width="0.5" stroke-linecap="round" stroke-linejoin="round"/>
<path d="M209.341 671.945C210.267 671.945 211.018 671.195 211.018 670.269C211.018 669.343 210.267 668.592 209.341 668.592C208.415 668.592 207.664 669.343 207.664 670.269C207.664 671.195 208.415 671.945 209.341 671.945Z" fill="#04060C" stroke="white" stroke-width="0.5" stroke-linecap="round" stroke-linejoin="round"/>
<path d="M204.173 680.658C205.099 680.658 205.85 679.908 205.85 678.982C205.85 678.055 205.099 677.305 204.173 677.305C203.247 677.305 202.496 678.055 202.496 678.982C202.496 679.908 203.247 680.658 204.173 680.658Z" fill="#04060C" stroke="white" stroke-width="0.5" stroke-linecap="round" stroke-linejoin="round"/>
<path d="M221.294 677.354C222.22 677.354 222.971 676.603 222.971 675.677C222.971 674.751 222.22 674 221.294 674C220.368 674 219.617 674.751 219.617 675.677C219.617 676.603 220.368 677.354 221.294 677.354Z" fill="#04060C" stroke="white" stroke-width="0.5" stroke-linecap="round" stroke-linejoin="round"/>
<path d="M230.564 684.998C231.49 684.998 232.24 684.247 232.24 683.321C232.24 682.395 231.49 681.645 230.564 681.645C229.637 681.645 228.887 682.395 228.887 683.321C228.887 684.247 229.637 684.998 230.564 684.998Z" fill="#04060C" stroke="white" stroke-width="0.5" stroke-linecap="round" stroke-linejoin="round"/>
<path d="M240.5 567C213.759 567 192 545.241 192 518.5C192 491.759 213.759 470 240.5 470C267.241 470 289 491.759 289 518.5C289 545.241 267.241 567 240.5 567ZM240.5 471.701C214.698 471.701 193.701 492.698 193.701 518.5C193.701 544.303 214.698 565.299 240.5 565.299C266.302 565.299 287.299 544.303 287.299 518.5C287.299 492.698 266.302 471.701 240.5 471.701Z" fill="url(#paint5_linear_669_10332)"/>
<path d="M241 472C215.087 472 194 493.087 194 519C194 544.913 215.087 566 241 566C266.913 566 288 544.913 288 519C288 493.087 266.913 472 241 472Z" fill="#04060C"/>
<path d="M257.602 510.58L240.5 487.178L223.414 510.58C220.049 514.531 218 519.642 218 525.232C218 537.693 228.07 547.803 240.5 547.803C252.93 547.803 263 537.693 263 525.232C263 516.602 257.602 510.572 257.602 510.572V510.58Z" fill="#04060C" stroke="white" stroke-width="0.5" stroke-linecap="round" stroke-linejoin="round"/>
<path d="M224.082 523.284C222.464 528.008 221.138 537.011 231.998 541.516C233.049 541.954 234.676 541.735 233.7 540.972C228.286 536.686 224.716 531.02 225.383 522.123C225.467 521.051 224.716 521.433 224.082 523.292V523.284Z" fill="#04060C" stroke="white" stroke-width="0.5" stroke-linecap="round" stroke-linejoin="round"/>
<path d="M216 417C189.534 417 168 395.241 168 368.5C168 341.759 189.534 320 216 320C242.466 320 264 341.759 264 368.5C264 395.241 242.466 417 216 417ZM216 321.701C190.464 321.701 169.683 342.698 169.683 368.5C169.683 394.303 190.464 415.299 216 415.299C241.536 415.299 262.317 394.303 262.317 368.5C262.317 342.698 241.536 321.701 216 321.701Z" fill="url(#paint6_linear_669_10332)"/>
<path d="M216.5 322.021C190.862 322.021 170 343.101 170 369.006C170 394.911 190.862 415.99 216.5 415.99C242.138 415.99 263 394.911 263 369.006C263 343.101 242.138 322.021 216.5 322.021Z" fill="#04060C"/>
<path d="M216 399.824C233.121 399.824 247 385.8 247 368.501C247 351.201 233.121 337.178 216 337.178C198.879 337.178 185 351.201 185 368.501C185 385.8 198.879 399.824 216 399.824Z" stroke="white" stroke-width="0.5" stroke-linecap="round" stroke-linejoin="round"/>
<path d="M221.5 366.479C226.194 366.479 230 362.86 230 358.396C230 353.932 226.194 350.312 221.5 350.312C216.806 350.312 213 353.932 213 358.396C213 362.86 216.806 366.479 221.5 366.479Z" stroke="white" stroke-width="0.5" stroke-linecap="round" stroke-linejoin="round"/>
<path d="M223.727 356.605H221.773V354.63C221.773 353.925 221.198 353.344 220.5 353.344C219.802 353.344 219.227 353.925 219.227 354.63V356.605H217.273C216.575 356.605 216 357.186 216 357.891C216 358.596 216.575 359.176 217.273 359.176H219.227V361.152C219.227 361.857 219.802 362.438 220.5 362.438C221.198 362.438 221.773 361.857 221.773 361.152V359.176H223.727C224.425 359.176 225 358.596 225 357.891C225 357.186 224.425 356.605 223.727 356.605Z" stroke="white" stroke-width="0.5" stroke-linecap="round" stroke-linejoin="round"/>
<path d="M239 355.365C243.418 355.365 247 351.519 247 346.776C247 342.033 243.418 338.188 239 338.188C234.582 338.188 231 342.033 231 346.776C231 351.519 234.582 355.365 239 355.365Z" fill="#04060C" stroke="white" stroke-width="0.5" stroke-linecap="round" stroke-linejoin="round"/>
<path d="M241.729 348.291C242.426 348.291 243 347.606 243 346.775C243 345.945 242.426 345.26 241.729 345.26H235.272C234.574 345.26 234 345.945 234 346.775C234 347.606 234.574 348.291 235.272 348.291H241.729Z" stroke="white" stroke-width="0.5" stroke-linecap="round" stroke-linejoin="round"/>
<path d="M195.5 399.823C200.194 399.823 204 396.204 204 391.74C204 387.275 200.194 383.656 195.5 383.656C190.806 383.656 187 387.275 187 391.74C187 396.204 190.806 399.823 195.5 399.823Z" fill="#04060C" stroke="white" stroke-width="0.5" stroke-linecap="round" stroke-linejoin="round"/>
<path d="M198.729 392.75C199.426 392.75 200 392.065 200 391.234C200 390.403 199.426 389.719 198.729 389.719H192.271C191.574 389.719 191 390.403 191 391.234C191 392.065 191.574 392.75 192.271 392.75H198.729Z" stroke="white" stroke-width="0.5" stroke-linecap="round" stroke-linejoin="round"/>
<path d="M221.5 388.708C226.194 388.708 230 384.863 230 380.12C230 375.376 226.194 371.531 221.5 371.531C216.806 371.531 213 375.376 213 380.12C213 384.863 216.806 388.708 221.5 388.708Z" stroke="white" stroke-width="0.5" stroke-linecap="round" stroke-linejoin="round"/>
<path d="M204.5 377.594C209.194 377.594 213 373.975 213 369.511C213 365.047 209.194 361.428 204.5 361.428C199.806 361.428 196 365.047 196 369.511C196 373.975 199.806 377.594 204.5 377.594Z" stroke="white" stroke-width="0.5" stroke-linecap="round" stroke-linejoin="round"/>
<path d="M208.727 368.73H206.773V366.755C206.773 366.05 206.198 365.469 205.5 365.469C204.802 365.469 204.227 366.05 204.227 366.755V368.73H202.273C201.575 368.73 201 369.311 201 370.016C201 370.721 201.575 371.301 202.273 371.301H204.227V373.277C204.227 373.982 204.802 374.562 205.5 374.562C206.198 374.562 206.773 373.982 206.773 373.277V371.301H208.727C209.425 371.301 210 370.721 210 370.016C210 369.311 209.425 368.73 208.727 368.73Z" stroke="white" stroke-width="0.5" stroke-linecap="round" stroke-linejoin="round"/>
<path d="M218 718C191.535 718 170 696.241 170 669.5C170 642.759 191.535 621 218 621C244.466 621 266 642.759 266 669.5C266 696.241 244.466 718 218 718ZM218 622.701C192.464 622.701 171.683 643.698 171.683 669.5C171.683 695.302 192.464 716.299 218 716.299C243.536 716.299 264.317 695.302 264.317 669.5C264.317 643.698 243.536 622.701 218 622.701Z" fill="url(#paint7_linear_669_10332)"/>
<path d="M218.5 623.021C192.862 623.021 172 644.101 172 670.006C172 695.91 192.862 716.99 218.5 716.99C244.138 716.99 265 695.91 265 670.006C265 644.101 244.138 623.021 218.5 623.021Z" fill="#04060C"/>
<path d="M206 653.385C210.319 653.172 216.436 653.693 216.436 653.693C216.436 653.693 218.638 653.962 222.879 658.53C227.121 663.097 231.175 664.891 232.319 664.891C233.463 664.891 236.288 665.342 238.233 666.59C240.171 667.847 246 671.521 246 671.521" stroke="white" stroke-width="0.5" stroke-linecap="round" stroke-linejoin="round"/>
<path d="M231 688.699C231 688.699 230.379 687.928 228.232 685.958C226.094 683.987 222.791 684.584 220.299 685.354C217.806 686.124 218.781 686.464 213.434 684.41C208.756 682.613 206.53 684.553 203 684.546" stroke="white" stroke-width="0.5" stroke-linecap="round" stroke-linejoin="round"/>
<path d="M221 649.291L214 652.322" stroke="white" stroke-width="0.5" stroke-linecap="round" stroke-linejoin="round"/>
<path d="M209 653.334C209 653.334 211.677 654.518 213.197 659.205C214.717 663.891 214.622 670.054 219 671.521" stroke="white" stroke-width="0.5" stroke-linecap="round" stroke-linejoin="round"/>
<path d="M234.95 665.459C234.95 665.459 231.353 668.196 232.103 669.666C232.853 671.136 235.387 673.255 234.95 675.01C234.512 676.764 234.359 677.584 234.359 677.584" stroke="white" stroke-width="0.5" stroke-linecap="round" stroke-linejoin="round"/>
<path d="M233 671.521L225 676.574" stroke="white" stroke-width="0.5" stroke-linecap="round" stroke-linejoin="round"/>
<path d="M205.5 665.458C206.881 665.458 208 664.327 208 662.932C208 661.537 206.881 660.406 205.5 660.406C204.119 660.406 203 661.537 203 662.932C203 664.327 204.119 665.458 205.5 665.458Z" fill="#04060C" stroke="white" stroke-width="0.5" stroke-linecap="round" stroke-linejoin="round"/>
<path d="M199 677.583C200.657 677.583 202 676.452 202 675.057C202 673.662 200.657 672.531 199 672.531C197.343 672.531 196 673.662 196 675.057C196 676.452 197.343 677.583 199 677.583Z" fill="#04060C" stroke="white" stroke-width="0.5" stroke-linecap="round" stroke-linejoin="round"/>
<path d="M217.5 682.635C218.881 682.635 220 681.278 220 679.604C220 677.929 218.881 676.572 217.5 676.572C216.119 676.572 215 677.929 215 679.604C215 681.278 216.119 682.635 217.5 682.635Z" fill="#04060C" stroke="white" stroke-width="0.5" stroke-linecap="round" stroke-linejoin="round"/>
<path d="M223.5 668.49C224.881 668.49 226 667.133 226 665.459C226 663.785 224.881 662.428 223.5 662.428C222.119 662.428 221 663.785 221 665.459C221 667.133 222.119 668.49 223.5 668.49Z" fill="#04060C" stroke="white" stroke-width="0.5" stroke-linecap="round" stroke-linejoin="round"/>
<path d="M232.5 661.416C233.328 661.416 234 660.737 234 659.9C234 659.063 233.328 658.385 232.5 658.385C231.672 658.385 231 659.063 231 659.9C231 660.737 231.672 661.416 232.5 661.416Z" fill="#04060C" stroke="white" stroke-width="0.5" stroke-linecap="round" stroke-linejoin="round"/>
<path d="M239.5 673.541C240.328 673.541 241 672.862 241 672.025C241 671.188 240.328 670.51 239.5 670.51C238.672 670.51 238 671.188 238 672.025C238 672.862 238.672 673.541 239.5 673.541Z" fill="#04060C" stroke="white" stroke-width="0.5" stroke-linecap="round" stroke-linejoin="round"/>
<path d="M210.5 669.5C211.328 669.5 212 668.821 212 667.984C212 667.147 211.328 666.469 210.5 666.469C209.672 666.469 209 667.147 209 667.984C209 668.821 209.672 669.5 210.5 669.5Z" fill="#04060C" stroke="white" stroke-width="0.5" stroke-linecap="round" stroke-linejoin="round"/>
<path d="M204.5 679.604C205.328 679.604 206 678.925 206 678.088C206 677.251 205.328 676.572 204.5 676.572C203.672 676.572 203 677.251 203 678.088C203 678.925 203.672 679.604 204.5 679.604Z" fill="#04060C" stroke="white" stroke-width="0.5" stroke-linecap="round" stroke-linejoin="round"/>
<path d="M222.5 675.562C223.328 675.562 224 674.884 224 674.047C224 673.21 223.328 672.531 222.5 672.531C221.672 672.531 221 673.21 221 674.047C221 674.884 221.672 675.562 222.5 675.562Z" fill="#04060C" stroke="white" stroke-width="0.5" stroke-linecap="round" stroke-linejoin="round"/>
<path d="M231.5 683.646C232.328 683.646 233 682.968 233 682.131C233 681.294 232.328 680.615 231.5 680.615C230.672 680.615 230 681.294 230 682.131C230 682.968 230.672 683.646 231.5 683.646Z" fill="#04060C" stroke="white" stroke-width="0.5" stroke-linecap="round" stroke-linejoin="round"/>
<path d="M205.78 653.125L210.117 648.43L216.623 644.24L220.689 649.337L223.854 650.516L227.832 654.337L234.067 655.34L245.547 660.621C245.188 665.26 247.803 668.815 247.987 669.81C248.17 670.814 246.448 673.631 243.466 674.722C240.485 675.814 237.232 681.095 236.594 682.732C235.964 684.369 234.609 687.828 232.345 688.19C230.088 688.551 230.718 689.915 229.179 691.464C227.641 693.013 224.3 691.552 221.135 691.649C217.97 691.737 214.717 692.74 214.717 692.74L202.511 684.819L200.885 684.088C196.277 683.27 193 677.764 193 677.764L194.563 659.971C194.563 659.971 199.266 654.24 203.061 653.422L205.772 653.117L205.78 653.125Z" stroke="white" stroke-width="0.5" stroke-linecap="round" stroke-linejoin="round"/>
<path d="M168.5 272C141.759 272 120 250.241 120 223.5C120 196.759 141.759 175 168.5 175C195.241 175 217 196.759 217 223.5C217 250.241 195.241 272 168.5 272ZM168.5 176.701C142.698 176.701 121.701 197.698 121.701 223.5C121.701 249.302 142.698 270.299 168.5 270.299C194.302 270.299 215.299 249.302 215.299 223.5C215.299 197.698 194.302 176.701 168.5 176.701Z" fill="url(#paint8_linear_669_10332)"/>
<path d="M168.498 176.701C142.696 176.701 121.699 197.698 121.699 223.5C121.699 249.303 142.696 270.299 168.498 270.299C194.301 270.299 215.297 249.303 215.297 223.5C215.297 197.698 194.301 176.701 168.498 176.701Z" fill="#04060C"/>
<path d="M182.732 223.499C182.732 231.361 176.362 237.74 168.491 237.74C160.62 237.74 154.258 231.369 154.258 223.499C154.258 215.628 160.628 209.266 168.491 209.266C176.354 209.266 182.732 215.636 182.732 223.499Z" stroke="white" stroke-width="0.5" stroke-linecap="round" stroke-linejoin="round"/>
<path d="M166.066 196.431V204.518C166.066 205.858 167.15 206.949 168.497 206.949C169.845 206.949 170.928 205.858 170.928 204.518V196.431C170.928 195.091 169.845 194 168.497 194C167.15 194 166.066 195.091 166.066 196.431Z" stroke="white" stroke-width="0.5" stroke-linecap="round" stroke-linejoin="round"/>
<path d="M150.015 205.023C149.068 205.969 149.068 207.51 150.015 208.456L153.36 211.802C154.307 212.749 155.848 212.749 156.794 211.802C157.741 210.855 157.741 209.315 156.794 208.368L153.449 205.023C152.502 204.076 150.961 204.076 150.015 205.023Z" stroke="white" stroke-width="0.5" stroke-linecap="round" stroke-linejoin="round"/>
<path d="M141.431 221.07C140.091 221.07 139 222.161 139 223.501C139 224.841 140.083 225.932 141.431 225.932H149.518C150.858 225.932 151.949 224.841 151.949 223.501C151.949 222.161 150.866 221.07 149.518 221.07H141.431Z" stroke="white" stroke-width="0.5" stroke-linecap="round" stroke-linejoin="round"/>
<path d="M153.36 235.214L150.015 238.56C149.068 239.506 149.068 241.047 150.015 241.994C150.961 242.94 152.502 242.94 153.449 241.994L156.794 238.648C157.741 237.701 157.741 236.161 156.794 235.214C155.848 234.267 154.307 234.267 153.36 235.214Z" stroke="white" stroke-width="0.5" stroke-linecap="round" stroke-linejoin="round"/>
<path d="M166.066 242.486V250.581C166.066 251.921 167.15 253.012 168.497 253.012C169.845 253.012 170.928 251.921 170.928 250.581V242.486C170.928 241.146 169.845 240.055 168.497 240.055C167.15 240.055 166.066 241.146 166.066 242.486Z" stroke="white" stroke-width="0.5" stroke-linecap="round" stroke-linejoin="round"/>
<path d="M180.206 235.214C179.259 236.161 179.259 237.701 180.206 238.648L183.552 241.994C184.499 242.94 186.039 242.94 186.986 241.994C187.932 241.047 187.932 239.506 186.986 238.56L183.64 235.214C182.693 234.267 181.153 234.267 180.206 235.214Z" stroke="white" stroke-width="0.5" stroke-linecap="round" stroke-linejoin="round"/>
<path d="M187.482 221.07C186.142 221.07 185.051 222.161 185.051 223.501C185.051 224.841 186.134 225.932 187.482 225.932H195.569C196.909 225.932 198 224.841 198 223.501C198 222.161 196.917 221.07 195.569 221.07H187.482Z" stroke="white" stroke-width="0.5" stroke-linecap="round" stroke-linejoin="round"/>
<path d="M183.552 205.023L180.206 208.368C179.259 209.315 179.259 210.855 180.206 211.802C181.153 212.749 182.693 212.749 183.64 211.802L186.986 208.456C187.932 207.51 187.932 205.969 186.986 205.023C186.039 204.076 184.499 204.076 183.552 205.023Z" stroke="white" stroke-width="0.5" stroke-linecap="round" stroke-linejoin="round"/>
<path d="M168.5 859C141.759 859 120 837.466 120 811C120 784.534 141.759 763 168.5 763C195.241 763 217 784.534 217 811C217 837.466 195.241 859 168.5 859ZM168.5 764.691C142.698 764.691 121.701 785.471 121.701 811.008C121.701 836.544 142.698 857.325 168.5 857.325C194.302 857.325 215.299 836.544 215.299 811.008C215.299 785.471 194.302 764.691 168.5 764.691Z" fill="url(#paint9_linear_669_10332)"/>
<path d="M169 765C143.087 765 122 785.862 122 811.5C122 837.138 143.087 858 169 858C194.913 858 216 837.138 216 811.5C216 785.862 194.913 765 169 765Z" fill="#04060C"/>
<path d="M204.715 829.751C206.033 827.324 207.11 824.753 207.909 822.063C209.689 816.818 210 813.46 210 813.46C198.178 804.316 187.489 804.873 180.105 807.571C171.835 810.587 167.508 806.934 159.071 804.117C142.571 798.617 129 815.219 129 815.219C129.016 817.479 129.487 819.357 129.487 819.357C133.518 837.439 149.723 851 169.049 851C184.416 851 197.803 842.429 204.668 829.838C204.668 829.83 204.684 829.822 204.684 829.807C204.692 829.791 204.7 829.775 204.707 829.759L204.715 829.751Z" stroke="white" stroke-width="0.5" stroke-linecap="round" stroke-linejoin="round"/>
<path d="M171 827C173.209 827 175 825.209 175 823C175 820.791 173.209 819 171 819C168.791 819 167 820.791 167 823C167 825.209 168.791 827 171 827Z" fill="#04060C" stroke="white" stroke-width="0.5" stroke-linecap="round" stroke-linejoin="round"/>
<path d="M200 816C202.209 816 204 814.209 204 812C204 809.791 202.209 808 200 808C197.791 808 196 809.791 196 812C196 814.209 197.791 816 200 816Z" fill="#04060C" stroke="white" stroke-width="0.5" stroke-linecap="round" stroke-linejoin="round"/>
<path d="M154.5 812C156.433 812 158 810.433 158 808.5C158 806.567 156.433 805 154.5 805C152.567 805 151 806.567 151 808.5C151 810.433 152.567 812 154.5 812Z" fill="#04060C" stroke="white" stroke-width="0.5" stroke-linecap="round" stroke-linejoin="round"/>
<path d="M185 838C186.657 838 188 836.657 188 835C188 833.343 186.657 832 185 832C183.343 832 182 833.343 182 835C182 836.657 183.343 838 185 838Z" fill="#04060C" stroke="white" stroke-width="0.5" stroke-linecap="round" stroke-linejoin="round"/>
<path d="M158.5 833C159.328 833 160 832.328 160 831.5C160 830.672 159.328 830 158.5 830C157.672 830 157 830.672 157 831.5C157 832.328 157.672 833 158.5 833Z" fill="#04060C" stroke="white" stroke-width="0.5" stroke-linecap="round" stroke-linejoin="round"/>
<path d="M161.5 848C162.328 848 163 847.105 163 846C163 844.895 162.328 844 161.5 844C160.672 844 160 844.895 160 846C160 847.105 160.672 848 161.5 848Z" fill="#04060C" stroke="white" stroke-width="0.5" stroke-linecap="round" stroke-linejoin="round"/>
<path d="M180 842C181.105 842 182 841.105 182 840C182 838.895 181.105 838 180 838C178.895 838 178 838.895 178 840C178 841.105 178.895 842 180 842Z" fill="#04060C" stroke="white" stroke-width="0.5" stroke-linecap="round" stroke-linejoin="round"/>
<path d="M161 826C162.105 826 163 825.105 163 824C163 822.895 162.105 822 161 822C159.895 822 159 822.895 159 824C159 825.105 159.895 826 161 826Z" fill="#04060C" stroke="white" stroke-width="0.5" stroke-linecap="round" stroke-linejoin="round"/>
<path d="M166 812C167.105 812 168 811.105 168 810C168 808.895 167.105 808 166 808C164.895 808 164 808.895 164 810C164 811.105 164.895 812 166 812Z" fill="#04060C" stroke="white" stroke-width="0.5" stroke-linecap="round" stroke-linejoin="round"/>
<path d="M139 823C140.105 823 141 822.328 141 821.5C141 820.672 140.105 820 139 820C137.895 820 137 820.672 137 821.5C137 822.328 137.895 823 139 823Z" fill="#04060C" stroke="white" stroke-width="0.5" stroke-linecap="round" stroke-linejoin="round"/>
<path d="M155 820C156.105 820 157 819.328 157 818.5C157 817.672 156.105 817 155 817C153.895 817 153 817.672 153 818.5C153 819.328 153.895 820 155 820Z" fill="#04060C" stroke="white" stroke-width="0.5" stroke-linecap="round" stroke-linejoin="round"/>
<path d="M141 812C142.105 812 143 811.105 143 810C143 808.895 142.105 808 141 808C139.895 808 139 808.895 139 810C139 811.105 139.895 812 141 812Z" fill="#04060C" stroke="white" stroke-width="0.5" stroke-linecap="round" stroke-linejoin="round"/>
<path d="M148 832C149.657 832 151 830.657 151 829C151 827.343 149.657 826 148 826C146.343 826 145 827.343 145 829C145 830.657 146.343 832 148 832Z" fill="#04060C" stroke="white" stroke-width="0.5" stroke-linecap="round" stroke-linejoin="round"/>
<path d="M171 844C172.105 844 173 843.105 173 842C173 840.895 172.105 840 171 840C169.895 840 169 840.895 169 842C169 843.105 169.895 844 171 844Z" fill="#04060C" stroke="white" stroke-width="0.5" stroke-linecap="round" stroke-linejoin="round"/>
<path d="M187.5 818C188.328 818 189 817.105 189 816C189 814.895 188.328 814 187.5 814C186.672 814 186 814.895 186 816C186 817.105 186.672 818 187.5 818Z" fill="#04060C" stroke="white" stroke-width="0.5" stroke-linecap="round" stroke-linejoin="round"/>
<path d="M174.5 810C175.328 810 176 809.328 176 808.5C176 807.672 175.328 807 174.5 807C173.672 807 173 807.672 173 808.5C173 809.328 173.672 810 174.5 810Z" fill="#04060C" stroke="white" stroke-width="0.5" stroke-linecap="round" stroke-linejoin="round"/>
<path d="M190 829C191.657 829 193 827.657 193 826C193 824.343 191.657 823 190 823C188.343 823 187 824.343 187 826C187 827.657 188.343 829 190 829Z" fill="#04060C" stroke="white" stroke-width="0.5" stroke-linecap="round" stroke-linejoin="round"/>
<path d="M197 832C198.105 832 199 831.105 199 830C199 828.895 198.105 828 197 828C195.895 828 195 828.895 195 830C195 831.105 195.895 832 197 832Z" fill="#04060C" stroke="white" stroke-width="0.5" stroke-linecap="round" stroke-linejoin="round"/>
<defs>
<filter id="filter0_d_669_10332" x="-906.5" y="-20.5" width="1067" height="1062" filterUnits="userSpaceOnUse" color-interpolation-filters="sRGB">
<feFlood flood-opacity="0" result="BackgroundImageFix"/>
<feColorMatrix in="SourceAlpha" type="matrix" values="0 0 0 0 0 0 0 0 0 0 0 0 0 0 0 0 0 0 127 0" result="hardAlpha"/>
<feOffset dx="10"/>
<feGaussianBlur stdDeviation="15"/>
<feComposite in2="hardAlpha" operator="out"/>
<feColorMatrix type="matrix" values="0 0 0 0 0 0 0 0 0 0.957261 0 0 0 0 0.862823 0 0 0 0.8 0"/>
<feBlend mode="normal" in2="BackgroundImageFix" result="effect1_dropShadow_669_10332"/>
<feBlend mode="normal" in="SourceGraphic" in2="effect1_dropShadow_669_10332" result="shape"/>
</filter>
<linearGradient id="paint0_linear_669_10332" x1="120" y1="510.5" x2="-886" y2="510.5" gradientUnits="userSpaceOnUse">
<stop stop-color="white"/>
<stop offset="1" stop-color="white" stop-opacity="0"/>
</linearGradient>
<linearGradient id="paint1_linear_669_10332" x1="273.711" y1="476.643" x2="199.593" y2="567.345" gradientUnits="userSpaceOnUse">
<stop offset="0.06" stop-color="#04060C"/>
<stop offset="0.32" stop-color="#00F4DC"/>
<stop offset="0.55" stop-color="#DFDAE4"/>
<stop offset="0.77" stop-color="#8D41D9"/>
<stop offset="0.96" stop-color="#04060C"/>
</linearGradient>
<linearGradient id="paint2_linear_669_10332" x1="250.711" y1="326.643" x2="176.593" y2="417.345" gradientUnits="userSpaceOnUse">
<stop offset="0.06" stop-color="#04060C"/>
<stop offset="0.32" stop-color="#00F4DC"/>
<stop offset="0.55" stop-color="#DFDAE4"/>
<stop offset="0.77" stop-color="#8D41D9"/>
<stop offset="0.96" stop-color="#04060C"/>
</linearGradient>
<linearGradient id="paint3_linear_669_10332" x1="202.711" y1="769.635" x2="128.593" y2="860.337" gradientUnits="userSpaceOnUse">
<stop offset="0.06" stop-color="#04060C"/>
<stop offset="0.32" stop-color="#00F4DC"/>
<stop offset="0.55" stop-color="#DFDAE4"/>
<stop offset="0.77" stop-color="#8D41D9"/>
<stop offset="0.96" stop-color="#04060C"/>
</linearGradient>
<linearGradient id="paint4_linear_669_10332" x1="251.711" y1="628.643" x2="177.585" y2="719.345" gradientUnits="userSpaceOnUse">
<stop offset="0.06" stop-color="#04060C"/>
<stop offset="0.32" stop-color="#00F4DC"/>
<stop offset="0.55" stop-color="#DFDAE4"/>
<stop offset="0.77" stop-color="#8D41D9"/>
<stop offset="0.96" stop-color="#04060C"/>
</linearGradient>
<linearGradient id="paint5_linear_669_10332" x1="274.711" y1="476.635" x2="200.593" y2="567.337" gradientUnits="userSpaceOnUse">
<stop offset="0.06" stop-color="#04060C"/>
<stop offset="0.32" stop-color="#00F4DC"/>
<stop offset="0.55" stop-color="#DFDAE4"/>
<stop offset="0.77" stop-color="#8D41D9"/>
<stop offset="0.96" stop-color="#04060C"/>
</linearGradient>
<linearGradient id="paint6_linear_669_10332" x1="249.858" y1="326.635" x2="175.591" y2="416.583" gradientUnits="userSpaceOnUse">
<stop offset="0.06" stop-color="#04060C"/>
<stop offset="0.32" stop-color="#00F4DC"/>
<stop offset="0.55" stop-color="#DFDAE4"/>
<stop offset="0.77" stop-color="#8D41D9"/>
<stop offset="0.96" stop-color="#04060C"/>
</linearGradient>
<linearGradient id="paint7_linear_669_10332" x1="251.858" y1="627.635" x2="177.583" y2="717.583" gradientUnits="userSpaceOnUse">
<stop offset="0.06" stop-color="#04060C"/>
<stop offset="0.32" stop-color="#00F4DC"/>
<stop offset="0.55" stop-color="#DFDAE4"/>
<stop offset="0.77" stop-color="#8D41D9"/>
<stop offset="0.96" stop-color="#04060C"/>
</linearGradient>
<linearGradient id="paint8_linear_669_10332" x1="202.703" y1="181.643" x2="128.585" y2="272.345" gradientUnits="userSpaceOnUse">
<stop offset="0.06" stop-color="#04060C"/>
<stop offset="0.32" stop-color="#00F4DC"/>
<stop offset="0.55" stop-color="#DFDAE4"/>
<stop offset="0.77" stop-color="#8D41D9"/>
<stop offset="0.96" stop-color="#04060C"/>
</linearGradient>
<linearGradient id="paint9_linear_669_10332" x1="202.711" y1="769.575" x2="129.512" y2="860.085" gradientUnits="userSpaceOnUse">
<stop offset="0.06" stop-color="#04060C"/>
<stop offset="0.32" stop-color="#00F4DC"/>
<stop offset="0.55" stop-color="#DFDAE4"/>
<stop offset="0.77" stop-color="#8D41D9"/>
<stop offset="0.96" stop-color="#04060C"/>
</linearGradient>
</defs>
</svg>
